<?xml version="1.0" encoding="UTF-8" standalone="no"?><svg xmlns="http://www.w3.org/2000/svg" xmlns:xlink="http://www.w3.org/1999/xlink" clip-rule="evenodd" stroke-miterlimit="10" viewBox="0 0 170 105"><desc>SVG generated by Keynote</desc><defs></defs><g transform="matrix(1.00, 0.00, -0.00, -1.00, 0.0, 105.0)"><text xml:space="preserve" font-family="Helvetica-Bold,Helvetica" font-weight="bold" font-size="23.0" fill="#FEFB00" transform="matrix(1.00, 0.00, -0.00, -1.00, 1.1, 87.0)">.</text><text xml:space="preserve" font-family="Helvetica-Bold,Helvetica" font-weight="bold" font-size="23.0" fill="#FEFB00" transform="matrix(1.00, 0.00, -0.00, -1.00, 7.5, 87.0)">.</text><text xml:space="preserve" font-family="Helvetica-Bold,Helvetica" font-weight="bold" font-size="23.0" fill="#FEFB00" transform="matrix(1.00, 0.00, -0.00, -1.00, 13.9, 87.0)">g</text><text xml:space="preserve" font-family="Helvetica-Bold,Helvetica" font-weight="bold" font-size="23.0" fill="#FEFB00" transform="matrix(1.00, 0.00, -0.00, -1.00, 28.0, 87.0)">o</text><text xml:space="preserve" font-family="Helvetica-Bold,Helvetica" font-weight="bold" font-size="23.0" fill="#FEFB00" transform="matrix(1.00, 0.00, -0.00, -1.00, 42.0, 87.0)"> </text><text xml:space="preserve" font-family="Helvetica-Bold,Helvetica" font-weight="bold" font-size="23.0" fill="#FEFB00" transform="matrix(1.00, 0.00, -0.00, -1.00, 48.4, 87.0)">t</text><text xml:space="preserve" font-family="Helvetica-Bold,Helvetica" font-weight="bold" font-size="23.0" fill="#FEFB00" transform="matrix(1.00, 0.00, -0.00, -1.00, 56.0, 87.0)">o</text><text xml:space="preserve" font-family="Helvetica-Bold,Helvetica" font-weight="bold" font-size="23.0" fill="#FEFB00" transform="matrix(1.00, 0.00, -0.00, -1.00, 70.1, 87.0)"> </text><text xml:space="preserve" font-family="Helvetica-Bold,Helvetica" font-weight="bold" font-size="23.0" fill="#FEFB00" transform="matrix(1.00, 0.00, -0.00, -1.00, 76.5, 87.0)">o</text><text xml:space="preserve" font-family="Helvetica-Bold,Helvetica" font-weight="bold" font-size="23.0" fill="#FEFB00" transform="matrix(1.00, 0.00, -0.00, -1.00, 90.5, 87.0)">s</text><text xml:space="preserve" font-family="Helvetica-Bold,Helvetica" font-weight="bold" font-size="23.0" fill="#FEFB00" transform="matrix(1.00, 0.00, -0.00, -1.00, 103.3, 87.0)">l</text><text xml:space="preserve" font-family="Helvetica-Bold,Helvetica" font-weight="bold" font-size="23.0" fill="#FEFB00" transform="matrix(1.00, 0.00, -0.00, -1.00, 109.7, 87.0)">o</text><text xml:space="preserve" font-family="Helvetica-Bold,Helvetica" font-weight="bold" font-size="23.0" fill="#FEFB00" transform="matrix(1.00, 0.00, -0.00, -1.00, 123.7, 87.0)">,</text><text xml:space="preserve" font-family="Helvetica-Bold,Helvetica" font-weight="bold" font-size="23.0" fill="#FEFB00" transform="matrix(1.00, 0.00, -0.00, -1.00, 130.1, 87.0)"> </text><text xml:space="preserve" font-family="Helvetica-Bold,Helvetica" font-weight="bold" font-size="23.0" fill="#FEFB00" transform="matrix(1.00, 0.00, -0.00, -1.00, 1.1, 59.0)">g</text><text xml:space="preserve" font-family="Helvetica-Bold,Helvetica" font-weight="bold" font-size="23.0" fill="#FEFB00" transform="matrix(1.00, 0.00, -0.00, -1.00, 15.2, 59.0)">o</text><text xml:space="preserve" font-family="Helvetica-Bold,Helvetica" font-weight="bold" font-size="23.0" fill="#FEFB00" transform="matrix(1.00, 0.00, -0.00, -1.00, 29.2, 59.0)"> </text><text xml:space="preserve" font-family="Helvetica-Bold,Helvetica" font-weight="bold" font-size="23.0" fill="#FEFB00" transform="matrix(1.00, 0.00, -0.00, -1.00, 35.6, 59.0)">t</text><text xml:space="preserve" font-family="Helvetica-Bold,Helvetica" font-weight="bold" font-size="23.0" fill="#FEFB00" transform="matrix(1.00, 0.00, -0.00, -1.00, 43.3, 59.0)">o</text><text xml:space="preserve" font-family="Helvetica-Bold,Helvetica" font-weight="bold" font-size="23.0" fill="#FEFB00" transform="matrix(1.00, 0.00, -0.00, -1.00, 57.3, 59.0)"> </text><text xml:space="preserve" font-family="Helvetica-Bold,Helvetica" font-weight="bold" font-size="23.0" fill="#FEFB00" transform="matrix(1.00, 0.00, -0.00, -1.00, 63.7, 59.0)">o</text><text xml:space="preserve" font-family="Helvetica-Bold,Helvetica" font-weight="bold" font-size="23.0" fill="#FEFB00" transform="matrix(1.00, 0.00, -0.00, -1.00, 77.8, 59.0)">s</text><text xml:space="preserve" font-family="Helvetica-Bold,Helvetica" font-weight="bold" font-size="23.0" fill="#FEFB00" transform="matrix(1.00, 0.00, -0.00, -1.00, 90.5, 59.0)">l</text><text xml:space="preserve" font-family="Helvetica-Bold,Helvetica" font-weight="bold" font-size="23.0" fill="#FEFB00" transform="matrix(1.00, 0.00, -0.00, -1.00, 96.9, 59.0)">o</text><text xml:space="preserve" font-family="Helvetica-Bold,Helvetica" font-weight="bold" font-size="23.0" fill="#FEFB00" transform="matrix(1.00, 0.00, -0.00, -1.00, 111.0, 59.0)">,</text><text xml:space="preserve" font-family="Helvetica-Bold,Helvetica" font-weight="bold" font-size="23.0" fill="#FEFB00" transform="matrix(1.00, 0.00, -0.00, -1.00, 117.4, 59.0)"> </text><text xml:space="preserve" font-family="Helvetica-Bold,Helvetica" font-weight="bold" font-size="23.0" fill="#FEFB00" transform="matrix(1.00, 0.00, -0.00, -1.00, 1.1, 31.0)">t</text><text xml:space="preserve" font-family="Helvetica-Bold,Helvetica" font-weight="bold" font-size="23.0" fill="#FEFB00" transform="matrix(1.00, 0.00, -0.00, -1.00, 8.8, 31.0)">h</text><text xml:space="preserve" font-family="Helvetica-Bold,Helvetica" font-weight="bold" font-size="23.0" fill="#FEFB00" transform="matrix(1.00, 0.00, -0.00, -1.00, 22.8, 31.0)">e</text><text xml:space="preserve" font-family="Helvetica-Bold,Helvetica" font-weight="bold" font-size="23.0" fill="#FEFB00" transform="matrix(1.00, 0.00, -0.00, -1.00, 35.6, 31.0)">y</text><text xml:space="preserve" font-family="Helvetica-Bold,Helvetica" font-weight="bold" font-size="23.0" fill="#FEFB00" transform="matrix(1.00, 0.00, -0.00, -1.00, 48.4, 31.0)"> </text><text xml:space="preserve" font-family="Helvetica-Bold,Helvetica" font-weight="bold" font-size="23.0" fill="#FEFB00" transform="matrix(1.00, 0.00, -0.00, -1.00, 54.8, 31.0)">a</text><text xml:space="preserve" font-family="Helvetica-Bold,Helvetica" font-weight="bold" font-size="23.0" fill="#FEFB00" transform="matrix(1.00, 0.00, -0.00, -1.00, 67.6, 31.0)">r</text><text xml:space="preserve" font-family="Helvetica-Bold,Helvetica" font-weight="bold" font-size="23.0" fill="#FEFB00" transform="matrix(1.00, 0.00, -0.00, -1.00, 76.6, 31.0)">e</text><text xml:space="preserve" font-family="Helvetica-Bold,Helvetica" font-weight="bold" font-size="23.0" fill="#FEFB00" transform="matrix(1.00, 0.00, -0.00, -1.00, 89.4, 31.0)"> </text><text xml:space="preserve" font-family="Helvetica-Bold,Helvetica" font-weight="bold" font-size="23.0" fill="#FEFB00" transform="matrix(1.00, 0.00, -0.00, -1.00, 95.8, 31.0)">a</text><text xml:space="preserve" font-family="Helvetica-Bold,Helvetica" font-weight="bold" font-size="23.0" fill="#FEFB00" transform="matrix(1.00, 0.00, -0.00, -1.00, 108.6, 31.0)">l</text><text xml:space="preserve" font-family="Helvetica-Bold,Helvetica" font-weight="bold" font-size="23.0" fill="#FEFB00" transform="matrix(1.00, 0.00, -0.00, -1.00, 114.9, 31.0)">l</text><text xml:space="preserve" font-family="Helvetica-Bold,Helvetica" font-weight="bold" font-size="23.0" fill="#FEFB00" transform="matrix(1.00, 0.00, -0.00, -1.00, 121.3, 31.0)"> </text><text xml:space="preserve" font-family="Helvetica-Bold,Helvetica" font-weight="bold" font-size="23.0" fill="#FEFB00" transform="matrix(1.00, 0.00, -0.00, -1.00, 127.7, 31.0)">a</text><text xml:space="preserve" font-family="Helvetica-Bold,Helvetica" font-weight="bold" font-size="23.0" fill="#FEFB00" transform="matrix(1.00, 0.00, -0.00, -1.00, 140.5, 31.0)">t</text><text xml:space="preserve" font-family="Helvetica-Bold,Helvetica" font-weight="bold" font-size="23.0" fill="#FEFB00" transform="matrix(1.00, 0.00, -0.00, -1.00, 148.2, 31.0)"> </text><text xml:space="preserve" font-family="Helvetica-Bold,Helvetica" font-weight="bold" font-size="23.0" fill="#FEFB00" transform="matrix(1.00, 0.00, -0.00, -1.00, 1.1, 3.0)">l</text><text xml:space="preserve" font-family="Helvetica-Bold,Helvetica" font-weight="bold" font-size="23.0" fill="#FEFB00" transform="matrix(1.00, 0.00, -0.00, -1.00, 7.5, 3.0)">i</text><text xml:space="preserve" font-family="Helvetica-Bold,Helvetica" font-weight="bold" font-size="23.0" fill="#FEFB00" transform="matrix(1.00, 0.00, -0.00, -1.00, 13.9, 3.0)">t</text><text xml:space="preserve" font-family="Helvetica-Bold,Helvetica" font-weight="bold" font-size="23.0" fill="#FEFB00" transform="matrix(1.00, 0.00, -0.00, -1.00, 21.6, 3.0)">t</text><text xml:space="preserve" font-family="Helvetica-Bold,Helvetica" font-weight="bold" font-size="23.0" fill="#FEFB00" transform="matrix(1.00, 0.00, -0.00, -1.00, 29.2, 3.0)">e</text><text xml:space="preserve" font-family="Helvetica-Bold,Helvetica" font-weight="bold" font-size="23.0" fill="#FEFB00" transform="matrix(1.00, 0.00, -0.00, -1.00, 42.0, 3.0)">r</text><text xml:space="preserve" font-family="Helvetica-Bold,Helvetica" font-weight="bold" font-size="23.0" fill="#FEFB00" transform="matrix(1.00, 0.00, -0.00, -1.00, 51.0, 3.0)">a</text><text xml:space="preserve" font-family="Helvetica-Bold,Helvetica" font-weight="bold" font-size="23.0" fill="#FEFB00" transform="matrix(1.00, 0.00, -0.00, -1.00, 63.8, 3.0)">t</text><text xml:space="preserve" font-family="Helvetica-Bold,Helvetica" font-weight="bold" font-size="23.0" fill="#FEFB00" transform="matrix(1.00, 0.00, -0.00, -1.00, 71.4, 3.0)">u</text><text xml:space="preserve" font-family="Helvetica-Bold,Helvetica" font-weight="bold" font-size="23.0" fill="#FEFB00" transform="matrix(1.00, 0.00, -0.00, -1.00, 85.5, 3.0)">r</text><text xml:space="preserve" font-family="Helvetica-Bold,Helvetica" font-weight="bold" font-size="23.0" fill="#FEFB00" transform="matrix(1.00, 0.00, -0.00, -1.00, 94.4, 3.0)">h</text><text xml:space="preserve" font-family="Helvetica-Bold,Helvetica" font-weight="bold" font-size="23.0" fill="#FEFB00" transform="matrix(1.00, 0.00, -0.00, -1.00, 108.5, 3.0)">u</text><text xml:space="preserve" font-family="Helvetica-Bold,Helvetica" font-weight="bold" font-size="23.0" fill="#FEFB00" transform="matrix(1.00, 0.00, -0.00, -1.00, 122.5, 3.0)">s</text><text xml:space="preserve" font-family="Helvetica-Bold,Helvetica" font-weight="bold" font-size="23.0" fill="#FEFB00" transform="matrix(1.00, 0.00, -0.00, -1.00, 135.3, 3.0)">e</text><text xml:space="preserve" font-family="Helvetica-Bold,Helvetica" font-weight="bold" font-size="23.0" fill="#FEFB00" transform="matrix(1.00, 0.00, -0.00, -1.00, 148.1, 3.0)">t</text><text xml:space="preserve" font-family="Helvetica-Bold,Helvetica" font-weight="bold" font-size="23.0" fill="#FEFB00" transform="matrix(1.00, 0.00, -0.00, -1.00, 155.8, 3.0)">.</text><text xml:space="preserve" font-family="Helvetica-Bold,Helvetica" font-weight="bold" font-size="23.0" fill="#FEFB00" transform="matrix(1.00, 0.00, -0.00, -1.00, 162.2, 3.0)">.</text></g></svg>