<?xml version="1.0" encoding="UTF-8" standalone="no"?><svg xmlns="http://www.w3.org/2000/svg" xmlns:xlink="http://www.w3.org/1999/xlink" clip-rule="evenodd" stroke-miterlimit="10" viewBox="0 0 1024 768"><desc>SVG generated by Keynote</desc><defs></defs><g transform="matrix(1.00, 0.00, -0.00, -1.00, 0.0, 768.0)"><path d="M 0.0 768.0 L 1024.0 768.0 L 1024.0 0.0 L 0.0 0.0 Z M 0.0 768.0 " fill="#000000"></path><text xml:space="preserve" font-family="Helvetica-LightOblique,Helvetica" font-style="italic" font-size="67.2" fill="#FEFFFF" transform="matrix(1.00, 0.00, -0.00, -1.00, 166.0, 399.5)">…</text><text xml:space="preserve" font-family="Helvetica-LightOblique,Helvetica" font-style="italic" font-size="67.2" fill="#FEFFFF" transform="matrix(1.00, 0.00, -0.00, -1.00, 233.2, 399.5)">m</text><text xml:space="preserve" font-family="Helvetica-LightOblique,Helvetica" font-style="italic" font-size="67.2" fill="#FEFFFF" transform="matrix(1.00, 0.00, -0.00, -1.00, 289.2, 399.5)">o</text><text xml:space="preserve" font-family="Helvetica-LightOblique,Helvetica" font-style="italic" font-size="67.2" fill="#FEFFFF" transform="matrix(1.00, 0.00, -0.00, -1.00, 326.5, 399.5)">r</text><text xml:space="preserve" font-family="Helvetica-LightOblique,Helvetica" font-style="italic" font-size="67.2" fill="#FEFFFF" transform="matrix(1.00, 0.00, -0.00, -1.00, 347.7, 399.5)">e</text><text xml:space="preserve" font-family="Helvetica-LightOblique,Helvetica" font-style="italic" font-size="67.2" fill="#FEFFFF" transform="matrix(1.00, 0.00, -0.00, -1.00, 385.1, 399.5)"> </text><text xml:space="preserve" font-family="Helvetica-LightOblique,Helvetica" font-style="italic" font-size="67.2" fill="#FEFFFF" transform="matrix(1.00, 0.00, -0.00, -1.00, 403.7, 399.5)">w</text><text xml:space="preserve" font-family="Helvetica-LightOblique,Helvetica" font-style="italic" font-size="67.2" fill="#FEFFFF" transform="matrix(1.00, 0.00, -0.00, -1.00, 452.3, 399.5)">o</text><text xml:space="preserve" font-family="Helvetica-LightOblique,Helvetica" font-style="italic" font-size="67.2" fill="#FEFFFF" transform="matrix(1.00, 0.00, -0.00, -1.00, 489.6, 399.5)">r</text><text xml:space="preserve" font-family="Helvetica-LightOblique,Helvetica" font-style="italic" font-size="67.2" fill="#FEFFFF" transform="matrix(1.00, 0.00, -0.00, -1.00, 510.8, 399.5)">d</text><text xml:space="preserve" font-family="Helvetica-LightOblique,Helvetica" font-style="italic" font-size="67.2" fill="#FEFFFF" transform="matrix(1.00, 0.00, -0.00, -1.00, 551.8, 399.5)">s</text><text xml:space="preserve" font-family="Helvetica-LightOblique,Helvetica" font-style="italic" font-size="67.2" fill="#FEFFFF" transform="matrix(1.00, 0.00, -0.00, -1.00, 585.4, 399.5)"> </text><text xml:space="preserve" font-family="Helvetica-LightOblique,Helvetica" font-style="italic" font-size="67.2" fill="#FEFFFF" transform="matrix(1.00, 0.00, -0.00, -1.00, 604.1, 399.5)">i</text><text xml:space="preserve" font-family="Helvetica-LightOblique,Helvetica" font-style="italic" font-size="67.2" fill="#FEFFFF" transform="matrix(1.00, 0.00, -0.00, -1.00, 619.0, 399.5)">n</text><text xml:space="preserve" font-family="Helvetica-LightOblique,Helvetica" font-style="italic" font-size="67.2" fill="#FEFFFF" transform="matrix(1.00, 0.00, -0.00, -1.00, 656.4, 399.5)"> </text><text xml:space="preserve" font-family="Helvetica-LightOblique,Helvetica" font-style="italic" font-size="67.2" fill="#FEFFFF" transform="matrix(1.00, 0.00, -0.00, -1.00, 675.1, 399.5)">d</text><text xml:space="preserve" font-family="Helvetica-LightOblique,Helvetica" font-style="italic" font-size="67.2" fill="#FEFFFF" transform="matrix(1.00, 0.00, -0.00, -1.00, 716.2, 399.5)">i</text><text xml:space="preserve" font-family="Helvetica-LightOblique,Helvetica" font-style="italic" font-size="67.2" fill="#FEFFFF" transform="matrix(1.00, 0.00, -0.00, -1.00, 731.1, 399.5)">g</text><text xml:space="preserve" font-family="Helvetica-LightOblique,Helvetica" font-style="italic" font-size="67.2" fill="#FEFFFF" transform="matrix(1.00, 0.00, -0.00, -1.00, 772.1, 399.5)">i</text><text xml:space="preserve" font-family="Helvetica-LightOblique,Helvetica" font-style="italic" font-size="67.2" fill="#FEFFFF" transform="matrix(1.00, 0.00, -0.00, -1.00, 787.0, 399.5)">t</text><text xml:space="preserve" font-family="Helvetica-LightOblique,Helvetica" font-style="italic" font-size="67.2" fill="#FEFFFF" transform="matrix(1.00, 0.00, -0.00, -1.00, 805.7, 399.5)">a</text><text xml:space="preserve" font-family="Helvetica-LightOblique,Helvetica" font-style="italic" font-size="67.2" fill="#FEFFFF" transform="matrix(1.00, 0.00, -0.00, -1.00, 843.1, 399.5)">l</text><text xml:space="preserve" font-family="Helvetica-LightOblique,Helvetica" font-style="italic" font-size="67.2" fill="#FEFFFF" transform="matrix(1.00, 0.00, -0.00, -1.00, 858.0, 399.5)"> </text><text xml:space="preserve" font-family="Helvetica-LightOblique,Helvetica" font-style="italic" font-size="67.2" fill="#FEFFFF" transform="matrix(1.00, 0.00, -0.00, -1.00, 289.8, 319.5)">m</text><text xml:space="preserve" font-family="Helvetica-LightOblique,Helvetica" font-style="italic" font-size="67.2" fill="#FEFFFF" transform="matrix(1.00, 0.00, -0.00, -1.00, 345.8, 319.5)">e</text><text xml:space="preserve" font-family="Helvetica-LightOblique,Helvetica" font-style="italic" font-size="67.2" fill="#FEFFFF" transform="matrix(1.00, 0.00, -0.00, -1.00, 383.1, 319.5)">s</text><text xml:space="preserve" font-family="Helvetica-LightOblique,Helvetica" font-style="italic" font-size="67.2" fill="#FEFFFF" transform="matrix(1.00, 0.00, -0.00, -1.00, 416.7, 319.5)">s</text><text xml:space="preserve" font-family="Helvetica-LightOblique,Helvetica" font-style="italic" font-size="67.2" fill="#FEFFFF" transform="matrix(1.00, 0.00, -0.00, -1.00, 450.3, 319.5)">a</text><text xml:space="preserve" font-family="Helvetica-LightOblique,Helvetica" font-style="italic" font-size="67.2" fill="#FEFFFF" transform="matrix(1.00, 0.00, -0.00, -1.00, 487.7, 319.5)">g</text><text xml:space="preserve" font-family="Helvetica-LightOblique,Helvetica" font-style="italic" font-size="67.2" fill="#FEFFFF" transform="matrix(1.00, 0.00, -0.00, -1.00, 528.8, 319.5)">e</text><text xml:space="preserve" font-family="Helvetica-LightOblique,Helvetica" font-style="italic" font-size="67.2" fill="#FEFFFF" transform="matrix(1.00, 0.00, -0.00, -1.00, 566.1, 319.5)">s</text><text xml:space="preserve" font-family="Helvetica-LightOblique,Helvetica" font-style="italic" font-size="67.2" fill="#FEFFFF" transform="matrix(1.00, 0.00, -0.00, -1.00, 599.7, 319.5)"> </text><text xml:space="preserve" font-family="Helvetica-LightOblique,Helvetica" font-style="italic" font-size="67.2" fill="#FEFFFF" transform="matrix(1.00, 0.00, -0.00, -1.00, 618.4, 319.5)">t</text><text xml:space="preserve" font-family="Helvetica-LightOblique,Helvetica" font-style="italic" font-size="67.2" fill="#FEFFFF" transform="matrix(1.00, 0.00, -0.00, -1.00, 637.1, 319.5)">o</text><text xml:space="preserve" font-family="Helvetica-LightOblique,Helvetica" font-style="italic" font-size="67.2" fill="#FEFFFF" transform="matrix(1.00, 0.00, -0.00, -1.00, 674.5, 319.5)">o</text><text xml:space="preserve" font-family="Helvetica-LightOblique,Helvetica" font-style="italic" font-size="67.2" fill="#FEFFFF" transform="matrix(1.00, 0.00, -0.00, -1.00, 711.8, 319.5)">!</text></g></svg>