<?xml version="1.0" encoding="UTF-8" standalone="no"?><svg xmlns="http://www.w3.org/2000/svg" xmlns:xlink="http://www.w3.org/1999/xlink" clip-rule="evenodd" stroke-miterlimit="10" viewBox="0 0 488 121"><desc>SVG generated by Keynote</desc><defs></defs><g transform="matrix(1.00, 0.00, -0.00, -1.00, 0.0, 121.0)"><g><clipPath id="clip0x6000018b2960"><path d="M 308.6 -3.0 L 491.6 -3.0 L 491.6 58.0 L 308.6 58.0 Z M 308.6 -3.0 "></path></clipPath><g clip-path="url(#clip0x6000018b2960)"><text xml:space="preserve" font-family="Helvetica-Bold,Helvetica" font-weight="bold" font-size="36.0" fill="#FEFFFF" transform="matrix(1.00, 0.00, -0.00, -1.00, 323.1, 14.2)">[</text><text xml:space="preserve" font-family="Helvetica-Bold,Helvetica" font-weight="bold" font-size="36.0" fill="#0432FF" transform="matrix(1.00, 0.00, -0.00, -1.00, 335.1, 14.2)">_</text><text xml:space="preserve" font-family="Helvetica-Bold,Helvetica" font-weight="bold" font-size="36.0" fill="#FF2600" transform="matrix(1.00, 0.00, -0.00, -1.00, 355.1, 14.2)">-</text><text xml:space="preserve" font-family="Helvetica-Bold,Helvetica" font-weight="bold" font-size="36.0" fill="#FF2600" transform="matrix(1.00, 0.00, -0.00, -1.00, 367.1, 14.2)">-</text><text xml:space="preserve" font-family="Helvetica-Bold,Helvetica" font-weight="bold" font-size="36.0" fill="#0432FF" transform="matrix(1.00, 0.00, -0.00, -1.00, 379.1, 14.2)">-</text><text xml:space="preserve" font-family="Helvetica-Bold,Helvetica" font-weight="bold" font-size="36.0" fill="#0432FF" transform="matrix(1.00, 0.00, -0.00, -1.00, 391.0, 14.2)">-</text><text xml:space="preserve" font-family="Helvetica-Bold,Helvetica" font-weight="bold" font-size="36.0" fill="#0432FF" transform="matrix(1.00, 0.00, -0.00, -1.00, 403.0, 14.2)">_</text><text xml:space="preserve" font-family="Helvetica-Bold,Helvetica" font-weight="bold" font-size="36.0" fill="#0432FF" transform="matrix(1.00, 0.00, -0.00, -1.00, 423.1, 14.2)"> </text><text xml:space="preserve" font-family="Helvetica-Bold,Helvetica" font-weight="bold" font-size="36.0" fill="#0432FF" transform="matrix(1.00, 0.00, -0.00, -1.00, 433.1, 14.2)">_</text><text xml:space="preserve" font-family="Helvetica-Bold,Helvetica" font-weight="bold" font-size="36.0" fill="#0432FF" transform="matrix(1.00, 0.00, -0.00, -1.00, 453.1, 14.2)">-</text><text xml:space="preserve" font-family="Helvetica-Bold,Helvetica" font-weight="bold" font-size="36.0" fill="#FEFFFF" transform="matrix(1.00, 0.00, -0.00, -1.00, 465.1, 14.2)">]</text><text xml:space="preserve" font-family="Helvetica-Bold,Helvetica" font-weight="bold" font-size="36.0" fill="#FEFFFF" transform="matrix(1.00, 0.00, -0.00, -1.00, 477.1, 14.2)"> </text></g></g><g><clipPath id="clip0x6000018b35c0"><path d="M -3.2 63.1 L 485.9 63.1 L 485.9 124.1 L -3.2 124.1 Z M -3.2 63.1 "></path></clipPath><g clip-path="url(#clip0x6000018b35c0)"><text xml:space="preserve" font-family="Helvetica-Bold,Helvetica" font-weight="bold" font-size="36.0" fill="#0432FF" transform="matrix(1.00, 0.00, -0.00, -1.00, 6.3, 80.3)">t</text><text xml:space="preserve" font-family="Helvetica-Bold,Helvetica" font-weight="bold" font-size="36.0" fill="#0432FF" transform="matrix(1.00, 0.00, -0.00, -1.00, 18.3, 80.3)">h</text><text xml:space="preserve" font-family="Helvetica-Bold,Helvetica" font-weight="bold" font-size="36.0" fill="#0432FF" transform="matrix(1.00, 0.00, -0.00, -1.00, 40.2, 80.3)">e</text><text xml:space="preserve" font-family="Helvetica-Bold,Helvetica" font-weight="bold" font-size="36.0" fill="#FEFFFF" transform="matrix(1.00, 0.00, -0.00, -1.00, 60.3, 80.3)"> </text><text xml:space="preserve" font-family="Helvetica-Bold,Helvetica" font-weight="bold" font-size="36.0" fill="#FF2600" transform="matrix(1.00, 0.00, -0.00, -1.00, 70.3, 80.3)">l</text><text xml:space="preserve" font-family="Helvetica-Bold,Helvetica" font-weight="bold" font-size="36.0" fill="#FF2600" transform="matrix(1.00, 0.00, -0.00, -1.00, 80.3, 80.3)">i</text><text xml:space="preserve" font-family="Helvetica-Bold,Helvetica" font-weight="bold" font-size="36.0" fill="#FF2600" transform="matrix(1.00, 0.00, -0.00, -1.00, 90.3, 80.3)">o</text><text xml:space="preserve" font-family="Helvetica-Bold,Helvetica" font-weight="bold" font-size="36.0" fill="#FF2600" transform="matrix(1.00, 0.00, -0.00, -1.00, 112.3, 80.3)">n</text><text xml:space="preserve" font-family="Helvetica-Bold,Helvetica" font-weight="bold" font-size="36.0" fill="#FEFFFF" transform="matrix(1.00, 0.00, -0.00, -1.00, 134.3, 80.3)"> </text><text xml:space="preserve" font-family="Helvetica-Bold,Helvetica" font-weight="bold" font-size="36.0" fill="#0432FF" transform="matrix(1.00, 0.00, -0.00, -1.00, 144.3, 80.3)">m</text><text xml:space="preserve" font-family="Helvetica-Bold,Helvetica" font-weight="bold" font-size="36.0" fill="#0432FF" transform="matrix(1.00, 0.00, -0.00, -1.00, 176.3, 80.3)">a</text><text xml:space="preserve" font-family="Helvetica-Bold,Helvetica" font-weight="bold" font-size="36.0" fill="#0432FF" transform="matrix(1.00, 0.00, -0.00, -1.00, 196.3, 80.3)">k</text><text xml:space="preserve" font-family="Helvetica-Bold,Helvetica" font-weight="bold" font-size="36.0" fill="#0432FF" transform="matrix(1.00, 0.00, -0.00, -1.00, 216.3, 80.3)">e</text><text xml:space="preserve" font-family="Helvetica-Bold,Helvetica" font-weight="bold" font-size="36.0" fill="#0432FF" transform="matrix(1.00, 0.00, -0.00, -1.00, 236.4, 80.3)">s</text><text xml:space="preserve" font-family="Helvetica-Bold,Helvetica" font-weight="bold" font-size="36.0" fill="#0432FF" transform="matrix(1.00, 0.00, -0.00, -1.00, 256.4, 80.3)"> </text><text xml:space="preserve" font-family="Helvetica-Bold,Helvetica" font-weight="bold" font-size="36.0" fill="#0432FF" transform="matrix(1.00, 0.00, -0.00, -1.00, 266.4, 80.3)">a</text><text xml:space="preserve" font-family="Helvetica-Bold,Helvetica" font-weight="bold" font-size="36.0" fill="#0432FF" transform="matrix(1.00, 0.00, -0.00, -1.00, 286.4, 80.3)"> </text><text xml:space="preserve" font-family="Helvetica-Bold,Helvetica" font-weight="bold" font-size="36.0" fill="#0432FF" transform="matrix(1.00, 0.00, -0.00, -1.00, 296.4, 80.3)">f</text><text xml:space="preserve" font-family="Helvetica-Bold,Helvetica" font-weight="bold" font-size="36.0" fill="#0432FF" transform="matrix(1.00, 0.00, -0.00, -1.00, 308.4, 80.3)">u</text><text xml:space="preserve" font-family="Helvetica-Bold,Helvetica" font-weight="bold" font-size="36.0" fill="#0432FF" transform="matrix(1.00, 0.00, -0.00, -1.00, 330.4, 80.3)">n</text><text xml:space="preserve" font-family="Helvetica-Bold,Helvetica" font-weight="bold" font-size="36.0" fill="#0432FF" transform="matrix(1.00, 0.00, -0.00, -1.00, 352.4, 80.3)">k</text><text xml:space="preserve" font-family="Helvetica-Bold,Helvetica" font-weight="bold" font-size="36.0" fill="#0432FF" transform="matrix(1.00, 0.00, -0.00, -1.00, 372.4, 80.3)">y</text><text xml:space="preserve" font-family="Helvetica-Bold,Helvetica" font-weight="bold" font-size="36.0" fill="#0432FF" transform="matrix(1.00, 0.00, -0.00, -1.00, 392.4, 80.3)"> </text><text xml:space="preserve" font-family="Helvetica-Bold,Helvetica" font-weight="bold" font-size="36.0" fill="#0432FF" transform="matrix(1.00, 0.00, -0.00, -1.00, 402.4, 80.3)">k</text><text xml:space="preserve" font-family="Helvetica-Bold,Helvetica" font-weight="bold" font-size="36.0" fill="#0432FF" transform="matrix(1.00, 0.00, -0.00, -1.00, 422.5, 80.3)">i</text><text xml:space="preserve" font-family="Helvetica-Bold,Helvetica" font-weight="bold" font-size="36.0" fill="#0432FF" transform="matrix(1.00, 0.00, -0.00, -1.00, 432.4, 80.3)">n</text><text xml:space="preserve" font-family="Helvetica-Bold,Helvetica" font-weight="bold" font-size="36.0" fill="#0432FF" transform="matrix(1.00, 0.00, -0.00, -1.00, 454.4, 80.3)">g</text></g></g><g><clipPath id="clip0x6000018b42e0"><path d="M 211.6 -3.0 L 308.6 -3.0 L 308.6 58.0 L 211.6 58.0 Z M 211.6 -3.0 "></path></clipPath><g clip-path="url(#clip0x6000018b42e0)"><text xml:space="preserve" font-family="Helvetica-Light,Helvetica" font-size="36.0" fill="#FEFFFF" transform="matrix(1.00, 0.00, -0.00, -1.00, 221.1, 14.2)">s</text><text xml:space="preserve" font-family="Helvetica-Light,Helvetica" font-size="36.0" fill="#FEFFFF" transform="matrix(1.00, 0.00, -0.00, -1.00, 239.1, 14.2)">e</text><text xml:space="preserve" font-family="Helvetica-Light,Helvetica" font-size="36.0" fill="#FEFFFF" transform="matrix(1.00, 0.00, -0.00, -1.00, 259.1, 14.2)">n</text><text xml:space="preserve" font-family="Helvetica-Light,Helvetica" font-size="36.0" fill="#FEFFFF" transform="matrix(1.00, 0.00, -0.00, -1.00, 279.1, 14.2)">t</text><text xml:space="preserve" font-family="Helvetica-Light,Helvetica" font-size="36.0" fill="#FEFFFF" transform="matrix(1.00, 0.00, -0.00, -1.00, 289.1, 14.2)">:</text></g></g></g></svg>