<?xml version="1.0" encoding="UTF-8" standalone="no"?><svg xmlns="http://www.w3.org/2000/svg" xmlns:xlink="http://www.w3.org/1999/xlink" clip-rule="evenodd" stroke-miterlimit="10" viewBox="0 0 626 215"><desc>SVG generated by Keynote</desc><defs></defs><g transform="matrix(1.00, 0.00, -0.00, -1.00, 0.0, 215.0)"><g><clipPath id="clip0x6080018a95a0"><path d="M 132.8 2.4 L 493.7 2.4 L 493.7 214.5 L 132.8 214.5 Z M 132.8 2.4 "></path></clipPath><g clip-path="url(#clip0x6080018a95a0)"><path d="M 134.0 213.0 L 493.0 213.0 L 493.0 3.0 L 134.0 3.0 Z M 133.8 213.5 " fill="#D9DBDC"></path></g></g><g><clipPath id="clip0x6080018a9960"><path d="M 0.9 51.7 L 54.8 51.7 L 54.8 165.1 L 0.9 165.1 Z M 0.9 51.7 "></path></clipPath><g clip-path="url(#clip0x6080018a9960)"><image xlink:href="../../506C8AE1-1F91-43D2-89C3-836E4564E03E/assets/B3ADB22186AA212D918BC8EA90C971B3.png" width="758.00" height="1595.00" transform="matrix(0.07, 0.00, -0.00, -0.07, 0.9, 165.1)"></image></g></g><g><clipPath id="clip0x6080018a9a80"><path d="M 571.7 51.7 L 625.6 51.7 L 625.6 165.1 L 571.7 165.1 Z M 571.7 51.7 "></path></clipPath><g clip-path="url(#clip0x6080018a9a80)"><image xlink:href="../../506C8AE1-1F91-43D2-89C3-836E4564E03E/assets/B3ADB22186AA212D918BC8EA90C971B3.png" width="758.00" height="1595.00" transform="matrix(0.07, 0.00, -0.00, -0.07, 571.7, 165.1)"></image></g></g><g><clipPath id="clip0x6080018a9c60"><path d="M 142.0 158.0 L 234.0 158.0 L 234.0 36.0 L 142.0 36.0 Z M 142.1 158.5 "></path></clipPath><g clip-path="url(#clip0x6080018a9c60)"><g><clipPath id="clip0x6080018a9fc0"><path d="M 142.1 35.5 L 234.3 35.5 L 234.3 158.5 L 142.1 158.5 Z M 142.1 35.5 "></path></clipPath><g clip-path="url(#clip0x6080018a9fc0)"><image xlink:href="../../506C8AE1-1F91-43D2-89C3-836E4564E03E/assets/7811975A770B1FA73F785B8D89042B64.png" width="1200.00" height="1600.00" transform="matrix(0.08, 0.00, -0.00, -0.08, 142.1, 158.5)"></image></g></g></g></g><g><clipPath id="clip0x6080018aa020"><path d="M 393.0 158.0 L 486.0 158.0 L 486.0 36.0 L 393.0 36.0 Z M 393.4 158.5 "></path></clipPath><g clip-path="url(#clip0x6080018aa020)"><g><clipPath id="clip0x6080018aa380"><path d="M 393.4 35.5 L 485.6 35.5 L 485.6 158.5 L 393.4 158.5 Z M 393.4 35.5 "></path></clipPath><g clip-path="url(#clip0x6080018aa380)"><image xlink:href="../../506C8AE1-1F91-43D2-89C3-836E4564E03E/assets/7811975A770B1FA73F785B8D89042B64.png" width="1200.00" height="1600.00" transform="matrix(0.08, 0.00, -0.00, -0.08, 393.4, 158.5)"></image></g></g></g></g><g><clipPath id="clip0x6080018aa3e0"><path d="M 284.3 4.7 L 353.0 4.7 L 353.0 96.4 L 284.3 96.4 Z M 284.3 4.7 "></path></clipPath><g clip-path="url(#clip0x6080018aa3e0)"><image xlink:href="../../506C8AE1-1F91-43D2-89C3-836E4564E03E/assets/7811975A770B1FA73F785B8D89042B64.png" width="1200.00" height="1600.00" transform="matrix(0.06, 0.00, -0.00, -0.06, 284.3, 96.4)"></image></g></g><g><clipPath id="clip0x6000018afe40"><path d="M 284.3 118.0 L 352.4 118.0 L 352.4 208.9 L 284.3 208.9 Z M 284.3 118.0 "></path></clipPath><g clip-path="url(#clip0x6000018afe40)"><image xlink:href="../../506C8AE1-1F91-43D2-89C3-836E4564E03E/assets/7811975A770B1FA73F785B8D89042B64.png" width="1200.00" height="1600.00" transform="matrix(0.06, 0.00, -0.00, -0.06, 284.3, 208.9)"></image></g></g><g><clipPath id="clip0x6080018aa680"><path d="M 132.6 0.2 L 187.3 0.2 L 187.3 35.7 L 132.6 35.7 Z M 132.6 0.2 "></path></clipPath><g clip-path="url(#clip0x6080018aa680)"><text xml:space="preserve" font-family="Helvetica-Bold,Helvetica" font-weight="bold" font-size="21.0" fill="#000000" transform="matrix(1.00, 0.00, -0.00, -1.00, 138.3, 10.3)">o</text><text xml:space="preserve" font-family="Helvetica-Bold,Helvetica" font-weight="bold" font-size="21.0" fill="#000000" transform="matrix(1.00, 0.00, -0.00, -1.00, 151.2, 10.3)">s</text><text xml:space="preserve" font-family="Helvetica-Bold,Helvetica" font-weight="bold" font-size="21.0" fill="#000000" transform="matrix(1.00, 0.00, -0.00, -1.00, 162.8, 10.3)">l</text><text xml:space="preserve" font-family="Helvetica-Bold,Helvetica" font-weight="bold" font-size="21.0" fill="#000000" transform="matrix(1.00, 0.00, -0.00, -1.00, 168.7, 10.3)">o</text></g></g><g><clipPath id="clip0x6080018aab60"><path d="M 413.6 1.0 L 492.4 1.0 L 492.4 35.0 L 413.6 35.0 Z M 413.6 1.0 "></path></clipPath><g clip-path="url(#clip0x6080018aab60)"><text xml:space="preserve" font-family="Helvetica-Bold,Helvetica" font-weight="bold" font-size="20.0" fill="#000000" transform="matrix(1.00, 0.00, -0.00, -1.00, 419.1, 10.6)">t</text><text xml:space="preserve" font-family="Helvetica-Bold,Helvetica" font-weight="bold" font-size="20.0" fill="#000000" transform="matrix(1.00, 0.00, -0.00, -1.00, 425.7, 10.6)">r</text><text xml:space="preserve" font-family="Helvetica-Bold,Helvetica" font-weight="bold" font-size="20.0" fill="#000000" transform="matrix(1.00, 0.00, -0.00, -1.00, 433.5, 10.6)">o</text><text xml:space="preserve" font-family="Helvetica-Bold,Helvetica" font-weight="bold" font-size="20.0" fill="#000000" transform="matrix(1.00, 0.00, -0.00, -1.00, 445.7, 10.6)">m</text><text xml:space="preserve" font-family="Helvetica-Bold,Helvetica" font-weight="bold" font-size="20.0" fill="#000000" transform="matrix(1.00, 0.00, -0.00, -1.00, 463.5, 10.6)">s</text><text xml:space="preserve" font-family="Helvetica-Bold,Helvetica" font-weight="bold" font-size="20.0" fill="#000000" transform="matrix(1.00, 0.00, -0.00, -1.00, 474.7, 10.6)">ø</text></g></g></g></svg>