<?xml version="1.0" encoding="UTF-8" standalone="no"?><svg xmlns="http://www.w3.org/2000/svg" xmlns:xlink="http://www.w3.org/1999/xlink" clip-rule="evenodd" stroke-miterlimit="10" viewBox="0 0 189 114"><desc>SVG generated by Keynote</desc><defs></defs><g transform="matrix(1.00, 0.00, -0.00, -1.00, 0.0, 114.0)"><g><clipPath id="clip0x6000018b13a0"><path d="M -2.4 65.1 L 190.6 65.1 L 190.6 116.1 L -2.4 116.1 Z M -2.4 65.1 "></path></clipPath><g clip-path="url(#clip0x6000018b13a0)"><text xml:space="preserve" font-family="Helvetica-Bold,Helvetica" font-weight="bold" font-size="30.0" fill="#FF9200" transform="matrix(1.00, 0.00, -0.00, -1.00, 5.6, 79.5)">[</text><text xml:space="preserve" font-family="Helvetica-Bold,Helvetica" font-weight="bold" font-size="30.0" fill="#FF9200" transform="matrix(1.00, 0.00, -0.00, -1.00, 15.6, 79.5)">1</text><text xml:space="preserve" font-family="Helvetica-Bold,Helvetica" font-weight="bold" font-size="30.0" fill="#FF9200" transform="matrix(1.00, 0.00, -0.00, -1.00, 30.7, 79.5)">1</text><text xml:space="preserve" font-family="Helvetica-Bold,Helvetica" font-weight="bold" font-size="30.0" fill="#FF9200" transform="matrix(1.00, 0.00, -0.00, -1.00, 45.7, 79.5)">1</text><text xml:space="preserve" font-family="Helvetica-Bold,Helvetica" font-weight="bold" font-size="30.0" fill="#FF9200" transform="matrix(1.00, 0.00, -0.00, -1.00, 62.4, 79.5)"> </text><text xml:space="preserve" font-family="Helvetica-Bold,Helvetica" font-weight="bold" font-size="30.0" fill="#FF9200" transform="matrix(1.00, 0.00, -0.00, -1.00, 70.8, 79.5)">1</text><text xml:space="preserve" font-family="Helvetica-Bold,Helvetica" font-weight="bold" font-size="30.0" fill="#FF9200" transform="matrix(1.00, 0.00, -0.00, -1.00, 85.8, 79.5)">1</text><text xml:space="preserve" font-family="Helvetica-Bold,Helvetica" font-weight="bold" font-size="30.0" fill="#FF9200" transform="matrix(1.00, 0.00, -0.00, -1.00, 100.9, 79.5)">1</text><text xml:space="preserve" font-family="Helvetica-Bold,Helvetica" font-weight="bold" font-size="30.0" fill="#FF9200" transform="matrix(1.00, 0.00, -0.00, -1.00, 117.5, 79.5)"> </text><text xml:space="preserve" font-family="Helvetica-Bold,Helvetica" font-weight="bold" font-size="30.0" fill="#FF9200" transform="matrix(1.00, 0.00, -0.00, -1.00, 125.9, 79.5)">1</text><text xml:space="preserve" font-family="Helvetica-Bold,Helvetica" font-weight="bold" font-size="30.0" fill="#FF9200" transform="matrix(1.00, 0.00, -0.00, -1.00, 140.9, 79.5)">1</text><text xml:space="preserve" font-family="Helvetica-Bold,Helvetica" font-weight="bold" font-size="30.0" fill="#FF9200" transform="matrix(1.00, 0.00, -0.00, -1.00, 156.0, 79.5)">1</text><text xml:space="preserve" font-family="Helvetica-Bold,Helvetica" font-weight="bold" font-size="30.0" fill="#FF9200" transform="matrix(1.00, 0.00, -0.00, -1.00, 172.7, 79.5)">]</text></g></g><g><clipPath id="clip0x6080018ab820"><path d="M 52.8 -2.0 L 135.5 -2.0 L 135.5 49.0 L 52.8 49.0 Z M 52.8 -2.0 "></path></clipPath><g clip-path="url(#clip0x6080018ab820)"><text xml:space="preserve" font-family="Helvetica-Bold,Helvetica" font-weight="bold" font-size="30.0" fill="#FF9200" transform="matrix(1.00, 0.00, -0.00, -1.00, 60.8, 12.4)">[</text><text xml:space="preserve" font-family="Helvetica-Bold,Helvetica" font-weight="bold" font-size="30.0" fill="#FF9200" transform="matrix(1.00, 0.00, -0.00, -1.00, 70.7, 12.4)">1</text><text xml:space="preserve" font-family="Helvetica-Bold,Helvetica" font-weight="bold" font-size="30.0" fill="#FF9200" transform="matrix(1.00, 0.00, -0.00, -1.00, 85.8, 12.4)">1</text><text xml:space="preserve" font-family="Helvetica-Bold,Helvetica" font-weight="bold" font-size="30.0" fill="#FF9200" transform="matrix(1.00, 0.00, -0.00, -1.00, 100.8, 12.4)">1</text><text xml:space="preserve" font-family="Helvetica-Bold,Helvetica" font-weight="bold" font-size="30.0" fill="#FF9200" transform="matrix(1.00, 0.00, -0.00, -1.00, 117.5, 12.4)">]</text></g></g><g><clipPath id="clip0x6080018abbe0"><path d="M 80.1 77.2 L 109.6 80.9 L 115.6 32.3 L 86.1 28.6 Z M 80.1 77.2 "></path></clipPath><g clip-path="url(#clip0x6080018abbe0)"><path d="M 99.3 44.5 C 99.1 44.2 99.4 43.5 99.2 43.3 M 99.3 44.5 C 100.4 43.8 100.5 42.5 100.7 40.7 C 100.7 38.8 99.6 40.8 99.2 40.6 C 98.8 38.1 99.5 38.1 100.7 38.4 C 99.9 37.5 101.3 34.6 99.9 35.2 C 99.9 39.2 99.5 32.4 98.7 35.8 C 98.4 36.1 98.0 35.1 98.0 34.8 C 97.4 35.9 96.7 34.0 96.3 35.8 C 95.3 36.0 95.7 35.7 95.0 36.8 C 94.9 37.3 95.2 37.1 95.4 37.1 C 96.5 37.2 94.8 38.4 95.5 39.4 C 94.1 40.2 95.8 41.1 96.4 40.4 C 96.2 41.2 94.7 42.2 95.7 43.1 C 95.0 43.6 95.5 45.8 96.4 44.5 C 97.0 43.5 97.4 44.6 97.7 44.7 C 98.0 44.4 97.6 43.0 97.9 42.8 C 98.1 43.2 98.6 45.0 98.6 43.1 C 99.1 43.7 99.4 42.8 99.3 44.5 C 99.3 44.5 99.3 44.5 99.3 44.5 Z M 100.1 37.7 C 100.5 37.7 100.1 38.4 100.1 37.7 C 100.1 37.7 100.1 37.7 100.1 37.7 Z M 95.0 42.3 C 95.4 42.3 95.0 43.0 95.0 42.3 C 95.0 42.3 95.0 42.3 95.0 42.3 Z M 95.4 37.4 C 95.8 37.4 95.4 38.0 95.4 37.4 C 95.4 37.4 95.4 37.4 95.4 37.4 Z M 99.9 39.5 C 99.5 40.6 99.3 38.6 99.7 38.4 C 99.6 38.7 100.2 39.2 99.9 39.5 C 99.9 39.5 99.9 39.5 99.9 39.5 Z M 97.7 39.6 C 97.8 39.7 97.8 40.2 97.5 40.1 C 97.4 39.8 97.5 39.6 97.7 39.6 C 97.7 39.6 97.7 39.6 97.7 39.6 Z M 99.2 34.3 C 99.3 34.4 99.4 34.9 99.0 34.8 C 98.9 34.5 99.1 34.3 99.2 34.3 C 99.2 34.3 99.2 34.3 99.2 34.3 Z M 98.8 40.7 C 98.8 41.0 98.4 41.1 98.4 40.8 C 98.6 40.6 98.6 39.9 98.8 40.7 C 98.8 40.7 98.8 40.7 98.8 40.7 Z M 100.1 42.4 C 99.9 43.3 99.4 41.5 99.5 41.5 C 99.8 41.2 100.4 41.9 100.1 42.4 C 100.1 42.4 100.1 42.4 100.1 42.4 Z M 98.3 41.2 C 98.1 42.0 98.0 40.9 98.3 41.2 C 98.3 41.2 98.3 41.2 98.3 41.2 Z M 96.4 35.1 C 96.2 35.8 96.1 34.8 96.4 35.1 C 96.4 35.1 96.4 35.1 96.4 35.1 Z M 95.2 39.0 C 95.0 39.7 94.9 38.7 95.2 39.0 C 95.2 39.0 95.2 39.0 95.2 39.0 Z M 99.1 37.5 C 99.1 36.2 100.1 37.3 99.1 37.5 C 99.1 37.5 99.1 37.5 99.1 37.5 Z M 100.2 44.4 C 100.2 43.2 101.2 44.3 100.2 44.4 C 100.2 44.4 100.2 44.4 100.2 44.4 Z M 99.8 55.8 C 100.1 57.0 101.3 52.4 99.8 54.1 C 98.6 54.7 98.7 51.5 99.8 52.3 C 100.0 51.4 100.0 51.4 99.5 50.9 C 100.4 50.7 100.8 48.5 100.3 47.8 C 99.6 47.3 100.3 49.2 99.4 48.0 C 99.2 45.3 98.6 48.2 97.5 47.2 C 97.5 47.0 98.0 47.0 97.8 46.7 C 96.8 46.7 96.2 48.2 95.5 47.5 C 95.6 47.9 94.6 49.9 95.4 49.1 C 96.3 48.8 94.3 51.2 95.8 51.0 C 95.1 51.7 96.0 52.4 95.2 53.0 C 95.0 53.5 95.8 53.5 96.0 53.4 C 96.7 53.3 94.5 54.0 95.7 54.7 C 95.3 54.8 95.5 57.0 96.0 55.4 C 95.9 55.8 95.6 58.3 96.9 57.0 C 97.5 55.3 98.3 58.8 98.3 56.8 C 98.5 55.2 98.2 54.9 98.9 56.1 C 98.8 56.4 98.9 58.2 99.5 56.7 C 99.4 56.3 99.5 55.6 99.8 55.8 C 99.8 55.8 99.8 55.8 99.8 55.8 Z M 97.9 56.1 C 97.9 55.2 98.4 56.1 97.9 56.1 C 97.9 56.1 97.9 56.1 97.9 56.1 Z M 94.9 52.8 C 94.9 51.9 95.4 52.8 94.9 52.8 C 94.9 52.8 94.9 52.8 94.9 52.8 Z M 100.2 53.0 C 99.8 52.5 101.2 52.4 100.2 53.0 C 100.2 53.0 100.2 53.0 100.2 53.0 Z M 96.0 54.4 C 96.0 54.3 96.2 54.5 96.3 54.7 C 96.2 54.7 96.0 54.4 96.0 54.4 C 96.0 54.4 96.0 54.4 96.0 54.4 Z M 100.2 51.4 C 99.5 50.1 101.3 51.2 100.2 51.4 C 100.2 51.4 100.2 51.4 100.2 51.4 Z M 98.9 48.7 C 97.5 48.5 99.2 47.3 98.9 48.7 C 98.9 48.7 98.9 48.7 98.9 48.7 Z M 95.9 50.6 C 96.2 50.8 95.7 50.8 95.9 50.6 C 95.9 50.6 95.9 50.6 95.9 50.6 Z M 95.7 56.5 C 96.0 56.8 95.5 56.8 95.7 56.5 C 95.7 56.5 95.7 56.5 95.7 56.5 Z M 96.0 48.9 C 96.5 49.0 95.7 49.4 96.0 48.9 C 96.0 48.9 96.0 48.9 96.0 48.9 Z M 99.6 52.7 C 100.7 54.0 98.0 54.2 99.6 52.7 C 99.6 52.7 99.6 52.7 99.6 52.7 Z M 99.8 54.9 C 100.0 55.8 99.1 54.8 99.2 54.4 C 99.3 54.5 99.7 54.8 99.8 54.9 C 99.8 54.9 99.8 54.9 99.8 54.9 Z M 99.5 51.4 C 100.1 52.3 99.2 52.2 99.5 51.4 C 99.5 51.4 99.5 51.4 99.5 51.4 Z M 100.1 53.6 C 100.0 54.0 100.0 53.2 100.1 53.6 C 100.1 53.6 100.1 53.6 100.1 53.6 Z M 100.7 49.7 C 100.5 50.1 100.5 49.3 100.7 49.7 C 100.7 49.7 100.7 49.7 100.7 49.7 Z M 100.3 56.0 C 100.2 56.4 100.2 55.6 100.3 56.0 C 100.3 56.0 100.3 56.0 100.3 56.0 Z M 99.9 50.1 C 99.4 49.9 98.4 51.1 99.3 49.0 C 99.6 48.6 100.3 49.5 99.9 50.1 C 99.9 50.1 99.9 50.1 99.9 50.1 Z M 99.2 44.4 C 100.8 43.9 98.1 44.1 97.6 44.0 C 96.9 44.0 96.4 44.0 95.9 44.1 C 94.2 44.2 97.6 44.3 96.0 44.3 C 93.7 44.5 97.9 44.5 95.5 44.6 C 94.9 44.5 95.4 44.7 95.6 44.7 C 94.4 44.8 96.5 44.9 96.7 44.9 C 96.4 45.0 94.2 45.0 95.8 45.2 C 96.4 45.3 94.3 45.4 95.7 45.4 C 94.1 45.5 96.2 45.4 95.7 45.6 C 94.8 45.6 97.1 45.6 95.3 45.7 C 96.7 45.8 94.4 45.6 95.4 46.0 C 95.5 45.8 96.5 46.2 95.6 46.1 C 94.6 46.0 95.9 46.3 95.3 46.4 C 95.8 46.5 97.1 46.7 95.7 46.7 C 94.1 46.8 96.7 46.8 95.4 46.9 C 94.8 47.0 96.0 47.0 95.9 47.0 C 94.9 47.1 95.6 47.1 95.3 47.4 C 94.8 47.8 97.8 47.4 98.2 47.6 C 98.6 47.6 101.8 47.4 99.4 47.5 C 100.1 47.4 97.6 47.1 100.2 47.3 C 99.2 47.1 101.3 47.3 100.1 47.0 C 98.2 47.4 99.3 46.5 100.2 46.9 C 100.8 46.9 100.7 46.7 100.2 46.8 C 98.5 46.9 101.0 46.5 98.9 46.7 C 99.5 46.4 97.6 46.5 98.9 46.4 C 101.2 46.4 98.4 46.5 99.0 46.3 C 99.0 46.0 101.6 46.3 99.9 46.1 C 101.0 45.8 98.9 46.0 98.6 45.9 C 97.1 45.9 99.8 45.6 100.0 45.8 C 99.2 45.7 100.8 45.8 99.8 45.7 C 98.4 45.8 101.3 45.5 100.1 45.6 C 99.8 45.4 98.9 45.5 98.9 45.5 C 98.9 45.3 100.3 45.3 99.2 45.3 C 98.7 45.3 100.5 45.2 100.1 45.2 C 100.0 45.3 98.6 45.0 99.3 45.0 C 99.4 45.1 101.2 44.9 100.1 44.9 C 97.0 45.0 100.9 44.7 99.8 44.6 C 98.1 44.7 99.6 44.2 100.4 44.4 C 100.2 44.4 99.2 44.4 99.2 44.4 M 99.8 45.1 C 99.7 45.3 99.5 45.0 99.8 45.1 M 100.3 45.1 C 99.7 45.2 100.7 45.0 100.5 45.1 C 100.4 45.1 100.3 45.1 100.3 45.1 M 100.3 45.7 C 99.8 45.7 100.6 45.6 100.3 45.7 M 99.2 45.8 C 98.8 45.9 99.2 45.7 99.2 45.8 M 99.6 47.2 C 97.0 47.1 101.0 47.0 99.6 47.2 M 100.1 46.3 C 99.8 46.1 101.2 46.4 100.1 46.3 M 99.5 46.2 C 99.1 46.2 100.1 46.2 99.5 46.2 M 99.6 46.9 C 99.5 46.9 99.5 46.9 99.6 46.9 C 99.6 46.9 99.6 46.9 99.6 46.9 Z M 99.5 47.3 C 99.6 47.3 99.6 47.3 99.5 47.3 C 99.5 47.3 99.5 47.3 99.5 47.3 Z M 99.3 46.5 C 99.9 46.4 99.6 46.7 99.3 46.5 C 99.3 46.5 99.3 46.5 99.3 46.5 Z M 95.6 47.1 C 95.6 47.1 95.6 47.1 95.6 47.1 C 95.6 47.1 95.6 47.1 95.6 47.1 Z M 98.6 45.0 C 98.6 45.0 98.6 45.0 98.6 45.0 C 98.6 45.0 98.6 45.0 98.6 45.0 Z M 99.6 44.5 C 99.3 44.5 99.9 44.5 99.6 44.5 C 99.6 44.5 99.6 44.5 99.6 44.5 Z M 96.7 44.2 C 96.6 44.2 96.6 44.2 96.7 44.2 C 96.7 44.2 96.7 44.2 96.7 44.2 Z M 97.3 44.8 C 97.2 44.8 97.2 44.8 97.3 44.8 C 97.3 44.8 97.3 44.8 97.3 44.8 Z M 99.2 44.9 C 100.6 44.8 98.8 45.1 99.2 44.9 C 99.2 44.9 99.2 44.9 99.2 44.9 Z M 95.8 46.4 C 96.4 46.4 95.6 46.5 95.8 46.4 C 95.8 46.4 95.8 46.4 95.8 46.4 Z M 98.7 45.9 C 99.0 45.9 98.5 45.9 98.7 45.9 C 98.7 45.9 98.7 45.9 98.7 45.9 Z M 100.6 45.6 C 100.9 45.6 100.4 45.7 100.6 45.6 C 100.6 45.6 100.6 45.6 100.6 45.6 Z M 100.0 44.5 C 100.1 44.6 100.1 44.6 100.0 44.5 C 100.0 44.5 100.0 44.5 100.0 44.5 Z M 98.9 44.7 C 100.2 44.6 98.2 44.9 98.9 44.7 C 98.9 44.7 98.9 44.7 98.9 44.7 Z M 98.5 44.5 C 98.0 44.6 98.8 44.4 98.5 44.5 M 96.5 44.6 C 97.1 44.8 94.1 44.5 96.5 44.6 C 96.5 44.6 96.5 44.6 96.5 44.6 Z M 96.0 45.3 C 95.9 45.3 95.9 45.3 96.0 45.3 C 96.0 45.3 96.0 45.3 96.0 45.3 Z M 99.9 45.3 C 99.8 45.4 99.5 45.2 99.9 45.3 C 99.9 45.3 99.9 45.3 99.9 45.3 Z M 100.1 44.2 C 100.1 44.3 99.8 44.1 100.1 44.2 C 100.1 44.2 100.1 44.2 100.1 44.2 Z M 97.3 45.7 C 97.5 45.9 96.6 45.6 97.3 45.7 C 97.3 45.7 97.3 45.7 97.3 45.7 Z M 98.8 46.5 C 98.8 46.5 98.8 46.5 98.8 46.5 C 98.8 46.5 98.8 46.5 98.8 46.5 Z M 99.4 46.6 C 99.3 46.6 99.3 46.6 99.4 46.6 C 99.4 46.6 99.4 46.6 99.4 46.6 Z M 98.0 47.2 C 97.9 47.2 97.9 47.2 98.0 47.2 C 98.0 47.2 98.0 47.2 98.0 47.2 Z M 100.0 46.7 C 100.0 46.7 100.0 46.7 100.0 46.7 C 100.0 46.7 100.0 46.7 100.0 46.7 Z M 99.6 47.1 C 99.6 47.1 99.6 47.1 99.6 47.1 C 99.6 47.1 99.6 47.1 99.6 47.1 Z M 100.8 47.1 C 100.7 47.1 100.7 47.1 100.8 47.1 C 100.8 47.1 100.8 47.1 100.8 47.1 Z M 95.0 46.2 C 95.0 46.2 95.0 46.2 95.0 46.2 C 95.0 46.2 95.0 46.2 95.0 46.2 Z M 100.4 44.8 C 100.3 44.8 100.3 44.8 100.4 44.8 C 100.4 44.8 100.4 44.8 100.4 44.8 Z M 99.1 47.1 C 99.1 47.1 99.1 47.1 99.1 47.1 C 99.1 47.1 99.1 47.1 99.1 47.1 Z M 98.1 46.1 C 97.0 46.1 99.6 46.1 98.1 46.2 C 98.1 46.2 98.3 46.1 98.1 46.1 M 96.2 46.3 C 96.2 46.3 96.2 46.3 96.2 46.3 C 96.2 46.3 96.2 46.3 96.2 46.3 Z M 95.5 45.8 C 95.5 45.8 95.5 45.8 95.5 45.8 C 95.5 45.8 95.5 45.8 95.5 45.8 Z M 100.2 46.7 C 100.8 46.6 99.7 46.8 100.2 46.6 M 96.0 47.2 C 96.6 47.2 95.5 47.3 96.0 47.2 M 99.7 44.1 C 99.2 44.0 100.0 44.0 99.7 44.1 M 94.9 45.7 C 94.4 45.7 95.2 45.6 94.9 45.7 M 96.4 45.9 C 97.0 45.9 95.9 46.0 96.3 45.9 M 96.1 46.9 C 96.1 46.9 96.1 46.9 96.1 46.9 C 96.1 46.9 96.1 46.9 96.1 46.9 Z M 99.7 45.4 C 99.7 45.4 99.7 45.4 99.7 45.4 C 99.7 45.4 99.7 45.4 99.7 45.4 Z M 98.4 46.0 C 99.3 45.9 97.8 46.1 98.4 46.0 M 98.2 45.3 C 99.3 45.2 97.9 45.5 98.2 45.3 M 95.8 47.4 C 97.1 47.3 95.1 47.5 95.8 47.4 M 99.0 46.8 C 100.3 46.7 98.3 46.9 99.0 46.8 M 99.2 45.5 C 99.8 45.5 98.8 45.7 99.2 45.5 M 99.8 44.3 C 100.0 44.2 100.4 44.5 99.8 44.3 M 96.0 46.6 C 96.0 46.6 96.0 46.6 96.0 46.6 C 96.0 46.6 96.0 46.6 96.0 46.6 Z M 94.9 44.7 C 94.8 44.7 94.8 44.7 94.9 44.7 C 94.9 44.7 94.9 44.7 94.9 44.7 Z M 100.0 47.6 C 100.0 47.6 100.0 47.6 100.0 47.6 C 100.0 47.6 100.0 47.6 100.0 47.6 Z M 98.4 46.8 C 98.3 46.8 98.3 46.8 98.4 46.8 C 98.4 46.8 98.4 46.8 98.4 46.8 Z M 100.2 47.3 C 100.1 47.3 100.1 47.3 100.2 47.3 C 100.2 47.3 100.2 47.3 100.2 47.3 Z M 97.4 46.4 C 97.4 46.4 97.4 46.4 97.4 46.4 C 97.4 46.4 97.4 46.4 97.4 46.4 Z M 100.7 46.3 C 100.7 46.3 100.7 46.3 100.7 46.3 C 100.7 46.3 100.7 46.3 100.7 46.3 Z M 99.3 45.9 C 99.3 45.9 99.3 45.9 99.3 45.9 C 99.3 45.9 99.3 45.9 99.3 45.9 Z M 100.4 46.5 C 100.6 46.7 99.3 46.4 100.4 46.5 C 100.4 46.5 100.4 46.5 100.4 46.5 Z M 97.1 46.1 C 97.1 46.1 97.1 46.1 97.1 46.1 C 97.1 46.1 97.1 46.1 97.1 46.1 Z M 99.5 46.0 C 100.4 46.2 97.9 46.1 99.5 46.0 M 100.3 45.4 C 100.8 45.4 99.5 45.4 100.3 45.4 M 95.9 45.1 C 95.9 45.1 95.9 45.1 95.9 45.1 C 95.9 45.1 95.9 45.1 95.9 45.1 Z M 96.3 45.2 C 96.2 45.2 96.2 45.2 96.3 45.2 C 96.3 45.2 96.3 45.2 96.3 45.2 Z M 100.4 45.2 C 100.4 45.2 100.4 45.2 100.4 45.2 C 100.4 45.2 100.4 45.2 100.4 45.2 Z M 95.0 45.2 C 95.0 45.2 95.0 45.2 95.0 45.2 C 95.0 45.2 95.0 45.2 95.0 45.2 Z M 100.6 46.2 C 100.6 46.2 100.6 46.2 100.6 46.2 C 100.6 46.2 100.6 46.2 100.6 46.2 Z M 100.7 47.5 C 100.6 47.5 100.6 47.5 100.7 47.5 C 100.7 47.5 100.7 47.5 100.7 47.5 Z M 96.4 44.4 C 96.3 44.4 96.3 44.4 96.4 44.4 C 96.4 44.4 96.4 44.4 96.4 44.4 Z M 99.3 46.3 C 99.3 46.4 99.3 46.4 99.3 46.3 C 99.3 46.3 99.3 46.3 99.3 46.3 Z M 96.1 44.9 C 96.1 44.9 96.1 44.9 96.1 44.9 C 96.1 44.9 96.1 44.9 96.1 44.9 Z M 99.6 46.3 C 99.6 46.3 99.6 46.3 99.6 46.3 C 99.6 46.3 99.6 46.3 99.6 46.3 Z M 95.7 46.6 C 95.7 46.6 95.7 46.6 95.7 46.6 C 95.7 46.6 95.7 46.6 95.7 46.6 Z M 95.0 46.8 C 95.0 46.8 95.0 46.8 95.0 46.8 C 95.0 46.8 95.0 46.8 95.0 46.8 Z M 98.0 46.5 C 98.0 46.5 98.0 46.5 98.0 46.5 C 98.0 46.5 98.0 46.5 98.0 46.5 Z M 97.5 44.8 C 98.7 44.4 98.0 45.2 97.5 44.8 M 97.8 46.6 C 98.0 46.3 99.1 46.9 97.8 46.6 C 98.1 46.7 97.8 46.6 97.8 46.6 " fill="#85878C"></path><path d="M 84.5 56.2 C 84.0 56.1 83.5 54.5 84.5 55.6 C 84.5 55.7 84.7 56.3 84.5 56.2 Z M 86.0 58.6 C 85.8 58.4 85.8 58.3 85.8 58.1 C 86.1 57.6 86.3 59.2 86.0 58.6 Z M 84.3 54.8 C 84.3 54.8 83.8 54.0 84.0 54.1 C 84.2 54.1 84.4 54.8 84.3 54.8 Z M 88.2 60.2 C 87.9 60.3 87.5 59.5 87.5 59.3 C 87.5 58.7 88.6 60.0 88.2 60.2 Z M 92.2 53.7 C 92.3 53.6 92.4 53.6 92.4 53.6 C 92.3 53.7 92.3 53.7 92.2 53.7 Z M 94.3 71.7 C 94.2 71.5 94.2 71.1 94.4 71.1 C 94.7 71.1 94.6 72.1 94.3 71.7 Z M 108.0 53.2 C 108.0 53.2 107.6 53.0 107.8 52.9 C 108.0 52.7 108.1 53.0 108.0 53.2 Z M 108.0 52.9 C 107.9 52.7 108.3 52.6 108.2 52.8 C 108.1 53.0 108.1 53.1 108.0 52.9 Z M 104.6 65.7 C 104.6 65.8 104.6 65.9 104.5 65.7 C 104.5 65.6 104.7 65.5 104.6 65.7 Z M 104.6 65.2 C 104.5 65.0 104.9 64.9 104.8 65.1 C 104.8 65.3 104.7 65.4 104.6 65.2 Z M 107.1 63.5 C 107.0 63.6 107.0 63.6 107.0 63.5 C 106.9 63.4 107.1 63.3 107.1 63.5 Z M 101.5 52.5 C 101.6 52.4 102.1 52.6 102.1 52.7 C 102.0 53.0 101.3 52.7 101.5 52.5 Z M 102.1 52.4 C 102.1 52.2 102.4 52.2 102.3 52.4 C 102.3 52.5 102.2 52.6 102.1 52.4 Z M 100.1 52.8 C 100.1 53.0 99.6 53.0 99.5 53.0 C 99.3 52.9 99.1 52.9 98.9 52.8 C 98.8 52.7 100.1 52.4 100.1 52.8 Z M 95.9 53.0 C 95.9 52.9 96.0 52.9 96.1 53.0 C 96.3 53.1 95.9 53.1 95.9 53.0 Z M 98.3 52.9 C 98.3 52.8 98.4 52.7 98.5 52.8 C 98.7 52.9 98.3 53.0 98.3 52.9 Z M 90.3 65.0 C 90.2 65.2 90.0 64.5 90.0 64.4 C 90.0 64.3 90.2 64.6 90.1 64.4 C 90.1 64.2 90.8 64.3 90.3 65.0 Z M 86.8 59.9 C 86.7 59.8 86.8 59.7 87.0 59.7 C 87.0 59.7 87.1 60.2 86.8 59.9 Z M 90.6 63.8 C 90.5 63.8 90.4 63.7 90.5 63.6 C 90.6 63.6 90.6 63.7 90.6 63.8 Z M 90.9 64.1 C 90.8 64.0 90.8 63.6 91.0 63.6 C 91.3 63.6 91.3 64.6 90.9 64.1 Z M 90.5 65.9 C 90.4 65.7 90.4 65.7 90.6 65.8 C 90.7 65.8 90.5 65.9 90.5 65.9 Z M 88.4 63.0 C 88.3 62.8 88.3 62.8 88.5 62.8 C 88.6 62.9 88.4 63.0 88.4 63.0 Z M 91.8 67.1 C 91.8 67.1 91.3 66.8 91.6 66.5 C 92.0 66.1 91.8 67.1 91.8 67.1 Z M 93.5 69.0 C 93.5 68.8 93.6 68.8 93.7 68.9 C 93.7 69.1 93.6 69.1 93.5 69.0 Z M 94.7 69.3 C 94.8 69.6 94.7 69.9 94.5 69.5 C 94.3 69.1 94.7 69.0 94.7 69.3 Z M 94.3 69.0 C 94.4 69.0 94.4 69.1 94.4 69.2 C 94.3 69.2 94.3 69.1 94.3 69.0 Z M 92.7 67.5 C 92.5 67.4 92.6 67.1 92.8 67.3 C 93.0 67.5 92.9 67.6 92.7 67.5 Z M 90.0 52.6 C 89.9 52.6 89.9 52.4 90.0 52.3 C 90.1 52.2 90.2 52.5 90.0 52.6 Z M 99.1 53.5 C 99.0 53.4 99.1 53.4 99.4 53.4 C 99.6 53.5 99.3 53.6 99.1 53.5 Z M 104.9 54.0 C 104.8 53.8 104.9 53.8 105.1 53.9 C 105.4 54.0 105.0 54.1 104.9 54.0 Z M 96.8 53.5 C 96.7 53.4 97.4 53.0 97.7 53.4 C 98.0 53.8 97.0 53.9 96.8 53.5 Z M 91.1 58.1 C 91.0 58.2 91.1 58.0 91.1 58.0 C 91.3 58.0 91.3 58.0 91.1 58.1 Z M 98.1 54.2 C 98.0 54.3 98.0 54.0 98.1 53.9 C 98.2 53.8 98.3 54.1 98.1 54.2 Z M 103.9 53.6 C 103.6 53.5 103.8 53.2 103.9 53.0 C 104.4 52.6 104.7 53.1 105.1 53.4 C 105.3 53.6 104.0 53.7 103.9 53.6 Z M 88.6 53.4 C 88.8 53.5 88.9 53.5 89.0 53.5 C 89.0 53.4 89.1 53.5 89.3 53.6 C 89.8 53.5 90.2 53.0 90.5 52.8 C 91.4 52.5 91.7 53.6 92.2 53.7 C 92.1 53.7 91.9 53.7 91.9 53.8 C 91.6 54.1 93.7 53.9 93.8 53.9 C 95.5 53.7 93.5 53.4 93.4 52.8 C 93.4 52.5 94.6 53.2 94.7 53.2 C 95.2 53.5 95.3 52.9 95.8 53.1 C 96.0 53.2 96.7 54.6 96.9 54.4 C 97.0 54.2 97.6 54.4 97.8 54.4 C 98.1 54.4 98.6 54.3 98.3 53.8 C 98.1 53.5 98.0 53.2 98.5 53.5 C 98.8 53.7 100.8 54.5 100.7 53.5 C 100.7 53.5 100.3 53.2 100.2 53.2 C 100.8 53.0 102.5 53.3 102.9 52.9 C 103.8 52.0 102.6 53.4 103.1 53.7 C 103.9 54.1 104.3 54.4 105.3 54.2 C 105.5 54.2 106.4 54.2 106.0 53.7 C 105.7 53.3 105.9 53.1 105.3 53.0 C 106.0 52.5 106.4 53.4 106.5 53.2 C 106.7 52.9 106.4 52.8 106.8 52.8 C 107.4 52.9 107.2 52.7 107.3 53.2 C 107.3 53.4 107.8 53.5 107.8 53.5 C 107.8 53.5 107.8 53.6 107.8 53.6 C 108.3 53.6 109.0 52.7 109.1 52.9 C 109.2 53.1 109.0 53.7 109.0 53.9 C 109.0 53.9 109.0 53.9 109.1 53.9 C 109.3 53.8 109.8 53.5 109.8 53.5 C 109.9 53.6 109.5 54.5 109.8 54.2 C 110.0 54.0 111.0 54.3 111.1 54.6 C 111.1 54.8 111.4 56.0 111.6 56.1 C 111.8 56.1 111.4 56.7 111.3 56.8 C 111.3 57.0 110.8 57.2 110.7 57.2 C 110.6 57.2 110.4 57.7 110.4 57.7 C 110.4 57.7 110.4 57.9 110.2 58.3 C 110.1 58.6 109.7 58.7 109.3 59.1 C 109.0 59.4 109.1 59.8 108.9 60.2 C 108.7 60.6 107.9 60.6 107.6 60.9 C 107.3 61.2 107.8 61.5 107.6 61.9 C 107.4 62.4 107.2 62.5 107.1 62.3 C 107.1 62.2 106.9 62.2 106.9 62.3 C 106.8 62.4 106.3 62.9 106.3 63.1 C 106.3 63.3 107.5 62.3 106.5 63.9 C 106.0 64.7 105.1 64.9 105.2 64.7 C 105.5 64.1 104.0 64.9 104.3 65.0 C 104.5 65.2 103.6 66.5 104.3 66.4 C 104.5 66.4 103.8 67.9 103.6 68.0 C 103.4 68.2 103.1 68.9 102.6 68.8 C 102.3 68.8 102.4 69.9 102.3 70.1 C 102.2 70.2 101.5 71.3 101.3 71.4 C 101.0 71.6 101.3 71.1 101.5 70.8 C 101.6 70.6 102.0 70.4 102.1 70.1 C 102.2 69.9 101.7 70.2 101.5 70.5 C 101.3 70.7 101.1 70.7 100.9 70.8 C 100.9 71.0 100.7 71.1 100.6 71.3 C 100.5 71.5 100.5 71.6 100.6 71.6 C 100.7 71.7 100.9 71.6 101.0 71.7 C 101.0 71.7 101.0 72.0 100.8 72.3 C 100.6 72.7 100.4 72.9 100.0 73.3 C 99.6 73.6 99.7 73.8 99.5 74.1 C 99.4 74.5 99.2 74.7 99.1 74.7 C 99.0 74.6 99.1 74.2 99.1 74.1 C 99.0 74.0 98.5 74.3 98.4 74.5 C 97.8 75.2 97.5 74.2 96.9 74.9 C 96.6 75.4 96.6 74.7 96.5 74.3 C 96.4 74.3 96.4 74.3 96.1 74.0 C 96.0 74.1 95.8 73.5 95.6 73.2 C 95.5 73.1 94.7 72.2 95.3 72.6 C 95.4 72.7 95.4 72.7 95.5 72.8 C 95.5 72.7 95.5 72.7 95.5 72.7 C 95.5 72.7 96.0 72.8 96.0 72.8 C 96.0 72.8 95.5 72.7 95.5 72.7 C 95.6 72.5 95.6 72.3 95.7 72.2 C 95.6 72.1 95.6 72.1 95.5 72.1 C 95.5 72.1 95.5 72.1 95.4 72.0 C 95.4 72.1 95.4 72.1 95.4 72.1 C 95.3 72.2 95.3 72.1 95.2 72.0 C 94.8 71.7 94.6 70.7 94.5 70.3 C 95.9 70.7 94.9 69.1 94.5 68.6 C 94.1 68.1 93.0 68.8 93.2 69.1 C 92.9 68.7 93.0 68.5 93.3 68.2 C 93.2 68.3 93.6 67.4 93.6 67.5 C 93.5 66.3 92.7 67.1 92.5 66.9 C 92.2 66.7 92.0 66.5 91.8 66.2 C 91.5 66.0 91.5 66.3 91.3 66.3 C 90.7 66.2 91.1 65.1 91.0 64.8 C 91.2 65.0 91.5 65.2 91.7 65.4 C 91.3 65.2 91.7 64.7 91.7 64.5 C 91.6 64.2 91.4 63.8 91.2 63.6 C 90.8 63.1 90.4 62.6 90.1 62.2 C 90.1 62.4 89.9 63.5 90.0 63.5 C 89.8 63.4 89.7 62.8 89.4 63.2 C 89.0 63.9 88.5 62.4 88.4 62.2 C 88.1 61.5 87.0 61.2 87.4 60.1 C 87.4 60.1 88.1 61.0 88.2 60.9 C 88.6 60.3 88.8 59.8 88.2 59.2 C 88.1 59.1 87.1 58.4 87.1 58.4 C 87.2 58.4 86.4 60.2 86.3 59.1 C 86.3 58.9 86.7 59.1 86.7 58.8 C 86.7 58.4 86.3 58.0 86.2 57.7 C 86.1 57.6 86.0 57.0 85.9 57.0 C 85.7 57.0 85.4 57.1 85.2 57.0 C 85.0 56.9 85.0 56.5 85.2 56.4 C 85.2 56.4 85.2 56.4 85.3 56.4 C 85.2 56.3 85.3 56.2 85.4 56.1 C 85.3 56.1 85.2 55.9 85.3 55.8 C 85.3 55.7 85.5 55.9 85.5 56.1 C 85.6 56.1 85.7 56.0 85.8 56.0 C 85.6 55.8 85.3 55.5 85.3 55.5 C 84.7 55.2 84.5 55.3 84.7 54.3 C 84.8 53.6 86.7 53.1 87.8 53.3 C 88.0 53.2 88.3 53.3 88.6 53.4 Z M 99.9 71.7 C 100.0 71.7 100.0 71.7 100.0 71.6 C 99.9 71.6 99.8 71.5 99.7 71.5 C 99.5 71.7 99.9 71.5 99.7 71.7 C 99.5 72.0 99.7 72.0 99.9 71.7 Z M 97.4 71.5 C 97.3 71.7 97.4 71.7 97.5 71.6 C 97.5 71.6 97.4 71.5 97.4 71.5 Z M 96.3 72.0 C 96.5 72.3 96.7 71.6 96.2 71.1 C 96.2 71.6 96.2 71.9 96.3 72.0 Z M 95.3 71.5 C 95.4 71.5 95.5 71.5 95.6 71.5 C 95.7 71.5 95.4 71.2 95.5 71.2 C 95.6 71.2 96.0 71.4 95.9 71.1 C 95.9 71.1 95.9 71.0 95.9 70.9 C 95.9 70.9 95.8 70.9 95.8 70.9 C 95.5 70.8 95.3 71.3 95.3 71.5 Z M 100.1 69.8 C 100.1 70.0 100.2 69.9 100.2 69.8 C 100.3 69.6 100.1 69.6 100.1 69.8 Z M 102.1 68.5 C 101.9 68.6 101.9 68.8 102.1 68.7 C 102.3 68.6 102.3 68.4 102.1 68.5 Z M 99.1 65.6 C 99.2 65.8 99.2 65.7 99.2 65.6 C 99.3 65.4 99.1 65.5 99.1 65.6 Z M 97.0 65.5 C 96.9 65.4 96.7 65.6 96.8 65.7 C 96.9 65.7 97.1 65.6 97.0 65.5 Z M 101.9 65.8 C 101.9 65.6 101.7 65.6 101.7 65.8 C 101.8 65.9 101.8 65.9 101.9 65.8 Z M 99.0 66.2 C 99.2 66.1 99.1 66.0 99.1 65.9 C 99.0 65.8 98.8 65.9 98.8 66.1 C 98.7 66.3 98.7 66.4 99.0 66.2 Z M 97.2 66.4 C 96.9 65.9 96.7 66.0 97.1 66.5 C 97.6 67.1 97.4 66.7 97.2 66.4 Z M 103.6 67.4 C 103.5 67.4 103.4 67.7 103.4 67.7 C 103.4 67.7 104.0 67.1 103.6 67.4 Z M 92.3 66.2 C 92.4 66.4 92.7 66.4 92.6 66.1 C 92.4 65.8 92.3 66.0 92.3 66.2 Z M 93.2 65.1 C 92.9 65.6 93.0 65.9 93.0 66.0 C 93.0 65.9 93.4 65.8 93.5 65.9 C 93.9 66.2 93.7 66.8 94.2 67.0 C 94.7 67.2 94.3 66.4 94.1 66.3 C 94.2 66.4 94.3 66.4 94.4 66.4 C 94.5 66.2 94.5 66.1 94.4 66.0 C 94.1 65.9 93.6 64.7 93.2 65.1 Z M 98.3 65.2 C 98.2 65.4 98.4 65.6 98.6 65.4 C 98.8 65.3 99.0 65.1 98.9 65.0 C 98.8 64.9 98.4 65.0 98.3 65.2 Z M 99.9 65.0 C 100.0 65.2 100.0 65.1 100.1 65.0 C 100.2 64.6 99.8 64.8 99.9 65.0 Z M 106.7 62.0 C 106.6 61.9 106.4 62.2 106.5 62.2 C 106.6 62.3 106.7 62.2 106.7 62.0 Z M 104.0 62.1 C 104.1 61.7 103.7 62.0 103.7 62.1 C 103.7 62.2 104.0 62.4 104.0 62.1 Z M 102.4 63.7 C 102.5 63.5 102.2 63.7 102.3 63.8 C 102.3 63.9 102.4 63.8 102.4 63.7 Z M 101.4 63.9 C 101.5 63.7 101.2 63.7 101.2 64.0 C 101.2 64.1 101.3 64.1 101.4 63.9 Z M 92.8 63.1 C 92.8 63.1 93.2 63.0 92.8 62.8 C 92.5 62.6 92.5 62.6 92.8 63.1 Z M 95.8 63.8 C 96.0 64.1 96.3 64.3 97.1 64.0 C 98.0 63.7 97.7 63.6 97.1 63.4 C 96.6 63.3 98.0 62.9 97.0 62.7 C 96.6 62.6 95.7 63.6 95.8 63.8 Z M 101.3 62.3 C 100.8 62.6 100.9 63.4 101.2 63.0 C 101.6 62.5 101.8 62.1 101.3 62.3 Z M 101.7 62.3 C 101.7 62.4 101.8 62.4 101.8 62.2 C 101.9 62.0 101.7 62.1 101.7 62.3 Z M 89.0 62.7 C 89.8 63.5 89.7 62.2 89.7 62.2 C 89.4 61.0 88.3 61.9 89.0 62.7 Z M 107.3 54.1 C 107.3 54.1 107.2 54.1 107.2 54.1 C 107.2 54.1 107.2 54.1 107.1 54.1 C 107.0 54.2 107.4 54.4 107.4 54.4 C 107.4 54.3 107.4 54.1 107.3 54.1 Z M 101.8 53.8 C 102.0 53.9 102.2 53.8 102.4 53.7 C 102.3 53.2 100.6 53.2 101.2 54.0 C 101.3 54.2 102.4 54.9 102.5 54.5 C 102.6 54.2 101.3 53.8 101.8 53.8 Z M 103.5 54.5 C 102.9 54.5 104.1 55.2 103.9 54.8 C 103.9 54.6 103.7 54.5 103.5 54.5 Z M 108.4 56.0 C 109.3 55.7 109.1 54.4 107.7 55.1 C 106.4 55.7 106.3 56.3 107.0 56.1 C 107.7 55.9 107.1 56.6 108.4 56.0 Z M 101.3 56.0 C 101.4 55.1 101.0 55.3 100.8 56.0 C 100.7 56.2 101.2 56.6 101.3 56.0 Z M 99.3 56.2 C 99.0 56.1 99.0 56.1 99.2 56.3 C 99.3 56.5 99.5 56.3 99.3 56.2 Z M 109.8 57.4 C 110.2 57.2 110.4 56.8 110.4 57.1 C 110.4 57.3 110.5 57.2 110.7 57.0 C 110.9 56.8 110.5 56.8 110.3 56.8 C 110.1 56.9 109.5 57.5 109.8 57.4 Z M 102.2 60.5 C 102.3 60.4 102.0 60.5 102.0 60.6 C 102.0 60.7 102.1 60.7 102.2 60.5 Z M 94.6 61.5 C 94.6 61.5 94.8 61.5 94.6 61.4 C 94.4 61.2 94.4 61.2 94.6 61.5 Z M 88.5 61.2 C 88.7 61.4 88.7 60.9 89.1 61.0 C 89.2 61.0 89.0 61.2 88.9 61.2 C 89.0 61.2 89.8 61.1 89.3 60.8 C 89.1 60.7 88.1 60.8 88.5 61.2 Z M 100.1 60.3 C 99.7 60.6 101.0 60.8 100.8 61.1 C 100.6 61.3 100.7 61.3 101.0 61.0 C 101.3 60.8 100.4 60.0 100.1 60.3 Z M 103.3 60.1 C 103.1 60.1 102.6 60.7 102.9 60.6 C 103.2 60.5 103.4 60.1 103.5 60.3 C 103.5 60.5 103.5 60.4 103.7 60.3 C 104.0 60.1 103.5 60.1 103.3 60.1 Z M 108.7 59.9 C 108.6 59.9 108.4 60.3 108.6 60.1 C 108.8 60.1 108.8 59.8 108.7 59.9 Z M 93.7 59.5 C 94.0 59.6 94.0 59.6 93.8 59.3 C 93.6 59.1 93.5 59.4 93.7 59.5 Z M 108.2 58.9 C 107.9 59.2 108.4 59.0 108.2 59.3 C 108.0 59.5 108.1 59.5 108.4 59.2 C 108.6 59.0 108.5 58.7 108.2 58.9 Z M 88.8 58.7 C 89.0 58.7 89.2 58.6 89.0 58.5 C 88.9 58.4 88.7 58.6 88.8 58.7 Z M 90.8 57.9 C 90.9 58.0 90.9 58.1 90.9 58.2 C 91.9 59.5 91.1 57.1 90.8 57.9 Z M 93.9 58.1 C 93.5 58.2 94.0 58.4 94.0 58.4 C 94.1 58.2 94.1 58.2 93.9 58.1 Z M 97.3 58.1 C 97.4 57.9 97.1 58.0 97.1 58.1 C 97.2 58.3 97.3 58.2 97.3 58.1 Z M 86.4 57.5 C 86.4 57.7 86.5 57.6 86.5 57.5 C 86.5 57.3 86.3 57.3 86.4 57.5 Z M 94.8 57.3 C 94.8 57.4 94.8 57.5 95.0 57.4 C 95.1 57.4 94.9 57.3 94.8 57.3 Z M 105.2 57.3 C 105.1 57.4 105.0 57.5 104.9 57.6 C 105.0 57.7 105.7 57.8 105.7 58.0 C 105.7 58.0 105.6 58.0 105.6 58.1 C 105.6 58.1 105.7 58.1 105.7 58.1 C 105.6 58.2 105.5 58.3 105.5 58.2 C 105.4 58.3 105.3 58.3 105.2 58.3 C 105.4 58.5 105.6 58.6 105.8 58.5 C 106.0 58.3 106.1 57.9 106.0 57.5 C 105.9 57.4 105.7 57.3 105.6 57.3 C 105.6 57.3 105.6 57.3 105.6 57.4 C 105.5 57.6 105.3 57.7 105.3 57.5 C 105.3 57.4 105.3 57.3 105.4 57.3 C 105.3 57.3 105.2 57.3 105.2 57.3 Z M 96.1 56.9 C 95.9 57.0 96.1 57.1 96.4 57.2 C 96.6 57.2 96.4 56.7 96.1 56.9 Z M 86.8 57.1 C 86.9 57.1 86.9 57.1 87.0 57.0 C 87.0 57.0 86.9 57.0 86.9 57.0 C 86.7 56.9 86.5 56.9 86.3 56.8 C 86.3 57.1 86.4 57.2 86.8 57.1 Z M 89.7 56.2 C 89.6 56.2 88.4 56.1 88.6 56.4 C 89.0 56.8 88.4 57.3 89.3 57.1 C 89.8 57.0 90.1 56.4 90.5 56.3 C 92.7 55.8 90.0 55.7 89.4 55.6 C 89.3 55.6 89.9 56.1 89.7 56.2 Z M 92.6 55.5 C 92.7 55.3 92.4 55.1 92.2 55.1 C 91.7 55.2 92.5 55.8 92.6 55.5 Z M 86.5 55.2 C 86.5 55.2 86.5 55.2 86.5 55.3 C 86.5 55.3 86.5 55.2 86.6 55.2 C 86.5 55.2 86.5 55.2 86.5 55.2 Z M 85.0 54.9 C 85.5 55.6 85.5 54.4 85.3 54.1 C 85.1 53.7 84.7 54.6 85.0 54.9 Z M 91.0 54.5 C 91.4 54.5 91.9 53.2 91.1 53.3 C 90.4 53.3 90.0 54.4 91.0 54.5 Z M 95.5 52.9 C 95.4 53.0 94.9 52.8 95.1 52.6 C 95.3 52.5 95.6 52.8 95.5 52.9 Z M 88.7 52.2 C 88.9 52.2 88.7 52.3 88.7 52.3 C 88.6 52.1 88.6 52.1 88.7 52.2 Z M 89.4 53.1 C 89.2 53.0 88.9 52.9 88.7 52.9 C 88.6 52.8 89.0 52.7 89.0 52.7 C 89.2 52.7 89.3 53.1 89.4 53.1 Z M 93.0 53.2 C 92.8 53.1 93.1 53.0 93.2 53.1 C 93.4 53.1 93.1 53.3 93.0 53.2 Z M 92.1 52.9 C 92.3 52.9 92.2 53.1 92.0 53.1 C 91.8 53.0 92.0 52.9 92.1 52.9 Z M 93.6 53.6 C 93.2 53.7 92.7 53.8 92.8 53.5 C 92.8 53.3 94.4 53.4 93.6 53.6 Z M 93.6 53.6 " fill="#85878C"></path></g></g></g></svg>