<?xml version="1.0" encoding="UTF-8" standalone="no"?><svg xmlns="http://www.w3.org/2000/svg" xmlns:xlink="http://www.w3.org/1999/xlink" clip-rule="evenodd" stroke-miterlimit="10" viewBox="0 0 298 179"><desc>SVG generated by Keynote</desc><defs></defs><g transform="matrix(1.00, 0.00, -0.00, -1.00, 0.0, 179.0)"><g><clipPath id="clip0x6080018abfa0"><path d="M 100.3 -2.0 L 299.9 -2.0 L 299.9 49.0 L 100.3 49.0 Z M 100.3 -2.0 "></path></clipPath><g clip-path="url(#clip0x6080018abfa0)"><text xml:space="preserve" font-family="Helvetica-Bold,Helvetica" font-weight="bold" font-size="30.0" fill="#FF9200" transform="matrix(1.00, 0.00, -0.00, -1.00, 108.3, 12.4)">[</text><text xml:space="preserve" font-family="Helvetica-Bold,Helvetica" font-weight="bold" font-size="30.0" fill="#FF9200" transform="matrix(1.00, 0.00, -0.00, -1.00, 118.3, 12.4)">1</text><text xml:space="preserve" font-family="Helvetica-Bold,Helvetica" font-weight="bold" font-size="30.0" fill="#FF9200" transform="matrix(1.00, 0.00, -0.00, -1.00, 135.0, 12.4)">0</text><text xml:space="preserve" font-family="Helvetica-Bold,Helvetica" font-weight="bold" font-size="30.0" fill="#FF9200" transform="matrix(1.00, 0.00, -0.00, -1.00, 151.7, 12.4)">1</text><text xml:space="preserve" font-family="Helvetica-Bold,Helvetica" font-weight="bold" font-size="30.0" fill="#FF9200" transform="matrix(1.00, 0.00, -0.00, -1.00, 168.4, 12.4)"> </text><text xml:space="preserve" font-family="Helvetica-Bold,Helvetica" font-weight="bold" font-size="30.0" fill="#FF9200" transform="matrix(1.00, 0.00, -0.00, -1.00, 176.7, 12.4)">0</text><text xml:space="preserve" font-family="Helvetica-Bold,Helvetica" font-weight="bold" font-size="30.0" fill="#FF9200" transform="matrix(1.00, 0.00, -0.00, -1.00, 193.4, 12.4)">1</text><text xml:space="preserve" font-family="Helvetica-Bold,Helvetica" font-weight="bold" font-size="30.0" fill="#FF9200" transform="matrix(1.00, 0.00, -0.00, -1.00, 208.5, 12.4)">1</text><text xml:space="preserve" font-family="Helvetica-Bold,Helvetica" font-weight="bold" font-size="30.0" fill="#FF9200" transform="matrix(1.00, 0.00, -0.00, -1.00, 225.2, 12.4)"> </text><text xml:space="preserve" font-family="Helvetica-Bold,Helvetica" font-weight="bold" font-size="30.0" fill="#FF9200" transform="matrix(1.00, 0.00, -0.00, -1.00, 233.5, 12.4)">1</text><text xml:space="preserve" font-family="Helvetica-Bold,Helvetica" font-weight="bold" font-size="30.0" fill="#FF9200" transform="matrix(1.00, 0.00, -0.00, -1.00, 248.5, 12.4)">1</text><text xml:space="preserve" font-family="Helvetica-Bold,Helvetica" font-weight="bold" font-size="30.0" fill="#FF9200" transform="matrix(1.00, 0.00, -0.00, -1.00, 265.2, 12.4)">0</text><text xml:space="preserve" font-family="Helvetica-Bold,Helvetica" font-weight="bold" font-size="30.0" fill="#FF9200" transform="matrix(1.00, 0.00, -0.00, -1.00, 281.9, 12.4)">]</text></g></g><g><clipPath id="clip0x6080018ac9c0"><path d="M 0.7 123.7 L 100.2 123.7 L 100.2 178.6 L 0.7 178.6 Z M 0.7 123.7 "></path></clipPath><g clip-path="url(#clip0x6080018ac9c0)"><path d="M 14.5 164.5 C 14.1 164.5 13.6 163.9 13.4 163.9 M 14.5 164.5 C 14.5 163.2 13.4 162.4 12.1 161.1 C 10.6 159.8 11.5 161.9 11.1 162.1 C 8.7 160.8 9.2 160.2 10.3 159.5 C 9.0 159.5 7.7 156.3 7.1 157.8 C 10.3 160.9 4.6 155.9 6.7 159.1 C 6.9 159.5 5.8 159.1 5.5 158.8 C 6.0 160.1 3.9 159.1 5.1 160.9 C 4.7 161.7 4.7 161.2 5.2 162.6 C 5.5 163.1 5.6 162.7 5.7 162.5 C 6.5 161.8 6.5 164.0 7.7 164.2 C 7.6 165.9 9.4 165.2 9.1 164.2 C 9.8 164.9 9.8 166.8 11.1 166.5 C 11.2 167.4 13.5 168.5 12.8 166.9 C 12.2 165.8 13.4 166.1 13.8 165.9 C 13.6 165.5 12.2 165.0 12.1 164.6 C 12.6 164.7 14.5 165.4 12.8 164.3 C 13.6 164.2 13.0 163.4 14.5 164.5 C 14.5 164.5 14.5 164.5 14.5 164.5 Z M 9.3 159.5 C 9.5 159.2 9.8 160.0 9.3 159.5 C 9.3 159.5 9.3 159.5 9.3 159.5 Z M 10.1 166.6 C 10.3 166.3 10.6 167.1 10.1 166.6 C 10.1 166.6 10.1 166.6 10.1 166.6 Z M 5.9 162.8 C 6.2 162.5 6.5 163.3 5.9 162.8 C 5.9 162.8 5.9 162.8 5.9 162.8 Z M 10.6 160.9 C 11.3 161.9 9.5 160.7 9.6 160.3 C 9.8 160.5 10.6 160.5 10.6 160.9 C 10.6 160.9 10.6 160.9 10.6 160.9 Z M 9.3 162.7 C 9.5 162.7 9.9 162.9 9.6 163.2 C 9.3 163.1 9.2 162.8 9.3 162.7 C 9.3 162.7 9.3 162.7 9.3 162.7 Z M 6.0 157.6 C 6.1 157.6 6.5 157.9 6.2 158.1 C 5.9 158.0 5.8 157.6 6.0 157.6 C 6.0 157.6 6.0 157.6 6.0 157.6 Z M 11.0 162.5 C 11.1 162.7 11.0 163.1 10.7 162.9 C 10.7 162.7 10.1 162.1 11.0 162.5 C 11.0 162.5 11.0 162.5 11.0 162.5 Z M 13.1 162.6 C 13.8 163.3 11.9 162.6 12.0 162.5 C 12.0 162.1 12.9 162.0 13.1 162.6 C 13.1 162.6 13.1 162.6 13.1 162.6 Z M 11.1 163.3 C 11.6 163.9 10.6 163.3 11.1 163.3 C 11.1 163.3 11.1 163.3 11.1 163.3 Z M 4.6 160.2 C 5.1 160.9 4.1 160.2 4.6 160.2 C 4.6 160.2 4.6 160.2 4.6 160.2 Z M 7.2 164.1 C 7.7 164.8 6.7 164.1 7.2 164.1 C 7.2 164.1 7.2 164.1 7.2 164.1 Z M 8.5 160.1 C 7.4 159.1 9.0 159.2 8.5 160.1 C 8.5 160.1 8.5 160.1 8.5 160.1 Z M 14.9 163.7 C 13.8 163.0 15.3 162.8 14.9 163.7 C 14.9 163.7 14.9 163.7 14.9 163.7 Z M 85.1 143.9 C 85.6 142.8 81.8 146.1 84.1 145.4 C 85.4 145.7 83.4 148.3 83.0 147.0 C 82.3 147.7 82.2 147.7 82.4 148.4 C 81.6 148.0 79.8 149.5 79.7 150.4 C 80.0 151.3 80.7 149.3 80.6 150.8 C 79.0 153.1 81.4 151.2 81.5 152.7 C 81.4 152.8 81.0 152.5 81.0 152.9 C 81.7 153.6 83.3 152.7 83.3 153.7 C 83.5 153.3 85.6 152.3 84.4 152.5 C 83.5 152.1 86.7 151.2 85.4 150.5 C 86.4 150.4 86.1 149.2 87.1 149.1 C 87.6 148.8 87.0 148.3 86.8 148.3 C 86.2 147.9 88.4 148.6 87.9 147.2 C 88.2 147.4 89.5 145.3 88.0 146.5 C 88.4 146.1 90.2 143.9 88.3 144.4 C 86.7 145.8 88.2 142.0 86.9 143.9 C 85.9 145.3 85.9 145.7 86.0 144.2 C 86.3 144.0 87.3 142.2 85.9 143.3 C 85.8 143.7 85.3 144.3 85.1 143.9 C 85.1 143.9 85.1 143.9 85.1 143.9 Z M 86.9 144.7 C 86.4 145.6 86.4 144.5 86.9 144.7 C 86.9 144.7 86.9 144.7 86.9 144.7 Z M 87.3 149.4 C 86.8 150.3 86.8 149.2 87.3 149.4 C 87.3 149.4 87.3 149.4 87.3 149.4 Z M 83.1 146.2 C 83.1 146.9 81.9 146.2 83.1 146.2 C 83.1 146.2 83.1 146.2 83.1 146.2 Z M 87.4 147.4 C 87.3 147.4 87.3 147.1 87.4 146.9 C 87.4 147.0 87.4 147.3 87.4 147.4 C 87.4 147.4 87.4 147.4 87.4 147.4 Z M 82.1 147.6 C 81.8 149.1 81.1 147.1 82.1 147.6 C 82.1 147.6 82.1 147.6 82.1 147.6 Z M 81.4 150.6 C 82.4 151.6 80.3 151.6 81.4 150.6 C 81.4 150.6 81.4 150.6 81.4 150.6 Z M 85.1 150.8 C 85.0 150.5 85.4 150.7 85.1 150.8 C 85.1 150.8 85.1 150.8 85.1 150.8 Z M 89.0 145.6 C 88.9 145.2 89.3 145.4 89.0 145.6 C 89.0 145.6 89.0 145.6 89.0 145.6 Z M 83.8 152.2 C 83.5 151.8 84.4 152.0 83.8 152.2 C 83.8 152.2 83.8 152.2 83.8 152.2 Z M 83.4 146.8 C 83.3 145.1 85.6 146.4 83.4 146.8 C 83.4 146.8 83.4 146.8 83.4 146.8 Z M 84.6 144.8 C 85.0 143.9 85.1 145.3 84.7 145.5 C 84.7 145.4 84.6 144.9 84.6 144.8 C 84.6 144.8 84.6 144.8 84.6 144.8 Z M 82.7 148.0 C 82.8 146.9 83.4 147.5 82.7 148.0 C 82.7 148.0 82.7 148.0 82.7 148.0 Z M 83.5 145.8 C 83.9 145.5 83.4 146.2 83.5 145.8 C 83.5 145.8 83.5 145.8 83.5 145.8 Z M 80.7 148.7 C 81.1 148.4 80.6 149.1 80.7 148.7 C 80.7 148.7 80.7 148.7 80.7 148.7 Z M 84.8 143.5 C 85.2 143.2 84.7 143.9 84.8 143.5 C 84.8 143.5 84.8 143.5 84.8 143.5 Z M 81.5 148.8 C 81.8 149.2 83.4 148.9 81.3 150.1 C 80.8 150.2 80.8 149.1 81.5 148.8 C 81.5 148.8 81.5 148.8 81.5 148.8 Z M 17.7 166.6 C 13.8 162.6 13.5 165.3 13.0 165.6 C 11.9 165.7 12.3 166.6 13.0 167.6 C 13.0 169.7 15.4 167.1 15.3 169.0 C 15.4 171.8 17.7 168.2 17.2 170.6 C 16.7 171.0 18.9 171.6 18.8 171.4 C 19.2 172.9 21.5 171.8 21.6 171.6 C 22.2 172.2 21.4 174.2 24.1 173.5 C 25.9 173.6 25.9 175.8 25.9 174.3 C 26.6 176.2 26.9 174.1 27.9 174.9 C 28.5 176.1 28.3 173.6 29.4 175.7 C 30.4 174.5 28.5 176.6 32.8 176.3 C 30.8 175.9 34.9 175.5 34.0 176.3 C 32.4 177.1 35.9 176.2 37.7 177.0 C 38.3 176.5 40.5 175.3 40.1 176.6 C 42.1 178.2 42.0 175.7 42.9 176.9 C 43.6 177.4 43.8 176.2 44.2 176.3 C 45.0 177.2 45.6 176.5 48.0 176.4 C 53.4 176.0 48.4 173.8 50.2 173.1 C 50.4 172.5 47.0 170.0 48.6 172.1 C 48.1 171.5 44.6 174.6 46.1 171.7 C 44.8 173.0 46.4 170.7 43.5 172.2 C 47.7 173.7 38.9 173.2 42.8 172.1 C 42.1 171.6 40.5 171.7 41.7 172.1 C 42.2 173.8 38.8 171.4 40.5 173.5 C 38.0 172.9 38.5 174.7 37.9 173.4 C 37.4 171.1 38.0 174.0 36.7 173.2 C 33.7 172.9 36.4 170.6 34.4 172.0 C 31.7 170.5 33.6 172.9 32.5 173.0 C 31.9 174.4 29.8 171.2 32.0 171.5 C 30.7 172.0 32.0 170.7 30.5 171.4 C 31.1 173.0 29.2 169.5 29.2 170.7 C 28.0 170.7 28.3 171.7 28.0 171.6 C 26.2 171.0 27.2 169.9 26.5 170.7 C 25.9 171.1 25.7 169.1 25.3 169.4 C 27.1 170.2 23.3 170.2 23.4 169.5 C 24.5 169.8 23.6 167.5 22.4 168.2 C 22.0 171.4 21.3 166.8 20.0 167.3 C 19.9 169.2 16.1 165.3 18.2 165.6 C 18.0 165.7 17.7 166.7 17.7 166.6 M 24.7 169.5 C 26.1 170.2 23.0 169.2 24.7 169.5 M 24.8 169.0 C 25.2 169.8 23.6 168.1 25.0 168.9 C 25.0 168.9 24.7 169.0 24.8 169.0 M 30.9 170.9 C 30.6 171.3 30.1 170.4 30.9 170.9 M 31.8 172.2 C 32.7 172.9 30.4 172.0 31.8 172.2 M 45.6 172.4 C 44.5 175.2 44.0 171.2 45.6 172.4 M 36.6 172.1 C 34.9 172.3 37.2 171.1 36.6 172.1 M 36.0 172.7 C 35.2 173.0 35.9 172.1 36.0 172.7 M 43.0 172.7 C 43.1 172.7 43.1 172.7 43.0 172.7 C 43.0 172.7 43.0 172.7 43.0 172.7 Z M 47.1 172.3 C 47.1 172.3 47.1 172.3 47.1 172.3 C 47.1 172.3 47.1 172.3 47.1 172.3 Z M 39.0 173.0 C 37.8 172.4 41.1 172.9 39.0 173.0 C 39.0 173.0 39.0 173.0 39.0 173.0 Z M 45.6 176.4 C 45.5 176.5 45.5 176.5 45.6 176.4 C 45.6 176.4 45.6 176.4 45.6 176.4 Z M 23.1 170.1 C 23.0 170.1 23.0 170.1 23.1 170.1 C 23.1 170.1 23.1 170.1 23.1 170.1 Z M 19.0 167.0 C 18.9 167.3 18.3 166.3 19.0 167.0 C 19.0 167.0 19.0 167.0 19.0 167.0 Z M 13.8 167.2 C 13.7 167.2 13.7 167.2 13.8 167.2 C 13.8 167.2 13.8 167.2 13.8 167.2 Z M 21.0 170.6 C 20.9 170.6 20.9 170.6 21.0 170.6 C 21.0 170.6 21.0 170.6 21.0 170.6 Z M 22.4 169.2 C 22.3 167.6 24.0 170.3 22.4 169.2 C 22.4 169.2 22.4 169.2 22.4 169.2 Z M 37.2 176.5 C 37.3 175.9 38.4 176.8 37.2 176.5 C 37.2 176.5 37.2 176.5 37.2 176.5 Z M 31.9 172.8 C 32.1 172.5 32.5 173.1 31.9 172.8 C 31.9 172.8 31.9 172.8 31.9 172.8 Z M 29.8 170.3 C 30.1 170.1 30.4 170.7 29.8 170.3 C 29.8 170.3 29.8 170.3 29.8 170.3 Z M 19.3 166.7 C 19.4 166.7 19.4 166.7 19.3 166.7 C 19.3 166.7 19.3 166.7 19.3 166.7 Z M 20.4 168.5 C 19.8 166.7 21.8 170.0 20.4 168.5 C 20.4 168.5 20.4 168.5 20.4 168.5 Z M 18.3 167.8 C 18.6 168.6 16.9 166.8 18.3 167.8 M 18.4 170.2 C 20.1 170.4 16.0 171.6 18.4 170.2 C 18.4 170.2 18.4 170.2 18.4 170.2 Z M 25.6 173.9 C 25.7 174.0 25.7 174.0 25.6 173.9 C 25.6 173.9 25.6 173.9 25.6 173.9 Z M 26.2 170.0 C 27.3 170.5 25.3 170.0 26.2 170.0 C 26.2 170.0 26.2 170.0 26.2 170.0 Z M 16.0 164.5 C 17.1 165.3 15.1 164.3 16.0 164.5 C 16.0 164.5 16.0 164.5 16.0 164.5 Z M 30.4 173.9 C 32.5 174.2 28.9 174.3 30.4 173.9 C 30.4 173.9 30.4 173.9 30.4 173.9 Z M 38.3 173.5 C 38.3 173.5 38.3 173.5 38.3 173.5 C 38.3 173.5 38.3 173.5 38.3 173.5 Z M 39.7 173.0 C 39.7 173.0 39.7 173.0 39.7 173.0 C 39.7 173.0 39.7 173.0 39.7 173.0 Z M 45.7 174.0 C 45.8 174.1 45.8 174.1 45.7 174.0 C 45.7 174.0 45.7 174.0 45.7 174.0 Z M 41.0 172.4 C 41.0 172.4 41.0 172.4 41.0 172.4 C 41.0 172.4 41.0 172.4 41.0 172.4 Z M 45.0 172.5 C 45.1 172.5 45.1 172.5 45.0 172.5 C 45.0 172.5 45.0 172.5 45.0 172.5 Z M 44.3 171.4 C 44.4 171.4 44.4 171.4 44.3 171.4 C 44.3 171.4 44.3 171.4 44.3 171.4 Z M 35.0 177.0 C 35.1 177.1 35.1 177.1 35.0 177.0 C 35.0 177.0 35.0 177.0 35.0 177.0 Z M 21.5 167.4 C 21.6 167.5 21.6 167.5 21.5 167.4 C 21.5 167.4 21.5 167.4 21.5 167.4 Z M 44.7 173.0 C 44.7 173.0 44.7 173.0 44.7 173.0 C 44.7 173.0 44.7 173.0 44.7 173.0 Z M 34.7 173.9 C 34.6 175.0 34.0 172.3 34.9 173.9 C 34.9 173.9 34.6 173.7 34.7 173.9 M 35.8 175.9 C 35.8 176.0 35.8 176.0 35.8 175.9 C 35.8 175.9 35.8 175.9 35.8 175.9 Z M 30.9 175.9 C 30.9 175.9 30.9 175.9 30.9 175.9 C 30.9 175.9 30.9 175.9 30.9 175.9 Z M 40.3 172.2 C 40.1 171.5 41.3 172.6 40.1 172.2 M 46.0 176.0 C 45.7 175.4 47.2 176.3 45.8 176.1 M 14.4 164.0 C 14.0 164.3 13.8 163.2 14.4 164.0 M 29.7 176.2 C 29.4 176.6 28.9 175.7 29.7 176.2 M 32.3 175.3 C 32.2 174.6 33.3 176.0 32.1 175.3 M 42.7 176.3 C 42.7 176.3 42.7 176.3 42.7 176.3 C 42.7 176.3 42.7 176.3 42.7 176.3 Z M 28.0 170.7 C 28.0 170.8 28.0 170.8 28.0 170.7 C 28.0 170.7 28.0 170.7 28.0 170.7 Z M 33.1 173.3 C 32.5 172.4 34.0 174.1 33.1 173.3 M 25.9 171.6 C 25.2 170.2 27.5 172.6 25.9 171.6 M 48.5 175.9 C 47.0 174.8 49.6 176.4 48.5 175.9 M 41.9 173.3 C 40.6 172.1 42.8 174.0 41.9 173.3 M 28.9 171.6 C 29.0 170.9 30.0 172.3 28.9 171.6 M 17.1 165.6 C 16.1 164.9 18.8 166.1 17.1 165.6 M 39.5 176.3 C 39.5 176.4 39.5 176.4 39.5 176.3 C 39.5 176.3 39.5 176.3 39.5 176.3 Z M 18.4 172.0 C 18.5 172.1 18.5 172.1 18.4 172.0 C 18.4 172.0 18.4 172.0 18.4 172.0 Z M 49.3 171.4 C 49.3 171.4 49.3 171.4 49.3 171.4 C 49.3 171.4 49.3 171.4 49.3 171.4 Z M 41.2 174.0 C 41.2 174.0 41.2 174.0 41.2 174.0 C 41.2 174.0 41.2 174.0 41.2 174.0 Z M 47.0 171.6 C 47.1 171.7 47.1 171.7 47.0 171.6 C 47.0 171.6 47.0 171.6 47.0 171.6 Z M 37.2 174.9 C 37.3 174.9 37.3 174.9 37.2 174.9 C 37.2 174.9 37.2 174.9 37.2 174.9 Z M 36.8 171.5 C 36.8 171.5 36.8 171.5 36.8 171.5 C 36.8 171.5 36.8 171.5 36.8 171.5 Z M 32.5 172.3 C 32.5 172.4 32.5 172.4 32.5 172.3 C 32.5 172.3 32.5 172.3 32.5 172.3 Z M 38.6 171.9 C 41.0 171.8 37.3 172.9 38.6 171.9 C 38.6 171.9 38.6 171.9 38.6 171.9 Z M 33.9 174.7 C 34.0 174.8 34.0 174.8 33.9 174.7 C 33.9 174.7 33.9 174.7 33.9 174.7 Z M 33.9 172.4 C 35.6 171.7 34.5 174.1 33.9 172.4 M 27.4 170.0 C 28.0 169.7 27.4 170.8 27.4 170.0 M 23.2 173.1 C 23.2 173.1 23.2 173.1 23.2 173.1 C 23.2 173.1 23.2 173.1 23.2 173.1 Z M 24.1 173.0 C 24.1 173.1 24.1 173.1 24.1 173.0 C 24.1 173.0 24.1 173.0 24.1 173.0 Z M 25.9 169.2 C 25.9 169.3 25.9 169.3 25.9 169.2 C 25.9 169.2 25.9 169.2 25.9 169.2 Z M 23.7 174.2 C 23.8 174.3 23.8 174.3 23.7 174.2 C 23.7 174.2 23.7 174.2 23.7 174.2 Z M 35.8 171.5 C 35.9 171.5 35.9 171.5 35.8 171.5 C 35.8 171.5 35.8 171.5 35.8 171.5 Z M 48.1 171.0 C 48.1 171.0 48.1 171.0 48.1 171.0 C 48.1 171.0 48.1 171.0 48.1 171.0 Z M 15.7 168.8 C 15.7 168.9 15.7 168.9 15.7 168.8 C 15.7 168.8 15.7 168.8 15.7 168.8 Z M 37.0 172.9 C 37.0 173.0 37.0 173.0 37.0 172.9 C 37.0 172.9 37.0 172.9 37.0 172.9 Z M 21.4 172.1 C 21.4 172.1 21.4 172.1 21.4 172.1 C 21.4 172.1 21.4 172.1 21.4 172.1 Z M 36.2 172.6 C 36.2 172.6 36.2 172.6 36.2 172.6 C 36.2 172.6 36.2 172.6 36.2 172.6 Z M 39.1 176.6 C 39.1 176.6 39.1 176.6 39.1 176.6 C 39.1 176.6 39.1 176.6 39.1 176.6 Z M 42.0 177.3 C 42.1 177.4 42.1 177.4 42.0 177.3 C 42.0 177.3 42.0 177.3 42.0 177.3 Z M 38.9 174.3 C 39.0 174.3 39.0 174.3 38.9 174.3 C 38.9 174.3 38.9 174.3 38.9 174.3 Z M 21.1 170.4 C 16.6 167.0 25.3 171.8 21.1 170.4 M 39.8 174.6 C 36.2 174.3 42.7 173.4 39.8 174.6 C 40.2 174.3 39.8 174.6 39.8 174.6 M 50.4 170.6 C 49.3 172.1 49.5 173.2 50.4 174.3 C 51.3 174.7 50.7 172.4 51.2 174.4 C 49.6 175.2 52.8 177.1 52.0 174.6 C 54.2 173.6 52.9 176.1 54.0 174.7 C 56.3 173.7 55.3 174.9 57.2 174.0 C 57.8 172.2 58.6 174.2 58.5 172.7 C 58.2 174.5 60.3 171.4 60.7 172.0 C 59.4 173.7 67.0 168.8 62.5 170.7 C 63.9 169.1 64.0 170.4 64.6 170.3 C 64.9 169.1 67.6 169.3 68.0 168.0 C 67.7 167.9 67.2 168.2 66.9 168.0 C 66.4 167.7 68.0 167.4 67.9 167.5 C 68.3 166.8 70.2 164.4 68.5 167.5 C 68.8 168.1 70.4 165.7 70.7 166.3 C 73.0 164.6 70.4 164.7 72.0 164.8 C 73.6 163.6 74.7 162.6 74.6 162.5 C 75.6 161.8 76.3 162.2 76.6 160.8 C 79.5 160.2 75.7 157.5 78.6 158.9 C 78.6 157.9 80.5 158.8 79.1 157.5 C 79.1 158.8 83.1 155.3 80.5 156.0 C 80.6 155.3 84.6 154.3 82.8 153.4 C 82.5 151.6 81.2 150.9 78.6 152.0 C 79.6 152.5 76.0 153.2 78.7 153.0 C 80.5 151.8 76.5 156.4 76.9 155.0 C 75.5 153.2 75.9 158.1 73.9 157.8 C 75.2 157.7 72.1 161.2 72.0 159.1 C 71.2 159.6 71.6 160.3 70.2 160.2 C 72.4 158.5 70.6 162.2 70.0 161.3 C 70.0 160.5 66.5 162.5 67.4 163.1 C 69.9 164.1 66.3 163.3 66.3 164.4 C 64.8 166.1 65.5 162.6 65.1 164.9 C 64.5 164.9 62.1 166.4 63.4 165.0 C 64.1 164.9 63.2 168.1 62.0 166.5 C 64.1 164.1 58.4 167.7 59.7 167.7 C 64.9 166.4 55.3 171.2 58.5 168.5 C 56.0 168.5 59.0 167.9 56.5 169.4 C 57.1 169.8 55.3 171.2 55.3 169.9 C 54.3 168.2 55.4 172.6 53.0 170.6 C 52.4 169.6 50.1 172.3 50.9 170.8 C 50.9 170.6 50.4 170.5 50.4 170.6 M 51.3 170.5 C 51.1 171.0 50.6 170.2 51.3 170.5 M 51.1 171.0 C 51.0 171.0 51.0 171.0 51.1 171.0 C 51.1 171.0 51.1 171.0 51.1 171.0 Z M 56.2 169.6 C 56.1 169.6 56.1 169.6 56.2 169.6 C 56.2 169.6 56.2 169.6 56.2 169.6 Z M 62.3 172.1 C 62.3 172.0 62.3 172.0 62.3 172.1 C 62.3 172.1 62.3 172.1 62.3 172.1 Z M 59.6 168.2 C 59.5 168.2 59.5 168.2 59.6 168.2 C 59.6 168.2 59.6 168.2 59.6 168.2 Z M 54.5 170.6 C 54.4 170.6 54.4 170.6 54.5 170.6 C 54.5 170.6 54.5 170.6 54.5 170.6 Z M 59.0 167.8 C 59.5 168.3 57.6 167.8 59.0 167.6 C 59.0 167.6 58.8 167.8 59.0 167.8 M 62.8 165.4 C 62.8 165.4 62.8 165.4 62.8 165.4 M 74.2 163.9 C 74.3 163.9 74.3 163.9 74.2 163.9 M 71.2 159.1 C 71.3 159.1 71.3 159.1 71.2 159.1 M 66.8 163.6 C 67.8 162.7 67.3 163.7 66.8 163.6 M 74.2 156.8 C 72.6 157.8 75.3 155.2 74.2 156.8 M 75.2 155.3 C 75.3 155.2 75.3 155.2 75.2 155.3 M 69.4 160.9 C 69.5 161.0 69.5 161.0 69.4 160.9 C 69.4 160.9 69.4 160.9 69.4 160.9 Z M 66.1 163.7 C 64.5 164.4 67.2 162.1 66.1 163.7 M 56.5 168.8 C 57.3 168.0 56.9 169.6 56.5 168.8 M 54.7 169.9 C 54.7 169.9 54.7 169.9 54.7 169.9 C 54.7 169.9 54.7 169.9 54.7 169.9 Z M 72.1 158.8 C 72.1 158.8 72.1 158.8 72.1 158.8 C 72.1 158.8 72.1 158.8 72.1 158.8 Z M 73.5 157.3 C 73.5 157.3 73.5 157.3 73.5 157.3 C 73.5 157.3 73.5 157.3 73.5 157.3 Z M 79.8 158.4 C 79.7 158.4 79.7 158.4 79.8 158.4 C 79.8 158.4 79.8 158.4 79.8 158.4 Z M 57.0 171.3 C 55.5 171.6 57.7 169.2 57.9 170.5 C 58.3 170.9 57.1 171.2 57.0 171.3 M 66.0 165.7 C 67.2 167.0 63.5 164.5 66.0 165.7 M 76.2 155.9 C 78.7 156.3 73.9 156.2 76.2 155.9 M 77.9 153.5 C 78.8 153.1 74.4 157.7 77.0 154.0 C 77.0 153.5 77.5 153.6 77.9 153.5 M 63.3 166.1 C 64.1 166.7 61.3 166.8 63.3 166.1 M 71.8 163.6 C 71.9 162.7 73.0 161.1 73.1 162.5 C 73.9 163.5 71.5 164.6 71.8 163.6 M 52.0 171.4 C 52.6 169.6 52.3 172.7 52.0 171.4 M 57.2 169.7 C 57.2 169.6 57.2 169.6 57.2 169.7 C 57.2 169.7 57.2 169.7 57.2 169.7 Z M 59.1 168.5 C 59.3 168.6 59.3 168.6 59.1 168.5 M 52.4 169.8 C 52.6 169.9 52.6 169.9 52.4 169.8 M 70.7 162.4 C 70.9 162.4 70.9 162.4 70.7 162.4 M 66.7 164.2 C 69.2 164.3 66.0 165.1 66.7 164.2 M 64.1 169.4 C 65.0 169.7 63.0 170.1 64.1 169.4 M 69.0 161.7 C 71.0 162.0 68.3 164.0 69.0 161.7 M 65.8 164.6 C 65.9 164.5 65.9 164.5 65.8 164.6 C 65.8 164.6 65.8 164.6 65.8 164.6 Z M 72.3 163.4 C 72.3 163.5 72.3 163.5 72.3 163.4 C 72.3 163.4 72.3 163.4 72.3 163.4 Z M 72.8 162.9 C 72.8 163.0 72.8 163.0 72.8 162.9 C 72.8 162.9 72.8 162.9 72.8 162.9 Z M 70.3 160.5 C 70.2 160.5 70.2 160.5 70.3 160.5 C 70.3 160.5 70.3 160.5 70.3 160.5 Z M 55.9 173.8 C 57.5 173.3 54.8 174.4 55.9 173.8 C 55.9 173.8 55.9 173.8 55.9 173.8 Z M 60.6 167.0 C 63.4 166.8 59.5 168.8 60.6 167.0 C 60.6 167.0 60.6 167.0 60.6 167.0 Z M 63.8 167.4 C 63.8 167.5 63.8 167.5 63.8 167.4 C 63.8 167.4 63.8 167.4 63.8 167.4 Z M 67.7 161.6 C 67.8 161.6 67.8 161.6 67.7 161.6 C 67.7 161.6 67.7 161.6 67.7 161.6 Z M 56.8 173.7 C 56.8 173.7 56.8 173.7 56.8 173.7 C 56.8 173.7 56.8 173.7 56.8 173.7 Z M 73.9 158.3 C 74.0 158.3 74.0 158.3 73.9 158.3 C 73.9 158.3 73.9 158.3 73.9 158.3 Z M 69.2 166.1 C 69.4 165.3 69.6 166.4 69.2 166.1 C 69.2 166.1 69.2 166.1 69.2 166.1 Z M 71.1 164.8 C 71.1 164.7 71.1 164.7 71.1 164.8 C 71.1 164.8 71.1 164.8 71.1 164.8 Z M 75.5 154.8 C 75.5 154.7 75.5 154.7 75.5 154.8 C 75.5 154.8 75.5 154.8 75.5 154.8 Z M 76.5 162.0 C 76.5 161.9 76.5 161.9 76.5 162.0 C 76.5 162.0 76.5 162.0 76.5 162.0 Z M 76.7 159.3 C 76.7 159.4 76.7 159.4 76.7 159.3 C 76.7 159.3 76.7 159.3 76.7 159.3 Z M 70.2 161.0 C 71.7 159.4 70.2 161.8 70.2 161.0 C 70.2 161.0 70.2 161.0 70.2 161.0 Z M 80.4 154.7 C 80.5 154.7 80.5 154.7 80.4 154.7 C 80.4 154.7 80.4 154.7 80.4 154.7 Z M 79.6 152.5 C 79.8 152.5 79.8 152.5 79.6 152.5 C 79.6 152.5 79.6 152.5 79.6 152.5 Z M 79.2 151.3 C 79.3 151.3 79.3 151.3 79.2 151.3 C 79.2 151.3 79.2 151.3 79.2 151.3 Z M 60.0 170.5 C 59.9 170.5 59.9 170.5 60.0 170.5 C 60.0 170.5 60.0 170.5 60.0 170.5 Z M 57.8 167.9 C 57.8 167.9 57.8 167.9 57.8 167.9 C 57.8 167.9 57.8 167.9 57.8 167.9 Z M 60.4 166.5 C 60.4 166.4 60.4 166.4 60.4 166.5 C 60.4 166.5 60.4 166.5 60.4 166.5 Z M 60.3 172.6 C 60.3 172.6 60.3 172.6 60.3 172.6 C 60.3 172.6 60.3 172.6 60.3 172.6 Z M 68.7 164.3 C 68.6 164.3 68.6 164.3 68.7 164.3 C 68.7 164.3 68.7 164.3 68.7 164.3 Z M 70.3 164.8 C 70.2 164.7 70.2 164.7 70.3 164.8 C 70.3 164.8 70.3 164.8 70.3 164.8 Z M 69.2 167.7 C 69.2 167.7 69.2 167.7 69.2 167.7 C 69.2 167.7 69.2 167.7 69.2 167.7 Z M 71.7 165.1 C 71.7 165.1 71.7 165.1 71.7 165.1 C 71.7 165.1 71.7 165.1 71.7 165.1 Z M 52.4 174.8 C 52.4 174.9 52.4 174.9 52.4 174.8 C 52.4 174.8 52.4 174.8 52.4 174.8 Z M 51.5 172.5 C 51.5 172.6 51.5 172.6 51.5 172.5 C 51.5 172.5 51.5 172.5 51.5 172.5 Z M 67.9 162.7 C 67.9 161.9 69.1 162.6 67.9 162.7 M 64.7 165.3 C 64.7 165.3 64.7 165.3 64.7 165.3 C 64.7 165.3 64.7 165.3 64.7 165.3 Z M 73.3 158.2 C 74.4 158.5 71.5 159.2 73.3 158.2 C 73.3 158.2 73.3 158.2 73.3 158.2 Z M 74.4 162.8 C 74.5 162.8 74.5 162.8 74.4 162.8 C 74.4 162.8 74.4 162.8 74.4 162.8 Z M 75.0 161.7 C 75.2 161.8 75.2 161.8 75.0 161.7 C 75.0 161.7 75.0 161.7 75.0 161.7 Z M 77.7 155.2 C 77.9 155.2 77.9 155.2 77.7 155.2 M 63.8 164.8 C 64.5 164.8 64.4 164.8 63.8 164.8 M 74.4 157.2 C 74.4 157.2 74.4 157.2 74.4 157.2 C 74.4 157.2 74.4 157.2 74.4 157.2 Z M 78.3 153.7 C 78.3 153.8 78.3 153.8 78.3 153.7 C 78.3 153.7 78.3 153.7 78.3 153.7 Z M 61.7 166.8 C 62.4 167.8 61.8 167.8 61.7 166.8 M 54.1 170.6 C 54.1 170.7 54.1 170.7 54.1 170.6 C 54.1 170.6 54.1 170.6 54.1 170.6 Z M 54.1 170.6 " fill="#85878C"></path><path d="M 99.0 150.8 C 99.4 151.2 99.1 152.8 98.7 151.4 C 98.7 151.3 98.8 150.7 99.0 150.8 Z M 98.8 148.0 C 98.9 148.2 98.8 148.4 98.7 148.6 C 98.2 148.9 98.8 147.3 98.8 148.0 Z M 98.5 152.1 C 98.5 152.2 98.6 153.1 98.4 152.9 C 98.3 152.8 98.4 152.1 98.5 152.1 Z M 97.6 145.6 C 97.8 145.6 97.9 146.5 97.8 146.7 C 97.5 147.2 97.1 145.5 97.6 145.6 Z M 91.0 149.5 C 90.9 149.5 90.8 149.5 90.8 149.4 C 90.9 149.4 90.9 149.5 91.0 149.5 Z M 97.5 132.6 C 97.5 132.7 97.3 133.1 97.1 133.0 C 96.9 132.9 97.4 132.0 97.5 132.6 Z M 76.8 142.6 C 76.8 142.6 77.0 142.9 76.8 143.0 C 76.6 143.0 76.6 142.7 76.8 142.6 Z M 76.7 142.9 C 76.6 143.1 76.3 143.0 76.4 142.9 C 76.6 142.7 76.7 142.6 76.7 142.9 Z M 85.5 133.1 C 85.6 133.0 85.7 132.9 85.7 133.1 C 85.6 133.2 85.4 133.2 85.5 133.1 Z M 85.4 133.5 C 85.4 133.8 85.0 133.6 85.1 133.5 C 85.3 133.3 85.4 133.3 85.4 133.5 Z M 82.4 133.9 C 82.4 133.9 82.5 133.8 82.5 133.9 C 82.5 134.0 82.2 134.1 82.4 133.9 Z M 82.2 146.2 C 82.1 146.2 81.7 145.9 81.8 145.7 C 82.0 145.5 82.5 146.1 82.2 146.2 Z M 81.6 146.0 C 81.6 146.2 81.2 146.1 81.4 145.9 C 81.5 145.9 81.6 145.8 81.6 146.0 Z M 83.5 146.6 C 83.7 146.4 84.2 146.6 84.2 146.7 C 84.3 146.9 84.5 147.0 84.6 147.2 C 84.7 147.3 83.4 146.9 83.5 146.6 Z M 87.4 148.3 C 87.4 148.4 87.3 148.4 87.2 148.3 C 87.1 148.1 87.5 148.2 87.4 148.3 Z M 85.2 147.4 C 85.2 147.4 85.1 147.5 85.0 147.3 C 84.9 147.1 85.3 147.3 85.2 147.4 Z M 97.9 140.3 C 98.1 140.2 98.0 140.9 97.9 141.0 C 97.9 141.1 97.9 140.8 97.8 140.9 C 97.7 141.1 97.2 140.7 97.9 140.3 Z M 98.7 146.5 C 98.7 146.6 98.6 146.7 98.4 146.6 C 98.4 146.6 98.5 146.1 98.7 146.5 Z M 97.1 141.3 C 97.2 141.3 97.2 141.4 97.1 141.5 C 97.0 141.5 97.0 141.3 97.1 141.3 Z M 97.0 140.8 C 97.0 141.0 96.8 141.3 96.6 141.2 C 96.4 141.1 96.8 140.3 97.0 140.8 Z M 98.1 139.5 C 98.1 139.7 98.1 139.7 98.0 139.5 C 97.9 139.4 98.1 139.5 98.1 139.5 Z M 98.6 143.0 C 98.6 143.2 98.6 143.2 98.6 143.1 C 98.5 143.0 98.6 143.0 98.6 143.0 Z M 97.6 137.8 C 97.6 137.8 97.9 138.2 97.5 138.4 C 97.0 138.6 97.6 137.8 97.6 137.8 Z M 96.9 135.3 C 96.9 135.5 96.7 135.4 96.8 135.3 C 96.8 135.1 96.9 135.2 96.9 135.3 Z M 96.0 134.5 C 96.1 134.2 96.3 134.0 96.3 134.4 C 96.3 134.8 95.9 134.8 96.0 134.5 Z M 96.2 134.9 C 96.2 134.9 96.2 134.8 96.3 134.8 C 96.3 134.7 96.3 134.9 96.2 134.9 Z M 97.0 137.0 C 97.1 137.2 96.9 137.5 96.8 137.1 C 96.7 136.8 96.8 136.8 97.0 137.0 Z M 92.4 151.5 C 92.6 151.5 92.4 151.7 92.3 151.7 C 92.1 151.8 92.2 151.5 92.4 151.5 Z M 84.8 146.4 C 84.8 146.6 84.7 146.6 84.5 146.4 C 84.4 146.2 84.7 146.2 84.8 146.4 Z M 79.9 143.3 C 79.9 143.5 79.8 143.5 79.6 143.3 C 79.5 143.1 79.8 143.1 79.9 143.3 Z M 86.8 147.5 C 86.8 147.6 86.1 147.7 86.0 147.2 C 85.9 146.7 86.8 147.1 86.8 147.5 Z M 94.0 146.1 C 94.1 146.1 94.0 146.2 94.0 146.2 C 93.8 146.1 93.8 146.1 94.0 146.1 Z M 86.0 146.3 C 86.1 146.3 86.0 146.5 85.9 146.5 C 85.7 146.6 85.8 146.3 86.0 146.3 Z M 80.6 144.1 C 80.8 144.3 80.5 144.6 80.3 144.6 C 79.7 144.7 79.6 144.2 79.4 143.8 C 79.3 143.5 80.5 144.0 80.6 144.1 Z M 94.0 151.4 C 93.9 151.2 93.8 151.2 93.8 151.1 C 93.7 151.2 93.6 151.1 93.5 151.0 C 93.0 150.8 92.4 151.0 92.1 151.0 C 91.2 150.9 91.4 149.8 91.0 149.5 C 91.1 149.6 91.2 149.6 91.3 149.6 C 91.7 149.4 89.8 148.6 89.7 148.5 C 88.0 148.0 89.7 149.2 89.5 149.7 C 89.4 149.9 88.6 148.8 88.6 148.7 C 88.2 148.3 87.9 148.7 87.6 148.3 C 87.4 148.1 87.4 146.6 87.2 146.7 C 87.0 146.8 86.5 146.4 86.4 146.3 C 86.1 146.1 85.6 145.9 85.6 146.5 C 85.7 146.9 85.6 147.2 85.3 146.8 C 85.2 146.4 83.8 144.8 83.4 145.7 C 83.4 145.7 83.6 146.2 83.7 146.2 C 83.1 146.1 81.7 145.0 81.1 145.2 C 79.9 145.6 81.6 144.9 81.4 144.4 C 80.9 143.7 80.6 143.2 79.7 142.9 C 79.4 142.8 78.6 142.4 78.8 143.1 C 78.9 143.6 78.6 143.7 79.0 144.0 C 78.2 144.2 78.3 143.2 78.1 143.2 C 77.8 143.4 78.0 143.7 77.6 143.5 C 77.2 143.1 77.3 143.4 77.5 142.9 C 77.5 142.7 77.1 142.4 77.1 142.4 C 77.1 142.4 77.1 142.3 77.2 142.3 C 76.7 142.1 75.7 142.6 75.6 142.3 C 75.6 142.1 76.1 141.7 76.2 141.5 C 76.2 141.5 76.2 141.5 76.2 141.5 C 75.9 141.4 75.3 141.5 75.3 141.4 C 75.3 141.3 76.0 140.7 75.7 140.8 C 75.4 141.0 74.6 140.2 74.7 139.9 C 74.8 139.7 75.1 138.5 74.9 138.4 C 74.8 138.2 75.4 137.9 75.5 137.8 C 75.7 137.7 76.1 137.8 76.2 137.8 C 76.3 137.8 76.7 137.5 76.7 137.5 C 76.7 137.5 76.8 137.3 77.1 137.0 C 77.5 136.8 77.8 136.9 78.3 136.7 C 78.8 136.6 78.8 136.2 79.2 136.0 C 79.5 135.7 80.3 136.1 80.7 136.0 C 81.1 135.8 80.7 135.3 81.1 135.0 C 81.5 134.7 81.9 134.7 81.8 134.9 C 81.7 135.0 81.9 135.1 82.0 135.0 C 82.1 134.9 82.7 134.8 82.9 134.6 C 83.0 134.4 81.5 134.8 83.1 133.8 C 83.9 133.4 84.8 133.6 84.6 133.7 C 84.0 134.1 85.7 134.1 85.6 133.9 C 85.4 133.6 86.8 132.8 86.2 132.6 C 86.1 132.5 87.3 131.5 87.6 131.5 C 87.8 131.5 88.4 130.9 88.8 131.3 C 89.0 131.4 89.4 130.4 89.6 130.3 C 89.8 130.2 90.9 129.6 91.2 129.6 C 91.5 129.5 91.0 129.9 90.7 130.0 C 90.5 130.1 90.0 130.1 89.9 130.3 C 89.7 130.5 90.2 130.4 90.5 130.3 C 90.8 130.1 91.0 130.3 91.3 130.3 C 91.4 130.1 91.5 130.1 91.8 130.0 C 91.9 129.9 91.9 129.8 91.9 129.7 C 91.8 129.6 91.6 129.6 91.6 129.5 C 91.6 129.4 91.7 129.2 92.0 129.0 C 92.4 128.8 92.7 128.6 93.2 128.5 C 93.7 128.4 93.7 128.2 94.0 128.0 C 94.3 127.7 94.6 127.6 94.7 127.7 C 94.7 127.8 94.4 128.1 94.4 128.2 C 94.4 128.3 95.0 128.3 95.2 128.2 C 96.0 127.8 95.8 128.9 96.7 128.5 C 97.2 128.2 96.8 128.8 96.7 129.2 C 96.8 129.2 96.9 129.2 97.0 129.7 C 97.1 129.7 97.0 130.3 97.1 130.6 C 97.1 130.8 97.4 131.9 97.0 131.2 C 97.0 131.2 97.0 131.1 97.0 131.1 C 97.0 131.1 96.9 131.1 96.9 131.1 C 96.9 131.1 96.5 130.8 96.5 130.8 C 96.4 130.8 96.9 131.1 96.9 131.1 C 96.7 131.3 96.6 131.4 96.5 131.5 C 96.5 131.6 96.6 131.6 96.6 131.7 C 96.6 131.7 96.6 131.7 96.7 131.7 C 96.7 131.7 96.7 131.7 96.7 131.7 C 96.9 131.7 96.8 131.7 96.8 131.9 C 97.1 132.3 96.8 133.3 96.6 133.7 C 95.6 132.7 95.7 134.6 95.9 135.2 C 96.1 135.8 97.3 135.7 97.3 135.4 C 97.3 135.9 97.1 136.0 96.8 136.1 C 96.8 136.1 96.1 136.6 96.1 136.6 C 95.7 137.7 96.8 137.4 96.9 137.6 C 97.1 137.9 97.1 138.3 97.2 138.6 C 97.3 138.9 97.5 138.6 97.6 138.7 C 98.2 139.0 97.2 139.9 97.2 140.2 C 97.1 139.9 97.0 139.6 96.8 139.4 C 97.1 139.7 96.5 140.0 96.5 140.1 C 96.4 140.4 96.4 140.9 96.5 141.2 C 96.6 141.8 96.7 142.4 96.8 143.0 C 96.9 142.8 97.6 141.9 97.5 141.8 C 97.6 142.0 97.4 142.6 97.9 142.3 C 98.6 141.9 98.3 143.4 98.3 143.7 C 98.3 144.5 99.1 145.3 98.3 146.1 C 98.3 146.1 98.0 144.9 97.9 145.0 C 97.2 145.3 96.9 145.6 97.1 146.4 C 97.1 146.6 97.7 147.6 97.7 147.6 C 97.7 147.6 99.2 146.4 98.7 147.4 C 98.6 147.6 98.3 147.2 98.2 147.5 C 98.1 147.8 98.2 148.4 98.2 148.7 C 98.2 148.8 98.0 149.4 98.1 149.4 C 98.3 149.6 98.6 149.6 98.7 149.8 C 98.9 150.0 98.7 150.3 98.5 150.3 C 98.4 150.3 98.4 150.3 98.4 150.3 C 98.4 150.4 98.3 150.4 98.2 150.5 C 98.2 150.5 98.2 150.7 98.1 150.9 C 98.0 150.9 97.9 150.6 98.0 150.4 C 98.0 150.4 97.9 150.4 97.8 150.4 C 97.8 150.7 97.9 151.1 98.0 151.1 C 98.4 151.6 98.6 151.6 98.0 152.4 C 97.5 153.0 95.6 152.6 94.7 151.9 C 94.5 151.8 94.3 151.7 94.0 151.4 Z M 92.5 129.9 C 92.5 129.9 92.4 130.0 92.4 130.0 C 92.5 130.0 92.5 130.2 92.6 130.3 C 92.9 130.2 92.4 130.1 92.7 130.0 C 93.0 129.9 92.9 129.8 92.5 129.9 Z M 94.7 131.3 C 94.8 131.1 94.8 131.1 94.6 131.1 C 94.6 131.2 94.7 131.3 94.7 131.3 Z M 95.9 131.3 C 95.8 131.0 95.3 131.6 95.5 132.2 C 95.8 131.8 95.9 131.5 95.9 131.3 Z M 96.5 132.2 C 96.4 132.2 96.4 132.2 96.3 132.1 C 96.1 132.1 96.3 132.5 96.2 132.5 C 96.1 132.4 95.9 132.0 95.8 132.3 C 95.8 132.4 95.7 132.4 95.7 132.5 C 95.7 132.5 95.8 132.6 95.8 132.6 C 96.0 132.8 96.4 132.5 96.5 132.2 Z M 91.5 131.6 C 91.6 131.4 91.5 131.4 91.4 131.5 C 91.3 131.6 91.4 131.7 91.5 131.6 Z M 89.1 131.8 C 89.3 131.8 89.4 131.6 89.2 131.6 C 89.0 131.5 88.8 131.8 89.1 131.8 Z M 90.4 135.7 C 90.4 135.6 90.4 135.6 90.3 135.7 C 90.1 135.8 90.4 135.8 90.4 135.7 Z M 92.2 136.8 C 92.3 137.0 92.6 136.8 92.5 136.7 C 92.4 136.6 92.1 136.7 92.2 136.8 Z M 88.0 134.3 C 87.9 134.4 88.1 134.5 88.2 134.3 C 88.2 134.2 88.1 134.2 88.0 134.3 Z M 90.8 135.2 C 90.5 135.3 90.6 135.4 90.6 135.5 C 90.6 135.6 90.8 135.6 90.9 135.5 C 91.1 135.3 91.1 135.2 90.8 135.2 Z M 92.5 135.9 C 92.5 136.5 92.8 136.5 92.6 135.8 C 92.5 135.1 92.4 135.6 92.5 135.9 Z M 87.3 132.1 C 87.4 132.1 87.6 131.8 87.6 131.8 C 87.6 131.8 86.8 132.2 87.3 132.1 Z M 96.7 138.3 C 96.7 138.1 96.5 138.0 96.4 138.3 C 96.4 138.6 96.7 138.5 96.7 138.3 Z M 95.4 138.9 C 95.9 138.6 96.0 138.2 96.0 138.2 C 95.9 138.3 95.6 138.2 95.5 138.0 C 95.3 137.6 95.8 137.1 95.4 136.8 C 95.1 136.4 95.1 137.3 95.1 137.4 C 95.1 137.3 95.0 137.2 94.9 137.2 C 94.7 137.3 94.7 137.4 94.8 137.6 C 95.0 137.7 94.9 139.1 95.4 138.9 Z M 90.9 136.5 C 91.1 136.3 91.1 136.1 90.8 136.1 C 90.5 136.1 90.3 136.2 90.3 136.3 C 90.3 136.4 90.7 136.6 90.9 136.5 Z M 89.4 135.9 C 89.4 135.7 89.4 135.7 89.2 135.8 C 88.9 136.1 89.4 136.1 89.4 135.9 Z M 82.1 135.4 C 82.0 135.5 82.3 135.4 82.3 135.3 C 82.2 135.2 82.1 135.2 82.1 135.4 Z M 84.5 136.5 C 84.2 136.9 84.7 136.7 84.7 136.7 C 84.8 136.6 84.6 136.3 84.5 136.5 Z M 86.6 135.9 C 86.4 136.0 86.8 136.0 86.8 135.8 C 86.8 135.7 86.7 135.8 86.6 135.9 Z M 87.6 136.2 C 87.4 136.3 87.7 136.4 87.8 136.2 C 87.9 136.1 87.7 136.1 87.6 136.2 Z M 94.9 140.9 C 94.9 140.9 94.5 140.8 94.7 141.1 C 94.9 141.4 94.9 141.4 94.9 140.9 Z M 92.5 138.8 C 92.4 138.5 92.3 138.2 91.4 138.0 C 90.5 137.9 90.7 138.2 91.1 138.6 C 91.6 138.9 90.1 138.6 90.9 139.3 C 91.2 139.5 92.5 139.1 92.5 138.8 Z M 86.9 137.6 C 87.5 137.6 87.8 136.8 87.3 137.1 C 86.7 137.3 86.4 137.6 86.9 137.6 Z M 86.6 137.5 C 86.6 137.4 86.6 137.4 86.4 137.5 C 86.3 137.6 86.5 137.6 86.6 137.5 Z M 98.0 143.0 C 97.7 141.9 97.1 143.1 97.1 143.1 C 96.9 144.3 98.3 144.0 98.0 143.0 Z M 77.8 142.1 C 77.8 142.1 77.8 142.2 77.9 142.2 C 77.9 142.2 77.9 142.2 77.9 142.2 C 78.1 142.1 77.9 141.8 77.9 141.8 C 77.8 141.9 77.7 142.0 77.8 142.1 Z M 82.5 144.9 C 82.4 144.8 82.2 144.7 82.0 144.8 C 81.9 145.2 83.3 146.0 83.2 145.0 C 83.1 144.8 82.5 143.7 82.2 144.0 C 82.1 144.2 83.0 145.2 82.5 144.9 Z M 81.3 143.5 C 81.9 143.8 81.1 142.6 81.1 143.0 C 81.1 143.2 81.2 143.4 81.3 143.5 Z M 77.7 139.9 C 76.8 139.8 76.3 141.0 77.9 141.0 C 79.4 141.1 79.7 140.6 79.0 140.5 C 78.3 140.3 79.1 140.0 77.7 139.9 Z M 84.1 143.2 C 83.5 144.0 84.0 143.9 84.5 143.4 C 84.6 143.3 84.4 142.7 84.1 143.2 Z M 85.9 144.0 C 86.1 144.2 86.1 144.2 86.0 144.0 C 86.0 143.7 85.7 143.8 85.9 144.0 Z M 77.1 138.0 C 76.7 138.0 76.3 138.2 76.4 138.0 C 76.5 137.8 76.4 137.9 76.2 138.0 C 75.9 138.0 76.3 138.2 76.5 138.3 C 76.7 138.4 77.4 138.1 77.1 138.0 Z M 85.3 138.8 C 85.2 138.9 85.4 138.9 85.5 138.8 C 85.6 138.7 85.5 138.7 85.3 138.8 Z M 92.5 141.4 C 92.5 141.4 92.3 141.4 92.4 141.5 C 92.5 141.7 92.5 141.7 92.5 141.4 Z M 97.7 144.5 C 97.7 144.3 97.4 144.7 97.2 144.5 C 97.1 144.4 97.3 144.3 97.4 144.3 C 97.3 144.3 96.6 144.1 96.9 144.5 C 97.0 144.8 97.9 145.1 97.7 144.5 Z M 87.1 140.0 C 87.5 139.9 86.5 139.1 86.8 138.9 C 87.1 138.8 87.0 138.7 86.6 138.9 C 86.2 139.0 86.6 140.1 87.1 140.0 Z M 84.1 138.7 C 84.3 138.7 85.1 138.4 84.7 138.4 C 84.4 138.4 84.0 138.6 84.1 138.4 C 84.2 138.2 84.1 138.3 83.8 138.3 C 83.5 138.4 83.9 138.6 84.1 138.7 Z M 79.3 136.4 C 79.4 136.4 79.7 136.1 79.4 136.1 C 79.3 136.1 79.1 136.4 79.3 136.4 Z M 92.4 143.6 C 92.2 143.4 92.1 143.4 92.2 143.8 C 92.3 144.1 92.5 143.8 92.4 143.6 Z M 79.3 137.4 C 79.7 137.3 79.1 137.2 79.4 137.1 C 79.7 137.0 79.6 136.9 79.2 137.0 C 78.9 137.1 78.8 137.5 79.3 137.4 Z M 96.3 146.6 C 96.2 146.5 96.0 146.5 96.0 146.7 C 96.1 146.8 96.4 146.7 96.3 146.6 Z M 94.2 146.4 C 94.2 146.3 94.2 146.2 94.2 146.1 C 94.0 144.5 93.5 147.0 94.2 146.4 Z M 91.5 144.8 C 91.9 144.9 91.6 144.4 91.5 144.5 C 91.4 144.6 91.4 144.7 91.5 144.8 Z M 88.5 143.2 C 88.3 143.3 88.7 143.4 88.7 143.3 C 88.7 143.1 88.6 143.1 88.5 143.2 Z M 97.9 148.8 C 98.0 148.6 97.8 148.6 97.8 148.8 C 97.8 148.9 97.9 149.0 97.9 148.8 Z M 90.4 145.0 C 90.4 145.0 90.5 144.9 90.3 144.9 C 90.1 144.9 90.3 145.1 90.4 145.0 Z M 81.2 140.3 C 81.3 140.2 81.4 140.2 81.5 140.2 C 81.5 139.9 81.0 139.6 81.1 139.4 C 81.1 139.4 81.1 139.4 81.1 139.4 C 81.1 139.4 81.1 139.3 81.1 139.3 C 81.2 139.2 81.3 139.2 81.3 139.3 C 81.4 139.3 81.5 139.3 81.7 139.4 C 81.6 139.1 81.4 138.9 81.2 138.9 C 80.9 139.0 80.7 139.4 80.5 139.7 C 80.6 139.8 80.7 140.0 80.8 140.1 C 80.8 140.0 80.8 140.0 80.9 140.0 C 81.1 139.9 81.3 139.9 81.2 140.0 C 81.1 140.1 81.0 140.2 81.0 140.2 C 81.0 140.2 81.1 140.3 81.2 140.3 Z M 89.0 144.8 C 89.3 144.8 89.2 144.7 88.9 144.4 C 88.7 144.3 88.7 144.8 89.0 144.8 Z M 97.4 148.9 C 97.3 148.9 97.2 148.9 97.1 149.0 C 97.2 149.0 97.2 149.0 97.3 149.1 C 97.4 149.2 97.5 149.3 97.7 149.4 C 97.8 149.2 97.8 149.0 97.4 148.9 Z M 94.3 148.4 C 94.4 148.4 95.5 149.1 95.4 148.7 C 95.3 148.2 96.0 148.0 95.1 147.8 C 94.7 147.7 94.1 148.0 93.7 147.9 C 91.5 147.4 93.9 148.7 94.4 149.1 C 94.5 149.2 94.2 148.4 94.3 148.4 Z M 91.5 147.7 C 91.3 147.8 91.5 148.2 91.6 148.2 C 92.1 148.4 91.7 147.5 91.5 147.7 Z M 96.8 150.8 C 96.8 150.8 96.8 150.8 96.8 150.7 C 96.8 150.7 96.7 150.7 96.7 150.8 C 96.7 150.8 96.7 150.8 96.8 150.8 Z M 98.0 151.7 C 97.8 150.9 97.3 152.0 97.3 152.3 C 97.3 152.7 98.1 152.2 98.0 151.7 Z M 92.5 149.4 C 92.1 149.1 91.1 150.0 91.8 150.3 C 92.4 150.6 93.3 149.9 92.5 149.4 Z M 87.7 148.7 C 87.9 148.6 88.2 149.0 87.9 149.1 C 87.7 149.1 87.6 148.7 87.7 148.7 Z M 93.4 152.4 C 93.3 152.3 93.4 152.3 93.4 152.3 C 93.4 152.6 93.4 152.6 93.4 152.4 Z M 93.2 151.3 C 93.4 151.5 93.6 151.7 93.7 151.8 C 93.8 151.9 93.4 151.8 93.3 151.8 C 93.2 151.7 93.3 151.4 93.2 151.3 Z M 90.1 149.5 C 90.2 149.8 89.9 149.6 89.8 149.5 C 89.7 149.5 90.0 149.4 90.1 149.5 Z M 90.7 150.2 C 90.6 150.1 90.8 150.0 90.9 150.1 C 91.1 150.3 90.8 150.3 90.7 150.2 Z M 89.7 148.9 C 90.1 148.9 90.6 149.1 90.4 149.4 C 90.3 149.5 88.9 148.7 89.7 148.9 Z M 89.7 148.9 " fill="#85878C"></path></g></g></g></svg>