<?xml version="1.0" encoding="UTF-8" standalone="no"?><svg xmlns="http://www.w3.org/2000/svg" xmlns:xlink="http://www.w3.org/1999/xlink" clip-rule="evenodd" stroke-miterlimit="10" viewBox="0 0 137 54"><desc>SVG generated by Keynote</desc><defs></defs><g transform="matrix(1.00, 0.00, -0.00, -1.00, 0.0, 54.0)"><g><clipPath id="clip0x6000018b04a0"><path d="M 75.7 -4.0 L 140.7 -4.0 L 140.7 57.0 L 75.7 57.0 Z M 75.7 -4.0 "></path></clipPath><g clip-path="url(#clip0x6000018b04a0)"><text xml:space="preserve" font-family="Helvetica-Light,Helvetica" font-size="36.0" fill="#FEFFFF" transform="matrix(1.00, 0.00, -0.00, -1.00, 85.2, 13.3)">H</text><text xml:space="preserve" font-family="Helvetica-Light,Helvetica" font-size="36.0" fill="#FEFFFF" transform="matrix(1.00, 0.00, -0.00, -1.00, 111.2, 13.3)">i</text><text xml:space="preserve" font-family="Helvetica-Light,Helvetica" font-size="36.0" fill="#FEFFFF" transform="matrix(1.00, 0.00, -0.00, -1.00, 119.2, 13.3)">!</text></g></g><g><clipPath id="clip0x6000018b1040"><path d="M 0.6 41.4 L 86.0 41.4 L 86.0 11.6 L 0.6 11.6 Z M 0.6 41.4 "></path></clipPath><g clip-path="url(#clip0x6000018b1040)"><path d="M 15.0 25.0 C 14.8 25.2 14.0 24.9 13.8 25.1 M 15.0 25.0 C 14.3 23.9 13.0 23.8 11.3 23.6 C 9.3 23.6 11.3 24.6 11.1 25.1 C 8.6 25.5 8.6 24.7 9.0 23.5 C 8.0 24.4 5.2 22.9 5.7 24.4 C 9.8 24.4 2.9 24.8 6.3 25.6 C 6.7 25.9 5.7 26.2 5.3 26.2 C 6.4 26.9 4.5 27.6 6.3 28.0 C 6.5 29.0 6.2 28.6 7.4 29.3 C 7.9 29.4 7.6 29.1 7.6 28.8 C 7.8 27.8 9.0 29.5 9.9 28.8 C 10.8 30.2 11.6 28.5 10.9 27.9 C 11.7 28.1 12.7 29.6 13.6 28.5 C 14.1 29.3 16.4 28.8 15.0 27.9 C 14.0 27.3 15.1 26.9 15.3 26.6 C 14.9 26.2 13.5 26.7 13.3 26.4 C 13.7 26.2 15.5 25.7 13.6 25.7 C 14.2 25.2 13.3 24.9 15.0 25.0 C 15.0 25.0 15.0 25.0 15.0 25.0 Z M 8.3 24.2 C 8.3 23.8 8.9 24.2 8.3 24.2 C 8.3 24.2 8.3 24.2 8.3 24.2 Z M 12.9 29.3 C 12.9 28.9 13.5 29.3 12.9 29.3 C 12.9 29.3 12.9 29.3 12.9 29.3 Z M 7.9 28.9 C 7.9 28.5 8.6 28.9 7.9 28.9 C 7.9 28.9 7.9 28.9 7.9 28.9 Z M 10.0 24.4 C 11.1 24.8 9.1 25.0 9.0 24.6 C 9.2 24.7 9.8 24.1 10.0 24.4 C 10.0 24.4 10.0 24.4 10.0 24.4 Z M 10.2 26.6 C 10.3 26.5 10.7 26.4 10.6 26.8 C 10.4 26.9 10.1 26.8 10.2 26.6 C 10.2 26.6 10.2 26.6 10.2 26.6 Z M 4.9 25.1 C 5.0 24.9 5.4 24.9 5.4 25.3 C 5.1 25.4 4.8 25.2 4.9 25.1 C 4.9 25.1 4.9 25.1 4.9 25.1 Z M 11.2 25.4 C 11.5 25.5 11.6 25.9 11.3 25.9 C 11.1 25.7 10.4 25.7 11.2 25.4 C 11.2 25.4 11.2 25.4 11.2 25.4 Z M 12.9 24.2 C 13.8 24.4 12.0 24.9 12.0 24.8 C 11.7 24.5 12.4 23.9 12.9 24.2 C 12.9 24.2 12.9 24.2 12.9 24.2 Z M 11.8 26.0 C 12.5 26.1 11.4 26.2 11.8 26.0 C 11.8 26.0 11.8 26.0 11.8 26.0 Z M 5.6 27.9 C 6.3 28.1 5.3 28.2 5.6 27.9 C 5.6 27.9 5.6 27.9 5.6 27.9 Z M 9.5 29.1 C 10.2 29.2 9.2 29.3 9.5 29.1 C 9.5 29.1 9.5 29.1 9.5 29.1 Z M 8.1 25.2 C 6.8 25.2 7.9 24.2 8.1 25.2 C 8.1 25.2 8.1 25.2 8.1 25.2 Z M 15.0 24.1 C 13.7 24.1 14.8 23.1 15.0 24.1 C 15.0 24.1 15.0 24.1 15.0 24.1 Z M 62.4 24.4 C 63.6 24.2 59.0 23.0 60.7 24.5 C 61.2 25.7 58.1 25.6 58.9 24.4 C 58.0 24.3 58.0 24.2 57.5 24.8 C 57.3 23.9 55.1 23.5 54.4 23.9 C 53.9 24.7 55.8 24.0 54.6 24.9 C 51.9 25.1 54.8 25.7 53.7 26.7 C 53.6 26.7 53.6 26.2 53.3 26.5 C 53.3 27.5 54.8 28.1 54.1 28.8 C 54.5 28.7 56.5 29.7 55.6 28.9 C 55.4 28.0 57.8 30.0 57.6 28.5 C 58.3 29.2 58.9 28.2 59.6 29.1 C 60.1 29.2 60.0 28.5 60.0 28.3 C 59.9 27.6 60.6 29.8 61.3 28.6 C 61.4 29.0 63.6 28.8 62.0 28.3 C 62.4 28.4 64.9 28.7 63.6 27.4 C 61.9 26.8 65.4 26.0 63.4 26.0 C 61.8 25.8 61.5 26.1 62.6 25.4 C 63.0 25.5 64.8 25.3 63.3 24.7 C 62.9 24.9 62.2 24.8 62.4 24.4 C 62.4 24.4 62.4 24.4 62.4 24.4 Z M 62.7 26.4 C 61.8 26.4 62.7 25.9 62.7 26.4 C 62.7 26.4 62.7 26.4 62.7 26.4 Z M 59.4 29.4 C 58.5 29.4 59.4 28.9 59.4 29.4 C 59.4 29.4 59.4 29.4 59.4 29.4 Z M 59.6 24.1 C 59.1 24.5 59.0 23.1 59.6 24.1 C 59.6 24.1 59.6 24.1 59.6 24.1 Z M 61.0 28.3 C 60.9 28.3 61.1 28.1 61.3 28.0 C 61.3 28.1 61.0 28.3 61.0 28.3 C 61.0 28.3 61.0 28.3 61.0 28.3 Z M 58.0 24.1 C 56.7 24.8 57.7 23.0 58.0 24.1 C 58.0 24.1 58.0 24.1 58.0 24.1 Z M 55.3 25.4 C 55.1 26.8 53.9 25.1 55.3 25.4 C 55.3 25.4 55.3 25.4 55.3 25.4 Z M 57.2 28.4 C 57.4 28.1 57.4 28.6 57.2 28.4 C 57.2 28.4 57.2 28.4 57.2 28.4 Z M 63.1 28.6 C 63.3 28.3 63.3 28.8 63.1 28.6 C 63.1 28.6 63.1 28.6 63.1 28.6 Z M 55.5 28.3 C 55.6 27.8 56.0 28.5 55.5 28.3 C 55.5 28.3 55.5 28.3 55.5 28.3 Z M 59.3 24.6 C 60.6 23.5 60.8 26.2 59.3 24.6 C 59.3 24.6 59.3 24.6 59.3 24.6 Z M 61.5 24.5 C 62.4 24.3 61.4 25.2 61.0 25.0 C 61.0 24.9 61.4 24.6 61.5 24.5 C 61.5 24.5 61.5 24.5 61.5 24.5 Z M 58.0 24.8 C 58.8 24.2 58.8 25.1 58.0 24.8 C 58.0 24.8 58.0 24.8 58.0 24.8 Z M 60.2 24.2 C 60.6 24.3 59.8 24.3 60.2 24.2 C 60.2 24.2 60.2 24.2 60.2 24.2 Z M 56.3 23.6 C 56.7 23.8 55.9 23.8 56.3 23.6 C 56.3 23.6 56.3 23.6 56.3 23.6 Z M 62.6 24.0 C 63.0 24.1 62.2 24.1 62.6 24.0 C 62.6 24.0 62.6 24.0 62.6 24.0 Z M 56.7 24.3 C 56.5 24.8 57.7 25.9 55.6 25.0 C 55.2 24.7 56.1 23.9 56.7 24.3 C 56.7 24.3 56.7 24.3 56.7 24.3 Z M 18.8 25.0 C 13.4 23.5 14.7 26.2 14.5 26.7 C 13.7 27.4 14.5 27.9 15.5 28.4 C 16.6 30.1 17.2 26.6 18.0 28.3 C 19.5 30.6 19.7 26.3 20.3 28.7 C 20.0 29.4 22.1 28.9 22.0 28.7 C 23.0 29.8 24.5 27.8 24.5 27.6 C 25.2 27.9 25.3 30.1 27.5 28.5 C 29.1 27.9 29.9 30.0 29.4 28.5 C 30.6 30.2 30.3 28.1 31.5 28.6 C 32.3 29.5 31.5 27.2 33.0 29.0 C 33.7 27.6 32.3 29.9 36.5 28.9 C 34.5 28.8 38.4 27.8 37.6 28.7 C 36.2 29.7 39.6 28.3 41.5 28.9 C 42.0 28.4 44.2 27.2 43.9 28.6 C 45.8 30.1 45.8 27.6 46.7 28.9 C 47.3 29.4 47.6 28.3 48.0 28.4 C 48.7 29.3 49.3 28.7 51.7 29.0 C 57.0 29.4 52.5 26.4 54.6 26.1 C 54.9 25.7 51.9 22.5 53.1 24.9 C 52.7 24.2 48.4 26.7 50.6 24.0 C 48.9 25.1 50.9 23.0 47.6 24.2 C 52.1 26.1 42.4 25.0 46.8 24.1 C 46.1 23.5 44.3 23.6 45.6 24.1 C 46.1 25.8 42.4 23.3 44.2 25.4 C 41.5 24.8 42.2 26.6 41.4 25.3 C 40.7 23.1 41.6 25.9 40.1 25.3 C 36.8 25.3 39.4 22.7 37.4 24.4 C 34.2 23.3 36.7 25.4 35.6 25.7 C 35.3 27.2 32.3 24.5 34.7 24.3 C 33.4 25.1 34.5 23.5 33.0 24.5 C 34.1 25.9 31.1 23.0 31.6 24.1 C 30.3 24.5 30.9 25.3 30.5 25.4 C 28.6 25.4 29.2 24.0 28.8 25.0 C 28.3 25.6 27.4 23.8 27.1 24.2 C 29.2 24.3 25.5 25.7 25.3 25.0 C 26.5 24.9 24.6 23.1 23.8 24.2 C 24.8 27.3 22.1 23.4 21.2 24.5 C 22.0 26.2 16.8 24.7 18.7 23.9 C 18.6 24.1 18.8 25.1 18.8 25.0 M 26.6 24.5 C 28.2 24.6 24.8 24.8 26.6 24.5 M 26.5 24.0 C 27.2 24.6 24.9 23.6 26.6 23.8 C 26.6 23.8 26.4 24.0 26.5 24.0 M 33.3 24.0 C 33.1 24.4 32.4 23.7 33.3 24.0 M 34.7 25.0 C 35.8 25.5 33.2 25.1 34.7 25.0 M 49.9 24.7 C 48.3 27.3 48.3 23.2 49.9 24.7 M 39.8 24.2 C 38.0 24.5 40.5 23.1 39.8 24.2 M 39.3 24.8 C 38.4 25.2 39.1 24.2 39.3 24.8 M 47.0 24.7 C 47.1 24.7 47.1 24.7 47.0 24.7 C 47.0 24.7 47.0 24.7 47.0 24.7 Z M 51.5 24.8 C 51.5 24.7 51.5 24.7 51.5 24.8 C 51.5 24.8 51.5 24.8 51.5 24.8 Z M 42.6 24.9 C 41.2 24.3 44.9 24.7 42.6 24.9 C 42.6 24.9 42.6 24.9 42.6 24.9 Z M 49.3 28.7 C 49.2 28.7 49.2 28.7 49.3 28.7 C 49.3 28.7 49.3 28.7 49.3 28.7 Z M 25.2 25.6 C 25.2 25.7 25.2 25.7 25.2 25.6 C 25.2 25.6 25.2 25.6 25.2 25.6 Z M 20.1 24.7 C 20.2 25.0 19.2 24.4 20.1 24.7 C 20.1 24.7 20.1 24.7 20.1 24.7 Z M 16.0 27.6 C 15.9 27.7 15.9 27.7 16.0 27.6 C 16.0 27.6 16.0 27.6 16.0 27.6 Z M 23.5 27.0 C 23.5 27.0 23.5 27.0 23.5 27.0 C 23.5 27.0 23.5 27.0 23.5 27.0 Z M 24.3 25.1 C 23.4 23.7 26.2 25.5 24.3 25.1 C 24.3 25.1 24.3 25.1 24.3 25.1 Z M 40.9 28.5 C 40.9 27.9 42.1 28.7 40.9 28.5 C 40.9 28.5 40.9 28.5 40.9 28.5 Z M 34.9 25.6 C 35.1 25.3 35.6 25.7 34.9 25.6 C 34.9 25.6 34.9 25.6 34.9 25.6 Z M 32.0 23.7 C 32.3 23.4 32.8 23.8 32.0 23.7 C 32.0 23.7 32.0 23.7 32.0 23.7 Z M 20.2 24.3 C 20.3 24.2 20.3 24.2 20.2 24.3 C 20.2 24.3 20.2 24.3 20.2 24.3 Z M 22.0 25.4 C 20.8 24.0 24.0 26.1 22.0 25.4 C 22.0 25.4 22.0 25.4 22.0 25.4 Z M 19.9 25.7 C 20.5 26.3 18.2 25.5 19.9 25.7 M 21.1 27.8 C 22.7 27.2 19.7 30.1 21.1 27.8 C 21.1 27.8 21.1 27.8 21.1 27.8 Z M 29.0 28.3 C 29.1 28.4 29.1 28.4 29.0 28.3 C 29.0 28.3 29.0 28.3 29.0 28.3 Z M 28.2 24.4 C 29.5 24.5 27.3 24.7 28.2 24.4 C 28.2 24.4 28.2 24.4 28.2 24.4 Z M 16.3 24.1 C 17.7 24.2 15.4 24.4 16.3 24.1 C 16.3 24.1 16.3 24.1 16.3 24.1 Z M 33.6 27.0 C 35.8 26.8 32.2 27.7 33.6 27.0 C 33.6 27.0 33.6 27.0 33.6 27.0 Z M 41.8 25.5 C 41.9 25.5 41.9 25.5 41.8 25.5 C 41.8 25.5 41.8 25.5 41.8 25.5 Z M 43.4 24.9 C 43.4 24.9 43.4 24.9 43.4 24.9 C 43.4 24.9 43.4 24.9 43.4 24.9 Z M 49.7 26.3 C 49.8 26.3 49.8 26.3 49.7 26.3 C 49.7 26.3 49.7 26.3 49.7 26.3 Z M 44.7 24.3 C 44.8 24.3 44.8 24.3 44.7 24.3 C 44.7 24.3 44.7 24.3 44.7 24.3 Z M 49.2 24.6 C 49.2 24.7 49.2 24.7 49.2 24.6 C 49.2 24.6 49.2 24.6 49.2 24.6 Z M 48.5 23.5 C 48.6 23.5 48.6 23.5 48.5 23.5 C 48.5 23.5 48.5 23.5 48.5 23.5 Z M 38.7 29.3 C 38.8 29.3 38.8 29.3 38.7 29.3 C 38.7 29.3 38.7 29.3 38.7 29.3 Z M 22.6 23.8 C 22.7 24.0 22.7 24.0 22.6 23.8 C 22.6 23.8 22.6 23.8 22.6 23.8 Z M 48.8 25.1 C 48.9 25.2 48.9 25.2 48.8 25.1 C 48.8 25.1 48.8 25.1 48.8 25.1 Z M 38.0 26.2 C 38.1 27.3 37.1 24.7 38.3 26.1 C 38.2 26.2 37.9 26.0 38.0 26.2 M 39.5 28.1 C 39.4 28.1 39.4 28.1 39.5 28.1 C 39.5 28.1 39.5 28.1 39.5 28.1 Z M 34.6 28.8 C 34.5 28.8 34.5 28.8 34.6 28.8 C 34.6 28.8 34.6 28.8 34.6 28.8 Z M 44.0 24.1 C 43.8 23.4 45.2 24.5 43.8 24.1 M 49.8 28.3 C 49.6 27.6 51.0 28.7 49.6 28.3 M 14.7 24.6 C 14.5 25.0 13.8 24.3 14.7 24.6 M 33.5 29.4 C 33.3 29.9 32.6 29.1 33.5 29.4 M 35.8 27.9 C 35.6 27.3 37.0 28.4 35.6 28.0 M 46.4 28.2 C 46.5 28.2 46.5 28.2 46.4 28.2 C 46.4 28.2 46.4 28.2 46.4 28.2 Z M 30.3 24.6 C 30.3 24.6 30.3 24.6 30.3 24.6 C 30.3 24.6 30.3 24.6 30.3 24.6 Z M 36.2 25.9 C 35.4 25.0 37.3 26.5 36.2 25.9 M 28.5 26.1 C 27.3 25.0 30.4 26.4 28.5 26.1 M 52.3 28.5 C 51.0 27.2 53.3 29.2 52.3 28.5 M 45.8 25.3 C 44.4 24.0 46.7 26.0 45.8 25.3 M 31.5 25.1 C 31.4 24.4 32.8 25.5 31.5 25.1 M 17.8 24.4 C 16.6 24.3 19.5 23.9 17.8 24.4 M 43.2 28.3 C 43.2 28.3 43.2 28.3 43.2 28.3 C 43.2 28.3 43.2 28.3 43.2 28.3 Z M 21.9 29.4 C 22.0 29.4 22.0 29.4 21.9 29.4 C 21.9 29.4 21.9 29.4 21.9 29.4 Z M 54.0 24.3 C 54.1 24.3 54.1 24.3 54.0 24.3 C 54.0 24.3 54.0 24.3 54.0 24.3 Z M 44.9 25.9 C 45.0 26.0 45.0 26.0 44.9 25.9 C 44.9 25.9 44.9 25.9 44.9 25.9 Z M 51.5 24.1 C 51.5 24.2 51.5 24.2 51.5 24.1 C 51.5 24.1 51.5 24.1 51.5 24.1 Z M 40.8 26.9 C 40.8 26.9 40.8 26.9 40.8 26.9 C 40.8 26.9 40.8 26.9 40.8 26.9 Z M 40.0 23.6 C 40.0 23.6 40.0 23.6 40.0 23.6 C 40.0 23.6 40.0 23.6 40.0 23.6 Z M 35.5 25.0 C 35.5 25.0 35.5 25.0 35.5 25.0 C 35.5 25.0 35.5 25.0 35.5 25.0 Z M 42.0 23.8 C 44.7 23.6 40.7 24.9 42.0 23.8 C 42.0 23.8 42.0 23.8 42.0 23.8 Z M 37.4 27.1 C 37.4 27.2 37.4 27.2 37.4 27.1 C 37.4 27.1 37.4 27.1 37.4 27.1 Z M 37.0 24.8 C 38.7 23.9 37.9 26.4 37.0 24.8 M 29.5 24.0 C 30.0 23.5 29.7 24.8 29.5 24.0 M 26.5 28.4 C 26.5 28.4 26.5 28.4 26.5 28.4 C 26.5 28.4 26.5 28.4 26.5 28.4 Z M 27.3 28.0 C 27.3 28.1 27.3 28.1 27.3 28.0 C 27.3 28.0 27.3 28.0 27.3 28.0 Z M 27.6 23.8 C 27.7 23.9 27.7 23.9 27.6 23.8 C 27.6 23.8 27.6 23.8 27.6 23.8 Z M 27.4 29.3 C 27.5 29.3 27.5 29.3 27.4 29.3 C 27.4 29.3 27.4 29.3 27.4 29.3 Z M 38.9 23.7 C 39.0 23.7 39.0 23.7 38.9 23.7 C 38.9 23.7 38.9 23.7 38.9 23.7 Z M 52.8 23.6 C 52.8 23.6 52.8 23.6 52.8 23.6 C 52.8 23.6 52.8 23.6 52.8 23.6 Z M 18.2 27.9 C 18.3 28.0 18.3 28.0 18.2 27.9 C 18.2 27.9 18.2 27.9 18.2 27.9 Z M 40.4 25.0 C 40.4 25.0 40.4 25.0 40.4 25.0 C 40.4 25.0 40.4 25.0 40.4 25.0 Z M 24.5 28.2 C 24.6 28.2 24.6 28.2 24.5 28.2 C 24.5 28.2 24.5 28.2 24.5 28.2 Z M 39.5 24.7 C 39.5 24.7 39.5 24.7 39.5 24.7 C 39.5 24.7 39.5 24.7 39.5 24.7 Z M 42.8 28.5 C 42.8 28.6 42.8 28.6 42.8 28.5 C 42.8 28.5 42.8 28.5 42.8 28.5 Z M 45.7 29.3 C 45.8 29.3 45.8 29.3 45.7 29.3 C 45.7 29.3 45.7 29.3 45.7 29.3 Z M 42.5 26.2 C 42.6 26.3 42.6 26.3 42.5 26.2 C 42.5 26.2 42.5 26.2 42.5 26.2 Z M 23.5 26.7 C 18.1 25.6 27.9 26.2 23.5 26.7 M 43.5 26.5 C 39.7 26.2 46.5 25.2 43.5 26.5 C 43.9 26.2 43.5 26.5 43.5 26.5 " fill="#85878C"></path><path d="M 62.8 39.7 C 62.7 40.3 61.1 40.8 62.2 39.8 C 62.2 39.7 62.8 39.5 62.8 39.7 Z M 65.2 38.3 C 65.0 38.5 64.9 38.5 64.7 38.5 C 64.2 38.2 65.8 38.0 65.2 38.3 Z M 61.4 39.9 C 61.4 40.0 60.6 40.5 60.7 40.3 C 60.7 40.1 61.4 39.9 61.4 39.9 Z M 66.8 36.1 C 66.9 36.3 66.1 36.8 65.9 36.8 C 65.3 36.7 66.6 35.7 66.8 36.1 Z M 60.2 32.1 C 60.2 32.0 60.2 31.9 60.2 31.9 C 60.2 31.9 60.3 32.0 60.2 32.1 Z M 78.2 30.0 C 78.1 30.1 77.7 30.1 77.7 29.9 C 77.7 29.6 78.7 29.6 78.2 30.0 Z M 59.8 16.3 C 59.8 16.3 59.6 16.6 59.5 16.5 C 59.3 16.3 59.6 16.2 59.8 16.3 Z M 59.5 16.3 C 59.3 16.4 59.2 16.0 59.4 16.1 C 59.6 16.2 59.7 16.2 59.5 16.3 Z M 72.3 19.6 C 72.4 19.7 72.5 19.7 72.3 19.7 C 72.2 19.8 72.1 19.6 72.3 19.6 Z M 71.8 19.7 C 71.6 19.8 71.5 19.4 71.7 19.5 C 71.9 19.5 72.0 19.6 71.8 19.7 Z M 70.0 17.2 C 70.1 17.2 70.2 17.3 70.1 17.3 C 70.0 17.3 69.9 17.1 70.0 17.2 Z M 59.1 22.8 C 59.0 22.7 59.2 22.2 59.3 22.2 C 59.6 22.3 59.3 23.0 59.1 22.8 Z M 59.0 22.1 C 58.8 22.2 58.8 21.8 58.9 21.9 C 59.1 22.0 59.2 22.1 59.0 22.1 Z M 59.4 24.1 C 59.6 24.1 59.6 24.7 59.6 24.8 C 59.5 25.0 59.5 25.2 59.4 25.4 C 59.3 25.4 59.0 24.1 59.4 24.1 Z M 59.6 28.4 C 59.5 28.4 59.5 28.3 59.6 28.1 C 59.7 27.9 59.7 28.4 59.6 28.4 Z M 59.5 26.0 C 59.4 26.0 59.3 25.9 59.4 25.7 C 59.5 25.6 59.6 26.0 59.5 26.0 Z M 71.6 33.9 C 71.8 34.0 71.1 34.3 71.0 34.3 C 70.9 34.3 71.2 34.1 71.0 34.2 C 70.8 34.2 70.9 33.5 71.6 33.9 Z M 66.5 37.5 C 66.4 37.5 66.3 37.5 66.3 37.3 C 66.3 37.3 66.8 37.2 66.5 37.5 Z M 70.4 33.7 C 70.4 33.8 70.3 33.8 70.2 33.8 C 70.2 33.7 70.3 33.6 70.4 33.7 Z M 70.7 33.3 C 70.6 33.4 70.2 33.4 70.2 33.2 C 70.1 33.0 71.2 33.0 70.7 33.3 Z M 72.5 33.7 C 72.3 33.8 72.3 33.8 72.3 33.7 C 72.4 33.6 72.5 33.7 72.5 33.7 Z M 69.6 35.8 C 69.4 36.0 69.4 36.0 69.4 35.8 C 69.5 35.7 69.6 35.8 69.6 35.8 Z M 73.7 32.5 C 73.7 32.5 73.4 33.0 73.1 32.7 C 72.7 32.3 73.7 32.5 73.7 32.5 Z M 75.6 30.8 C 75.4 30.8 75.4 30.6 75.5 30.6 C 75.7 30.6 75.7 30.7 75.6 30.8 Z M 75.9 29.6 C 76.2 29.5 76.5 29.6 76.1 29.8 C 75.7 29.9 75.6 29.6 75.9 29.6 Z M 75.6 30.0 C 75.6 29.9 75.7 29.8 75.8 29.9 C 75.8 30.0 75.7 30.0 75.6 30.0 Z M 74.1 31.6 C 74.0 31.8 73.6 31.7 73.9 31.5 C 74.1 31.3 74.2 31.4 74.1 31.6 Z M 59.2 34.3 C 59.2 34.4 59.0 34.4 58.9 34.3 C 58.8 34.2 59.1 34.1 59.2 34.3 Z M 60.1 25.1 C 60.0 25.3 59.9 25.2 60.0 24.9 C 60.1 24.7 60.2 25.0 60.1 25.1 Z M 60.6 19.4 C 60.4 19.5 60.4 19.4 60.5 19.2 C 60.6 18.9 60.7 19.2 60.6 19.4 Z M 60.1 27.5 C 60.0 27.5 59.6 26.9 60.0 26.6 C 60.4 26.3 60.4 27.3 60.1 27.5 Z M 64.7 33.1 C 64.8 33.3 64.6 33.2 64.6 33.2 C 64.6 33.0 64.6 33.0 64.7 33.1 Z M 60.8 26.2 C 60.9 26.3 60.6 26.3 60.5 26.2 C 60.4 26.1 60.7 26.0 60.8 26.2 Z M 60.2 20.4 C 60.1 20.6 59.7 20.5 59.6 20.4 C 59.2 19.9 59.7 19.5 60.0 19.2 C 60.2 18.9 60.3 20.3 60.2 20.4 Z M 60.0 35.7 C 60.1 35.5 60.1 35.4 60.1 35.3 C 60.0 35.2 60.1 35.1 60.2 35.0 C 60.1 34.5 59.6 34.1 59.4 33.7 C 59.1 32.9 60.2 32.6 60.2 32.1 C 60.3 32.2 60.3 32.3 60.4 32.4 C 60.7 32.6 60.5 30.6 60.5 30.5 C 60.2 28.7 60.0 30.8 59.4 30.8 C 59.1 30.8 59.8 29.7 59.8 29.6 C 60.1 29.0 59.5 29.0 59.7 28.5 C 59.8 28.3 61.1 27.6 61.0 27.4 C 60.8 27.3 60.9 26.7 61.0 26.5 C 61.0 26.2 60.9 25.6 60.4 26.0 C 60.1 26.2 59.7 26.3 60.1 25.8 C 60.3 25.5 61.1 23.5 60.1 23.6 C 60.1 23.6 59.8 24.0 59.8 24.1 C 59.6 23.5 59.9 21.8 59.5 21.4 C 58.6 20.5 60.0 21.6 60.3 21.2 C 60.7 20.4 61.0 20.0 60.8 19.0 C 60.8 18.8 60.8 17.8 60.3 18.3 C 59.9 18.6 59.7 18.4 59.5 18.9 C 59.1 18.3 60.0 17.9 59.8 17.7 C 59.5 17.6 59.4 17.9 59.4 17.5 C 59.5 16.9 59.3 17.1 59.8 17.0 C 60.0 17.0 60.1 16.5 60.1 16.5 C 60.1 16.5 60.2 16.5 60.2 16.5 C 60.2 16.0 59.3 15.3 59.5 15.2 C 59.7 15.0 60.3 15.3 60.4 15.3 C 60.5 15.3 60.5 15.2 60.5 15.2 C 60.4 15.0 60.1 14.5 60.1 14.4 C 60.2 14.4 61.1 14.7 60.8 14.5 C 60.6 14.3 60.9 13.3 61.2 13.2 C 61.4 13.1 62.6 12.9 62.6 12.7 C 62.7 12.5 63.3 12.9 63.4 12.9 C 63.6 13.0 63.7 13.5 63.8 13.6 C 63.8 13.7 64.3 13.8 64.3 13.8 C 64.3 13.8 64.5 13.9 64.9 14.0 C 65.2 14.2 65.3 14.6 65.7 15.0 C 66.0 15.3 66.4 15.2 66.8 15.4 C 67.2 15.5 67.2 16.4 67.5 16.7 C 67.8 16.9 68.0 16.4 68.5 16.7 C 69.0 16.9 69.1 17.1 68.9 17.1 C 68.8 17.1 68.8 17.3 68.9 17.4 C 69.0 17.5 69.5 17.9 69.7 18.0 C 69.9 18.0 68.9 16.8 70.5 17.8 C 71.3 18.3 71.5 19.2 71.3 19.1 C 70.7 18.8 71.5 20.3 71.6 20.0 C 71.8 19.8 73.1 20.6 73.0 20.0 C 73.0 19.8 74.5 20.5 74.6 20.7 C 74.8 20.9 75.5 21.1 75.4 21.7 C 75.4 21.9 76.5 21.8 76.7 21.9 C 76.8 22.1 77.9 22.8 78.0 23.0 C 78.2 23.3 77.7 23.0 77.4 22.8 C 77.2 22.6 77.0 22.2 76.7 22.2 C 76.5 22.1 76.8 22.6 77.1 22.8 C 77.3 22.9 77.3 23.2 77.4 23.4 C 77.6 23.4 77.7 23.5 77.9 23.7 C 78.1 23.8 78.2 23.8 78.2 23.7 C 78.3 23.5 78.2 23.4 78.3 23.3 C 78.3 23.3 78.6 23.3 78.9 23.5 C 79.3 23.7 79.5 23.9 79.9 24.3 C 80.2 24.7 80.4 24.6 80.7 24.8 C 81.1 24.9 81.3 25.1 81.3 25.2 C 81.2 25.3 80.8 25.1 80.7 25.2 C 80.6 25.3 80.9 25.8 81.1 25.9 C 81.8 26.5 80.8 26.8 81.5 27.4 C 82.0 27.7 81.3 27.6 80.9 27.7 C 80.9 27.8 80.9 27.9 80.6 28.2 C 80.7 28.3 80.1 28.5 79.8 28.7 C 79.7 28.8 78.8 29.6 79.2 29.0 C 79.3 28.9 79.3 28.9 79.3 28.8 C 79.3 28.8 79.3 28.8 79.3 28.8 C 79.3 28.8 79.4 28.2 79.4 28.2 C 79.4 28.2 79.3 28.8 79.3 28.8 C 79.1 28.7 78.9 28.6 78.7 28.6 C 78.7 28.6 78.7 28.7 78.7 28.8 C 78.7 28.8 78.7 28.8 78.6 28.9 C 78.6 28.9 78.7 28.9 78.7 28.9 C 78.8 29.0 78.7 29.0 78.5 29.1 C 78.3 29.5 77.3 29.7 76.9 29.8 C 77.3 28.4 75.7 29.3 75.2 29.8 C 74.7 30.2 75.4 31.3 75.7 31.1 C 75.3 31.4 75.1 31.3 74.8 31.0 C 74.9 31.0 74.0 30.6 74.1 30.6 C 72.9 30.8 73.7 31.6 73.5 31.8 C 73.3 32.1 73.0 32.3 72.8 32.5 C 72.6 32.7 72.9 32.8 72.9 33.0 C 72.8 33.6 71.7 33.1 71.4 33.3 C 71.6 33.0 71.8 32.8 72.0 32.6 C 71.8 33.0 71.3 32.5 71.1 32.6 C 70.8 32.6 70.4 32.9 70.2 33.1 C 69.7 33.4 69.2 33.9 68.8 34.2 C 69.0 34.2 70.1 34.3 70.1 34.3 C 70.0 34.4 69.4 34.6 69.8 34.8 C 70.5 35.3 69.0 35.8 68.8 35.9 C 68.1 36.2 67.8 37.3 66.7 36.9 C 66.7 36.9 67.6 36.1 67.5 36.1 C 66.9 35.6 66.4 35.5 65.8 36.0 C 65.7 36.1 65.0 37.2 65.0 37.2 C 65.0 37.1 66.8 37.9 65.7 38.0 C 65.5 38.0 65.7 37.5 65.4 37.6 C 65.0 37.6 64.6 38.0 64.3 38.1 C 64.2 38.2 63.6 38.3 63.6 38.3 C 63.6 38.6 63.7 38.9 63.6 39.1 C 63.5 39.3 63.1 39.3 63.0 39.1 C 63.0 39.1 63.0 39.0 63.0 39.0 C 62.9 39.0 62.8 39.0 62.7 38.9 C 62.7 39.0 62.5 39.0 62.4 39.0 C 62.3 39.0 62.5 38.8 62.7 38.8 C 62.7 38.7 62.6 38.6 62.6 38.5 C 62.3 38.7 62.1 39.0 62.1 39.0 C 61.8 39.6 61.9 39.8 60.9 39.6 C 60.2 39.5 59.7 37.6 59.9 36.5 C 59.8 36.3 59.8 36.0 60.0 35.7 Z M 78.3 24.3 C 78.3 24.3 78.2 24.3 78.2 24.3 C 78.2 24.4 78.1 24.5 78.1 24.6 C 78.3 24.8 78.1 24.4 78.3 24.5 C 78.6 24.8 78.6 24.6 78.3 24.3 Z M 78.1 26.9 C 78.3 27.0 78.3 26.9 78.2 26.8 C 78.2 26.8 78.1 26.9 78.1 26.9 Z M 78.6 28.0 C 78.9 27.7 78.2 27.6 77.7 28.0 C 78.2 28.1 78.5 28.1 78.6 28.0 Z M 78.1 28.9 C 78.1 28.9 78.1 28.8 78.1 28.7 C 78.1 28.6 77.8 28.9 77.8 28.8 C 77.7 28.6 78.0 28.3 77.7 28.4 C 77.7 28.4 77.6 28.4 77.5 28.4 C 77.5 28.4 77.5 28.5 77.5 28.5 C 77.4 28.8 77.9 29.0 78.1 28.9 Z M 76.4 24.2 C 76.6 24.2 76.5 24.1 76.4 24.1 C 76.2 24.0 76.2 24.2 76.4 24.2 Z M 75.1 22.1 C 75.1 22.4 75.4 22.4 75.3 22.2 C 75.2 21.9 75.0 21.9 75.1 22.1 Z M 72.2 25.1 C 72.3 25.1 72.3 25.1 72.2 25.0 C 72.0 25.0 72.1 25.2 72.2 25.1 Z M 72.1 27.3 C 72.0 27.4 72.2 27.6 72.3 27.5 C 72.3 27.3 72.2 27.1 72.1 27.3 Z M 72.4 22.4 C 72.2 22.4 72.2 22.6 72.4 22.5 C 72.5 22.5 72.5 22.4 72.4 22.4 Z M 72.8 25.3 C 72.7 25.1 72.6 25.1 72.5 25.2 C 72.4 25.3 72.5 25.4 72.7 25.5 C 72.9 25.6 73.0 25.5 72.8 25.3 Z M 73.0 27.1 C 72.4 27.4 72.6 27.6 73.1 27.2 C 73.7 26.7 73.3 26.9 73.0 27.1 Z M 73.9 20.7 C 74.0 20.8 74.3 20.9 74.3 20.9 C 74.3 20.9 73.7 20.3 73.9 20.7 Z M 72.8 31.9 C 73.0 31.8 73.0 31.6 72.7 31.7 C 72.4 31.8 72.6 32.0 72.8 31.9 Z M 71.7 31.1 C 72.2 31.4 72.5 31.3 72.6 31.3 C 72.5 31.2 72.4 30.9 72.5 30.8 C 72.8 30.4 73.4 30.6 73.6 30.1 C 73.8 29.6 73.0 30.0 72.9 30.1 C 73.0 30.1 73.0 29.9 72.9 29.8 C 72.8 29.7 72.7 29.8 72.6 29.9 C 72.5 30.1 71.3 30.7 71.7 31.1 Z M 71.8 26.0 C 72.0 26.1 72.2 25.9 72.0 25.7 C 71.9 25.5 71.7 25.3 71.6 25.4 C 71.5 25.4 71.6 25.9 71.8 26.0 Z M 71.6 24.4 C 71.8 24.3 71.7 24.2 71.5 24.2 C 71.2 24.0 71.4 24.5 71.6 24.4 Z M 68.6 17.6 C 68.5 17.6 68.8 17.9 68.8 17.7 C 68.9 17.6 68.8 17.6 68.6 17.6 Z M 68.7 20.3 C 68.3 20.2 68.6 20.6 68.7 20.6 C 68.8 20.6 69.0 20.3 68.7 20.3 Z M 70.3 21.8 C 70.1 21.8 70.3 22.1 70.4 22.0 C 70.5 22.0 70.4 21.9 70.3 21.8 Z M 70.5 22.9 C 70.3 22.8 70.3 23.1 70.6 23.1 C 70.7 23.1 70.6 23.0 70.5 22.9 Z M 69.7 31.5 C 69.7 31.5 69.6 31.1 69.4 31.5 C 69.2 31.8 69.2 31.8 69.7 31.5 Z M 70.4 28.4 C 70.7 28.2 70.9 28.0 70.6 27.1 C 70.3 26.3 70.1 26.6 70.0 27.1 C 69.9 27.7 69.5 26.2 69.3 27.3 C 69.2 27.7 70.2 28.6 70.4 28.4 Z M 68.9 23.0 C 69.2 23.5 70.0 23.3 69.6 23.0 C 69.1 22.6 68.6 22.5 68.9 23.0 Z M 68.9 22.6 C 69.0 22.6 69.0 22.5 68.8 22.4 C 68.6 22.4 68.7 22.6 68.9 22.6 Z M 69.3 35.3 C 70.1 34.5 68.8 34.5 68.8 34.5 C 67.6 34.9 68.5 36.0 69.3 35.3 Z M 60.7 17.0 C 60.7 17.0 60.7 17.0 60.6 17.1 C 60.6 17.1 60.7 17.1 60.7 17.1 C 60.8 17.3 61.0 16.9 61.0 16.9 C 60.9 16.9 60.7 16.9 60.7 17.0 Z M 60.4 22.5 C 60.5 22.2 60.4 22.1 60.3 21.9 C 59.8 22.0 59.8 23.7 60.6 23.0 C 60.8 22.9 61.5 21.9 61.1 21.8 C 60.8 21.7 60.4 23.0 60.4 22.5 Z M 61.1 20.7 C 61.1 21.4 61.8 20.2 61.4 20.3 C 61.2 20.4 61.1 20.5 61.1 20.7 Z M 62.6 15.9 C 62.3 15.0 61.0 15.2 61.7 16.5 C 62.3 17.9 62.9 18.0 62.7 17.3 C 62.5 16.6 63.2 17.1 62.6 15.9 Z M 62.6 23.0 C 61.7 22.9 61.9 23.3 62.6 23.5 C 62.8 23.6 63.2 23.1 62.6 23.0 Z M 62.8 25.0 C 62.7 25.3 62.7 25.3 62.8 25.1 C 63.1 24.9 62.9 24.8 62.8 25.0 Z M 63.9 14.4 C 63.8 14.1 63.4 13.9 63.7 13.9 C 63.9 13.9 63.8 13.8 63.6 13.6 C 63.4 13.3 63.4 13.8 63.4 14.0 C 63.5 14.2 64.1 14.8 63.9 14.4 Z M 67.1 22.1 C 67.0 22.0 67.1 22.2 67.2 22.2 C 67.3 22.3 67.3 22.2 67.1 22.1 Z M 68.1 29.7 C 68.1 29.7 68.1 29.4 68.0 29.6 C 67.8 29.8 67.8 29.8 68.1 29.7 Z M 67.8 35.7 C 68.0 35.6 67.5 35.5 67.6 35.2 C 67.6 35.1 67.8 35.3 67.8 35.3 C 67.8 35.3 67.7 34.5 67.4 35.0 C 67.3 35.2 67.4 36.1 67.8 35.7 Z M 66.9 24.2 C 67.2 24.5 67.4 23.2 67.7 23.5 C 67.9 23.7 67.9 23.5 67.6 23.2 C 67.4 23.0 66.6 23.9 66.9 24.2 Z M 66.7 21.0 C 66.7 21.2 67.3 21.7 67.2 21.4 C 67.0 21.1 66.7 20.8 66.9 20.8 C 67.1 20.8 67.0 20.8 66.8 20.6 C 66.6 20.3 66.6 20.8 66.7 21.0 Z M 66.5 15.6 C 66.5 15.7 66.9 15.9 66.7 15.6 C 66.7 15.5 66.4 15.5 66.5 15.6 Z M 66.1 30.6 C 66.2 30.3 66.2 30.2 65.9 30.5 C 65.7 30.7 66.0 30.8 66.1 30.6 Z M 65.5 16.1 C 65.8 16.4 65.6 15.9 65.9 16.1 C 66.1 16.3 66.1 16.2 65.8 15.9 C 65.6 15.6 65.3 15.7 65.5 16.1 Z M 65.3 35.4 C 65.3 35.3 65.2 35.1 65.1 35.2 C 65.0 35.4 65.2 35.6 65.3 35.4 Z M 64.5 33.4 C 64.6 33.4 64.7 33.4 64.8 33.3 C 66.1 32.4 63.7 33.1 64.5 33.4 Z M 64.7 30.3 C 64.8 30.8 65.0 30.2 65.0 30.2 C 64.8 30.2 64.7 30.2 64.7 30.3 Z M 64.7 26.9 C 64.5 26.9 64.5 27.2 64.7 27.2 C 64.9 27.1 64.8 27.0 64.7 26.9 Z M 64.1 37.9 C 64.3 37.9 64.2 37.7 64.1 37.8 C 63.9 37.8 63.9 38.0 64.1 37.9 Z M 63.9 29.4 C 64.0 29.5 64.1 29.5 64.0 29.3 C 63.9 29.2 63.9 29.4 63.9 29.4 Z M 63.9 19.1 C 64.0 19.2 64.1 19.3 64.1 19.4 C 64.3 19.3 64.4 18.6 64.6 18.6 C 64.6 18.6 64.6 18.6 64.6 18.6 C 64.7 18.6 64.7 18.6 64.7 18.6 C 64.8 18.6 64.9 18.7 64.8 18.8 C 64.9 18.9 64.9 19.0 64.9 19.1 C 65.1 18.9 65.2 18.7 65.1 18.5 C 64.9 18.3 64.5 18.2 64.1 18.3 C 64.0 18.4 63.9 18.5 63.9 18.7 C 63.9 18.7 63.9 18.7 64.0 18.7 C 64.2 18.8 64.3 19.0 64.1 19.0 C 64.0 19.0 63.9 18.9 63.9 18.9 C 63.9 19.0 63.9 19.0 63.9 19.1 Z M 63.5 28.1 C 63.6 28.4 63.7 28.2 63.8 27.9 C 63.8 27.6 63.3 27.9 63.5 28.1 Z M 63.7 37.5 C 63.7 37.4 63.7 37.3 63.6 37.3 C 63.6 37.3 63.6 37.4 63.6 37.4 C 63.5 37.6 63.5 37.8 63.4 38.0 C 63.7 38.0 63.8 37.9 63.7 37.5 Z M 62.8 34.6 C 62.8 34.6 62.7 35.9 63.0 35.7 C 63.4 35.3 63.9 35.8 63.7 35.0 C 63.6 34.5 63.0 34.2 62.9 33.7 C 62.4 31.6 62.3 34.3 62.2 34.9 C 62.1 35.0 62.7 34.4 62.8 34.6 Z M 62.1 31.7 C 61.9 31.6 61.7 31.9 61.7 32.1 C 61.7 32.6 62.3 31.8 62.1 31.7 Z M 61.8 37.8 C 61.8 37.8 61.8 37.8 61.9 37.8 C 61.9 37.8 61.8 37.7 61.8 37.7 C 61.8 37.7 61.8 37.8 61.8 37.8 Z M 61.5 39.3 C 62.2 38.8 61.0 38.8 60.7 39.0 C 60.3 39.1 61.2 39.6 61.5 39.3 Z M 61.1 33.3 C 61.1 32.9 59.8 32.4 59.9 33.2 C 59.9 33.9 61.0 34.3 61.1 33.3 Z M 59.5 28.8 C 59.6 28.9 59.4 29.4 59.2 29.2 C 59.1 29.0 59.4 28.7 59.5 28.8 Z M 58.8 35.5 C 58.8 35.4 58.9 35.6 58.9 35.6 C 58.7 35.7 58.7 35.7 58.8 35.5 Z M 59.7 34.9 C 59.6 35.1 59.5 35.4 59.5 35.6 C 59.4 35.7 59.3 35.3 59.3 35.2 C 59.3 35.1 59.7 35.0 59.7 34.9 Z M 59.8 31.3 C 59.7 31.5 59.6 31.2 59.7 31.0 C 59.7 30.9 59.9 31.2 59.8 31.3 Z M 59.5 32.2 C 59.5 32.0 59.7 32.1 59.7 32.3 C 59.6 32.5 59.5 32.3 59.5 32.2 Z M 60.2 30.6 C 60.3 31.0 60.4 31.6 60.1 31.5 C 59.9 31.5 60.0 29.9 60.2 30.6 Z M 60.2 30.6 " fill="#85878C"></path></g></g></g></svg>