<?xml version="1.0" encoding="UTF-8" standalone="no"?><svg xmlns="http://www.w3.org/2000/svg" xmlns:xlink="http://www.w3.org/1999/xlink" clip-rule="evenodd" stroke-miterlimit="10" viewBox="0 0 143 54"><desc>SVG generated by Keynote</desc><defs></defs><g transform="matrix(1.00, 0.00, -0.00, -1.00, 0.0, 54.0)"><g><clipPath id="clip0x6080018ab160"><path d="M -3.7 -4.0 L 61.3 -4.0 L 61.3 57.0 L -3.7 57.0 Z M -3.7 -4.0 "></path></clipPath><g clip-path="url(#clip0x6080018ab160)"><text xml:space="preserve" font-family="Helvetica-Light,Helvetica" font-size="36.0" fill="#FEFFFF" transform="matrix(1.00, 0.00, -0.00, -1.00, 5.8, 13.3)">H</text><text xml:space="preserve" font-family="Helvetica-Light,Helvetica" font-size="36.0" fill="#FEFFFF" transform="matrix(1.00, 0.00, -0.00, -1.00, 31.8, 13.3)">i</text><text xml:space="preserve" font-family="Helvetica-Light,Helvetica" font-size="36.0" fill="#FEFFFF" transform="matrix(1.00, 0.00, -0.00, -1.00, 39.8, 13.3)">!</text></g></g><g><clipPath id="clip0x6080018ab460"><path d="M 57.2 36.4 L 142.5 36.4 L 142.5 6.6 L 57.2 6.6 Z M 57.2 36.4 "></path></clipPath><g clip-path="url(#clip0x6080018ab460)"><path d="M 71.6 20.0 C 71.3 20.2 70.6 19.9 70.4 20.1 M 71.6 20.0 C 70.9 18.9 69.6 18.8 67.8 18.6 C 65.9 18.6 67.9 19.6 67.6 20.1 C 65.2 20.5 65.2 19.7 65.5 18.5 C 64.6 19.4 61.7 17.9 62.3 19.4 C 66.3 19.4 59.5 19.8 62.8 20.6 C 63.2 20.9 62.2 21.2 61.9 21.3 C 63.0 21.9 61.1 22.6 62.9 23.0 C 63.1 24.0 62.8 23.6 63.9 24.3 C 64.4 24.4 64.2 24.1 64.2 23.8 C 64.3 22.8 65.5 24.5 66.5 23.8 C 67.3 25.2 68.2 23.5 67.5 22.9 C 68.3 23.1 69.3 24.6 70.2 23.5 C 70.6 24.3 72.9 23.8 71.6 22.9 C 70.6 22.3 71.7 21.9 71.8 21.6 C 71.5 21.2 70.1 21.7 69.9 21.4 C 70.3 21.2 72.1 20.7 70.2 20.7 C 70.8 20.2 69.9 19.9 71.6 20.0 C 71.6 20.0 71.6 20.0 71.6 20.0 Z M 64.8 19.2 C 64.8 18.8 65.5 19.2 64.8 19.2 C 64.8 19.2 64.8 19.2 64.8 19.2 Z M 69.4 24.3 C 69.4 23.9 70.1 24.3 69.4 24.3 C 69.4 24.3 69.4 24.3 69.4 24.3 Z M 64.5 23.9 C 64.5 23.5 65.1 23.9 64.5 23.9 C 64.5 23.9 64.5 23.9 64.5 23.9 Z M 66.6 19.4 C 67.7 19.8 65.7 20.0 65.5 19.6 C 65.8 19.7 66.3 19.1 66.6 19.4 C 66.6 19.4 66.6 19.4 66.6 19.4 Z M 66.7 21.6 C 66.8 21.5 67.3 21.4 67.2 21.8 C 66.9 21.9 66.6 21.8 66.7 21.6 C 66.7 21.6 66.7 21.6 66.7 21.6 Z M 61.4 20.1 C 61.5 19.9 62.0 19.9 61.9 20.3 C 61.6 20.4 61.4 20.2 61.4 20.1 C 61.4 20.1 61.4 20.1 61.4 20.1 Z M 67.8 20.4 C 68.1 20.5 68.2 20.9 67.8 20.9 C 67.7 20.7 66.9 20.7 67.8 20.4 C 67.8 20.4 67.8 20.4 67.8 20.4 Z M 69.5 19.2 C 70.4 19.4 68.6 19.9 68.6 19.8 C 68.3 19.5 69.0 18.9 69.5 19.2 C 69.5 19.2 69.5 19.2 69.5 19.2 Z M 68.3 21.0 C 69.1 21.1 68.0 21.2 68.3 21.0 C 68.3 21.0 68.3 21.0 68.3 21.0 Z M 62.2 22.9 C 62.9 23.1 61.8 23.2 62.2 22.9 C 62.2 22.9 62.2 22.9 62.2 22.9 Z M 66.1 24.1 C 66.8 24.2 65.8 24.3 66.1 24.1 C 66.1 24.1 66.1 24.1 66.1 24.1 Z M 64.6 20.2 C 63.3 20.2 64.4 19.2 64.6 20.2 C 64.6 20.2 64.6 20.2 64.6 20.2 Z M 71.5 19.1 C 70.2 19.1 71.4 18.1 71.5 19.1 C 71.5 19.1 71.5 19.1 71.5 19.1 Z M 119.0 19.4 C 120.2 19.2 115.5 18.0 117.3 19.5 C 117.8 20.7 114.7 20.6 115.5 19.4 C 114.5 19.3 114.5 19.2 114.0 19.8 C 113.9 18.9 111.7 18.5 110.9 18.9 C 110.5 19.7 112.4 19.0 111.2 19.9 C 108.4 20.1 111.3 20.7 110.3 21.7 C 110.2 21.7 110.1 21.2 109.9 21.5 C 109.8 22.5 111.4 23.1 110.7 23.8 C 111.1 23.7 113.0 24.7 112.2 23.9 C 111.9 23.0 114.4 25.0 114.2 23.5 C 114.8 24.2 115.5 23.2 116.1 24.1 C 116.6 24.2 116.6 23.5 116.5 23.3 C 116.5 22.6 117.1 24.8 117.9 23.6 C 118.0 24.0 120.1 23.8 118.5 23.3 C 119.0 23.4 121.5 23.7 120.2 22.4 C 118.4 21.8 122.0 21.0 119.9 21.0 C 118.3 20.8 118.0 21.1 119.2 20.4 C 119.6 20.5 121.4 20.3 119.8 19.7 C 119.5 19.9 118.8 19.8 119.0 19.4 C 119.0 19.4 119.0 19.4 119.0 19.4 Z M 119.3 21.4 C 118.4 21.4 119.2 20.9 119.3 21.4 C 119.3 21.4 119.3 21.4 119.3 21.4 Z M 116.0 24.4 C 115.1 24.4 115.9 23.9 116.0 24.4 C 116.0 24.4 116.0 24.4 116.0 24.4 Z M 116.1 19.1 C 115.7 19.5 115.5 18.1 116.1 19.1 C 116.1 19.1 116.1 19.1 116.1 19.1 Z M 117.5 23.3 C 117.5 23.3 117.7 23.1 117.8 23.0 C 117.8 23.1 117.6 23.3 117.5 23.3 C 117.5 23.3 117.5 23.3 117.5 23.3 Z M 114.6 19.1 C 113.2 19.8 114.3 18.0 114.6 19.1 C 114.6 19.1 114.6 19.1 114.6 19.1 Z M 111.8 20.4 C 111.7 21.8 110.4 20.1 111.8 20.4 C 111.8 20.4 111.8 20.4 111.8 20.4 Z M 113.7 23.4 C 114.0 23.1 114.0 23.6 113.7 23.4 C 113.7 23.4 113.7 23.4 113.7 23.4 Z M 119.7 23.6 C 119.9 23.3 119.9 23.8 119.7 23.6 C 119.7 23.6 119.7 23.6 119.7 23.6 Z M 112.0 23.3 C 112.1 22.8 112.5 23.5 112.0 23.3 C 112.0 23.3 112.0 23.3 112.0 23.3 Z M 115.9 19.6 C 117.1 18.5 117.4 21.2 115.9 19.6 C 115.9 19.6 115.9 19.6 115.9 19.6 Z M 118.1 19.5 C 118.9 19.3 117.9 20.2 117.6 20.0 C 117.6 19.9 118.0 19.6 118.1 19.5 C 118.1 19.5 118.1 19.5 118.1 19.5 Z M 114.5 19.8 C 115.4 19.2 115.3 20.1 114.5 19.8 C 114.5 19.8 114.5 19.8 114.5 19.8 Z M 116.7 19.2 C 117.1 19.3 116.4 19.3 116.7 19.2 C 116.7 19.2 116.7 19.2 116.7 19.2 Z M 112.9 18.6 C 113.3 18.8 112.5 18.8 112.9 18.6 C 112.9 18.6 112.9 18.6 112.9 18.6 Z M 119.1 19.0 C 119.6 19.1 118.8 19.1 119.1 19.0 C 119.1 19.0 119.1 19.0 119.1 19.0 Z M 113.2 19.3 C 113.1 19.8 114.3 20.9 112.1 20.0 C 111.7 19.7 112.7 18.9 113.2 19.3 C 113.2 19.3 113.2 19.3 113.2 19.3 Z M 75.4 20.0 C 70.0 18.5 71.3 21.2 71.0 21.7 C 70.3 22.4 71.0 22.9 72.1 23.4 C 73.2 25.1 73.8 21.6 74.6 23.3 C 76.0 25.6 76.2 21.3 76.8 23.7 C 76.6 24.4 78.7 23.9 78.5 23.7 C 79.6 24.8 81.1 22.8 81.1 22.6 C 81.8 22.9 81.8 25.1 84.0 23.5 C 85.7 22.9 86.4 25.0 86.0 23.5 C 87.2 25.2 86.8 23.1 88.0 23.6 C 88.9 24.5 88.1 22.2 89.6 24.0 C 90.3 22.6 88.9 24.9 93.0 23.9 C 91.0 23.8 95.0 22.8 94.2 23.7 C 92.8 24.7 96.1 23.3 98.0 23.9 C 98.5 23.4 100.8 22.2 100.4 23.6 C 102.4 25.1 102.4 22.6 103.2 23.9 C 103.9 24.4 104.1 23.3 104.6 23.4 C 105.2 24.3 105.9 23.7 108.3 24.0 C 113.6 24.4 109.1 21.4 111.1 21.1 C 111.4 20.7 108.5 17.5 109.7 19.9 C 109.3 19.2 105.0 21.7 107.1 19.0 C 105.5 20.1 107.5 18.0 104.1 19.2 C 108.7 21.1 99.0 20.0 103.3 19.1 C 102.6 18.5 100.8 18.6 102.1 19.1 C 102.6 20.8 99.0 18.3 100.8 20.4 C 98.0 19.8 98.7 21.6 98.0 20.3 C 97.3 18.1 98.1 20.9 96.7 20.3 C 93.4 20.3 95.9 17.7 93.9 19.4 C 90.7 18.3 93.2 20.4 92.1 20.7 C 91.8 22.2 88.8 19.5 91.3 19.3 C 90.0 20.1 91.1 18.5 89.6 19.5 C 90.7 20.9 87.7 18.0 88.1 19.1 C 86.8 19.5 87.5 20.3 87.1 20.4 C 85.1 20.4 85.7 19.0 85.3 20.0 C 84.9 20.6 83.9 18.8 83.7 19.2 C 85.7 19.3 82.0 20.7 81.8 20.0 C 83.1 19.9 81.2 18.1 80.4 19.2 C 81.4 22.3 78.6 18.4 77.7 19.5 C 78.6 21.2 73.3 19.7 75.3 18.9 C 75.2 19.1 75.4 20.1 75.4 20.0 M 83.1 19.5 C 84.8 19.6 81.3 19.8 83.1 19.5 M 83.0 19.0 C 83.8 19.6 81.5 18.6 83.1 18.8 C 83.1 18.8 82.9 19.0 83.0 19.0 M 89.9 19.0 C 89.7 19.4 89.0 18.7 89.9 19.0 M 91.2 20.0 C 92.3 20.5 89.7 20.1 91.2 20.0 M 106.4 19.7 C 104.9 22.3 104.8 18.2 106.4 19.7 M 96.4 19.2 C 94.5 19.5 97.0 18.1 96.4 19.2 M 95.8 19.8 C 95.0 20.2 95.6 19.2 95.8 19.8 M 103.5 19.7 C 103.7 19.7 103.7 19.7 103.5 19.7 C 103.5 19.7 103.5 19.7 103.5 19.7 Z M 108.0 19.8 C 108.1 19.7 108.1 19.7 108.0 19.8 C 108.0 19.8 108.0 19.8 108.0 19.8 Z M 99.2 19.9 C 97.8 19.3 101.4 19.7 99.2 19.9 C 99.2 19.9 99.2 19.9 99.2 19.9 Z M 105.9 23.7 C 105.8 23.7 105.8 23.7 105.9 23.7 C 105.9 23.7 105.9 23.7 105.9 23.7 Z M 81.8 20.6 C 81.7 20.7 81.7 20.7 81.8 20.6 C 81.8 20.6 81.8 20.6 81.8 20.6 Z M 76.7 19.7 C 76.7 20.0 75.7 19.4 76.7 19.7 C 76.7 19.7 76.7 19.7 76.7 19.7 Z M 72.5 22.6 C 72.5 22.7 72.5 22.7 72.5 22.6 C 72.5 22.6 72.5 22.6 72.5 22.6 Z M 80.1 22.0 C 80.0 22.0 80.0 22.0 80.1 22.0 C 80.1 22.0 80.1 22.0 80.1 22.0 Z M 80.8 20.1 C 80.0 18.7 82.8 20.5 80.8 20.1 C 80.8 20.1 80.8 20.1 80.8 20.1 Z M 97.4 23.5 C 97.5 22.9 98.6 23.7 97.4 23.5 C 97.4 23.5 97.4 23.5 97.4 23.5 Z M 91.4 20.6 C 91.6 20.3 92.2 20.7 91.4 20.6 C 91.4 20.6 91.4 20.6 91.4 20.6 Z M 88.6 18.7 C 88.8 18.4 89.3 18.8 88.6 18.7 C 88.6 18.7 88.6 18.7 88.6 18.7 Z M 76.8 19.3 C 76.9 19.2 76.9 19.2 76.8 19.3 C 76.8 19.3 76.8 19.3 76.8 19.3 Z M 78.6 20.4 C 77.3 19.0 80.5 21.1 78.6 20.4 C 78.6 20.4 78.6 20.4 78.6 20.4 Z M 76.4 20.7 C 77.1 21.3 74.8 20.5 76.4 20.7 M 77.7 22.8 C 79.2 22.2 76.3 25.1 77.7 22.8 C 77.7 22.8 77.7 22.8 77.7 22.8 Z M 85.6 23.3 C 85.7 23.4 85.7 23.4 85.6 23.3 C 85.6 23.3 85.6 23.3 85.6 23.3 Z M 84.7 19.4 C 86.1 19.5 83.8 19.7 84.7 19.4 C 84.7 19.4 84.7 19.4 84.7 19.4 Z M 72.8 19.1 C 74.2 19.2 71.9 19.4 72.8 19.1 C 72.8 19.1 72.8 19.1 72.8 19.1 Z M 90.1 22.0 C 92.4 21.8 88.8 22.7 90.1 22.0 C 90.1 22.0 90.1 22.0 90.1 22.0 Z M 98.4 20.5 C 98.4 20.5 98.4 20.5 98.4 20.5 C 98.4 20.5 98.4 20.5 98.4 20.5 Z M 99.9 19.9 C 100.0 19.9 100.0 19.9 99.9 19.9 C 99.9 19.9 99.9 19.9 99.9 19.9 Z M 106.3 21.3 C 106.4 21.3 106.4 21.3 106.3 21.3 C 106.3 21.3 106.3 21.3 106.3 21.3 Z M 101.3 19.3 C 101.3 19.3 101.3 19.3 101.3 19.3 C 101.3 19.3 101.3 19.3 101.3 19.3 Z M 105.7 19.6 C 105.8 19.7 105.8 19.7 105.7 19.6 C 105.7 19.6 105.7 19.6 105.7 19.6 Z M 105.1 18.5 C 105.2 18.5 105.2 18.5 105.1 18.5 C 105.1 18.5 105.1 18.5 105.1 18.5 Z M 95.3 24.3 C 95.4 24.3 95.4 24.3 95.3 24.3 C 95.3 24.3 95.3 24.3 95.3 24.3 Z M 79.2 18.8 C 79.3 19.0 79.3 19.0 79.2 18.8 C 79.2 18.8 79.2 18.8 79.2 18.8 Z M 105.4 20.1 C 105.4 20.2 105.4 20.2 105.4 20.1 C 105.4 20.1 105.4 20.1 105.4 20.1 Z M 94.6 21.2 C 94.6 22.3 93.7 19.7 94.8 21.1 C 94.8 21.2 94.5 21.0 94.6 21.2 M 96.0 23.1 C 96.0 23.1 96.0 23.1 96.0 23.1 C 96.0 23.1 96.0 23.1 96.0 23.1 Z M 91.1 23.8 C 91.1 23.8 91.1 23.8 91.1 23.8 C 91.1 23.8 91.1 23.8 91.1 23.8 Z M 100.5 19.1 C 100.3 18.4 101.7 19.5 100.3 19.1 M 106.3 23.3 C 106.1 22.6 107.5 23.7 106.1 23.3 M 71.3 19.6 C 71.1 20.0 70.4 19.3 71.3 19.6 M 90.0 24.4 C 89.9 24.9 89.1 24.1 90.0 24.4 M 92.3 22.9 C 92.1 22.3 93.5 23.4 92.1 23.0 M 103.0 23.2 C 103.0 23.2 103.0 23.2 103.0 23.2 C 103.0 23.2 103.0 23.2 103.0 23.2 Z M 86.8 19.6 C 86.9 19.6 86.9 19.6 86.8 19.6 C 86.8 19.6 86.8 19.6 86.8 19.6 Z M 92.8 20.9 C 92.0 20.0 93.8 21.5 92.8 20.9 M 85.1 21.1 C 83.9 20.0 87.0 21.4 85.1 21.1 M 108.9 23.5 C 107.5 22.2 109.8 24.2 108.9 23.5 M 102.3 20.3 C 101.0 19.0 103.3 21.0 102.3 20.3 M 88.0 20.1 C 87.9 19.4 89.3 20.5 88.0 20.1 M 74.4 19.4 C 73.1 19.3 76.0 18.9 74.4 19.4 M 99.7 23.3 C 99.8 23.3 99.8 23.3 99.7 23.3 C 99.7 23.3 99.7 23.3 99.7 23.3 Z M 78.5 24.4 C 78.6 24.4 78.6 24.4 78.5 24.4 C 78.5 24.4 78.5 24.4 78.5 24.4 Z M 110.6 19.3 C 110.6 19.3 110.6 19.3 110.6 19.3 C 110.6 19.3 110.6 19.3 110.6 19.3 Z M 101.5 20.9 C 101.5 21.0 101.5 21.0 101.5 20.9 C 101.5 20.9 101.5 20.9 101.5 20.9 Z M 108.0 19.1 C 108.1 19.2 108.1 19.2 108.0 19.1 C 108.0 19.1 108.0 19.1 108.0 19.1 Z M 97.4 21.9 C 97.4 21.9 97.4 21.9 97.4 21.9 C 97.4 21.9 97.4 21.9 97.4 21.9 Z M 96.5 18.6 C 96.6 18.6 96.6 18.6 96.5 18.6 C 96.5 18.6 96.5 18.6 96.5 18.6 Z M 92.0 20.0 C 92.0 20.0 92.0 20.0 92.0 20.0 C 92.0 20.0 92.0 20.0 92.0 20.0 Z M 98.6 18.8 C 101.3 18.6 97.2 19.9 98.6 18.8 C 98.6 18.8 98.6 18.8 98.6 18.8 Z M 93.9 22.1 C 93.9 22.2 93.9 22.2 93.9 22.1 C 93.9 22.1 93.9 22.1 93.9 22.1 Z M 93.5 19.8 C 95.2 18.9 94.5 21.4 93.5 19.8 M 86.0 19.0 C 86.5 18.5 86.3 19.8 86.0 19.0 M 83.0 23.4 C 83.0 23.4 83.0 23.4 83.0 23.4 C 83.0 23.4 83.0 23.4 83.0 23.4 Z M 83.8 23.0 C 83.9 23.1 83.9 23.1 83.8 23.0 C 83.8 23.0 83.8 23.0 83.8 23.0 Z M 84.2 18.8 C 84.2 18.9 84.2 18.9 84.2 18.8 C 84.2 18.8 84.2 18.8 84.2 18.8 Z M 83.9 24.3 C 84.0 24.3 84.0 24.3 83.9 24.3 C 83.9 24.3 83.9 24.3 83.9 24.3 Z M 95.5 18.7 C 95.5 18.7 95.5 18.7 95.5 18.7 C 95.5 18.7 95.5 18.7 95.5 18.7 Z M 109.3 18.6 C 109.4 18.6 109.4 18.6 109.3 18.6 C 109.3 18.6 109.3 18.6 109.3 18.6 Z M 74.8 22.9 C 74.9 23.0 74.9 23.0 74.8 22.9 C 74.8 22.9 74.8 22.9 74.8 22.9 Z M 96.9 20.0 C 97.0 20.0 97.0 20.0 96.9 20.0 C 96.9 20.0 96.9 20.0 96.9 20.0 Z M 81.1 23.2 C 81.1 23.2 81.1 23.2 81.1 23.2 C 81.1 23.2 81.1 23.2 81.1 23.2 Z M 96.0 19.7 C 96.1 19.7 96.1 19.7 96.0 19.7 C 96.0 19.7 96.0 19.7 96.0 19.7 Z M 99.3 23.5 C 99.3 23.6 99.3 23.6 99.3 23.5 C 99.3 23.5 99.3 23.5 99.3 23.5 Z M 102.3 24.3 C 102.3 24.3 102.3 24.3 102.3 24.3 C 102.3 24.3 102.3 24.3 102.3 24.3 Z M 99.1 21.2 C 99.1 21.3 99.1 21.3 99.1 21.2 C 99.1 21.2 99.1 21.2 99.1 21.2 Z M 80.1 21.7 C 74.6 20.6 84.4 21.2 80.1 21.7 M 100.0 21.5 C 96.2 21.2 103.1 20.2 100.0 21.5 C 100.4 21.2 100.1 21.5 100.0 21.5 " fill="#85878C"></path><path d="M 119.4 34.7 C 119.2 35.3 117.7 35.8 118.7 34.8 C 118.8 34.7 119.4 34.5 119.4 34.7 Z M 121.7 33.3 C 121.6 33.5 121.4 33.5 121.2 33.5 C 120.7 33.2 122.4 33.0 121.7 33.3 Z M 118.0 34.9 C 117.9 35.0 117.2 35.5 117.2 35.3 C 117.3 35.1 118.0 34.9 118.0 34.9 Z M 123.4 31.1 C 123.5 31.3 122.6 31.8 122.5 31.8 C 121.9 31.7 123.2 30.7 123.4 31.1 Z M 116.8 27.1 C 116.8 27.0 116.8 26.9 116.8 26.9 C 116.8 26.9 116.8 27.0 116.8 27.1 Z M 134.8 25.0 C 134.7 25.1 134.3 25.1 134.3 24.9 C 134.2 24.6 135.2 24.6 134.8 25.0 Z M 116.3 11.3 C 116.3 11.3 116.2 11.6 116.0 11.5 C 115.9 11.3 116.2 11.2 116.3 11.3 Z M 116.0 11.3 C 115.9 11.4 115.8 11.0 115.9 11.1 C 116.2 11.2 116.2 11.2 116.0 11.3 Z M 128.8 14.6 C 128.9 14.7 129.0 14.7 128.9 14.7 C 128.8 14.8 128.7 14.6 128.8 14.6 Z M 128.3 14.7 C 128.1 14.8 128.1 14.4 128.3 14.5 C 128.5 14.5 128.6 14.6 128.3 14.7 Z M 126.6 12.2 C 126.7 12.2 126.8 12.3 126.7 12.3 C 126.5 12.3 126.4 12.1 126.6 12.2 Z M 115.7 17.8 C 115.6 17.7 115.7 17.2 115.9 17.2 C 116.2 17.3 115.8 18.0 115.7 17.8 Z M 115.5 17.1 C 115.4 17.2 115.3 16.8 115.5 16.9 C 115.6 17.0 115.7 17.1 115.5 17.1 Z M 115.9 19.1 C 116.2 19.1 116.2 19.7 116.1 19.8 C 116.1 20.0 116.0 20.2 115.9 20.4 C 115.9 20.4 115.6 19.1 115.9 19.1 Z M 116.2 23.4 C 116.1 23.4 116.0 23.3 116.1 23.1 C 116.2 22.9 116.3 23.4 116.2 23.4 Z M 116.0 21.0 C 115.9 21.0 115.9 20.9 116.0 20.7 C 116.1 20.6 116.1 21.0 116.0 21.0 Z M 128.2 28.9 C 128.3 29.0 127.6 29.3 127.6 29.3 C 127.5 29.3 127.7 29.1 127.6 29.2 C 127.4 29.2 127.5 28.5 128.2 28.9 Z M 123.1 32.5 C 122.9 32.5 122.8 32.5 122.8 32.3 C 122.8 32.3 123.4 32.2 123.1 32.5 Z M 126.9 28.7 C 127.0 28.8 126.8 28.8 126.8 28.8 C 126.7 28.7 126.9 28.6 126.9 28.7 Z M 127.3 28.3 C 127.2 28.4 126.8 28.4 126.7 28.2 C 126.7 28.0 127.7 28.0 127.3 28.3 Z M 129.0 28.7 C 128.8 28.8 128.8 28.8 128.9 28.7 C 129.0 28.6 129.0 28.7 129.0 28.7 Z M 126.1 30.8 C 125.9 31.0 125.9 31.0 126.0 30.8 C 126.1 30.7 126.1 30.8 126.1 30.8 Z M 130.2 27.5 C 130.2 27.5 130.0 28.0 129.7 27.7 C 129.3 27.3 130.2 27.5 130.2 27.5 Z M 132.1 25.8 C 132.0 25.8 131.9 25.6 132.1 25.6 C 132.3 25.6 132.3 25.7 132.1 25.8 Z M 132.5 24.6 C 132.8 24.5 133.1 24.6 132.7 24.8 C 132.3 24.9 132.2 24.6 132.5 24.6 Z M 132.2 25.0 C 132.1 24.9 132.3 24.8 132.3 24.9 C 132.4 25.0 132.2 25.0 132.2 25.0 Z M 130.7 26.6 C 130.5 26.8 130.2 26.7 130.4 26.5 C 130.7 26.3 130.8 26.4 130.7 26.6 Z M 115.7 29.3 C 115.8 29.4 115.5 29.4 115.4 29.3 C 115.3 29.2 115.6 29.1 115.7 29.3 Z M 116.7 20.1 C 116.5 20.3 116.5 20.2 116.6 19.9 C 116.6 19.7 116.8 20.0 116.7 20.1 Z M 117.1 14.4 C 117.0 14.5 117.0 14.4 117.0 14.2 C 117.1 13.9 117.3 14.2 117.1 14.4 Z M 116.7 22.5 C 116.6 22.5 116.1 21.9 116.5 21.6 C 116.9 21.3 117.0 22.3 116.7 22.5 Z M 121.3 28.1 C 121.3 28.3 121.2 28.2 121.2 28.2 C 121.2 28.0 121.2 28.0 121.3 28.1 Z M 117.4 21.2 C 117.4 21.3 117.2 21.3 117.1 21.2 C 117.0 21.1 117.3 21.0 117.4 21.2 Z M 116.8 15.4 C 116.7 15.6 116.3 15.5 116.2 15.4 C 115.8 14.9 116.3 14.5 116.5 14.2 C 116.7 13.9 116.9 15.3 116.8 15.4 Z M 116.6 30.7 C 116.6 30.5 116.7 30.4 116.7 30.3 C 116.6 30.2 116.6 30.1 116.7 30.0 C 116.6 29.5 116.1 29.1 116.0 28.7 C 115.6 27.9 116.7 27.6 116.8 27.1 C 116.8 27.2 116.8 27.3 116.9 27.4 C 117.2 27.6 117.1 25.6 117.1 25.5 C 116.8 23.7 116.5 25.8 115.9 25.8 C 115.7 25.8 116.3 24.7 116.4 24.6 C 116.6 24.0 116.0 24.0 116.3 23.5 C 116.4 23.3 117.7 22.6 117.5 22.4 C 117.4 22.3 117.5 21.7 117.5 21.5 C 117.5 21.2 117.5 20.6 117.0 21.0 C 116.6 21.2 116.3 21.3 116.6 20.8 C 116.8 20.5 117.7 18.5 116.7 18.6 C 116.6 18.6 116.3 19.0 116.3 19.1 C 116.1 18.5 116.4 16.8 116.0 16.4 C 115.2 15.5 116.6 16.6 116.8 16.2 C 117.3 15.4 117.6 15.0 117.4 14.0 C 117.3 13.8 117.3 12.8 116.8 13.3 C 116.5 13.6 116.2 13.4 116.1 13.9 C 115.6 13.3 116.5 12.9 116.4 12.7 C 116.1 12.6 115.9 12.9 116.0 12.5 C 116.0 11.9 115.9 12.1 116.4 12.0 C 116.5 12.0 116.6 11.5 116.6 11.5 C 116.7 11.5 116.7 11.5 116.8 11.5 C 116.7 11.0 115.8 10.3 116.0 10.2 C 116.2 10.0 116.8 10.3 117.0 10.3 C 117.0 10.3 117.0 10.2 117.1 10.2 C 117.0 10.0 116.6 9.5 116.7 9.4 C 116.8 9.4 117.6 9.7 117.4 9.5 C 117.1 9.3 117.4 8.3 117.7 8.2 C 118.0 8.1 119.1 7.9 119.2 7.7 C 119.3 7.5 119.8 7.9 120.0 7.9 C 120.2 8.0 120.3 8.5 120.3 8.6 C 120.4 8.7 120.8 8.8 120.8 8.8 C 120.8 8.8 121.1 8.9 121.4 9.0 C 121.8 9.2 121.9 9.6 122.2 10.0 C 122.6 10.3 122.9 10.2 123.3 10.4 C 123.7 10.5 123.7 11.4 124.0 11.7 C 124.3 11.9 124.6 11.4 125.1 11.7 C 125.5 11.9 125.7 12.1 125.5 12.1 C 125.3 12.1 125.4 12.3 125.5 12.4 C 125.6 12.5 126.0 12.9 126.2 13.0 C 126.5 13.0 125.4 11.8 127.0 12.8 C 127.8 13.3 128.1 14.2 127.8 14.1 C 127.2 13.8 128.0 15.3 128.2 15.0 C 128.3 14.8 129.7 15.6 129.6 15.0 C 129.6 14.8 131.0 15.5 131.2 15.7 C 131.3 15.9 132.0 16.1 132.0 16.7 C 131.9 16.9 133.0 16.8 133.2 16.9 C 133.4 17.1 134.4 17.8 134.6 18.0 C 134.7 18.3 134.2 18.0 134.0 17.8 C 133.7 17.6 133.5 17.2 133.3 17.2 C 133.1 17.1 133.4 17.6 133.6 17.8 C 133.9 17.9 133.8 18.2 134.0 18.4 C 134.1 18.4 134.3 18.5 134.5 18.7 C 134.6 18.8 134.7 18.8 134.7 18.7 C 134.8 18.5 134.7 18.4 134.8 18.3 C 134.9 18.3 135.1 18.3 135.5 18.5 C 135.8 18.7 136.1 18.9 136.4 19.3 C 136.8 19.7 137.0 19.6 137.3 19.8 C 137.6 19.9 137.9 20.1 137.8 20.2 C 137.8 20.3 137.4 20.1 137.3 20.2 C 137.2 20.3 137.5 20.8 137.6 20.9 C 138.4 21.5 137.3 21.8 138.1 22.4 C 138.5 22.7 137.9 22.6 137.4 22.7 C 137.5 22.8 137.5 22.9 137.2 23.2 C 137.2 23.3 136.6 23.5 136.4 23.7 C 136.2 23.8 135.3 24.6 135.8 24.0 C 135.8 23.9 135.9 23.9 135.9 23.8 C 135.9 23.8 135.9 23.8 135.9 23.8 C 135.9 23.8 135.9 23.2 135.9 23.2 C 135.9 23.2 135.9 23.8 135.8 23.8 C 135.6 23.7 135.4 23.6 135.3 23.6 C 135.3 23.6 135.2 23.7 135.2 23.8 C 135.2 23.8 135.2 23.8 135.2 23.9 C 135.2 23.9 135.2 23.9 135.2 23.9 C 135.3 24.0 135.3 24.0 135.1 24.1 C 134.8 24.5 133.8 24.7 133.4 24.8 C 133.8 23.4 132.2 24.3 131.8 24.8 C 131.3 25.2 132.0 26.3 132.2 26.1 C 131.8 26.4 131.7 26.3 131.4 26.0 C 131.4 26.0 130.6 25.6 130.6 25.6 C 129.5 25.8 130.2 26.6 130.1 26.8 C 129.9 27.1 129.6 27.3 129.4 27.5 C 129.1 27.7 129.5 27.8 129.5 28.0 C 129.4 28.6 128.3 28.1 128.0 28.3 C 128.2 28.0 128.4 27.8 128.5 27.6 C 128.3 28.0 127.8 27.5 127.7 27.6 C 127.3 27.6 127.0 27.9 126.7 28.1 C 126.2 28.4 125.8 28.9 125.3 29.2 C 125.5 29.2 126.6 29.3 126.7 29.3 C 126.5 29.4 125.9 29.6 126.4 29.8 C 127.1 30.3 125.6 30.8 125.4 30.9 C 124.6 31.2 124.3 32.3 123.2 31.9 C 123.2 31.9 124.1 31.1 124.0 31.1 C 123.4 30.6 123.0 30.5 122.4 31.0 C 122.3 31.1 121.6 32.2 121.6 32.2 C 121.6 32.1 123.4 32.9 122.2 33.0 C 122.0 33.0 122.2 32.5 121.9 32.6 C 121.6 32.6 121.2 33.0 120.9 33.1 C 120.8 33.2 120.2 33.3 120.2 33.3 C 120.1 33.6 120.3 33.9 120.1 34.1 C 120.0 34.3 119.7 34.3 119.5 34.1 C 119.5 34.1 119.5 34.0 119.5 34.0 C 119.4 34.0 119.4 34.0 119.3 33.9 C 119.2 34.0 119.1 34.0 118.9 34.0 C 118.8 34.0 119.0 33.8 119.2 33.8 C 119.2 33.7 119.2 33.6 119.2 33.5 C 118.9 33.7 118.7 34.0 118.6 34.0 C 118.4 34.6 118.5 34.8 117.5 34.6 C 116.7 34.5 116.2 32.6 116.5 31.5 C 116.4 31.3 116.4 31.0 116.6 30.7 Z M 134.9 19.3 C 134.8 19.3 134.8 19.3 134.8 19.3 C 134.7 19.4 134.7 19.5 134.6 19.6 C 134.8 19.8 134.7 19.4 134.9 19.5 C 135.1 19.8 135.1 19.6 134.9 19.3 Z M 134.7 21.9 C 134.9 22.0 134.9 21.9 134.8 21.8 C 134.7 21.8 134.7 21.9 134.7 21.9 Z M 135.2 23.0 C 135.5 22.7 134.7 22.6 134.3 23.0 C 134.7 23.1 135.0 23.1 135.2 23.0 Z M 134.7 23.9 C 134.7 23.9 134.7 23.8 134.6 23.7 C 134.6 23.6 134.4 23.9 134.3 23.8 C 134.3 23.6 134.6 23.3 134.3 23.4 C 134.2 23.4 134.1 23.4 134.1 23.4 C 134.0 23.4 134.0 23.5 134.0 23.5 C 134.0 23.8 134.4 24.0 134.7 23.9 Z M 132.9 19.2 C 133.1 19.2 133.0 19.1 132.9 19.1 C 132.8 19.0 132.8 19.2 132.9 19.2 Z M 131.6 17.1 C 131.7 17.4 131.9 17.4 131.8 17.2 C 131.8 16.9 131.5 16.9 131.6 17.1 Z M 128.8 20.1 C 128.9 20.1 128.8 20.1 128.7 20.0 C 128.5 20.0 128.7 20.2 128.8 20.1 Z M 128.6 22.3 C 128.5 22.4 128.8 22.6 128.8 22.5 C 128.8 22.3 128.7 22.1 128.6 22.3 Z M 128.9 17.4 C 128.7 17.4 128.8 17.6 128.9 17.5 C 129.1 17.5 129.1 17.4 128.9 17.4 Z M 129.4 20.3 C 129.2 20.1 129.1 20.1 129.1 20.2 C 129.0 20.3 129.0 20.4 129.2 20.5 C 129.5 20.6 129.5 20.5 129.4 20.3 Z M 129.5 22.1 C 129.0 22.4 129.1 22.6 129.7 22.2 C 130.2 21.7 129.8 21.9 129.5 22.1 Z M 130.5 15.7 C 130.6 15.8 130.9 15.9 130.9 15.9 C 130.9 15.9 130.2 15.3 130.5 15.7 Z M 129.4 26.9 C 129.5 26.8 129.6 26.6 129.3 26.7 C 129.0 26.8 129.2 27.0 129.4 26.9 Z M 128.3 26.1 C 128.7 26.4 129.1 26.3 129.1 26.3 C 129.1 26.2 129.0 25.9 129.1 25.8 C 129.3 25.4 130.0 25.6 130.2 25.1 C 130.4 24.6 129.6 25.0 129.4 25.1 C 129.5 25.1 129.5 24.9 129.5 24.8 C 129.4 24.7 129.2 24.8 129.2 24.9 C 129.1 25.1 127.8 25.7 128.3 26.1 Z M 128.3 21.0 C 128.6 21.1 128.8 20.9 128.6 20.7 C 128.4 20.5 128.2 20.3 128.2 20.4 C 128.1 20.4 128.1 20.9 128.3 21.0 Z M 128.1 19.4 C 128.4 19.3 128.3 19.2 128.1 19.2 C 127.8 19.0 127.9 19.5 128.1 19.4 Z M 125.2 12.6 C 125.0 12.6 125.3 12.9 125.4 12.7 C 125.4 12.6 125.3 12.6 125.2 12.6 Z M 125.3 15.3 C 124.9 15.2 125.2 15.6 125.3 15.6 C 125.4 15.6 125.5 15.3 125.3 15.3 Z M 126.9 16.8 C 126.7 16.8 126.8 17.1 127.0 17.0 C 127.1 17.0 127.0 16.9 126.9 16.8 Z M 127.0 17.9 C 126.9 17.8 126.9 18.1 127.1 18.1 C 127.3 18.1 127.2 18.0 127.0 17.9 Z M 126.2 26.5 C 126.2 26.5 126.1 26.1 125.9 26.5 C 125.8 26.8 125.8 26.8 126.2 26.5 Z M 127.0 23.4 C 127.2 23.2 127.4 23.0 127.2 22.1 C 126.9 21.3 126.7 21.6 126.6 22.1 C 126.4 22.7 126.1 21.2 125.8 22.3 C 125.7 22.7 126.7 23.6 127.0 23.4 Z M 125.5 18.0 C 125.8 18.5 126.5 18.3 126.1 18.0 C 125.6 17.6 125.2 17.5 125.5 18.0 Z M 125.4 17.6 C 125.5 17.6 125.5 17.5 125.3 17.4 C 125.2 17.4 125.3 17.6 125.4 17.6 Z M 125.8 30.3 C 126.7 29.5 125.3 29.5 125.3 29.5 C 124.2 29.9 125.0 31.0 125.8 30.3 Z M 117.2 12.0 C 117.2 12.0 117.2 12.0 117.2 12.1 C 117.2 12.1 117.2 12.1 117.2 12.1 C 117.4 12.3 117.5 11.9 117.5 11.9 C 117.4 11.9 117.3 11.9 117.2 12.0 Z M 117.0 17.5 C 117.0 17.2 117.0 17.1 116.8 16.9 C 116.3 17.0 116.3 18.7 117.2 18.0 C 117.3 17.9 118.0 16.9 117.6 16.8 C 117.4 16.7 117.0 18.0 117.0 17.5 Z M 117.7 15.7 C 117.6 16.4 118.3 15.2 118.0 15.3 C 117.8 15.4 117.7 15.5 117.7 15.7 Z M 119.2 10.9 C 118.8 10.0 117.5 10.2 118.2 11.5 C 118.9 12.9 119.5 13.0 119.3 12.3 C 119.1 11.6 119.7 12.1 119.2 10.9 Z M 119.2 18.0 C 118.2 17.9 118.5 18.3 119.2 18.5 C 119.4 18.6 119.8 18.1 119.2 18.0 Z M 119.3 20.0 C 119.2 20.3 119.3 20.3 119.4 20.1 C 119.6 19.9 119.4 19.8 119.3 20.0 Z M 120.5 9.4 C 120.4 9.1 120.0 8.9 120.2 8.9 C 120.4 8.9 120.3 8.8 120.2 8.6 C 120.0 8.3 120.0 8.8 120.0 9.0 C 120.0 9.2 120.6 9.8 120.5 9.4 Z M 123.7 17.1 C 123.5 17.0 123.6 17.2 123.8 17.2 C 123.9 17.3 123.9 17.2 123.7 17.1 Z M 124.7 24.7 C 124.7 24.7 124.6 24.4 124.5 24.6 C 124.4 24.8 124.4 24.8 124.7 24.7 Z M 124.4 30.7 C 124.5 30.6 124.1 30.5 124.2 30.2 C 124.2 30.1 124.3 30.3 124.4 30.3 C 124.3 30.3 124.2 29.5 123.9 30.0 C 123.8 30.2 124.0 31.1 124.4 30.7 Z M 123.4 19.2 C 123.7 19.5 124.0 18.2 124.2 18.5 C 124.5 18.7 124.5 18.5 124.2 18.2 C 123.9 18.0 123.1 18.9 123.4 19.2 Z M 123.2 16.0 C 123.3 16.2 123.9 16.7 123.7 16.4 C 123.6 16.1 123.2 15.8 123.5 15.8 C 123.7 15.8 123.6 15.8 123.4 15.6 C 123.2 15.3 123.2 15.8 123.2 16.0 Z M 123.0 10.6 C 123.1 10.7 123.5 10.9 123.3 10.6 C 123.2 10.5 122.9 10.5 123.0 10.6 Z M 122.7 25.6 C 122.8 25.3 122.7 25.2 122.5 25.5 C 122.2 25.7 122.6 25.8 122.7 25.6 Z M 122.1 11.1 C 122.4 11.4 122.2 10.9 122.4 11.1 C 122.7 11.3 122.7 11.2 122.4 10.9 C 122.1 10.6 121.8 10.7 122.1 11.1 Z M 121.8 30.4 C 121.9 30.3 121.8 30.1 121.7 30.2 C 121.6 30.4 121.8 30.6 121.8 30.4 Z M 121.1 28.4 C 121.2 28.4 121.2 28.4 121.3 28.3 C 122.6 27.4 120.2 28.1 121.1 28.4 Z M 121.3 25.3 C 121.3 25.8 121.6 25.2 121.5 25.2 C 121.4 25.2 121.3 25.2 121.3 25.3 Z M 121.2 21.9 C 121.0 21.9 121.1 22.2 121.3 22.2 C 121.4 22.1 121.4 22.0 121.2 21.9 Z M 120.6 32.9 C 120.8 32.9 120.8 32.7 120.6 32.8 C 120.5 32.8 120.4 33.0 120.6 32.9 Z M 120.5 24.4 C 120.6 24.5 120.6 24.5 120.6 24.3 C 120.5 24.2 120.4 24.4 120.5 24.4 Z M 120.4 14.1 C 120.5 14.2 120.6 14.3 120.7 14.4 C 120.9 14.3 120.9 13.6 121.2 13.6 C 121.2 13.6 121.2 13.6 121.2 13.6 C 121.2 13.6 121.2 13.6 121.2 13.6 C 121.4 13.6 121.5 13.7 121.4 13.8 C 121.4 13.9 121.4 14.0 121.5 14.1 C 121.7 13.9 121.8 13.7 121.6 13.5 C 121.5 13.3 121.0 13.2 120.6 13.3 C 120.6 13.4 120.5 13.5 120.5 13.7 C 120.5 13.7 120.5 13.7 120.5 13.7 C 120.8 13.8 120.8 14.0 120.7 14.0 C 120.6 14.0 120.5 13.9 120.4 13.9 C 120.4 14.0 120.4 14.0 120.4 14.1 Z M 120.0 23.1 C 120.1 23.4 120.2 23.2 120.3 22.9 C 120.4 22.6 119.9 22.9 120.0 23.1 Z M 120.3 32.5 C 120.3 32.4 120.2 32.3 120.1 32.3 C 120.1 32.3 120.1 32.4 120.1 32.4 C 120.1 32.6 120.0 32.8 120.0 33.0 C 120.2 33.0 120.4 32.9 120.3 32.5 Z M 119.3 29.6 C 119.4 29.6 119.3 30.9 119.6 30.7 C 120.0 30.3 120.5 30.8 120.3 30.0 C 120.2 29.5 119.5 29.2 119.4 28.7 C 118.9 26.6 118.8 29.3 118.7 29.9 C 118.7 30.0 119.2 29.4 119.3 29.6 Z M 118.6 26.7 C 118.5 26.6 118.2 26.9 118.2 27.1 C 118.3 27.6 118.9 26.8 118.6 26.7 Z M 118.3 32.8 C 118.3 32.8 118.4 32.8 118.5 32.8 C 118.4 32.8 118.4 32.7 118.3 32.7 C 118.3 32.7 118.3 32.8 118.3 32.8 Z M 118.1 34.3 C 118.7 33.8 117.6 33.8 117.3 34.0 C 116.9 34.1 117.8 34.6 118.1 34.3 Z M 117.6 28.3 C 117.7 27.9 116.4 27.4 116.4 28.2 C 116.5 28.9 117.5 29.3 117.6 28.3 Z M 116.0 23.8 C 116.2 23.9 115.9 24.4 115.7 24.2 C 115.6 24.0 115.9 23.7 116.0 23.8 Z M 115.3 30.5 C 115.4 30.4 115.4 30.6 115.4 30.6 C 115.2 30.7 115.2 30.7 115.3 30.5 Z M 116.2 29.9 C 116.2 30.1 116.1 30.4 116.0 30.6 C 116.0 30.7 115.9 30.3 115.9 30.2 C 115.9 30.1 116.2 30.0 116.2 29.9 Z M 116.4 26.3 C 116.2 26.5 116.2 26.2 116.2 26.0 C 116.3 25.9 116.4 26.2 116.4 26.3 Z M 116.0 27.2 C 116.1 27.0 116.2 27.1 116.2 27.3 C 116.2 27.5 116.0 27.3 116.0 27.2 Z M 116.8 25.6 C 116.9 26.0 117.0 26.6 116.6 26.5 C 116.5 26.5 116.5 24.9 116.8 25.6 Z M 116.8 25.6 " fill="#85878C"></path></g></g></g></svg>