<?xml version="1.0" encoding="UTF-8" standalone="no"?><svg xmlns="http://www.w3.org/2000/svg" xmlns:xlink="http://www.w3.org/1999/xlink" clip-rule="evenodd" stroke-miterlimit="10" viewBox="0 0 670 159"><desc>SVG generated by Keynote</desc><defs></defs><g transform="matrix(1.00, 0.00, -0.00, -1.00, 0.0, 159.0)"><text xml:space="preserve" font-family="Helvetica-Light,Helvetica" font-size="80.0" fill="#FF9200" transform="matrix(1.00, 0.00, -0.00, -1.00, 308.1, 99.4)">i</text><text xml:space="preserve" font-family="Helvetica-Light,Helvetica" font-size="80.0" fill="#FF9200" transform="matrix(1.00, 0.00, -0.00, -1.00, 325.9, 99.4)">t</text><text xml:space="preserve" font-family="Helvetica-Light,Helvetica" font-size="80.0" fill="#FF9200" transform="matrix(1.00, 0.00, -0.00, -1.00, 348.1, 99.4)"> </text><text xml:space="preserve" font-family="Helvetica-Light,Helvetica" font-size="80.0" fill="#FF9200" transform="matrix(1.00, 0.00, -0.00, -1.00, 370.4, 99.4)">n</text><text xml:space="preserve" font-family="Helvetica-Light,Helvetica" font-size="80.0" fill="#FF9200" transform="matrix(1.00, 0.00, -0.00, -1.00, 414.8, 99.4)">e</text><text xml:space="preserve" font-family="Helvetica-Light,Helvetica" font-size="80.0" fill="#FF9200" transform="matrix(1.00, 0.00, -0.00, -1.00, 459.3, 99.4)">e</text><text xml:space="preserve" font-family="Helvetica-Light,Helvetica" font-size="80.0" fill="#FF9200" transform="matrix(1.00, 0.00, -0.00, -1.00, 503.8, 99.4)">d</text><text xml:space="preserve" font-family="Helvetica-Light,Helvetica" font-size="80.0" fill="#FF9200" transform="matrix(1.00, 0.00, -0.00, -1.00, 552.7, 99.4)">e</text><text xml:space="preserve" font-family="Helvetica-Light,Helvetica" font-size="80.0" fill="#FF9200" transform="matrix(1.00, 0.00, -0.00, -1.00, 597.2, 99.4)">d</text><text xml:space="preserve" font-family="Helvetica-Light,Helvetica" font-size="80.0" fill="#FF9200" transform="matrix(1.00, 0.00, -0.00, -1.00, 646.0, 99.4)"> </text><text xml:space="preserve" font-family="Helvetica-Light,Helvetica" font-size="80.0" fill="#FF9200" transform="matrix(1.00, 0.00, -0.00, -1.00, 668.3, 99.4)"> </text><text xml:space="preserve" font-family="Helvetica-BoldOblique,Helvetica" font-style="italic" font-weight="bold" font-size="80.0" fill="#FF9200" transform="matrix(1.00, 0.00, -0.00, -1.00, -3.0, 3.4)">m</text><text xml:space="preserve" font-family="Helvetica-BoldOblique,Helvetica" font-style="italic" font-weight="bold" font-size="80.0" fill="#FF9200" transform="matrix(1.00, 0.00, -0.00, -1.00, 68.1, 3.4)">o</text><text xml:space="preserve" font-family="Helvetica-BoldOblique,Helvetica" font-style="italic" font-weight="bold" font-size="80.0" fill="#FF9200" transform="matrix(1.00, 0.00, -0.00, -1.00, 117.0, 3.4)">r</text><text xml:space="preserve" font-family="Helvetica-BoldOblique,Helvetica" font-style="italic" font-weight="bold" font-size="80.0" fill="#FF9200" transform="matrix(1.00, 0.00, -0.00, -1.00, 148.1, 3.4)">e</text><text xml:space="preserve" font-family="Helvetica-LightOblique,Helvetica" font-style="italic" font-size="80.0" fill="#FF9200" transform="matrix(1.00, 0.00, -0.00, -1.00, 192.6, 3.4)"> </text><text xml:space="preserve" font-family="Helvetica-BoldOblique,Helvetica" font-style="italic" font-weight="bold" font-size="80.0" fill="#FF9200" transform="matrix(1.00, 0.00, -0.00, -1.00, 214.8, 3.4)">d</text><text xml:space="preserve" font-family="Helvetica-BoldOblique,Helvetica" font-style="italic" font-weight="bold" font-size="80.0" fill="#FF9200" transform="matrix(1.00, 0.00, -0.00, -1.00, 263.7, 3.4)">r</text><text xml:space="preserve" font-family="Helvetica-BoldOblique,Helvetica" font-style="italic" font-weight="bold" font-size="80.0" fill="#FF9200" transform="matrix(1.00, 0.00, -0.00, -1.00, 294.8, 3.4)">u</text><text xml:space="preserve" font-family="Helvetica-BoldOblique,Helvetica" font-style="italic" font-weight="bold" font-size="80.0" fill="#FF9200" transform="matrix(1.00, 0.00, -0.00, -1.00, 343.7, 3.4)">m</text><text xml:space="preserve" font-family="Helvetica-BoldOblique,Helvetica" font-style="italic" font-weight="bold" font-size="80.0" fill="#FF9200" transform="matrix(1.00, 0.00, -0.00, -1.00, 414.8, 3.4)"> </text><text xml:space="preserve" font-family="Helvetica-BoldOblique,Helvetica" font-style="italic" font-weight="bold" font-size="80.0" fill="#FF9200" transform="matrix(1.00, 0.00, -0.00, -1.00, 437.0, 3.4)">b</text><text xml:space="preserve" font-family="Helvetica-BoldOblique,Helvetica" font-style="italic" font-weight="bold" font-size="80.0" fill="#FF9200" transform="matrix(1.00, 0.00, -0.00, -1.00, 485.9, 3.4)">e</text><text xml:space="preserve" font-family="Helvetica-BoldOblique,Helvetica" font-style="italic" font-weight="bold" font-size="80.0" fill="#FF9200" transform="matrix(1.00, 0.00, -0.00, -1.00, 530.4, 3.4)">a</text><text xml:space="preserve" font-family="Helvetica-BoldOblique,Helvetica" font-style="italic" font-weight="bold" font-size="80.0" fill="#FF9200" transform="matrix(1.00, 0.00, -0.00, -1.00, 574.9, 3.4)">t</text><text xml:space="preserve" font-family="Helvetica-BoldOblique,Helvetica" font-style="italic" font-weight="bold" font-size="80.0" fill="#FF9200" transform="matrix(1.00, 0.00, -0.00, -1.00, 601.5, 3.4)">s</text></g></svg>