<?xml version="1.0" encoding="UTF-8" standalone="no"?><svg xmlns="http://www.w3.org/2000/svg" xmlns:xlink="http://www.w3.org/1999/xlink" clip-rule="evenodd" stroke-miterlimit="10" viewBox="0 0 619 496"><desc>SVG generated by Keynote</desc><defs></defs><g transform="matrix(1.00, 0.00, -0.00, -1.00, 0.0, 496.0)"><g><clipPath id="clip0x6000014a6660"><path d="M 393.5 438.7 L 622.6 438.7 L 622.6 499.7 L 393.5 499.7 Z M 393.5 438.7 "></path></clipPath><g clip-path="url(#clip0x6000014a6660)"><text xml:space="preserve" font-family="Helvetica-Light,Helvetica" font-size="36.0" fill="#FEFFFF" transform="matrix(1.00, 0.00, -0.00, -1.00, 403.0, 455.9)">e</text><text xml:space="preserve" font-family="Helvetica-Light,Helvetica" font-size="36.0" fill="#FEFFFF" transform="matrix(1.00, 0.00, -0.00, -1.00, 423.1, 455.9)">.</text><text xml:space="preserve" font-family="Helvetica-Light,Helvetica" font-size="36.0" fill="#FEFFFF" transform="matrix(1.00, 0.00, -0.00, -1.00, 433.1, 455.9)">g</text><text xml:space="preserve" font-family="Helvetica-Light,Helvetica" font-size="36.0" fill="#FEFFFF" transform="matrix(1.00, 0.00, -0.00, -1.00, 455.1, 455.9)">.</text><text xml:space="preserve" font-family="Helvetica-Light,Helvetica" font-size="36.0" fill="#FEFFFF" transform="matrix(1.00, 0.00, -0.00, -1.00, 465.1, 455.9)"> </text><text xml:space="preserve" font-family="Helvetica-Bold,Helvetica" font-weight="bold" font-size="36.0" fill="#FEFFFF" transform="matrix(1.00, 0.00, -0.00, -1.00, 475.1, 455.9)">D</text><text xml:space="preserve" font-family="Helvetica-Bold,Helvetica" font-weight="bold" font-size="36.0" fill="#FEFFFF" transform="matrix(1.00, 0.00, -0.00, -1.00, 501.1, 455.9)">E</text><text xml:space="preserve" font-family="Helvetica-Bold,Helvetica" font-weight="bold" font-size="36.0" fill="#FEFFFF" transform="matrix(1.00, 0.00, -0.00, -1.00, 525.1, 455.9)">-</text><text xml:space="preserve" font-family="Helvetica-Bold,Helvetica" font-weight="bold" font-size="36.0" fill="#FEFFFF" transform="matrix(1.00, 0.00, -0.00, -1.00, 537.1, 455.9)">R</text><text xml:space="preserve" font-family="Helvetica-Bold,Helvetica" font-weight="bold" font-size="36.0" fill="#FEFFFF" transform="matrix(1.00, 0.00, -0.00, -1.00, 563.1, 455.9)">D</text><text xml:space="preserve" font-family="Helvetica-Bold,Helvetica" font-weight="bold" font-size="36.0" fill="#FEFFFF" transform="matrix(1.00, 0.00, -0.00, -1.00, 589.1, 455.9)">S</text></g></g><g><clipPath id="clip0x6000014b0320"><path d="M -2.5 -2.2 L 355.1 -2.2 L 355.1 48.8 L -2.5 48.8 Z M -2.5 -2.2 "></path></clipPath><g clip-path="url(#clip0x6000014b0320)"><text xml:space="preserve" font-family="Helvetica-Light,Helvetica" font-size="30.0" fill="#FEFFFF" transform="matrix(1.00, 0.00, -0.00, -1.00, 5.5, 12.2)">p</text><text xml:space="preserve" font-family="Helvetica-Light,Helvetica" font-size="30.0" fill="#FEFFFF" transform="matrix(1.00, 0.00, -0.00, -1.00, 23.9, 12.2)">i</text><text xml:space="preserve" font-family="Helvetica-Light,Helvetica" font-size="30.0" fill="#FEFFFF" transform="matrix(1.00, 0.00, -0.00, -1.00, 30.5, 12.2)">l</text><text xml:space="preserve" font-family="Helvetica-Light,Helvetica" font-size="30.0" fill="#FEFFFF" transform="matrix(1.00, 0.00, -0.00, -1.00, 37.2, 12.2)">o</text><text xml:space="preserve" font-family="Helvetica-Light,Helvetica" font-size="30.0" fill="#FEFFFF" transform="matrix(1.00, 0.00, -0.00, -1.00, 53.9, 12.2)">t</text><text xml:space="preserve" font-family="Helvetica-Light,Helvetica" font-size="30.0" fill="#FEFFFF" transform="matrix(1.00, 0.00, -0.00, -1.00, 62.2, 12.2)"> </text><text xml:space="preserve" font-family="Helvetica-Light,Helvetica" font-size="30.0" fill="#FEFFFF" transform="matrix(1.00, 0.00, -0.00, -1.00, 70.5, 12.2)">a</text><text xml:space="preserve" font-family="Helvetica-Light,Helvetica" font-size="30.0" fill="#FEFFFF" transform="matrix(1.00, 0.00, -0.00, -1.00, 87.2, 12.2)">n</text><text xml:space="preserve" font-family="Helvetica-Light,Helvetica" font-size="30.0" fill="#FEFFFF" transform="matrix(1.00, 0.00, -0.00, -1.00, 103.9, 12.2)">d</text><text xml:space="preserve" font-family="Helvetica-Light,Helvetica" font-size="30.0" fill="#FEFFFF" transform="matrix(1.00, 0.00, -0.00, -1.00, 122.2, 12.2)"> </text><text xml:space="preserve" font-family="Helvetica-Light,Helvetica" font-size="30.0" fill="#FEFFFF" transform="matrix(1.00, 0.00, -0.00, -1.00, 130.6, 12.2)">v</text><text xml:space="preserve" font-family="Helvetica-Light,Helvetica" font-size="30.0" fill="#FEFFFF" transform="matrix(1.00, 0.00, -0.00, -1.00, 145.6, 12.2)">o</text><text xml:space="preserve" font-family="Helvetica-Light,Helvetica" font-size="30.0" fill="#FEFFFF" transform="matrix(1.00, 0.00, -0.00, -1.00, 162.3, 12.2)">i</text><text xml:space="preserve" font-family="Helvetica-Light,Helvetica" font-size="30.0" fill="#FEFFFF" transform="matrix(1.00, 0.00, -0.00, -1.00, 168.9, 12.2)">c</text><text xml:space="preserve" font-family="Helvetica-Light,Helvetica" font-size="30.0" fill="#FEFFFF" transform="matrix(1.00, 0.00, -0.00, -1.00, 185.6, 12.2)">e</text><text xml:space="preserve" font-family="Helvetica-Light,Helvetica" font-size="30.0" fill="#FEFFFF" transform="matrix(1.00, 0.00, -0.00, -1.00, 202.3, 12.2)">&gt;</text><text xml:space="preserve" font-family="Helvetica-Light,Helvetica" font-size="30.0" fill="#FEFFFF" transform="matrix(1.00, 0.00, -0.00, -1.00, 222.1, 12.2)"> </text><text xml:space="preserve" font-family="Helvetica-Light,Helvetica" font-size="30.0" fill="#FEFFFF" transform="matrix(1.00, 0.00, -0.00, -1.00, 230.4, 12.2)">e</text><text xml:space="preserve" font-family="Helvetica-Light,Helvetica" font-size="30.0" fill="#FEFFFF" transform="matrix(1.00, 0.00, -0.00, -1.00, 247.1, 12.2)">r</text><text xml:space="preserve" font-family="Helvetica-Light,Helvetica" font-size="30.0" fill="#FEFFFF" transform="matrix(1.00, 0.00, -0.00, -1.00, 257.1, 12.2)">i</text><text xml:space="preserve" font-family="Helvetica-Light,Helvetica" font-size="30.0" fill="#FEFFFF" transform="matrix(1.00, 0.00, -0.00, -1.00, 263.7, 12.2)">c</text><text xml:space="preserve" font-family="Helvetica-Light,Helvetica" font-size="30.0" fill="#FEFFFF" transform="matrix(1.00, 0.00, -0.00, -1.00, 280.4, 12.2)"> </text><text xml:space="preserve" font-family="Helvetica-Light,Helvetica" font-size="30.0" fill="#FEFFFF" transform="matrix(1.00, 0.00, -0.00, -1.00, 288.8, 12.2)">l</text><text xml:space="preserve" font-family="Helvetica-Light,Helvetica" font-size="30.0" fill="#FEFFFF" transform="matrix(1.00, 0.00, -0.00, -1.00, 295.4, 12.2)">u</text><text xml:space="preserve" font-family="Helvetica-Light,Helvetica" font-size="30.0" fill="#FEFFFF" transform="matrix(1.00, 0.00, -0.00, -1.00, 312.1, 12.2)">n</text><text xml:space="preserve" font-family="Helvetica-Light,Helvetica" font-size="30.0" fill="#FEFFFF" transform="matrix(1.00, 0.00, -0.00, -1.00, 328.8, 12.2)">d</text></g></g></g></svg>