<?xml version="1.0" encoding="UTF-8" standalone="no"?><svg xmlns="http://www.w3.org/2000/svg" xmlns:xlink="http://www.w3.org/1999/xlink" clip-rule="evenodd" stroke-miterlimit="10" viewBox="0 0 43 91"><desc>SVG generated by Keynote</desc><defs></defs><g transform="matrix(1.00, 0.00, -0.00, -1.00, 0.0, 91.0)"><g><clipPath id="clip0x6080010a0000"><path d="M 1.6 1.7 L 41.7 1.7 L 41.7 89.9 L 1.6 89.9 Z M 1.6 1.7 "></path></clipPath><g clip-path="url(#clip0x6080010a0000)"><path d="M 4.7 51.2 C 0.4 39.5 0.9 22.8 6.1 12.2 C 11.8 0.5 21.0 0.5 26.7 12.2 C 31.9 22.8 32.4 39.5 28.1 51.2 L 28.2 51.2 L 16.4 88.2 L 4.6 51.2 Z M 4.7 51.2 " fill="#FF9200"></path><path d="M 10.7 52.6 C 5.0 41.6 3.4 25.0 7.2 13.7 C 11.3 1.4 20.5 0.2 27.6 11.1 C 34.1 21.0 36.7 37.5 34.0 49.7 L 34.0 49.7 L 27.0 87.9 L 10.7 52.7 Z M 10.7 52.6 " fill="#FF9200"></path><path d="M 11.7 51.2 C 7.5 39.5 7.9 22.8 13.1 12.2 C 18.8 0.5 28.1 0.5 33.8 12.2 C 39.0 22.8 39.4 39.5 35.2 51.2 L 35.2 51.2 L 23.5 88.2 L 11.7 51.2 Z M 11.7 51.2 " fill="#FF9200"></path></g></g></g></svg>