<?xml version="1.0" encoding="UTF-8" standalone="no"?><svg xmlns="http://www.w3.org/2000/svg" xmlns:xlink="http://www.w3.org/1999/xlink" clip-rule="evenodd" stroke-miterlimit="10" viewBox="0 0 43 91"><desc>SVG generated by Keynote</desc><defs></defs><g transform="matrix(1.00, 0.00, -0.00, -1.00, 0.0, 91.0)"><g><clipPath id="clip0x6080010a0720"><path d="M 1.0 1.1 L 41.1 1.1 L 41.1 89.3 L 1.0 89.3 Z M 1.0 1.1 "></path></clipPath><g clip-path="url(#clip0x6080010a0720)"><path d="M 4.1 50.6 C -0.2 38.8 0.3 22.2 5.5 11.5 C 11.2 -0.2 20.4 -0.2 26.1 11.5 C 31.3 22.2 31.8 38.8 27.5 50.6 L 27.6 50.6 L 15.8 87.6 L 4.0 50.6 Z M 4.1 50.6 " fill="#FF9200"></path><path d="M 10.1 52.0 C 4.4 40.9 2.7 24.3 6.6 13.1 C 10.7 0.8 19.9 -0.4 27.0 10.5 C 33.5 20.4 36.1 36.9 33.4 49.0 L 33.4 49.0 L 26.4 87.2 L 10.1 52.0 Z M 10.1 52.0 " fill="#FF9200"></path><path d="M 11.1 50.6 C 6.9 38.8 7.3 22.2 12.5 11.5 C 18.2 -0.2 27.5 -0.2 33.2 11.5 C 38.4 22.2 38.8 38.8 34.6 50.6 L 34.6 50.6 L 22.8 87.6 L 11.1 50.6 Z M 11.1 50.6 " fill="#FF9200"></path></g></g></g></svg>