<?xml version="1.0" encoding="UTF-8" standalone="no"?><svg xmlns="http://www.w3.org/2000/svg" xmlns:xlink="http://www.w3.org/1999/xlink" clip-rule="evenodd" stroke-miterlimit="10" viewBox="0 0 43 91"><desc>SVG generated by Keynote</desc><defs></defs><g transform="matrix(1.00, 0.00, -0.00, -1.00, 0.0, 91.0)"><g><clipPath id="clip0x608000ebf9e0"><path d="M 1.2 1.6 L 41.2 1.6 L 41.2 89.9 L 1.2 89.9 Z M 1.2 1.6 "></path></clipPath><g clip-path="url(#clip0x608000ebf9e0)"><path d="M 4.2 51.1 C -0.0 39.4 0.4 22.7 5.6 12.1 C 11.3 0.4 20.6 0.4 26.3 12.1 C 31.5 22.7 31.9 39.4 27.7 51.1 L 27.7 51.1 L 16.0 88.2 L 4.2 51.1 Z M 4.2 51.1 " fill="#FF9200"></path><path d="M 10.3 52.6 C 4.6 41.5 2.9 24.9 6.7 13.7 C 10.9 1.4 20.1 0.2 27.2 11.1 C 33.7 21.0 36.3 37.4 33.5 49.6 L 33.6 49.6 L 26.6 87.8 L 10.2 52.6 Z M 10.3 52.6 " fill="#FF9200"></path><path d="M 11.3 51.1 C 7.0 39.4 7.5 22.7 12.7 12.1 C 18.4 0.4 27.6 0.4 33.3 12.1 C 38.5 22.7 39.0 39.4 34.7 51.1 L 34.8 51.1 L 23.0 88.2 L 11.2 51.1 Z M 11.3 51.1 " fill="#FF9200"></path></g></g></g></svg>