<?xml version="1.0" encoding="UTF-8" standalone="no"?><svg xmlns="http://www.w3.org/2000/svg" xmlns:xlink="http://www.w3.org/1999/xlink" clip-rule="evenodd" stroke-miterlimit="10" viewBox="0 0 1024 768"><desc>SVG generated by Keynote</desc><defs></defs><g transform="matrix(1.00, 0.00, -0.00, -1.00, 0.0, 768.0)"><path d="M 0.0 768.0 L 1024.0 768.0 L 1024.0 0.0 L 0.0 0.0 Z M 0.0 768.0 " fill="#000000"></path><image xlink:href="../../807D49F5-9A6D-4826-B64B-93A55A4CBC03/assets/1B989F488D405B7404D7D58FA2DE0987.png" width="883.00" height="666.00" transform="matrix(1.00, 0.00, -0.00, -1.00, 70.5, 675.0)"></image><g><clipPath id="clip0x6080010a0d80"><path d="M 818.2 609.6 L 858.2 609.6 L 858.2 697.9 L 818.2 697.9 Z M 818.2 609.6 "></path></clipPath><g clip-path="url(#clip0x6080010a0d80)"><path d="M 821.2 659.1 C 817.0 647.4 817.4 630.7 822.6 620.1 C 828.3 608.4 837.6 608.4 843.3 620.1 C 848.5 630.7 848.9 647.4 844.7 659.1 L 844.7 659.1 L 833.0 696.2 L 821.2 659.1 Z M 821.2 659.1 " fill="#FF9200"></path><path d="M 827.3 660.6 C 821.6 649.5 819.9 632.9 823.7 621.7 C 827.9 609.4 837.1 608.2 844.2 619.1 C 850.7 629.0 853.3 645.4 850.5 657.6 L 850.6 657.6 L 843.6 695.8 L 827.2 660.6 Z M 827.3 660.6 " fill="#FF9200"></path><path d="M 828.3 659.1 C 824.0 647.4 824.5 630.7 829.7 620.1 C 835.4 608.4 844.6 608.4 850.3 620.1 C 855.5 630.7 856.0 647.4 851.7 659.1 L 851.8 659.1 L 840.0 696.2 L 828.2 659.1 Z M 828.3 659.1 " fill="#FF9200"></path></g></g><g><clipPath id="clip0x6080010a0360"><path d="M 653.6 508.7 L 693.7 508.7 L 693.7 596.9 L 653.6 596.9 Z M 653.6 508.7 "></path></clipPath><g clip-path="url(#clip0x6080010a0360)"><path d="M 656.7 558.2 C 652.4 546.5 652.9 529.8 658.1 519.2 C 663.8 507.5 673.0 507.5 678.7 519.2 C 683.9 529.8 684.4 546.5 680.1 558.2 L 680.2 558.2 L 668.4 595.2 L 656.6 558.2 Z M 656.7 558.2 " fill="#FF9200"></path><path d="M 662.7 559.6 C 657.0 548.6 655.4 532.0 659.2 520.7 C 663.3 508.4 672.5 507.2 679.6 518.1 C 686.1 528.0 688.7 544.5 686.0 556.7 L 686.0 556.7 L 679.0 594.9 L 662.7 559.7 Z M 662.7 559.6 " fill="#FF9200"></path><path d="M 663.7 558.2 C 659.5 546.5 659.9 529.8 665.1 519.2 C 670.8 507.5 680.1 507.5 685.8 519.2 C 691.0 529.8 691.4 546.5 687.2 558.2 L 687.2 558.2 L 675.5 595.2 L 663.7 558.2 Z M 663.7 558.2 " fill="#FF9200"></path></g></g><g><clipPath id="clip0x6080010a1680"><path d="M 500.0 463.1 L 540.1 463.1 L 540.1 551.3 L 500.0 551.3 Z M 500.0 463.1 "></path></clipPath><g clip-path="url(#clip0x6080010a1680)"><path d="M 503.1 512.6 C 498.8 500.8 499.3 484.2 504.5 473.5 C 510.2 461.8 519.4 461.8 525.1 473.5 C 530.3 484.2 530.8 500.8 526.5 512.6 L 526.6 512.6 L 514.8 549.6 L 503.0 512.6 Z M 503.1 512.6 " fill="#FF9200"></path><path d="M 509.1 514.0 C 503.4 502.9 501.7 486.3 505.6 475.1 C 509.7 462.8 518.9 461.6 526.0 472.5 C 532.5 482.4 535.1 498.9 532.4 511.0 L 532.4 511.0 L 525.4 549.2 L 509.1 514.0 Z M 509.1 514.0 " fill="#FF9200"></path><path d="M 510.1 512.6 C 505.9 500.8 506.3 484.2 511.5 473.5 C 517.2 461.8 526.5 461.8 532.2 473.5 C 537.4 484.2 537.8 500.8 533.6 512.6 L 533.6 512.6 L 521.8 549.6 L 510.1 512.6 Z M 510.1 512.6 " fill="#FF9200"></path></g></g><g><clipPath id="clip0x6080010a27c0"><path d="M 396.0 401.4 L 436.0 401.4 L 436.0 489.6 L 396.0 489.6 Z M 396.0 401.4 "></path></clipPath><g clip-path="url(#clip0x6080010a27c0)"><path d="M 399.1 450.9 C 394.8 439.2 395.3 422.5 400.5 411.8 C 406.2 400.2 415.4 400.2 421.1 411.8 C 426.3 422.5 426.8 439.2 422.5 450.9 L 422.6 450.9 L 410.8 487.9 L 399.0 450.9 Z M 399.1 450.9 " fill="#FF9200"></path><path d="M 405.1 452.3 C 399.4 441.2 397.7 424.6 401.5 413.4 C 405.7 401.1 414.9 399.9 422.0 410.8 C 428.5 420.7 431.1 437.2 428.4 449.4 L 428.4 449.4 L 421.4 487.6 L 405.1 452.3 Z M 405.1 452.3 " fill="#FF9200"></path><path d="M 406.1 450.9 C 401.9 439.2 402.3 422.5 407.5 411.8 C 413.2 400.2 422.5 400.2 428.2 411.8 C 433.4 422.5 433.8 439.2 429.6 450.9 L 429.6 450.9 L 417.8 487.9 L 406.1 450.9 Z M 406.1 450.9 " fill="#FF9200"></path></g></g><text xml:space="preserve" font-family="Helvetica-Light,Helvetica" font-size="36.0" fill="#FEFFFF" transform="matrix(1.00, 0.00, -0.00, -1.00, 323.3, 710.8)">r</text><text xml:space="preserve" font-family="Helvetica-Light,Helvetica" font-size="36.0" fill="#FEFFFF" transform="matrix(1.00, 0.00, -0.00, -1.00, 335.3, 710.8)">a</text><text xml:space="preserve" font-family="Helvetica-Light,Helvetica" font-size="36.0" fill="#FEFFFF" transform="matrix(1.00, 0.00, -0.00, -1.00, 355.3, 710.8)">i</text><text xml:space="preserve" font-family="Helvetica-Light,Helvetica" font-size="36.0" fill="#FEFFFF" transform="matrix(1.00, 0.00, -0.00, -1.00, 363.3, 710.8)">s</text><text xml:space="preserve" font-family="Helvetica-Light,Helvetica" font-size="36.0" fill="#FEFFFF" transform="matrix(1.00, 0.00, -0.00, -1.00, 381.3, 710.8)">i</text><text xml:space="preserve" font-family="Helvetica-Light,Helvetica" font-size="36.0" fill="#FEFFFF" transform="matrix(1.00, 0.00, -0.00, -1.00, 389.3, 710.8)">n</text><text xml:space="preserve" font-family="Helvetica-Light,Helvetica" font-size="36.0" fill="#FEFFFF" transform="matrix(1.00, 0.00, -0.00, -1.00, 409.3, 710.8)">g</text><text xml:space="preserve" font-family="Helvetica-Light,Helvetica" font-size="36.0" fill="#FEFFFF" transform="matrix(1.00, 0.00, -0.00, -1.00, 431.3, 710.8)"> </text><text xml:space="preserve" font-family="Helvetica-Light,Helvetica" font-size="36.0" fill="#FEFFFF" transform="matrix(1.00, 0.00, -0.00, -1.00, 441.3, 710.8)">a</text><text xml:space="preserve" font-family="Helvetica-Light,Helvetica" font-size="36.0" fill="#FEFFFF" transform="matrix(1.00, 0.00, -0.00, -1.00, 461.3, 710.8)">l</text><text xml:space="preserve" font-family="Helvetica-Light,Helvetica" font-size="36.0" fill="#FEFFFF" transform="matrix(1.00, 0.00, -0.00, -1.00, 469.3, 710.8)">a</text><text xml:space="preserve" font-family="Helvetica-Light,Helvetica" font-size="36.0" fill="#FEFFFF" transform="matrix(1.00, 0.00, -0.00, -1.00, 489.4, 710.8)">r</text><text xml:space="preserve" font-family="Helvetica-Light,Helvetica" font-size="36.0" fill="#FEFFFF" transform="matrix(1.00, 0.00, -0.00, -1.00, 502.0, 710.8)">m</text><text xml:space="preserve" font-family="Helvetica-Light,Helvetica" font-size="36.0" fill="#FEFFFF" transform="matrix(1.00, 0.00, -0.00, -1.00, 532.0, 710.8)"> </text><text xml:space="preserve" font-family="Helvetica-Light,Helvetica" font-size="36.0" fill="#FEFFFF" transform="matrix(1.00, 0.00, -0.00, -1.00, 542.0, 710.8)">/</text><text xml:space="preserve" font-family="Helvetica-Light,Helvetica" font-size="36.0" fill="#FEFFFF" transform="matrix(1.00, 0.00, -0.00, -1.00, 552.0, 710.8)"> </text><text xml:space="preserve" font-family="Helvetica-Light,Helvetica" font-size="36.0" fill="#FEFFFF" transform="matrix(1.00, 0.00, -0.00, -1.00, 562.0, 710.8)">a</text><text xml:space="preserve" font-family="Helvetica-Light,Helvetica" font-size="36.0" fill="#FEFFFF" transform="matrix(1.00, 0.00, -0.00, -1.00, 582.0, 710.8)">l</text><text xml:space="preserve" font-family="Helvetica-Light,Helvetica" font-size="36.0" fill="#FEFFFF" transform="matrix(1.00, 0.00, -0.00, -1.00, 590.0, 710.8)">e</text><text xml:space="preserve" font-family="Helvetica-Light,Helvetica" font-size="36.0" fill="#FEFFFF" transform="matrix(1.00, 0.00, -0.00, -1.00, 610.0, 710.8)">r</text><text xml:space="preserve" font-family="Helvetica-Light,Helvetica" font-size="36.0" fill="#FEFFFF" transform="matrix(1.00, 0.00, -0.00, -1.00, 622.7, 710.8)">t</text><text xml:space="preserve" font-family="Helvetica-Light,Helvetica" font-size="36.0" fill="#FEFFFF" transform="matrix(1.00, 0.00, -0.00, -1.00, 632.7, 710.8)">i</text><text xml:space="preserve" font-family="Helvetica-Light,Helvetica" font-size="36.0" fill="#FEFFFF" transform="matrix(1.00, 0.00, -0.00, -1.00, 640.7, 710.8)">n</text><text xml:space="preserve" font-family="Helvetica-Light,Helvetica" font-size="36.0" fill="#FEFFFF" transform="matrix(1.00, 0.00, -0.00, -1.00, 660.7, 710.8)">g</text><text xml:space="preserve" font-family="Helvetica-Light,Helvetica" font-size="36.0" fill="#FEFFFF" transform="matrix(1.00, 0.00, -0.00, -1.00, 682.7, 710.8)">?</text></g></svg>