<?xml version="1.0" encoding="UTF-8" standalone="no"?><svg xmlns="http://www.w3.org/2000/svg" xmlns:xlink="http://www.w3.org/1999/xlink" clip-rule="evenodd" stroke-miterlimit="10" viewBox="0 0 1024 768"><desc>SVG generated by Keynote</desc><defs></defs><g transform="matrix(1.00, 0.00, -0.00, -1.00, 0.0, 768.0)"><path d="M 0.0 768.0 L 1024.0 768.0 L 1024.0 0.0 L 0.0 0.0 Z M 0.0 768.0 " fill="#000000"></path><text xml:space="preserve" font-family="Helvetica-LightOblique,Helvetica" font-style="italic" font-size="88.0" fill="#FEFFFF" transform="matrix(1.00, 0.00, -0.00, -1.00, 306.6, 351.2)">t</text><text xml:space="preserve" font-family="Helvetica-LightOblique,Helvetica" font-style="italic" font-size="88.0" fill="#FEFFFF" transform="matrix(1.00, 0.00, -0.00, -1.00, 331.0, 351.2)">h</text><text xml:space="preserve" font-family="Helvetica-LightOblique,Helvetica" font-style="italic" font-size="88.0" fill="#FEFFFF" transform="matrix(1.00, 0.00, -0.00, -1.00, 380.0, 351.2)">a</text><text xml:space="preserve" font-family="Helvetica-LightOblique,Helvetica" font-style="italic" font-size="88.0" fill="#FEFFFF" transform="matrix(1.00, 0.00, -0.00, -1.00, 428.9, 351.2)">n</text><text xml:space="preserve" font-family="Helvetica-LightOblique,Helvetica" font-style="italic" font-size="88.0" fill="#FEFFFF" transform="matrix(1.00, 0.00, -0.00, -1.00, 477.8, 351.2)">k</text><text xml:space="preserve" font-family="Helvetica-LightOblique,Helvetica" font-style="italic" font-size="88.0" fill="#FEFFFF" transform="matrix(1.00, 0.00, -0.00, -1.00, 521.8, 351.2)"> </text><text xml:space="preserve" font-family="Helvetica-LightOblique,Helvetica" font-style="italic" font-size="88.0" fill="#FEFFFF" transform="matrix(1.00, 0.00, -0.00, -1.00, 546.3, 351.2)">y</text><text xml:space="preserve" font-family="Helvetica-LightOblique,Helvetica" font-style="italic" font-size="88.0" fill="#FEFFFF" transform="matrix(1.00, 0.00, -0.00, -1.00, 590.3, 351.2)">o</text><text xml:space="preserve" font-family="Helvetica-LightOblique,Helvetica" font-style="italic" font-size="88.0" fill="#FEFFFF" transform="matrix(1.00, 0.00, -0.00, -1.00, 639.2, 351.2)">u</text><text xml:space="preserve" font-family="Helvetica-LightOblique,Helvetica" font-style="italic" font-size="88.0" fill="#FEFFFF" transform="matrix(1.00, 0.00, -0.00, -1.00, 688.1, 351.2)">!</text><text xml:space="preserve" font-family="Helvetica-Bold,Helvetica" font-weight="bold" font-size="23.0" fill="#FEFFFF" transform="matrix(1.00, 0.00, -0.00, -1.00, 310.4, 313.9)">a</text><text xml:space="preserve" font-family="Helvetica-Bold,Helvetica" font-weight="bold" font-size="23.0" fill="#FEFFFF" transform="matrix(1.00, 0.00, -0.00, -1.00, 323.2, 313.9)">s</text><text xml:space="preserve" font-family="Helvetica-Bold,Helvetica" font-weight="bold" font-size="23.0" fill="#FEFFFF" transform="matrix(1.00, 0.00, -0.00, -1.00, 336.0, 313.9)">k</text><text xml:space="preserve" font-family="Helvetica-Light,Helvetica" font-size="23.0" fill="#FEFFFF" transform="matrix(1.00, 0.00, -0.00, -1.00, 348.7, 313.9)">:</text><text xml:space="preserve" font-family="Helvetica-Light,Helvetica" font-size="23.0" fill="#FEFFFF" transform="matrix(1.00, 0.00, -0.00, -1.00, 355.1, 313.9)"> </text><text xml:space="preserve" font-family="Helvetica-Light,Helvetica" font-size="23.0" fill="#FEFFFF" transform="matrix(1.00, 0.00, -0.00, -1.00, 361.5, 313.9)">a</text><text xml:space="preserve" font-family="Helvetica-Light,Helvetica" font-size="23.0" fill="#FEFFFF" transform="matrix(1.00, 0.00, -0.00, -1.00, 374.3, 313.9)">r</text><text xml:space="preserve" font-family="Helvetica-Light,Helvetica" font-size="23.0" fill="#FEFFFF" transform="matrix(1.00, 0.00, -0.00, -1.00, 382.0, 313.9)">j</text><text xml:space="preserve" font-family="Helvetica-Light,Helvetica" font-size="23.0" fill="#FEFFFF" transform="matrix(1.00, 0.00, -0.00, -1.00, 387.1, 313.9)">u</text><text xml:space="preserve" font-family="Helvetica-Light,Helvetica" font-size="23.0" fill="#FEFFFF" transform="matrix(1.00, 0.00, -0.00, -1.00, 399.9, 313.9)">n</text><text xml:space="preserve" font-family="Helvetica-Light,Helvetica" font-size="23.0" fill="#FEFFFF" transform="matrix(1.00, 0.00, -0.00, -1.00, 412.7, 313.9)">@</text><text xml:space="preserve" font-family="Helvetica-Light,Helvetica" font-size="23.0" fill="#FEFFFF" transform="matrix(1.00, 0.00, -0.00, -1.00, 431.1, 313.9)">s</text><text xml:space="preserve" font-family="Helvetica-Light,Helvetica" font-size="23.0" fill="#FEFFFF" transform="matrix(1.00, 0.00, -0.00, -1.00, 442.6, 313.9)">t</text><text xml:space="preserve" font-family="Helvetica-Light,Helvetica" font-size="23.0" fill="#FEFFFF" transform="matrix(1.00, 0.00, -0.00, -1.00, 448.9, 313.9)">u</text><text xml:space="preserve" font-family="Helvetica-Light,Helvetica" font-size="23.0" fill="#FEFFFF" transform="matrix(1.00, 0.00, -0.00, -1.00, 461.7, 313.9)">d</text><text xml:space="preserve" font-family="Helvetica-Light,Helvetica" font-size="23.0" fill="#FEFFFF" transform="matrix(1.00, 0.00, -0.00, -1.00, 475.8, 313.9)">i</text><text xml:space="preserve" font-family="Helvetica-Light,Helvetica" font-size="23.0" fill="#FEFFFF" transform="matrix(1.00, 0.00, -0.00, -1.00, 480.9, 313.9)">x</text><text xml:space="preserve" font-family="Helvetica-Light,Helvetica" font-size="23.0" fill="#FEFFFF" transform="matrix(1.00, 0.00, -0.00, -1.00, 492.4, 313.9)">.</text><text xml:space="preserve" font-family="Helvetica-Light,Helvetica" font-size="23.0" fill="#FEFFFF" transform="matrix(1.00, 0.00, -0.00, -1.00, 498.8, 313.9)">c</text><text xml:space="preserve" font-family="Helvetica-Light,Helvetica" font-size="23.0" fill="#FEFFFF" transform="matrix(1.00, 0.00, -0.00, -1.00, 511.6, 313.9)">o</text><text xml:space="preserve" font-family="Helvetica-Light,Helvetica" font-size="23.0" fill="#FEFFFF" transform="matrix(1.00, 0.00, -0.00, -1.00, 524.4, 313.9)">m</text><g><clipPath id="clip0x608001ab4820"><path d="M 360.5 310.6 L 543.5 310.6 L 543.5 313.8 L 360.5 313.8 Z M 360.5 310.6 "></path></clipPath><g clip-path="url(#clip0x608001ab4820)"><path d="M 56.2 28.4 L 238.2 28.4 " fill="none" stroke="#FEFFFF" stroke-width="1.15" transform="matrix(1.00, 0.00, 0.00, -1.00, 305.4, 340.6)"></path></g></g></g></svg>