<?xml version="1.0" encoding="UTF-8" standalone="no"?><svg xmlns="http://www.w3.org/2000/svg" xmlns:xlink="http://www.w3.org/1999/xlink" clip-rule="evenodd" stroke-miterlimit="10" viewBox="0 0 558 795"><desc>SVG generated by Keynote</desc><defs></defs><g transform="matrix(1.00, 0.00, -0.00, -1.00, 0.0, 795.0)"><g><clipPath id="clip0x6080010b56c0"><path d="M 0.2 122.2 L 474.6 794.8 L 557.9 736.0 L 83.6 63.4 Z M 0.2 122.2 "></path></clipPath><g clip-path="url(#clip0x6080010b56c0)"><path d="M 191.9 262.4 C 187.0 260.3 183.2 248.0 178.9 246.6 M 191.9 262.4 C 191.9 262.4 191.9 262.4 191.9 262.4 C 196.9 264.6 192.9 243.6 194.4 240.2 C 196.0 236.8 191.0 235.9 189.5 233.8 C 185.9 228.8 197.7 231.0 188.2 222.2 C 181.0 215.5 179.0 205.8 174.2 197.5 C 170.2 190.3 166.5 185.8 159.6 192.3 C 160.4 206.3 152.8 209.5 152.6 209.4 C 146.3 202.2 133.0 185.9 132.0 177.9 C 131.8 175.6 154.2 166.8 153.1 165.4 C 151.4 159.5 144.0 161.7 140.6 157.0 C 136.7 151.6 134.3 149.4 134.3 142.6 C 134.4 141.1 128.1 131.3 127.7 137.2 C 125.6 133.2 123.0 126.4 118.8 123.8 C 115.1 121.5 108.3 125.0 110.5 130.0 C 109.0 129.5 120.8 149.5 122.2 148.8 C 116.4 152.1 113.7 131.9 102.9 133.7 C 88.1 136.1 98.7 141.8 99.2 149.0 C 99.7 156.3 84.9 146.7 81.3 141.7 C 74.1 131.7 81.8 163.9 71.6 155.9 C 61.3 147.9 66.1 160.4 66.7 172.4 C 67.3 181.0 61.6 181.9 55.9 178.8 C 61.3 184.9 62.5 189.9 59.7 199.0 C 63.1 206.6 65.5 200.6 68.0 197.9 C 78.9 186.2 80.5 219.6 81.4 220.6 C 84.2 223.7 89.8 223.9 91.2 228.6 C 92.3 232.2 86.1 235.6 87.9 238.1 C 90.4 241.5 92.9 245.0 95.3 248.5 C 97.2 251.1 95.6 243.2 102.1 244.5 C 108.7 245.6 112.0 235.5 112.3 233.8 C 117.0 231.1 110.7 261.3 117.8 270.6 C 124.9 279.8 124.9 270.7 129.7 276.8 C 134.0 282.2 127.0 284.1 129.7 288.3 C 132.6 292.5 136.9 291.6 138.0 296.1 C 140.4 306.3 149.2 300.1 152.1 289.6 C 153.5 284.8 152.8 278.1 160.8 277.1 C 168.9 276.0 172.0 287.8 172.9 280.3 C 173.8 272.7 154.1 257.9 156.0 252.6 C 157.9 247.3 171.6 269.2 174.6 262.6 C 177.6 256.2 170.6 258.9 168.5 250.1 C 171.4 248.7 171.4 253.8 175.1 252.1 C 178.7 250.3 174.5 245.3 178.9 246.6 C 183.2 248.0 187.0 260.3 191.9 262.4 C 191.9 262.4 191.9 262.4 191.9 262.4 Z M 137.8 162.1 C 137.8 162.1 137.8 162.1 137.8 162.1 C 138.3 160.2 141.3 161.2 142.1 164.0 C 143.0 166.9 137.3 163.9 137.8 162.1 C 137.8 162.1 137.8 162.1 137.8 162.1 Z M 112.9 273.9 C 112.9 273.9 112.9 273.9 112.9 273.9 C 113.4 272.0 116.4 273.0 117.2 275.9 C 118.1 278.7 112.5 275.8 112.9 273.9 C 112.9 273.9 112.9 273.9 112.9 273.9 Z M 70.7 202.5 C 70.7 202.5 70.7 202.5 70.7 202.5 C 71.2 200.7 74.2 201.7 75.0 204.5 C 75.9 207.3 70.3 204.4 70.7 202.5 C 70.7 202.5 70.7 202.5 70.7 202.5 Z M 151.5 188.5 C 151.5 188.5 151.5 188.5 151.5 188.5 C 154.1 191.5 154.0 197.3 146.9 192.3 C 144.2 190.1 142.5 187.6 141.9 185.0 C 140.2 182.4 138.1 178.5 139.0 175.9 C 144.5 180.9 152.9 182.8 151.5 188.5 C 151.5 188.5 151.5 188.5 151.5 188.5 Z M 122.9 211.7 C 122.9 211.7 122.9 211.7 122.9 211.7 C 125.5 211.5 130.5 217.0 124.8 220.0 C 120.7 217.2 120.3 211.9 122.9 211.7 C 122.9 211.7 122.9 211.7 122.9 211.7 Z M 93.3 124.6 C 93.3 124.6 93.3 124.6 93.3 124.6 C 95.9 124.4 100.9 129.8 95.1 132.9 C 91.1 130.1 90.7 124.7 93.3 124.6 C 93.3 124.6 93.3 124.6 93.3 124.6 Z M 149.4 214.8 C 149.4 214.8 149.4 214.8 149.4 214.8 C 151.0 218.9 147.3 223.7 143.5 219.7 C 144.4 216.1 138.1 205.2 149.4 214.8 C 149.4 214.8 149.4 214.8 149.4 214.8 Z M 182.8 225.3 C 182.8 225.3 182.8 225.3 182.8 225.3 C 183.2 228.4 184.6 229.5 180.1 231.7 C 178.2 228.7 178.4 229.7 175.7 226.6 C 173.4 220.8 162.3 225.1 166.1 218.8 C 171.7 209.5 184.6 221.7 182.8 225.3 C 182.8 225.3 182.8 225.3 182.8 225.3 Z M 147.2 226.8 C 147.2 226.8 147.2 226.8 147.2 226.8 C 147.7 228.3 147.5 230.3 146.9 231.2 C 144.1 231.7 145.4 226.3 147.2 226.8 C 147.2 226.8 147.2 226.8 147.2 226.8 Z M 61.9 161.5 C 61.9 161.5 61.9 161.5 61.9 161.5 C 62.4 163.0 62.1 165.1 61.6 165.9 C 58.8 166.4 60.1 161.1 61.9 161.5 C 61.9 161.5 61.9 161.5 61.9 161.5 Z M 83.3 226.1 C 83.3 226.1 83.3 226.1 83.3 226.1 C 83.9 227.5 83.5 229.6 83.1 230.4 C 80.3 230.9 81.6 225.6 83.3 226.1 C 83.3 226.1 83.3 226.1 83.3 226.1 Z M 122.2 168.9 C 122.2 168.9 122.2 168.9 122.2 168.9 C 118.3 167.9 118.5 157.7 120.6 157.5 C 126.5 157.1 126.0 169.8 122.2 168.9 C 122.2 168.9 122.2 168.9 122.2 168.9 Z M 203.8 252.5 C 203.8 252.5 203.8 252.5 203.8 252.5 C 200.0 251.5 200.1 241.3 202.2 241.2 C 208.1 240.7 207.6 253.4 203.8 252.5 C 203.8 252.5 203.8 252.5 203.8 252.5 Z M 498.3 680.4 C 498.3 680.4 498.3 680.4 498.3 680.4 C 499.8 682.2 501.5 683.5 503.6 684.6 C 503.5 683.4 503.4 682.4 503.2 681.5 C 502.3 680.2 501.2 678.9 500.4 677.7 C 496.5 672.2 508.8 675.1 498.8 665.3 C 491.8 658.5 494.0 655.9 489.8 647.4 C 488.2 645.9 483.0 656.4 481.8 657.8 C 477.2 662.5 466.5 661.7 466.1 659.9 C 463.4 657.5 457.1 651.4 456.1 643.9 C 451.0 637.7 464.8 633.2 464.7 633.0 C 458.0 625.4 461.6 627.1 458.6 619.8 C 454.9 615.4 449.1 621.6 445.7 616.8 C 443.3 616.1 455.4 605.0 447.9 594.1 C 443.7 588.3 441.2 585.9 441.1 578.6 C 441.2 577.0 434.4 566.3 434.1 572.6 C 432.8 570.2 430.9 566.2 428.0 566.3 C 416.9 567.5 429.1 577.9 427.4 580.3 C 426.9 581.1 420.1 574.8 417.5 578.1 C 414.3 582.0 397.2 552.7 399.6 565.6 C 402.2 579.8 386.9 585.7 383.6 584.5 C 382.6 582.9 389.0 577.5 382.8 576.7 C 376.5 575.9 378.5 588.0 375.7 590.0 C 359.4 601.5 370.1 594.5 370.9 607.3 C 371.4 613.7 362.5 609.8 358.7 609.4 C 358.3 610.8 364.0 618.2 363.6 619.5 C 365.8 623.9 367.0 621.7 365.1 628.2 C 364.4 631.8 371.7 636.4 372.4 637.1 C 374.5 638.1 370.8 633.0 372.6 631.1 C 381.2 621.8 376.1 639.9 381.1 646.4 C 386.0 652.9 388.2 654.9 388.8 656.3 C 389.4 657.4 396.2 651.9 396.9 654.1 C 399.7 655.6 397.8 660.0 397.1 663.4 C 396.5 667.0 405.4 669.1 407.2 672.4 C 409.0 675.6 405.1 677.6 407.8 686.1 C 410.3 694.6 420.7 687.0 422.6 684.2 C 429.7 674.0 417.2 696.6 421.2 701.0 C 425.1 705.5 428.9 702.5 431.2 705.8 C 431.6 707.9 431.4 710.2 431.2 712.4 C 434.3 712.5 434.9 715.9 438.5 720.7 C 439.1 721.4 439.4 722.0 439.7 722.5 C 440.9 722.4 439.7 711.3 441.6 711.3 C 447.1 711.1 445.0 719.3 443.8 722.4 C 449.1 722.9 453.3 725.8 454.8 731.4 C 457.5 742.4 466.7 736.2 469.5 725.1 C 470.8 720.1 470.7 710.5 478.3 712.2 C 486.0 714.0 487.8 726.2 491.1 716.2 C 490.6 715.6 495.2 714.5 486.7 708.0 C 478.2 701.5 479.0 694.0 479.1 693.9 C 476.2 688.8 472.3 690.6 472.9 686.1 C 473.6 681.6 478.5 688.1 481.5 693.2 C 483.5 692.7 484.4 688.7 487.6 692.8 C 490.8 697.0 487.0 699.5 490.9 699.9 C 494.7 700.3 492.0 698.6 492.5 697.5 C 495.4 700.4 497.7 703.8 499.7 707.2 C 503.2 714.4 503.9 698.2 502.5 695.2 C 500.0 689.4 490.4 688.4 498.3 680.4 C 498.3 680.4 498.3 680.4 498.3 680.4 Z M 475.1 703.5 C 475.1 703.5 475.1 703.5 475.1 703.5 C 472.9 702.4 470.1 695.2 473.8 696.6 C 477.4 698.1 477.3 704.4 475.1 703.5 C 475.1 703.5 475.1 703.5 475.1 703.5 Z M 402.5 687.2 C 402.5 687.2 402.5 687.2 402.5 687.2 C 400.3 686.2 397.5 679.0 401.1 680.4 C 404.8 681.9 404.7 688.3 402.5 687.2 C 402.5 687.2 402.5 687.2 402.5 687.2 Z M 475.6 638.2 C 475.6 638.2 475.6 638.2 475.6 638.2 C 470.5 638.8 472.6 629.1 475.9 630.1 C 476.9 632.9 476.4 636.7 475.6 638.2 C 475.6 638.2 475.6 638.2 475.6 638.2 Z M 432.1 697.4 C 432.1 697.4 432.1 697.4 432.1 697.4 C 431.6 696.6 431.0 695.8 430.5 695.0 C 432.9 695.0 437.4 698.0 438.8 699.4 C 435.7 702.3 433.4 699.4 432.1 697.4 C 432.1 697.4 432.1 697.4 432.1 697.4 Z M 460.6 617.2 C 460.6 617.2 460.6 617.2 460.6 617.2 C 456.2 616.4 455.4 612.7 453.7 609.7 C 464.0 601.4 465.2 617.8 460.6 617.2 C 460.6 617.2 460.6 617.2 460.6 617.2 Z M 416.5 592.3 C 416.5 592.3 416.5 592.3 416.5 592.3 C 416.4 599.0 403.1 591.8 404.8 587.6 C 406.6 583.4 410.7 586.6 413.0 589.3 C 414.0 589.3 416.7 585.6 416.5 592.3 C 416.5 592.3 416.5 592.3 416.5 592.3 Z M 393.9 647.2 C 393.9 647.2 393.9 647.2 393.9 647.2 C 394.8 647.8 397.0 647.4 396.6 648.8 C 396.2 650.1 393.4 649.7 393.9 647.2 C 393.9 647.2 393.9 647.2 393.9 647.2 Z M 448.3 730.1 C 448.3 730.1 448.3 730.1 448.3 730.1 C 449.2 730.5 451.3 730.2 451.0 731.6 C 450.5 732.9 447.8 732.4 448.3 730.1 C 448.3 730.1 448.3 730.1 448.3 730.1 Z M 379.3 622.8 C 379.3 622.8 379.3 622.8 379.3 622.8 C 381.5 619.5 382.3 624.0 383.9 624.8 C 382.0 627.1 377.1 626.2 379.3 622.8 C 379.3 622.8 379.3 622.8 379.3 622.8 Z M 465.5 640.1 C 465.5 640.1 465.5 640.1 465.5 640.1 C 472.7 640.5 480.4 650.2 471.5 656.4 C 469.0 653.7 465.7 651.8 464.3 648.5 C 463.3 646.4 465.1 642.6 465.5 640.1 C 465.5 640.1 465.5 640.1 465.5 640.1 Z M 488.6 669.4 C 488.6 669.4 488.6 669.4 488.6 669.4 C 491.3 670.2 494.3 674.7 488.6 675.0 C 486.1 674.8 484.1 674.0 482.4 672.4 C 480.4 671.3 475.5 669.4 476.5 667.2 C 477.4 665.0 486.3 664.4 488.6 669.4 C 488.6 669.4 488.6 669.4 488.6 669.4 Z M 451.3 623.4 C 451.3 623.4 451.3 623.4 451.3 623.4 C 454.6 622.3 460.0 629.8 458.6 630.9 C 457.2 631.9 448.1 624.5 451.3 623.4 C 451.3 623.4 451.3 623.4 451.3 623.4 Z M 480.4 647.2 C 480.4 647.2 480.4 647.2 480.4 647.2 C 481.0 648.5 481.2 649.7 480.1 649.5 C 479.0 649.2 478.4 647.9 478.4 647.1 C 478.6 646.3 479.7 645.9 480.4 647.2 C 480.4 647.2 480.4 647.2 480.4 647.2 Z M 450.6 589.5 C 450.6 589.5 450.6 589.5 450.6 589.5 C 451.2 590.8 451.4 592.0 450.4 591.7 C 449.3 591.4 448.6 590.2 448.7 589.4 C 448.8 588.6 450.0 588.3 450.6 589.5 C 450.6 589.5 450.6 589.5 450.6 589.5 Z M 506.4 678.4 C 506.4 678.4 506.4 678.4 506.4 678.4 C 506.9 679.7 507.2 680.9 506.1 680.6 C 505.0 680.3 504.4 679.0 504.4 678.2 C 504.5 677.5 505.8 677.1 506.4 678.4 C 506.4 678.4 506.4 678.4 506.4 678.4 Z M 444.2 601.2 C 444.2 601.2 444.2 601.2 444.2 601.2 C 443.9 604.3 441.0 606.2 437.7 602.2 C 444.9 631.1 419.9 600.4 424.8 592.6 C 431.7 581.2 446.5 596.7 444.2 601.2 C 444.2 601.2 444.2 601.2 444.2 601.2 Z M 210.8 290.1 C 213.3 282.5 203.2 278.2 202.8 272.0 C 202.2 265.6 207.1 257.3 196.5 261.9 C 188.8 265.3 180.9 254.2 175.4 259.6 C 171.3 263.6 169.0 267.8 163.7 271.3 C 154.4 277.4 148.9 274.2 146.5 284.3 C 144.5 292.7 155.6 284.1 146.6 295.9 C 140.1 304.4 143.7 310.7 153.8 307.3 C 163.2 304.2 170.3 304.8 161.6 315.5 C 157.2 320.8 155.7 322.1 155.8 326.8 C 155.8 328.4 166.7 332.6 166.5 332.7 C 168.2 330.7 170.7 321.4 174.4 325.3 C 176.8 327.6 174.3 335.3 168.6 337.7 C 158.9 341.8 177.5 353.7 178.6 350.8 C 178.3 351.7 171.7 361.8 179.5 358.7 C 179.6 358.6 185.9 364.9 187.0 365.9 C 199.7 379.0 196.4 344.9 208.0 360.7 C 215.6 371.1 198.5 372.8 196.5 375.1 C 192.4 379.9 198.8 388.1 200.5 391.5 C 202.0 394.4 209.4 392.8 213.2 392.6 C 218.7 392.3 221.2 399.2 218.9 403.8 C 217.8 405.9 214.2 410.9 214.6 412.8 C 214.6 412.8 217.8 418.4 218.6 416.4 C 219.0 415.3 219.4 408.6 223.0 408.9 C 225.4 409.2 220.6 419.5 221.1 421.6 C 222.1 425.8 236.1 415.6 233.8 426.2 C 232.2 433.6 230.7 430.7 239.4 428.9 C 243.9 428.0 240.3 440.0 237.9 442.2 C 250.4 430.5 242.5 445.7 245.0 444.5 C 243.2 445.3 240.2 442.6 238.6 444.2 C 237.9 444.9 253.1 471.3 258.4 469.0 C 263.7 466.7 265.3 460.0 268.5 467.8 C 269.6 470.2 268.9 476.0 267.2 476.6 C 262.5 474.5 264.9 474.5 258.8 472.8 C 258.6 472.8 262.9 481.9 263.7 483.2 C 266.6 487.6 270.8 487.0 276.8 488.5 C 280.9 489.5 275.8 496.3 277.8 499.5 C 280.1 503.3 282.0 506.7 285.8 509.5 C 289.4 512.1 289.7 513.4 294.6 510.2 C 299.3 507.0 304.4 513.4 307.8 513.4 C 311.5 513.4 311.6 513.9 310.8 518.1 C 309.6 525.4 306.8 522.8 304.6 525.0 C 297.2 532.7 305.8 543.0 309.8 545.5 C 314.3 548.4 313.9 538.9 315.4 539.1 C 318.8 539.7 318.4 544.2 319.9 546.3 C 322.1 549.4 316.8 548.6 316.1 550.6 C 312.2 561.2 329.6 551.9 330.8 556.4 C 332.6 562.7 322.6 572.0 332.1 574.1 C 342.0 576.3 334.8 588.9 343.7 592.0 C 351.1 594.5 344.0 611.4 357.4 606.3 C 363.5 603.9 373.3 604.7 378.9 600.9 C 380.7 599.7 394.6 584.8 390.9 585.4 C 393.4 585.0 395.5 588.9 398.3 587.5 C 400.4 586.4 399.3 579.0 400.3 577.2 C 400.8 576.3 409.5 580.0 411.5 579.2 C 413.9 578.1 410.0 563.8 417.6 558.3 C 420.7 556.0 419.9 549.7 416.2 552.4 C 414.3 553.7 405.9 562.7 407.2 563.8 C 406.6 563.3 404.8 555.5 404.9 555.5 C 404.1 557.3 402.7 558.9 400.7 560.4 C 399.6 560.7 390.5 547.6 391.2 546.4 C 393.4 542.9 403.3 538.5 404.0 535.4 C 404.4 533.4 397.1 534.4 396.0 532.6 C 394.2 529.6 401.1 529.3 400.4 525.7 C 400.2 524.7 386.3 512.6 384.7 513.3 C 383.9 513.6 378.6 523.4 376.0 525.4 C 370.8 529.6 370.1 523.7 369.2 521.8 C 367.6 518.9 365.3 505.2 372.4 500.1 C 374.7 498.6 380.5 505.2 382.4 505.4 C 379.9 505.2 385.9 486.9 375.2 490.3 C 373.7 490.8 375.7 494.9 375.2 495.6 C 374.5 496.7 364.4 499.9 363.8 497.5 C 363.4 496.1 367.4 489.2 364.9 489.2 C 366.0 489.2 354.7 490.5 357.5 487.8 C 355.8 489.4 352.8 497.0 350.3 497.6 C 350.1 497.6 345.9 489.3 345.8 488.4 C 344.3 481.5 342.8 485.2 337.5 484.8 C 332.2 484.3 324.8 479.8 334.5 474.6 C 345.8 468.7 344.4 460.4 336.5 466.0 C 328.3 471.8 329.5 469.5 328.2 463.6 C 327.0 457.4 320.1 454.8 323.6 446.7 C 328.0 436.5 334.8 443.0 336.8 439.4 C 339.0 435.3 335.6 431.6 333.4 429.9 C 329.7 427.2 326.5 434.0 324.7 433.2 C 321.4 431.6 327.5 423.0 324.2 421.2 C 324.0 421.1 316.0 420.4 316.6 421.4 C 309.6 409.4 313.6 424.1 307.3 430.7 C 305.0 433.0 305.2 422.6 297.3 430.6 C 289.1 438.9 282.7 428.8 286.7 425.2 C 288.1 425.3 289.5 425.3 290.9 425.2 C 295.1 420.8 286.5 411.8 290.4 408.5 C 292.2 407.1 308.1 416.4 311.4 410.6 C 313.4 407.2 306.6 407.7 304.6 408.0 C 301.1 408.4 307.0 403.7 307.4 402.6 C 307.1 403.4 302.5 397.8 298.6 399.3 C 297.5 399.8 298.1 406.4 295.8 405.4 C 287.7 401.9 297.5 400.1 300.0 393.9 C 301.6 390.0 297.5 377.5 297.1 378.2 C 296.4 379.3 297.6 383.2 295.4 384.0 C 291.8 385.2 291.6 380.2 288.5 381.2 C 287.4 381.5 288.2 385.6 287.4 385.7 C 283.6 386.4 279.7 378.5 276.8 380.3 C 274.4 381.8 281.1 387.7 277.7 390.1 C 275.1 391.9 268.7 391.0 272.5 387.5 C 277.5 382.9 266.3 380.7 267.6 376.5 C 269.1 371.9 277.9 375.5 275.3 369.1 C 272.5 361.7 270.9 369.5 267.2 370.1 C 256.8 372.0 276.7 346.9 269.0 349.2 C 266.3 350.0 260.8 363.3 258.8 355.8 C 258.0 352.4 240.3 347.0 248.3 341.2 C 250.2 339.9 256.1 346.5 257.1 345.0 C 260.0 341.1 255.9 337.0 255.1 334.6 C 253.9 330.7 259.1 329.5 260.2 325.7 C 261.6 320.8 251.7 325.2 250.5 322.6 C 249.4 320.1 237.9 331.3 236.5 332.7 C 241.1 328.2 229.6 326.5 233.4 321.2 C 241.3 309.6 236.8 311.6 236.5 304.0 C 237.2 305.2 236.9 306.4 235.6 307.9 C 234.5 308.1 231.3 304.7 231.3 304.2 C 231.6 306.1 231.1 308.3 229.5 310.6 C 229.2 311.0 203.7 303.8 214.0 293.8 C 215.4 292.5 233.6 278.0 225.7 279.0 C 223.0 279.4 210.7 290.4 210.8 290.1 M 262.2 347.0 C 263.4 347.8 263.2 349.1 261.8 350.7 C 259.5 350.5 258.5 349.4 258.6 347.2 C 260.3 345.6 261.5 345.5 262.2 347.0 M 268.2 342.1 C 269.1 343.0 268.8 344.2 267.4 345.5 C 258.8 341.6 271.8 331.7 271.2 340.9 C 271.2 341.2 267.9 340.9 268.2 342.1 M 307.7 396.5 C 306.7 397.7 300.4 394.4 304.4 392.9 C 306.3 392.2 308.9 395.0 307.7 396.5 M 300.6 417.4 C 298.7 421.4 295.3 417.6 296.5 415.7 C 298.2 412.9 301.1 416.5 300.6 417.4 M 391.4 536.0 C 384.9 542.0 365.9 539.1 375.9 530.8 C 387.6 521.0 400.5 527.7 391.4 536.0 M 341.6 450.3 C 338.5 451.9 337.5 445.3 340.8 443.4 C 346.6 440.1 345.2 448.6 341.6 450.3 M 329.6 452.2 C 326.3 453.8 325.9 449.3 327.9 447.9 C 329.8 446.4 333.3 450.4 329.6 452.2 M 374.9 512.8 C 377.6 511.8 377.1 517.9 375.2 517.6 C 373.7 517.3 372.3 513.9 374.9 512.8 C 374.9 512.8 374.9 512.8 374.9 512.8 Z M 399.4 549.7 C 399.6 548.3 402.1 547.5 401.6 549.1 C 401.4 550.2 399.2 551.1 399.4 549.7 C 399.4 549.7 399.4 549.7 399.4 549.7 Z M 346.6 480.3 C 344.4 476.2 354.4 474.9 353.7 481.5 C 353.1 487.1 349.3 485.3 346.6 480.3 C 346.6 480.3 346.6 480.3 346.6 480.3 Z M 334.2 569.9 C 334.0 571.3 330.9 570.9 331.0 569.3 C 331.3 565.9 334.3 568.5 334.2 569.9 C 334.2 569.9 334.2 569.9 334.2 569.9 Z M 238.9 347.6 C 238.3 350.6 235.6 348.8 236.3 347.2 C 237.3 345.3 239.5 344.6 238.9 347.6 C 238.9 347.6 238.9 347.6 238.9 347.6 Z M 223.1 297.3 C 222.4 300.2 219.7 296.3 220.5 294.8 C 221.4 292.8 223.6 294.3 223.1 297.3 C 223.1 297.3 223.1 297.3 223.1 297.3 Z M 159.7 292.2 C 159.1 295.2 156.3 293.4 157.0 291.8 C 158.0 289.9 160.3 289.2 159.7 292.2 C 159.7 292.2 159.7 292.2 159.7 292.2 Z M 210.7 346.9 C 210.1 349.9 207.4 348.1 208.1 346.6 C 209.1 344.6 211.3 344.0 210.7 346.9 C 210.7 346.9 210.7 346.9 210.7 346.9 Z M 240.8 334.5 C 242.8 330.7 253.3 325.4 248.3 334.7 C 243.5 343.8 238.8 338.3 240.8 334.5 C 240.8 334.5 240.8 334.5 240.8 334.5 Z M 288.4 500.7 C 288.4 500.7 293.9 500.3 293.3 501.7 C 290.6 508.5 288.4 500.7 288.4 500.7 C 288.4 500.7 288.4 500.7 288.4 500.7 Z M 294.1 424.4 C 294.1 424.4 297.2 425.2 297.1 425.8 C 296.4 430.9 294.1 424.4 294.1 424.4 C 294.1 424.4 294.1 424.4 294.1 424.4 Z M 304.2 383.4 C 304.2 383.4 307.3 384.2 307.2 384.8 C 306.5 389.9 304.2 383.4 304.2 383.4 C 304.2 383.4 304.2 383.4 304.2 383.4 Z M 228.9 294.2 C 226.9 288.9 233.4 289.9 234.3 294.3 C 235.1 298.1 230.8 299.5 228.9 294.2 C 228.9 294.2 228.9 294.2 228.9 294.2 Z M 224.6 319.2 C 227.3 311.3 232.8 313.6 229.8 320.0 C 227.3 325.6 221.9 327.1 224.6 319.2 C 224.6 319.2 224.6 319.2 224.6 319.2 Z M 207.2 305.4 C 208.2 306.2 207.8 306.9 206.0 307.7 C 203.3 308.2 201.7 303.8 203.1 301.5 C 205.7 297.5 207.2 305.4 207.2 305.4 M 186.6 334.9 C 200.6 335.9 174.0 344.7 175.5 342.0 C 177.1 339.0 183.5 334.7 186.6 334.9 C 186.6 334.9 186.6 334.9 186.6 334.9 Z M 224.1 403.4 C 227.5 403.2 226.5 407.5 223.4 407.3 C 221.4 407.2 220.7 403.5 224.1 403.4 C 224.1 403.4 224.1 403.4 224.1 403.4 Z M 272.1 359.5 C 273.9 359.5 276.0 363.9 273.1 363.7 C 271.1 363.6 268.8 359.6 272.1 359.5 C 272.1 359.5 272.1 359.5 272.1 359.5 Z M 208.8 261.3 C 210.6 261.2 212.7 265.7 209.9 265.5 C 207.8 265.3 205.5 261.4 208.8 261.3 C 208.8 261.3 208.8 261.3 208.8 261.3 Z M 267.6 427.7 C 273.2 428.4 270.5 434.1 267.0 432.8 C 263.5 431.6 262.0 427.0 267.6 427.7 C 267.6 427.7 267.6 427.7 267.6 427.7 Z M 335.1 479.0 C 338.1 479.1 336.1 482.7 334.8 481.7 C 333.4 480.6 333.7 479.0 335.1 479.0 C 335.1 479.0 335.1 479.0 335.1 479.0 Z M 351.2 486.1 C 352.9 486.3 352.3 488.9 351.0 487.9 C 349.7 486.8 350.0 485.8 351.2 486.1 C 351.2 486.1 351.2 486.1 351.2 486.1 Z M 368.7 550.3 C 372.3 551.0 371.2 556.8 368.4 554.4 C 365.3 551.8 365.9 549.8 368.7 550.3 C 368.7 550.3 368.7 550.3 368.7 550.3 Z M 367.8 491.1 C 369.4 491.4 368.7 494.0 367.5 493.0 C 366.1 491.9 366.4 491.0 367.8 491.1 C 367.8 491.1 367.8 491.1 367.8 491.1 Z M 388.0 529.9 C 392.1 530.1 389.3 535.0 387.6 533.5 C 385.8 532.0 386.1 529.8 388.0 529.9 C 388.0 529.9 388.0 529.9 388.0 529.9 Z M 400.2 513.9 C 404.2 514.1 401.5 519.0 399.8 517.6 C 397.9 516.0 398.3 513.8 400.2 513.9 C 400.2 513.9 400.2 513.9 400.2 513.9 Z M 265.8 490.7 C 269.8 490.8 267.1 495.7 265.4 494.3 C 263.5 492.8 263.9 490.6 265.8 490.7 C 265.8 490.7 265.8 490.7 265.8 490.7 Z M 248.6 309.4 C 251.6 312.7 249.8 315.9 245.8 315.5 C 241.8 315.2 245.5 306.0 248.6 309.4 C 248.6 309.4 248.6 309.4 248.6 309.4 Z M 379.1 532.0 C 381.3 532.0 379.9 534.3 378.5 534.0 C 377.2 533.7 376.7 532.1 379.1 532.0 C 379.1 532.0 379.1 532.0 379.1 532.0 Z M 303.7 455.4 C 302.7 457.2 301.3 458.2 299.7 458.4 C 298.3 456.0 302.1 449.5 306.5 447.3 C 310.9 445.3 310.7 456.4 306.0 457.2 C 304.9 457.3 305.7 453.2 303.7 455.4 M 286.4 485.1 C 285.9 487.7 282.7 487.4 283.8 484.7 C 285.1 481.6 286.9 482.5 286.4 485.1 C 286.4 485.1 286.4 485.1 286.4 485.1 Z M 249.2 452.6 C 248.7 455.2 245.5 454.9 246.6 452.2 C 247.9 449.1 249.7 450.0 249.2 452.6 C 249.2 452.6 249.2 452.6 249.2 452.6 Z M 366.4 482.8 C 367.4 485.1 368.1 481.5 369.4 481.6 C 370.4 482.7 370.4 484.2 369.3 486.3 C 365.7 490.2 364.3 482.5 364.9 481.6 C 365.4 482.0 365.9 482.4 366.4 482.8 M 342.1 569.7 C 343.0 572.1 343.7 568.4 345.0 568.5 C 346.0 569.6 346.0 571.1 345.0 573.2 C 341.4 577.2 340.0 569.5 340.6 568.6 C 341.1 568.9 341.6 569.3 342.1 569.7 M 194.2 252.9 C 193.2 254.1 186.8 250.8 190.9 249.3 C 192.8 248.6 195.4 251.4 194.2 252.9 M 235.0 449.6 C 233.9 450.8 227.6 447.5 231.7 446.0 C 233.6 445.3 236.1 448.1 235.0 449.6 M 267.4 454.1 C 268.4 456.4 269.1 452.8 270.4 452.8 C 271.4 454.0 271.4 455.5 270.3 457.5 C 266.7 461.5 265.3 453.8 265.9 452.9 C 266.4 453.3 266.9 453.7 267.4 454.1 M 323.7 542.4 C 325.1 541.0 327.1 543.8 324.6 544.3 C 322.9 544.5 322.3 543.6 323.7 542.4 C 323.7 542.4 323.7 542.4 323.7 542.4 Z M 282.1 377.5 C 283.6 376.1 284.7 380.4 282.6 379.4 C 281.4 378.9 280.7 378.8 282.1 377.5 C 282.1 377.5 282.1 377.5 282.1 377.5 Z M 297.8 438.2 C 294.5 438.0 298.6 435.1 300.6 434.6 C 306.2 433.3 298.5 442.8 297.7 442.1 C 297.1 441.5 298.4 438.3 297.8 438.2 M 251.8 378.0 C 245.9 377.6 263.5 366.6 257.3 378.3 C 251.0 390.0 252.9 378.1 251.8 378.0 M 352.9 592.6 C 355.4 592.6 352.7 584.5 354.8 584.2 C 359.9 583.1 356.2 593.9 352.6 596.5 C 351.7 597.2 348.4 592.6 352.9 592.6 M 359.9 508.8 C 362.4 508.8 359.8 500.7 361.8 500.3 C 367.0 499.3 363.3 510.1 359.6 512.8 C 358.7 513.4 355.4 508.8 359.9 508.8 M 281.5 392.4 C 280.6 390.7 288.8 390.4 286.2 394.6 C 281.6 401.9 282.1 393.6 281.5 392.4 M 213.3 276.7 C 211.9 276.1 212.0 274.9 213.3 273.1 C 214.9 270.7 219.2 275.6 217.8 276.0 C 216.3 276.2 214.8 276.4 213.3 276.7 M 304.8 516.8 C 308.3 515.5 305.7 520.6 303.9 519.9 C 301.8 518.9 301.2 518.1 304.8 516.8 C 304.8 516.8 304.8 516.8 304.8 516.8 Z M 169.1 357.2 C 172.7 355.9 170.0 361.1 168.3 360.3 C 166.1 359.4 165.5 358.5 169.1 357.2 C 169.1 357.2 169.1 357.2 169.1 357.2 Z M 420.3 565.4 C 423.2 564.6 421.5 569.1 419.9 568.2 C 417.9 567.1 417.3 566.3 420.3 565.4 C 420.3 565.4 420.3 565.4 420.3 565.4 Z M 347.2 508.0 C 348.4 508.1 349.0 513.0 344.7 511.7 C 342.2 510.9 346.0 507.9 347.2 508.0 C 347.2 508.0 347.2 508.0 347.2 508.0 Z M 408.4 543.3 C 409.9 543.6 411.2 549.9 405.9 547.7 C 402.9 546.4 407.0 543.1 408.4 543.3 C 408.4 543.3 408.4 543.3 408.4 543.3 Z M 310.1 484.6 C 312.0 484.5 311.1 486.7 309.2 486.2 C 307.7 485.6 308.2 484.7 310.1 484.6 C 310.1 484.6 310.1 484.6 310.1 484.6 Z M 350.4 446.2 C 352.3 446.1 351.4 448.3 349.5 447.7 C 348.0 447.2 348.5 446.3 350.4 446.2 C 350.4 446.2 350.4 446.2 350.4 446.2 Z M 305.6 423.4 C 307.5 423.3 306.6 425.6 304.7 425.0 C 303.2 424.5 303.7 423.5 305.6 423.4 C 305.6 423.4 305.6 423.4 305.6 423.4 Z M 358.5 465.2 C 364.6 468.5 364.4 473.9 354.7 471.3 C 348.7 469.8 356.9 464.4 358.5 465.2 C 358.5 465.2 358.5 465.2 358.5 465.2 Z M 287.2 459.4 C 289.1 459.7 287.8 461.6 286.2 460.9 C 285.2 460.5 285.2 459.1 287.2 459.4 C 287.2 459.4 287.2 459.4 287.2 459.4 Z M 316.8 434.0 C 318.0 427.9 331.0 440.5 320.3 444.7 C 306.3 450.3 316.2 436.7 316.8 434.0 M 284.8 366.1 C 286.0 363.4 289.7 367.3 286.0 369.7 C 279.3 374.0 284.5 366.8 284.8 366.1 M 208.9 383.6 C 208.9 383.6 206.2 387.0 206.2 385.2 C 206.1 382.2 208.9 383.6 208.9 383.6 C 208.9 383.6 208.9 383.6 208.9 383.6 Z M 217.9 386.8 C 220.6 386.1 220.4 391.6 217.9 390.0 C 216.4 389.1 215.2 387.4 217.9 386.8 C 217.9 386.8 217.9 386.8 217.9 386.8 Z M 277.1 349.5 C 278.3 349.2 278.2 351.7 277.1 350.9 C 276.5 350.5 276.0 349.8 277.1 349.5 C 277.1 349.5 277.1 349.5 277.1 349.5 Z M 201.7 399.6 C 203.8 399.3 204.2 404.2 202.0 402.5 C 200.7 401.5 199.5 399.9 201.7 399.6 C 201.7 399.6 201.7 399.6 201.7 399.6 Z M 343.3 438.7 C 344.6 438.4 344.5 440.9 343.3 440.1 C 342.7 439.7 342.2 439.0 343.3 438.7 C 343.3 438.7 343.3 438.7 343.3 438.7 Z M 422.2 549.4 C 423.5 549.1 423.3 551.5 422.2 550.8 C 421.6 550.4 421.1 549.6 422.2 549.4 C 422.2 549.4 422.2 549.4 422.2 549.4 Z M 168.3 313.1 C 171.3 312.2 170.4 317.8 167.9 316.4 C 166.4 315.6 165.3 314.0 168.3 313.1 C 168.3 313.1 168.3 313.1 168.3 313.1 Z M 333.7 462.8 C 336.9 462.0 335.5 467.0 332.6 465.3 C 330.9 464.3 330.5 463.7 333.7 462.8 C 333.7 462.8 333.7 462.8 333.7 462.8 Z M 200.4 366.1 C 203.6 365.2 202.2 370.3 199.3 368.5 C 197.6 367.5 197.1 366.9 200.4 366.1 C 200.4 366.1 200.4 366.1 200.4 366.1 Z M 332.4 453.0 C 334.3 452.5 334.1 455.1 332.4 454.2 C 331.5 453.7 330.6 453.5 332.4 453.0 C 332.4 453.0 332.4 453.0 332.4 453.0 Z M 298.6 516.1 C 300.4 515.6 300.2 518.3 298.6 517.3 C 297.7 516.8 296.8 516.6 298.6 516.1 C 298.6 516.1 298.6 516.1 298.6 516.1 Z M 305.3 547.0 C 307.1 546.5 306.9 549.2 305.3 548.2 C 304.4 547.7 303.4 547.5 305.3 547.0 C 305.3 547.0 305.3 547.0 305.3 547.0 Z M 328.7 492.2 C 330.4 491.8 330.3 495.3 328.7 494.2 C 327.8 493.7 327.0 492.6 328.7 492.2 C 328.7 492.2 328.7 492.2 328.7 492.2 Z M 214.3 344.6 C 212.2 342.6 214.7 335.8 218.7 332.2 C 215.5 335.1 224.1 340.3 224.3 341.6 C 224.4 342.8 216.3 346.6 214.3 344.6 M 330.3 502.2 C 317.8 489.7 338.9 486.2 340.2 499.2 C 340.4 500.3 332.2 504.2 330.3 502.2 C 340.4 500.3 332.2 504.2 330.3 502.2 C 340.4 500.3 332.2 504.2 330.3 502.2 C 340.4 500.3 332.2 504.2 330.3 502.2 " fill="#FF2600"></path></g></g><g><clipPath id="clip0x6080010b5480"><path d="M 422.0 0.2 L 91.9 736.6 L 185.0 778.3 L 515.1 41.9 Z M 422.0 0.2 "></path></clipPath><g clip-path="url(#clip0x6080010b5480)"><path d="M 399.1 236.6 C 398.4 231.3 407.1 221.8 406.1 217.4 M 399.1 236.6 C 399.1 236.6 399.1 236.6 399.1 236.6 C 399.8 242.0 415.8 227.9 419.5 227.5 C 423.2 227.1 421.4 222.3 422.5 220.0 C 425.0 214.2 429.1 225.5 431.8 212.9 C 433.9 203.3 441.3 196.6 446.0 188.3 C 450.1 181.2 452.1 175.6 443.0 173.0 C 431.3 180.9 424.7 176.0 424.7 175.8 C 427.7 166.7 434.8 146.9 441.3 142.0 C 443.2 140.6 462.1 155.4 462.8 153.8 C 467.0 149.3 461.3 144.0 463.6 138.7 C 466.3 132.6 466.9 129.4 472.8 126.0 C 474.2 125.2 479.4 114.8 474.1 117.5 C 476.5 113.7 481.0 108.0 481.1 103.0 C 481.2 98.7 474.7 94.6 471.5 99.0 C 471.2 97.6 459.9 117.8 461.3 118.7 C 455.5 115.3 471.5 102.7 464.5 94.3 C 454.9 82.9 455.4 94.9 449.4 99.0 C 443.3 103.1 444.1 85.5 446.5 79.9 C 451.5 68.6 427.7 91.7 429.4 78.8 C 431.1 65.9 422.7 76.4 412.7 83.0 C 405.6 87.9 402.0 83.4 401.6 76.9 C 399.2 84.7 395.5 88.3 386.3 90.6 C 381.5 97.3 387.8 96.3 391.4 97.1 C 407.1 100.5 379.1 118.9 378.7 120.2 C 377.5 124.2 380.1 129.2 376.8 132.8 C 374.3 135.5 368.2 131.9 367.0 134.7 C 365.3 138.6 363.6 142.5 361.9 146.4 C 360.6 149.4 366.5 144.0 368.8 150.2 C 371.1 156.4 381.5 154.1 383.1 153.5 C 387.9 156.2 358.6 166.2 354.3 177.0 C 350.0 187.8 357.8 183.2 355.1 190.5 C 352.6 196.8 347.3 191.8 345.1 196.3 C 343.0 200.9 346.0 204.1 342.7 207.4 C 335.1 214.7 344.9 219.1 355.5 216.2 C 360.3 214.9 365.7 210.9 370.7 217.3 C 375.6 223.7 367.1 232.4 374.0 229.4 C 381.1 226.3 383.7 201.8 389.2 200.7 C 394.8 199.6 383.0 222.6 390.1 221.8 C 397.2 221.1 391.3 216.5 397.8 210.2 C 400.4 211.9 396.1 214.6 399.4 216.9 C 402.8 219.1 405.0 212.9 406.1 217.4 C 407.1 221.8 398.4 231.3 399.1 236.6 C 399.1 236.6 399.1 236.6 399.1 236.6 Z M 457.9 138.9 C 457.9 138.9 457.9 138.9 457.9 138.9 C 459.7 138.4 460.3 141.4 458.4 143.6 C 456.4 145.8 456.0 139.4 457.9 138.9 C 457.9 138.9 457.9 138.9 457.9 138.9 Z M 349.0 174.5 C 349.0 174.5 349.0 174.5 349.0 174.5 C 350.8 174.0 351.5 177.0 349.4 179.2 C 347.5 181.4 347.1 175.1 349.0 174.5 C 349.0 174.5 349.0 174.5 349.0 174.5 Z M 388.8 101.8 C 388.8 101.8 388.8 101.8 388.8 101.8 C 390.7 101.3 391.3 104.3 389.3 106.5 C 387.3 108.7 387.0 102.4 388.8 101.8 C 388.8 101.8 388.8 101.8 388.8 101.8 Z M 442.1 164.1 C 442.1 164.1 442.1 164.1 442.1 164.1 C 440.9 167.9 435.8 170.8 436.5 162.2 C 437.0 158.7 438.2 156.0 440.2 154.1 C 441.6 151.3 443.9 147.5 446.5 147.0 C 445.1 154.3 447.7 162.4 442.1 164.1 C 442.1 164.1 442.1 164.1 442.1 164.1 Z M 407.6 151.4 C 407.6 151.4 407.6 151.4 407.6 151.4 C 409.1 153.5 406.9 160.6 401.4 157.2 C 401.7 152.3 406.1 149.2 407.6 151.4 C 407.6 151.4 407.6 151.4 407.6 151.4 Z M 467.4 81.5 C 467.4 81.5 467.4 81.5 467.4 81.5 C 468.9 83.6 466.7 90.7 461.2 87.3 C 461.5 82.4 465.9 79.3 467.4 81.5 C 467.4 81.5 467.4 81.5 467.4 81.5 Z M 418.4 175.7 C 418.4 175.7 418.4 175.7 418.4 175.7 C 415.7 179.2 409.6 178.5 411.2 173.2 C 414.7 172.2 420.9 161.1 418.4 175.7 C 418.4 175.7 418.4 175.7 418.4 175.7 Z M 426.3 209.8 C 426.3 209.8 426.3 209.8 426.3 209.8 C 423.9 211.7 423.8 213.5 419.5 210.8 C 421.1 207.6 420.4 208.3 421.7 204.4 C 425.5 199.5 416.1 192.2 423.5 192.2 C 434.3 192.2 430.4 209.5 426.3 209.8 C 426.3 209.8 426.3 209.8 426.3 209.8 Z M 407.0 180.0 C 407.0 180.0 407.0 180.0 407.0 180.0 C 406.0 181.2 404.0 182.0 403.0 182.0 C 401.2 179.8 406.4 178.2 407.0 180.0 C 407.0 180.0 407.0 180.0 407.0 180.0 Z M 419.6 73.3 C 419.6 73.3 419.6 73.3 419.6 73.3 C 418.6 74.5 416.6 75.3 415.7 75.3 C 413.8 73.1 419.1 71.5 419.6 73.3 C 419.6 73.3 419.6 73.3 419.6 73.3 Z M 375.0 124.7 C 375.0 124.7 375.0 124.7 375.0 124.7 C 374.0 125.9 372.1 126.7 371.1 126.7 C 369.3 124.5 374.5 122.9 375.0 124.7 C 375.0 124.7 375.0 124.7 375.0 124.7 Z M 444.0 128.9 C 444.0 128.9 444.0 128.9 444.0 128.9 C 442.9 125.1 451.8 120.1 453.0 121.8 C 456.4 126.6 445.1 132.7 444.0 128.9 C 444.0 128.9 444.0 128.9 444.0 128.9 Z M 413.7 241.8 C 413.7 241.8 413.7 241.8 413.7 241.8 C 412.6 238.0 421.5 232.9 422.7 234.6 C 426.1 239.5 414.9 245.5 413.7 241.8 C 413.7 241.8 413.7 241.8 413.7 241.8 Z M 202.4 698.7 C 202.4 698.7 202.4 698.7 202.4 698.7 C 201.7 700.8 201.4 703.0 201.5 705.3 C 202.5 704.7 203.3 704.1 204.0 703.4 C 204.6 701.9 205.2 700.4 205.8 699.1 C 208.6 692.9 212.4 705.0 215.7 691.3 C 218.0 681.9 221.4 682.5 226.5 674.5 C 227.0 672.4 215.3 673.3 213.5 672.9 C 207.0 671.3 202.3 661.7 203.6 660.5 C 204.3 656.9 206.4 648.4 212.3 643.7 C 215.1 636.2 225.9 645.7 226.0 645.6 C 229.2 635.9 229.6 639.9 234.3 633.6 C 236.2 628.2 227.9 626.3 230.3 621.0 C 229.7 618.5 245.5 623.3 250.9 611.3 C 253.9 604.7 254.6 601.3 260.8 597.5 C 262.3 596.8 268.0 585.5 262.4 588.5 C 263.9 586.1 266.3 582.5 264.8 580.0 C 258.0 571.0 255.3 586.8 252.4 586.6 C 251.4 586.6 253.4 577.6 249.2 577.0 C 244.2 576.2 260.7 546.6 250.8 555.2 C 240.0 564.7 227.1 554.5 226.4 551.1 C 227.3 549.4 235.2 552.2 232.7 546.4 C 230.2 540.6 220.8 548.5 217.6 547.1 C 199.5 538.9 210.9 544.6 200.3 551.8 C 195.1 555.5 193.9 545.8 192.3 542.4 C 191.0 542.7 187.5 551.4 186.1 551.8 C 183.4 555.9 186.0 555.8 179.4 557.5 C 175.9 558.7 175.7 567.3 175.5 568.3 C 175.7 570.6 178.2 564.8 180.8 565.4 C 193.2 568.1 175.0 572.9 171.9 580.5 C 168.8 588.0 168.2 590.9 167.4 592.2 C 166.7 593.2 174.9 596.3 173.3 598.0 C 173.4 601.2 168.7 601.8 165.4 603.0 C 162.0 604.2 164.8 613.0 162.9 616.2 C 161.0 619.4 157.4 617.1 151.3 623.7 C 145.3 630.2 157.2 635.2 160.6 635.5 C 172.9 636.4 147.2 637.2 145.4 642.9 C 143.5 648.5 148.1 650.3 146.4 653.8 C 144.7 655.3 142.7 656.3 140.8 657.3 C 142.2 660.0 139.6 662.2 137.3 667.8 C 137.0 668.7 136.7 669.2 136.3 669.8 C 137.1 670.7 146.0 664.1 147.0 665.6 C 150.0 670.3 141.8 672.7 138.5 673.2 C 140.8 678.1 140.5 683.1 136.4 687.2 C 128.3 695.2 138.3 699.9 149.3 696.7 C 154.3 695.2 162.5 690.2 164.9 697.7 C 167.3 705.2 157.7 713.0 168.0 710.7 C 168.2 710.0 171.5 713.4 172.8 702.8 C 174.0 692.2 180.9 689.0 181.1 689.1 C 183.9 684.0 180.4 681.5 184.6 679.7 C 188.8 678.0 185.7 685.5 182.9 690.7 C 184.3 692.2 188.2 690.9 186.3 695.8 C 184.4 700.6 180.2 698.7 181.9 702.2 C 183.5 705.7 183.5 702.5 184.8 702.4 C 183.8 706.4 182.0 710.0 180.1 713.6 C 175.7 720.2 189.9 712.5 191.8 709.9 C 195.6 704.7 191.5 695.9 202.4 698.7 C 202.4 698.7 202.4 698.7 202.4 698.7 Z M 170.8 690.4 C 170.8 690.4 170.8 690.4 170.8 690.4 C 170.6 688.1 175.4 682.0 176.0 685.8 C 176.5 689.7 171.1 692.8 170.8 690.4 C 170.8 690.4 170.8 690.4 170.8 690.4 Z M 147.7 619.7 C 147.7 619.7 147.7 619.7 147.7 619.7 C 147.5 617.4 152.3 611.2 152.9 615.1 C 153.5 619.0 147.9 622.2 147.7 619.7 C 147.7 619.7 147.7 619.7 147.7 619.7 Z M 227.1 657.6 C 227.1 657.6 227.1 657.6 227.1 657.6 C 224.0 653.5 233.5 650.4 234.3 653.7 C 232.4 656.0 228.9 657.5 227.1 657.6 C 227.1 657.6 227.1 657.6 227.1 657.6 Z M 154.1 650.4 C 154.1 650.4 154.1 650.4 154.1 650.4 C 154.5 649.5 154.9 648.6 155.3 647.8 C 156.6 649.9 156.2 655.3 155.7 657.2 C 151.6 656.0 153.0 652.5 154.1 650.4 C 154.1 650.4 154.1 650.4 154.1 650.4 Z M 237.6 634.0 C 237.6 634.0 237.6 634.0 237.6 634.0 C 236.0 629.8 238.8 627.3 240.5 624.3 C 252.9 628.8 239.3 638.2 237.6 634.0 C 237.6 634.0 237.6 634.0 237.6 634.0 Z M 236.5 583.4 C 236.5 583.4 236.5 583.4 236.5 583.4 C 230.7 586.7 230.1 571.6 234.6 570.9 C 239.1 570.3 238.5 575.5 237.3 578.8 C 237.8 579.7 242.4 580.1 236.5 583.4 C 236.5 583.4 236.5 583.4 236.5 583.4 Z M 177.7 592.0 C 177.7 592.0 177.7 592.0 177.7 592.0 C 177.7 593.0 179.1 594.7 177.7 595.1 C 176.4 595.4 175.4 592.8 177.7 592.0 C 177.7 592.0 177.7 592.0 177.7 592.0 Z M 134.2 681.0 C 134.2 681.0 134.2 681.0 134.2 681.0 C 134.3 682.0 135.6 683.7 134.3 684.0 C 132.9 684.4 131.9 681.7 134.2 681.0 C 134.2 681.0 134.2 681.0 134.2 681.0 Z M 191.3 566.9 C 191.3 566.9 191.3 566.9 191.3 566.9 C 195.2 567.1 191.8 570.1 192.0 571.9 C 189.0 571.5 187.2 566.8 191.3 566.9 C 191.3 566.9 191.3 566.9 191.3 566.9 Z M 220.4 649.9 C 220.4 649.9 220.4 649.9 220.4 649.9 C 223.7 656.3 219.3 667.9 209.4 663.4 C 210.5 659.8 210.4 656.0 212.5 653.2 C 213.8 651.2 218.0 650.8 220.4 649.9 C 220.4 649.9 220.4 649.9 220.4 649.9 Z M 206.9 684.7 C 206.9 684.7 206.9 684.7 206.9 684.7 C 207.7 687.5 205.3 692.3 202.1 687.5 C 201.1 685.3 200.7 683.1 201.3 680.9 C 201.1 678.6 200.3 673.4 202.7 673.1 C 205.1 672.8 210.1 680.1 206.9 684.7 C 206.9 684.7 206.9 684.7 206.9 684.7 Z M 227.5 629.1 C 227.5 629.1 227.5 629.1 227.5 629.1 C 230.1 631.4 226.4 639.9 224.8 639.3 C 223.2 638.6 224.9 627.0 227.5 629.1 C 227.5 629.1 227.5 629.1 227.5 629.1 Z M 221.8 666.3 C 221.8 666.3 221.8 666.3 221.8 666.3 C 221.1 667.5 220.1 668.3 219.8 667.2 C 219.5 666.2 220.3 664.9 221.0 664.6 C 221.7 664.3 222.6 665.1 221.8 666.3 C 221.8 666.3 221.8 666.3 221.8 666.3 Z M 256.3 611.3 C 256.3 611.3 256.3 611.3 256.3 611.3 C 255.5 612.4 254.5 613.2 254.3 612.2 C 254.0 611.1 254.7 609.8 255.5 609.6 C 256.1 609.3 257.0 610.1 256.3 611.3 C 256.3 611.3 256.3 611.3 256.3 611.3 Z M 208.3 704.6 C 208.3 704.6 208.3 704.6 208.3 704.6 C 207.5 705.7 206.5 706.5 206.2 705.5 C 206.0 704.4 206.7 703.2 207.4 702.8 C 208.1 702.5 209.1 703.4 208.3 704.6 C 208.3 704.6 208.3 704.6 208.3 704.6 Z M 243.0 611.7 C 243.0 611.7 243.0 611.7 243.0 611.7 C 240.2 613.0 237.1 611.5 238.8 606.7 C 217.6 627.6 231.3 590.4 240.5 590.6 C 253.8 590.8 248.0 611.5 243.0 611.7 C 243.0 611.7 243.0 611.7 243.0 611.7 Z M 385.6 265.4 C 393.3 263.9 391.8 253.4 396.8 250.0 C 401.9 246.5 411.5 246.6 402.1 239.9 C 395.2 235.1 400.4 223.1 393.1 221.1 C 387.5 219.6 382.8 219.7 377.1 216.9 C 367.1 212.1 366.9 205.9 357.1 208.8 C 349.0 211.0 362.0 216.3 347.3 214.3 C 336.8 212.9 333.3 219.1 341.4 225.9 C 349.0 232.3 352.1 238.5 338.6 236.3 C 331.8 235.2 329.9 234.5 326.0 236.9 C 324.7 237.6 326.8 248.8 326.5 248.7 C 329.1 249.2 338.3 246.8 337.0 251.8 C 336.2 254.9 328.4 256.5 323.4 252.8 C 314.9 246.6 314.5 267.9 317.6 267.5 C 316.6 267.7 304.6 267.0 311.4 272.0 C 311.4 272.1 309.5 280.4 309.1 281.8 C 304.6 298.7 331.8 279.7 324.5 296.9 C 319.6 308.2 309.3 294.7 306.3 294.1 C 300.1 293.0 296.5 302.3 294.5 305.4 C 292.8 308.0 298.0 313.4 300.2 316.5 C 303.3 321.0 298.7 326.4 293.7 326.7 C 291.3 326.8 285.1 326.1 283.8 327.4 C 283.8 327.4 280.7 332.8 282.8 332.5 C 283.9 332.3 289.8 329.4 291.4 332.5 C 292.5 334.7 281.3 335.6 279.7 337.1 C 276.6 339.9 292.6 346.8 282.4 349.9 C 275.3 352.1 277.0 349.5 283.0 355.9 C 286.1 359.2 274.1 361.9 271.1 361.0 C 287.5 365.9 270.4 366.5 272.8 368.0 C 271.1 367.0 271.9 363.1 269.7 362.5 C 268.7 362.3 254.3 387.7 259.0 391.0 C 263.7 394.4 270.2 392.5 265.3 398.9 C 263.7 401.0 258.5 403.2 257.1 402.0 C 256.5 397.2 257.7 399.1 256.0 393.2 C 255.9 393.0 250.4 401.0 249.7 402.2 C 247.6 406.8 250.2 410.1 252.0 415.8 C 253.3 419.7 245.0 418.7 243.2 422.0 C 241.2 425.7 239.3 428.9 239.0 433.4 C 238.6 437.6 237.6 438.6 242.9 441.1 C 248.1 443.5 245.3 450.9 247.1 453.8 C 249.0 456.8 248.6 457.1 244.7 458.5 C 237.9 460.9 238.6 457.3 235.6 456.6 C 225.2 454.1 221.0 466.3 220.9 470.8 C 220.9 476.0 228.6 471.1 229.2 472.4 C 230.6 475.6 226.5 477.4 225.5 479.6 C 224.0 483.0 222.0 478.1 219.9 478.5 C 208.9 480.4 225.8 490.4 222.7 493.6 C 218.2 498.2 205.1 494.2 208.3 503.2 C 211.6 512.6 197.2 512.6 199.2 521.5 C 200.9 528.9 183.0 531.0 194.2 539.8 C 199.4 543.8 203.9 552.4 210.0 555.3 C 211.9 556.2 231.8 560.8 229.3 557.9 C 231.0 559.8 228.8 563.4 231.4 565.1 C 233.5 566.3 239.2 561.9 241.1 561.9 C 242.2 561.9 243.6 571.0 245.3 572.2 C 247.5 573.7 257.6 563.6 266.1 567.3 C 269.7 568.8 274.6 565.1 270.4 563.3 C 268.3 562.4 256.4 559.6 256.1 561.2 C 256.3 560.5 261.9 555.3 262.0 555.3 C 260.0 555.5 257.9 555.1 255.6 554.2 C 254.8 553.4 261.1 539.4 262.5 539.5 C 266.6 539.6 275.5 545.8 278.4 544.9 C 280.3 544.3 275.7 538.6 276.7 536.9 C 278.3 534.0 282.1 539.5 284.8 537.3 C 285.5 536.6 288.6 519.2 287.2 518.2 C 286.5 517.7 275.4 517.9 272.4 516.7 C 266.1 514.3 270.8 510.9 271.9 509.2 C 273.6 506.5 283.9 498.0 291.9 501.6 C 294.4 502.7 291.8 510.7 292.6 512.4 C 291.5 510.3 310.1 506.5 301.7 499.2 C 300.5 498.1 298.1 501.8 297.2 501.8 C 295.9 501.7 288.0 494.7 289.6 493.1 C 290.7 492.0 298.6 492.1 297.3 490.0 C 297.8 490.9 290.8 482.1 294.6 483.1 C 292.3 482.5 284.4 483.6 282.6 481.7 C 282.5 481.6 287.3 474.1 288.0 473.6 C 293.1 469.0 289.1 469.6 286.7 464.9 C 284.3 460.2 284.4 451.8 293.8 457.6 C 304.7 464.2 310.9 459.0 302.1 455.0 C 293.0 451.0 295.5 450.9 299.8 447.0 C 304.5 443.0 303.1 436.0 311.7 435.0 C 322.7 433.8 320.7 442.6 324.8 442.6 C 329.4 442.5 330.7 437.9 331.0 435.2 C 331.4 430.8 324.0 431.3 323.7 429.5 C 323.4 426.0 333.8 427.0 333.6 423.3 C 333.6 423.1 330.0 416.1 329.5 417.1 C 336.0 405.4 325.7 415.8 316.8 413.7 C 313.6 412.8 322.5 408.0 311.7 405.3 C 300.4 402.4 305.6 392.1 310.7 393.8 C 311.4 395.0 312.2 396.1 312.9 397.3 C 318.9 398.7 322.0 387.2 326.8 388.9 C 329.0 389.7 329.4 407.5 336.0 407.5 C 339.9 407.6 335.9 402.1 334.6 400.5 C 332.5 397.8 339.5 400.5 340.6 400.3 C 339.8 400.4 342.2 393.9 338.8 391.3 C 337.9 390.6 332.6 394.3 332.2 391.9 C 331.0 383.4 337.6 390.8 344.2 390.0 C 348.3 389.4 356.8 380.0 355.9 380.0 C 354.7 379.9 352.0 382.8 350.1 381.3 C 347.3 378.9 351.4 376.3 348.9 374.2 C 348.1 373.4 345.1 376.0 344.6 375.4 C 341.9 372.6 346.7 365.5 343.6 364.0 C 341.1 362.6 339.6 371.1 335.7 369.4 C 332.9 368.1 330.4 362.3 335.3 363.8 C 341.7 365.8 337.8 355.4 342.0 354.4 C 346.7 353.5 348.3 362.6 352.3 357.4 C 357.1 351.5 349.7 353.8 347.2 351.0 C 340.2 343.3 371.8 347.9 365.9 342.5 C 363.8 340.6 349.7 342.4 355.0 337.2 C 357.5 334.8 352.8 317.4 361.9 321.3 C 364.0 322.3 361.4 330.4 363.3 330.6 C 368.0 331.1 369.4 325.7 371.0 323.9 C 373.7 321.0 377.4 324.8 381.2 323.9 C 386.1 322.7 377.2 316.5 378.8 314.2 C 380.3 312.1 364.9 307.9 362.9 307.4 C 369.1 309.1 364.6 298.7 371.1 299.2 C 385.0 300.3 381.0 297.5 387.2 293.6 C 386.6 294.7 385.4 295.1 383.5 294.8 C 382.7 293.9 384.0 289.6 384.4 289.3 C 382.9 290.5 380.8 291.1 378.0 291.0 C 377.5 290.8 370.4 266.0 384.2 269.9 C 386.0 270.4 407.8 278.8 402.7 272.6 C 401.1 270.5 385.3 265.5 385.6 265.4 M 364.2 335.8 C 364.1 337.2 363.0 337.6 360.9 337.2 C 359.8 335.2 360.3 333.8 362.1 332.9 C 364.4 333.5 365.0 334.4 364.2 335.8 M 371.5 338.4 C 371.1 339.6 370.0 340.0 368.2 339.4 C 367.0 330.3 382.2 336.5 374.1 340.4 C 373.8 340.5 372.4 337.6 371.5 338.4 M 346.0 397.7 C 344.4 397.4 344.0 390.5 347.4 393.2 C 348.9 394.4 347.8 398.0 346.0 397.7 M 324.6 401.7 C 320.2 402.0 321.7 397.3 323.9 397.4 C 327.2 397.5 325.6 401.7 324.6 401.7 M 271.4 534.7 C 263.0 532.1 255.6 514.7 267.8 519.1 C 282.1 524.3 283.2 538.3 271.4 534.7 M 318.0 451.8 C 315.1 450.0 320.2 445.9 323.5 447.9 C 329.3 451.2 321.4 454.1 318.0 451.8 M 310.2 442.7 C 307.2 440.7 310.8 438.2 313.0 439.1 C 315.2 440.1 313.6 444.9 310.2 442.7 M 282.5 509.7 C 284.7 511.4 279.3 513.9 278.6 512.3 C 278.0 510.9 280.2 508.0 282.5 509.7 C 282.5 509.7 282.5 509.7 282.5 509.7 Z M 264.0 547.9 C 265.3 547.4 267.3 549.1 265.7 549.5 C 264.6 549.8 262.7 548.4 264.0 547.9 C 264.0 547.9 264.0 547.9 264.0 547.9 Z M 295.3 470.4 C 297.6 466.6 303.8 474.3 297.9 476.9 C 292.9 479.1 292.5 475.1 295.3 470.4 C 295.3 470.4 295.3 470.4 295.3 470.4 Z M 213.0 502.9 C 211.7 503.4 210.4 500.6 211.9 500.0 C 214.9 498.6 214.3 502.4 213.0 502.9 C 213.0 502.9 213.0 502.9 213.0 502.9 Z M 351.6 316.5 C 348.8 317.4 348.8 314.3 350.6 314.2 C 352.7 314.1 354.4 315.6 351.6 316.5 C 351.6 316.5 351.6 316.5 351.6 316.5 Z M 386.0 279.1 C 383.1 280.0 385.0 275.9 386.7 275.8 C 388.9 275.6 388.8 278.2 386.0 279.1 C 386.0 279.1 386.0 279.1 386.0 279.1 Z M 357.3 223.5 C 354.5 224.5 354.5 221.3 356.2 221.2 C 358.4 221.0 360.1 222.7 357.3 223.5 C 357.3 223.5 357.3 223.5 357.3 223.5 Z M 337.5 292.6 C 334.7 293.5 334.8 290.3 336.4 290.2 C 338.6 290.1 340.3 291.6 337.5 292.6 C 337.5 292.6 337.5 292.6 337.5 292.6 Z M 363.6 311.9 C 368.0 311.7 377.9 318.0 367.4 318.2 C 357.2 318.5 359.4 312.0 363.6 311.9 C 363.6 311.9 363.6 311.9 363.6 311.9 Z M 247.8 431.4 C 247.8 431.4 250.9 435.8 249.4 436.0 C 242.3 437.0 247.8 431.4 247.8 431.4 C 247.8 431.4 247.8 431.4 247.8 431.4 Z M 315.3 399.6 C 315.3 399.6 316.3 402.6 315.7 402.8 C 311.0 404.6 315.3 399.6 315.3 399.6 C 315.3 399.6 315.3 399.6 315.3 399.6 Z M 355.2 388.4 C 355.2 388.4 356.2 391.4 355.6 391.7 C 350.9 393.5 355.2 388.4 355.2 388.4 C 355.2 388.4 355.2 388.4 355.2 388.4 Z M 391.6 282.5 C 395.1 278.3 397.6 284.3 394.3 287.2 C 391.5 289.6 388.1 286.7 391.6 282.5 C 391.6 282.5 391.6 282.5 391.6 282.5 Z M 368.2 290.9 C 376.3 289.4 377.2 295.1 370.2 295.7 C 364.1 296.2 360.1 292.5 368.2 290.9 C 368.2 290.9 368.2 290.9 368.2 290.9 Z M 370.8 269.7 C 370.7 270.9 369.9 271.0 368.3 269.9 C 366.4 267.8 369.4 264.4 372.0 264.5 C 376.8 264.6 370.8 269.7 370.8 269.7 M 335.2 266.6 C 341.6 278.8 320.3 260.7 323.3 260.7 C 326.8 260.6 333.7 263.9 335.2 266.6 C 335.2 266.6 335.2 266.6 335.2 266.6 Z M 296.7 330.8 C 298.6 333.6 294.4 334.8 293.0 332.1 C 292.1 330.4 294.8 328.0 296.7 330.8 C 296.7 330.8 296.7 330.8 296.7 330.8 Z M 358.8 350.1 C 359.7 351.5 357.1 355.4 355.8 352.9 C 354.8 351.2 357.0 347.3 358.8 350.1 C 358.8 350.1 358.8 350.1 358.8 350.1 Z M 409.0 249.9 C 410.0 251.4 407.3 255.3 406.0 252.8 C 405.1 251.0 407.2 247.2 409.0 249.9 C 409.0 249.9 409.0 249.9 409.0 249.9 Z M 298.7 379.0 C 301.0 384.0 294.8 384.4 294.1 380.9 C 293.3 377.4 296.4 374.0 298.7 379.0 C 298.7 379.0 298.7 379.0 298.7 379.0 Z M 290.4 460.2 C 291.9 462.7 287.8 462.7 288.0 461.2 C 288.1 459.5 289.7 459.0 290.4 460.2 C 290.4 460.2 290.4 460.2 290.4 460.2 Z M 292.8 477.1 C 293.4 478.6 290.9 479.3 291.1 477.7 C 291.4 476.1 292.3 475.9 292.8 477.1 C 292.8 477.1 292.8 477.1 292.8 477.1 Z M 247.5 522.5 C 248.8 525.9 243.4 527.7 243.9 524.2 C 244.5 520.3 246.5 519.9 247.5 522.5 C 247.5 522.5 247.5 522.5 247.5 522.5 Z M 297.1 493.3 C 297.7 494.8 295.2 495.5 295.4 494.0 C 295.6 492.3 296.6 492.1 297.1 493.3 C 297.1 493.3 297.1 493.3 297.1 493.3 Z M 274.8 528.9 C 276.8 532.4 271.2 532.4 271.5 530.3 C 271.8 528.0 273.8 527.2 274.8 528.9 C 274.8 528.9 274.8 528.9 274.8 528.9 Z M 294.6 531.4 C 296.6 534.9 291.1 535.0 291.4 532.9 C 291.7 530.6 293.7 529.8 294.6 531.4 C 294.6 531.4 294.6 531.4 294.6 531.4 Z M 244.4 407.6 C 246.4 411.1 240.9 411.1 241.2 409.0 C 241.5 406.7 243.6 406.0 244.4 407.6 C 244.4 407.6 244.4 407.6 244.4 407.6 Z M 389.0 306.3 C 387.7 310.4 384.1 310.5 382.3 306.9 C 380.5 303.4 390.3 302.1 389.0 306.3 C 389.0 306.3 389.0 306.3 389.0 306.3 Z M 268.4 522.4 C 269.6 524.3 266.8 524.2 266.4 522.9 C 266.0 521.6 267.1 520.5 268.4 522.4 C 268.4 522.4 268.4 522.4 268.4 522.4 Z M 294.0 422.5 C 292.0 422.5 290.5 421.9 289.4 420.6 C 290.8 418.3 298.2 418.3 302.4 421.0 C 306.3 423.7 296.8 428.9 293.7 425.3 C 293.0 424.4 296.9 423.1 294.0 422.5 M 259.9 422.3 C 257.5 423.1 256.0 420.3 258.9 419.9 C 262.2 419.5 262.4 421.4 259.9 422.3 C 259.9 422.3 259.9 422.3 259.9 422.3 Z M 268.1 375.5 C 265.6 376.3 264.2 373.5 267.0 373.1 C 270.3 372.7 270.5 374.7 268.1 375.5 C 268.1 375.5 268.1 375.5 268.1 375.5 Z M 303.5 488.2 C 302.0 490.1 305.4 489.0 306.0 490.1 C 305.6 491.5 304.3 492.2 302.0 492.3 C 296.8 491.2 302.6 486.3 303.7 486.4 C 303.6 487.0 303.6 487.6 303.5 488.2 M 217.3 509.4 C 215.8 511.4 219.2 510.2 219.8 511.3 C 219.4 512.7 218.1 513.4 215.8 513.6 C 210.5 512.5 216.4 507.6 217.4 507.7 C 217.4 508.2 217.3 508.9 217.3 509.4 M 408.5 233.7 C 406.9 233.4 406.4 226.5 409.9 229.2 C 411.5 230.4 410.4 234.0 408.5 233.7 M 263.2 362.1 C 261.6 361.8 261.1 354.9 264.6 357.6 C 266.2 358.8 265.1 362.4 263.2 362.1 M 276.3 391.4 C 274.9 393.4 278.3 392.2 278.9 393.4 C 278.4 394.7 277.1 395.4 274.9 395.5 C 269.6 394.5 275.4 389.6 276.5 389.7 C 276.5 390.2 276.4 390.8 276.3 391.4 M 230.8 480.9 C 232.7 481.5 231.3 484.5 229.7 482.6 C 228.6 481.3 229.0 480.4 230.8 480.9 C 230.8 480.9 230.8 480.9 230.8 480.9 Z M 348.8 367.1 C 350.7 367.6 347.6 370.6 347.4 368.4 C 347.2 367.2 346.9 366.5 348.8 367.1 C 348.8 367.1 348.8 367.1 348.8 367.1 Z M 305.5 409.3 C 304.0 406.5 308.5 408.5 310.0 410.0 C 314.0 414.0 302.0 412.1 302.2 411.1 C 302.4 410.3 305.8 409.9 305.5 409.3 M 332.5 341.9 C 329.8 336.8 348.3 346.2 335.2 346.6 C 322.0 346.9 333.0 342.9 332.5 341.9 M 203.5 529.5 C 204.8 531.5 210.2 525.5 211.6 527.0 C 215.2 530.9 204.1 532.9 200.0 531.1 C 199.0 530.7 201.1 525.7 203.5 529.5 M 278.1 495.2 C 279.4 497.3 284.8 491.2 286.2 492.8 C 289.8 496.6 278.7 498.7 274.6 496.9 C 273.6 496.4 275.7 491.5 278.1 495.2 M 335.8 373.7 C 336.8 372.1 341.3 378.9 336.4 378.7 C 327.9 378.3 335.1 374.7 335.8 373.7 M 398.3 261.0 C 398.1 259.7 399.1 259.1 401.3 259.3 C 404.2 259.5 402.2 265.5 401.3 264.6 C 400.3 263.4 399.3 262.2 398.3 261.0 M 242.6 452.8 C 245.6 455.2 239.9 455.4 239.6 453.6 C 239.3 451.3 239.7 450.4 242.6 452.8 C 242.6 452.8 242.6 452.8 242.6 452.8 Z M 307.2 262.6 C 310.1 265.0 304.4 265.2 304.1 263.4 C 303.8 261.1 304.2 260.2 307.2 262.6 C 307.2 262.6 307.2 262.6 307.2 262.6 Z M 261.5 573.0 C 263.7 575.0 259.0 575.7 259.0 574.0 C 258.9 571.8 259.3 570.9 261.5 573.0 C 261.5 573.0 261.5 573.0 261.5 573.0 Z M 272.1 484.2 C 272.7 485.2 268.8 488.1 267.7 483.8 C 267.1 481.4 271.6 483.1 272.1 484.2 C 272.1 484.2 272.1 484.2 272.1 484.2 Z M 274.1 552.4 C 274.6 553.8 270.0 557.9 269.1 552.4 C 268.6 549.3 273.5 551.1 274.1 552.4 C 274.1 552.4 274.1 552.4 274.1 552.4 Z M 272.6 441.9 C 273.7 443.4 271.4 443.7 270.9 441.9 C 270.6 440.4 271.6 440.3 272.6 441.9 C 272.6 441.9 272.6 441.9 272.6 441.9 Z M 326.1 457.2 C 327.2 458.8 324.8 459.1 324.4 457.3 C 324.0 455.8 325.1 455.7 326.1 457.2 C 326.1 457.2 326.1 457.2 326.1 457.2 Z M 322.1 408.8 C 323.1 410.3 320.8 410.7 320.3 408.8 C 320.0 407.3 321.0 407.2 322.1 408.8 C 322.1 408.8 322.1 408.8 322.1 408.8 Z M 314.2 473.1 C 314.6 479.9 309.9 482.2 307.1 472.9 C 305.3 467.2 314.1 471.4 314.2 473.1 C 314.2 473.1 314.2 473.1 314.2 473.1 Z M 282.1 410.6 C 282.8 412.4 280.5 412.1 280.3 410.5 C 280.1 409.4 281.3 408.8 282.1 410.6 C 282.1 410.6 282.1 410.6 282.1 410.6 Z M 319.0 423.2 C 324.7 421.3 320.9 438.2 311.7 431.3 C 299.7 422.3 316.4 424.0 319.0 423.2 M 359.8 363.9 C 362.7 363.6 361.4 368.5 357.4 366.6 C 350.2 363.1 359.0 363.9 359.8 363.9 M 305.5 308.6 C 305.5 308.6 301.2 308.0 302.7 307.1 C 305.3 305.6 305.5 308.6 305.5 308.6 C 305.5 308.6 305.5 308.6 305.5 308.6 Z M 307.5 317.7 C 309.5 319.7 304.7 322.1 304.8 319.2 C 304.8 317.5 305.6 315.7 307.5 317.7 C 307.5 317.7 307.5 317.7 307.5 317.7 Z M 369.8 349.5 C 370.7 350.4 368.6 351.5 368.6 350.1 C 368.6 349.4 369.0 348.6 369.8 349.5 C 369.8 349.5 369.8 349.5 369.8 349.5 Z M 288.2 310.2 C 289.6 311.9 285.6 314.6 286.0 311.8 C 286.1 310.3 286.9 308.5 288.2 310.2 C 288.2 310.2 288.2 310.2 288.2 310.2 Z M 328.8 447.7 C 329.6 448.6 327.5 449.7 327.5 448.4 C 327.6 447.7 327.9 446.9 328.8 447.7 C 328.8 447.7 328.8 447.7 328.8 447.7 Z M 276.1 566.9 C 277.0 567.8 274.9 568.9 274.9 567.6 C 274.9 566.9 275.3 566.1 276.1 566.9 C 276.1 566.9 276.1 566.9 276.1 566.9 Z M 344.1 240.8 C 346.4 242.9 341.2 244.8 341.1 242.0 C 341.0 240.4 341.8 238.7 344.1 240.8 C 344.1 240.8 344.1 240.8 344.1 240.8 Z M 303.4 451.2 C 305.7 453.5 300.7 454.7 300.7 451.4 C 300.6 449.6 300.9 448.9 303.4 451.2 C 303.4 451.2 303.4 451.2 303.4 451.2 Z M 315.9 293.1 C 318.3 295.3 313.3 296.6 313.3 293.3 C 313.3 291.4 313.5 290.8 315.9 293.1 C 315.9 293.1 315.9 293.1 315.9 293.1 Z M 311.0 445.4 C 312.4 446.7 310.0 447.8 310.0 446.0 C 310.0 445.0 309.7 444.1 311.0 445.4 C 311.0 445.4 311.0 445.4 311.0 445.4 Z M 240.0 447.3 C 241.4 448.6 239.0 449.7 239.0 447.9 C 238.9 446.9 238.7 446.0 240.0 447.3 C 240.0 447.3 240.0 447.3 240.0 447.3 Z M 217.4 467.7 C 218.7 469.0 216.3 470.1 216.3 468.3 C 216.3 467.3 216.0 466.4 217.4 467.7 C 217.4 467.7 217.4 467.7 217.4 467.7 Z M 275.9 461.1 C 277.1 462.3 274.1 463.9 274.1 462.0 C 274.2 461.0 274.7 459.9 275.9 461.1 C 275.9 461.1 275.9 461.1 275.9 461.1 Z M 341.3 294.5 C 342.0 291.8 349.0 290.6 354.1 292.3 C 350.1 290.9 350.1 300.7 349.0 301.4 C 348.1 302.0 340.6 297.1 341.3 294.5 M 268.2 467.2 C 272.4 450.7 286.3 466.8 275.9 474.1 C 275.1 474.8 267.5 469.8 268.2 467.2 C 275.1 474.8 267.5 469.8 268.2 467.2 C 275.1 474.8 267.5 469.8 268.2 467.2 C 275.1 474.8 267.5 469.8 268.2 467.2 " fill="#FF2600"></path></g></g></g></svg>