<?xml version="1.0" encoding="UTF-8" standalone="no"?><svg xmlns="http://www.w3.org/2000/svg" xmlns:xlink="http://www.w3.org/1999/xlink" clip-rule="evenodd" stroke-miterlimit="10" viewBox="0 0 497 26"><desc>SVG generated by Keynote</desc><defs></defs><g transform="matrix(1.00, 0.00, -0.00, -1.00, 0.0, 26.0)"><text xml:space="preserve" font-family="Helvetica-Light,Helvetica" font-size="23.0" fill="#FEFFFF" transform="matrix(1.00, 0.00, -0.00, -1.00, 0.0, 6.3)">h</text><text xml:space="preserve" font-family="Helvetica-Light,Helvetica" font-size="23.0" fill="#FEFFFF" transform="matrix(1.00, 0.00, -0.00, -1.00, 12.8, 6.3)">t</text><text xml:space="preserve" font-family="Helvetica-Light,Helvetica" font-size="23.0" fill="#FEFFFF" transform="matrix(1.00, 0.00, -0.00, -1.00, 19.2, 6.3)">t</text><text xml:space="preserve" font-family="Helvetica-Light,Helvetica" font-size="23.0" fill="#FEFFFF" transform="matrix(1.00, 0.00, -0.00, -1.00, 25.6, 6.3)">p</text><text xml:space="preserve" font-family="Helvetica-Light,Helvetica" font-size="23.0" fill="#FEFFFF" transform="matrix(1.00, 0.00, -0.00, -1.00, 39.6, 6.3)">:</text><text xml:space="preserve" font-family="Helvetica-Light,Helvetica" font-size="23.0" fill="#FEFFFF" transform="matrix(1.00, 0.00, -0.00, -1.00, 46.0, 6.3)">/</text><text xml:space="preserve" font-family="Helvetica-Light,Helvetica" font-size="23.0" fill="#FEFFFF" transform="matrix(1.00, 0.00, -0.00, -1.00, 52.4, 6.3)">/</text><text xml:space="preserve" font-family="Helvetica-Light,Helvetica" font-size="23.0" fill="#FEFFFF" transform="matrix(1.00, 0.00, -0.00, -1.00, 58.8, 6.3)">w</text><text xml:space="preserve" font-family="Helvetica-Light,Helvetica" font-size="23.0" fill="#FEFFFF" transform="matrix(1.00, 0.00, -0.00, -1.00, 75.4, 6.3)">w</text><text xml:space="preserve" font-family="Helvetica-Light,Helvetica" font-size="23.0" fill="#FEFFFF" transform="matrix(1.00, 0.00, -0.00, -1.00, 92.0, 6.3)">w</text><text xml:space="preserve" font-family="Helvetica-Light,Helvetica" font-size="23.0" fill="#FEFFFF" transform="matrix(1.00, 0.00, -0.00, -1.00, 107.4, 6.3)">.</text><text xml:space="preserve" font-family="Helvetica-Light,Helvetica" font-size="23.0" fill="#FEFFFF" transform="matrix(1.00, 0.00, -0.00, -1.00, 113.8, 6.3)">y</text><text xml:space="preserve" font-family="Helvetica-Light,Helvetica" font-size="23.0" fill="#FEFFFF" transform="matrix(1.00, 0.00, -0.00, -1.00, 125.3, 6.3)">o</text><text xml:space="preserve" font-family="Helvetica-Light,Helvetica" font-size="23.0" fill="#FEFFFF" transform="matrix(1.00, 0.00, -0.00, -1.00, 138.1, 6.3)">u</text><text xml:space="preserve" font-family="Helvetica-Light,Helvetica" font-size="23.0" fill="#FEFFFF" transform="matrix(1.00, 0.00, -0.00, -1.00, 150.8, 6.3)">t</text><text xml:space="preserve" font-family="Helvetica-Light,Helvetica" font-size="23.0" fill="#FEFFFF" transform="matrix(1.00, 0.00, -0.00, -1.00, 157.2, 6.3)">u</text><text xml:space="preserve" font-family="Helvetica-Light,Helvetica" font-size="23.0" fill="#FEFFFF" transform="matrix(1.00, 0.00, -0.00, -1.00, 170.0, 6.3)">b</text><text xml:space="preserve" font-family="Helvetica-Light,Helvetica" font-size="23.0" fill="#FEFFFF" transform="matrix(1.00, 0.00, -0.00, -1.00, 184.1, 6.3)">e</text><text xml:space="preserve" font-family="Helvetica-Light,Helvetica" font-size="23.0" fill="#FEFFFF" transform="matrix(1.00, 0.00, -0.00, -1.00, 196.9, 6.3)">.</text><text xml:space="preserve" font-family="Helvetica-Light,Helvetica" font-size="23.0" fill="#FEFFFF" transform="matrix(1.00, 0.00, -0.00, -1.00, 203.3, 6.3)">c</text><text xml:space="preserve" font-family="Helvetica-Light,Helvetica" font-size="23.0" fill="#FEFFFF" transform="matrix(1.00, 0.00, -0.00, -1.00, 216.0, 6.3)">o</text><text xml:space="preserve" font-family="Helvetica-Light,Helvetica" font-size="23.0" fill="#FEFFFF" transform="matrix(1.00, 0.00, -0.00, -1.00, 228.8, 6.3)">m</text><text xml:space="preserve" font-family="Helvetica-Light,Helvetica" font-size="23.0" fill="#FEFFFF" transform="matrix(1.00, 0.00, -0.00, -1.00, 248.0, 6.3)">/</text><text xml:space="preserve" font-family="Helvetica-Light,Helvetica" font-size="23.0" fill="#FEFFFF" transform="matrix(1.00, 0.00, -0.00, -1.00, 254.4, 6.3)">w</text><text xml:space="preserve" font-family="Helvetica-Light,Helvetica" font-size="23.0" fill="#FEFFFF" transform="matrix(1.00, 0.00, -0.00, -1.00, 271.0, 6.3)">a</text><text xml:space="preserve" font-family="Helvetica-Light,Helvetica" font-size="23.0" fill="#FEFFFF" transform="matrix(1.00, 0.00, -0.00, -1.00, 283.8, 6.3)">t</text><text xml:space="preserve" font-family="Helvetica-Light,Helvetica" font-size="23.0" fill="#FEFFFF" transform="matrix(1.00, 0.00, -0.00, -1.00, 290.2, 6.3)">c</text><text xml:space="preserve" font-family="Helvetica-Light,Helvetica" font-size="23.0" fill="#FEFFFF" transform="matrix(1.00, 0.00, -0.00, -1.00, 303.0, 6.3)">h</text><text xml:space="preserve" font-family="Helvetica-Light,Helvetica" font-size="23.0" fill="#FEFFFF" transform="matrix(1.00, 0.00, -0.00, -1.00, 315.8, 6.3)">?</text><text xml:space="preserve" font-family="Helvetica-Light,Helvetica" font-size="23.0" fill="#FEFFFF" transform="matrix(1.00, 0.00, -0.00, -1.00, 327.3, 6.3)">v</text><text xml:space="preserve" font-family="Helvetica-Light,Helvetica" font-size="23.0" fill="#FEFFFF" transform="matrix(1.00, 0.00, -0.00, -1.00, 338.8, 6.3)">=</text><text xml:space="preserve" font-family="Helvetica-Light,Helvetica" font-size="23.0" fill="#FEFFFF" transform="matrix(1.00, 0.00, -0.00, -1.00, 353.9, 6.3)">Y</text><text xml:space="preserve" font-family="Helvetica-Light,Helvetica" font-size="23.0" fill="#FEFFFF" transform="matrix(1.00, 0.00, -0.00, -1.00, 368.0, 6.3)">P</text><text xml:space="preserve" font-family="Helvetica-Light,Helvetica" font-size="23.0" fill="#FEFFFF" transform="matrix(1.00, 0.00, -0.00, -1.00, 382.0, 6.3)">s</text><text xml:space="preserve" font-family="Helvetica-Light,Helvetica" font-size="23.0" fill="#FEFFFF" transform="matrix(1.00, 0.00, -0.00, -1.00, 393.5, 6.3)">g</text><text xml:space="preserve" font-family="Helvetica-Light,Helvetica" font-size="23.0" fill="#FEFFFF" transform="matrix(1.00, 0.00, -0.00, -1.00, 407.6, 6.3)">E</text><text xml:space="preserve" font-family="Helvetica-Light,Helvetica" font-size="23.0" fill="#FEFFFF" transform="matrix(1.00, 0.00, -0.00, -1.00, 421.6, 6.3)">d</text><text xml:space="preserve" font-family="Helvetica-Light,Helvetica" font-size="23.0" fill="#FEFFFF" transform="matrix(1.00, 0.00, -0.00, -1.00, 435.7, 6.3)">m</text><text xml:space="preserve" font-family="Helvetica-Light,Helvetica" font-size="23.0" fill="#FEFFFF" transform="matrix(1.00, 0.00, -0.00, -1.00, 454.9, 6.3)">l</text><text xml:space="preserve" font-family="Helvetica-Light,Helvetica" font-size="23.0" fill="#FEFFFF" transform="matrix(1.00, 0.00, -0.00, -1.00, 460.0, 6.3)">U</text><text xml:space="preserve" font-family="Helvetica-Light,Helvetica" font-size="23.0" fill="#FEFFFF" transform="matrix(1.00, 0.00, -0.00, -1.00, 476.6, 6.3)">f</text><text xml:space="preserve" font-family="Helvetica-Light,Helvetica" font-size="23.0" fill="#FEFFFF" transform="matrix(1.00, 0.00, -0.00, -1.00, 483.0, 6.3)">0</text></g></svg>