<?xml version="1.0" encoding="UTF-8" standalone="no"?><svg xmlns="http://www.w3.org/2000/svg" xmlns:xlink="http://www.w3.org/1999/xlink" clip-rule="evenodd" stroke-miterlimit="10" viewBox="0 0 1024 768"><desc>SVG generated by Keynote</desc><defs></defs><g transform="matrix(1.00, 0.00, -0.00, -1.00, 0.0, 768.0)"><path d="M 0.0 768.0 L 1024.0 768.0 L 1024.0 0.0 L 0.0 0.0 Z M 0.0 768.0 " fill="#000000"></path><text xml:space="preserve" font-family="Helvetica-Light,Helvetica" font-size="23.0" fill="#FEFFFF" transform="matrix(1.00, 0.00, -0.00, -1.00, 500.0, 23.3)">h</text><text xml:space="preserve" font-family="Helvetica-Light,Helvetica" font-size="23.0" fill="#FEFFFF" transform="matrix(1.00, 0.00, -0.00, -1.00, 512.8, 23.3)">t</text><text xml:space="preserve" font-family="Helvetica-Light,Helvetica" font-size="23.0" fill="#FEFFFF" transform="matrix(1.00, 0.00, -0.00, -1.00, 519.2, 23.3)">t</text><text xml:space="preserve" font-family="Helvetica-Light,Helvetica" font-size="23.0" fill="#FEFFFF" transform="matrix(1.00, 0.00, -0.00, -1.00, 525.6, 23.3)">p</text><text xml:space="preserve" font-family="Helvetica-Light,Helvetica" font-size="23.0" fill="#FEFFFF" transform="matrix(1.00, 0.00, -0.00, -1.00, 539.6, 23.3)">:</text><text xml:space="preserve" font-family="Helvetica-Light,Helvetica" font-size="23.0" fill="#FEFFFF" transform="matrix(1.00, 0.00, -0.00, -1.00, 546.0, 23.3)">/</text><text xml:space="preserve" font-family="Helvetica-Light,Helvetica" font-size="23.0" fill="#FEFFFF" transform="matrix(1.00, 0.00, -0.00, -1.00, 552.4, 23.3)">/</text><text xml:space="preserve" font-family="Helvetica-Light,Helvetica" font-size="23.0" fill="#FEFFFF" transform="matrix(1.00, 0.00, -0.00, -1.00, 558.8, 23.3)">w</text><text xml:space="preserve" font-family="Helvetica-Light,Helvetica" font-size="23.0" fill="#FEFFFF" transform="matrix(1.00, 0.00, -0.00, -1.00, 575.4, 23.3)">w</text><text xml:space="preserve" font-family="Helvetica-Light,Helvetica" font-size="23.0" fill="#FEFFFF" transform="matrix(1.00, 0.00, -0.00, -1.00, 592.0, 23.3)">w</text><text xml:space="preserve" font-family="Helvetica-Light,Helvetica" font-size="23.0" fill="#FEFFFF" transform="matrix(1.00, 0.00, -0.00, -1.00, 607.4, 23.3)">.</text><text xml:space="preserve" font-family="Helvetica-Light,Helvetica" font-size="23.0" fill="#FEFFFF" transform="matrix(1.00, 0.00, -0.00, -1.00, 613.8, 23.3)">y</text><text xml:space="preserve" font-family="Helvetica-Light,Helvetica" font-size="23.0" fill="#FEFFFF" transform="matrix(1.00, 0.00, -0.00, -1.00, 625.3, 23.3)">o</text><text xml:space="preserve" font-family="Helvetica-Light,Helvetica" font-size="23.0" fill="#FEFFFF" transform="matrix(1.00, 0.00, -0.00, -1.00, 638.1, 23.3)">u</text><text xml:space="preserve" font-family="Helvetica-Light,Helvetica" font-size="23.0" fill="#FEFFFF" transform="matrix(1.00, 0.00, -0.00, -1.00, 650.8, 23.3)">t</text><text xml:space="preserve" font-family="Helvetica-Light,Helvetica" font-size="23.0" fill="#FEFFFF" transform="matrix(1.00, 0.00, -0.00, -1.00, 657.2, 23.3)">u</text><text xml:space="preserve" font-family="Helvetica-Light,Helvetica" font-size="23.0" fill="#FEFFFF" transform="matrix(1.00, 0.00, -0.00, -1.00, 670.0, 23.3)">b</text><text xml:space="preserve" font-family="Helvetica-Light,Helvetica" font-size="23.0" fill="#FEFFFF" transform="matrix(1.00, 0.00, -0.00, -1.00, 684.1, 23.3)">e</text><text xml:space="preserve" font-family="Helvetica-Light,Helvetica" font-size="23.0" fill="#FEFFFF" transform="matrix(1.00, 0.00, -0.00, -1.00, 696.9, 23.3)">.</text><text xml:space="preserve" font-family="Helvetica-Light,Helvetica" font-size="23.0" fill="#FEFFFF" transform="matrix(1.00, 0.00, -0.00, -1.00, 703.3, 23.3)">c</text><text xml:space="preserve" font-family="Helvetica-Light,Helvetica" font-size="23.0" fill="#FEFFFF" transform="matrix(1.00, 0.00, -0.00, -1.00, 716.0, 23.3)">o</text><text xml:space="preserve" font-family="Helvetica-Light,Helvetica" font-size="23.0" fill="#FEFFFF" transform="matrix(1.00, 0.00, -0.00, -1.00, 728.8, 23.3)">m</text><text xml:space="preserve" font-family="Helvetica-Light,Helvetica" font-size="23.0" fill="#FEFFFF" transform="matrix(1.00, 0.00, -0.00, -1.00, 748.0, 23.3)">/</text><text xml:space="preserve" font-family="Helvetica-Light,Helvetica" font-size="23.0" fill="#FEFFFF" transform="matrix(1.00, 0.00, -0.00, -1.00, 754.4, 23.3)">w</text><text xml:space="preserve" font-family="Helvetica-Light,Helvetica" font-size="23.0" fill="#FEFFFF" transform="matrix(1.00, 0.00, -0.00, -1.00, 771.0, 23.3)">a</text><text xml:space="preserve" font-family="Helvetica-Light,Helvetica" font-size="23.0" fill="#FEFFFF" transform="matrix(1.00, 0.00, -0.00, -1.00, 783.8, 23.3)">t</text><text xml:space="preserve" font-family="Helvetica-Light,Helvetica" font-size="23.0" fill="#FEFFFF" transform="matrix(1.00, 0.00, -0.00, -1.00, 790.2, 23.3)">c</text><text xml:space="preserve" font-family="Helvetica-Light,Helvetica" font-size="23.0" fill="#FEFFFF" transform="matrix(1.00, 0.00, -0.00, -1.00, 803.0, 23.3)">h</text><text xml:space="preserve" font-family="Helvetica-Light,Helvetica" font-size="23.0" fill="#FEFFFF" transform="matrix(1.00, 0.00, -0.00, -1.00, 815.8, 23.3)">?</text><text xml:space="preserve" font-family="Helvetica-Light,Helvetica" font-size="23.0" fill="#FEFFFF" transform="matrix(1.00, 0.00, -0.00, -1.00, 827.3, 23.3)">v</text><text xml:space="preserve" font-family="Helvetica-Light,Helvetica" font-size="23.0" fill="#FEFFFF" transform="matrix(1.00, 0.00, -0.00, -1.00, 838.8, 23.3)">=</text><text xml:space="preserve" font-family="Helvetica-Light,Helvetica" font-size="23.0" fill="#FEFFFF" transform="matrix(1.00, 0.00, -0.00, -1.00, 853.9, 23.3)">Y</text><text xml:space="preserve" font-family="Helvetica-Light,Helvetica" font-size="23.0" fill="#FEFFFF" transform="matrix(1.00, 0.00, -0.00, -1.00, 868.0, 23.3)">P</text><text xml:space="preserve" font-family="Helvetica-Light,Helvetica" font-size="23.0" fill="#FEFFFF" transform="matrix(1.00, 0.00, -0.00, -1.00, 882.0, 23.3)">s</text><text xml:space="preserve" font-family="Helvetica-Light,Helvetica" font-size="23.0" fill="#FEFFFF" transform="matrix(1.00, 0.00, -0.00, -1.00, 893.5, 23.3)">g</text><text xml:space="preserve" font-family="Helvetica-Light,Helvetica" font-size="23.0" fill="#FEFFFF" transform="matrix(1.00, 0.00, -0.00, -1.00, 907.6, 23.3)">E</text><text xml:space="preserve" font-family="Helvetica-Light,Helvetica" font-size="23.0" fill="#FEFFFF" transform="matrix(1.00, 0.00, -0.00, -1.00, 921.6, 23.3)">d</text><text xml:space="preserve" font-family="Helvetica-Light,Helvetica" font-size="23.0" fill="#FEFFFF" transform="matrix(1.00, 0.00, -0.00, -1.00, 935.7, 23.3)">m</text><text xml:space="preserve" font-family="Helvetica-Light,Helvetica" font-size="23.0" fill="#FEFFFF" transform="matrix(1.00, 0.00, -0.00, -1.00, 954.9, 23.3)">l</text><text xml:space="preserve" font-family="Helvetica-Light,Helvetica" font-size="23.0" fill="#FEFFFF" transform="matrix(1.00, 0.00, -0.00, -1.00, 960.0, 23.3)">U</text><text xml:space="preserve" font-family="Helvetica-Light,Helvetica" font-size="23.0" fill="#FEFFFF" transform="matrix(1.00, 0.00, -0.00, -1.00, 976.6, 23.3)">f</text><text xml:space="preserve" font-family="Helvetica-Light,Helvetica" font-size="23.0" fill="#FEFFFF" transform="matrix(1.00, 0.00, -0.00, -1.00, 983.0, 23.3)">0</text><image xlink:href="../../080403C6-424D-4F5E-B01A-9FED4274C4BB/assets/9942F2135B66D6BE928F79CB9B8D998B.png" width="640.00" height="360.00" transform="matrix(1.00, 0.00, -0.00, -1.00, 359.9, 564.0)"></image><image xlink:href="../../9AB62C1F-4B4B-454A-A6DC-F9C82897118D/assets/7E14A1281CEEB9D30D37ED9B3DBBB31C.png" width="442.00" height="423.00" transform="matrix(0.71, 0.00, -0.00, -0.71, 22.7, 534.9)"></image><g><clipPath id="clip0x6080010b70a0"><path d="M 245.2 101.2 L 719.6 773.8 L 802.9 715.0 L 328.6 42.4 Z M 245.2 101.2 "></path></clipPath><g clip-path="url(#clip0x6080010b70a0)"><path d="M 436.9 241.4 C 432.0 239.3 428.2 227.0 423.9 225.6 M 436.9 241.4 C 436.9 241.4 436.9 241.4 436.9 241.4 C 441.9 243.6 437.9 222.6 439.4 219.2 C 441.0 215.8 436.0 214.9 434.5 212.8 C 430.9 207.8 442.7 210.0 433.2 201.2 C 426.0 194.5 424.0 184.8 419.2 176.5 C 415.2 169.3 411.5 164.8 404.6 171.3 C 405.4 185.3 397.8 188.5 397.6 188.4 C 391.3 181.2 378.0 164.9 377.0 156.9 C 376.8 154.6 399.2 145.8 398.1 144.4 C 396.4 138.5 389.0 140.7 385.6 136.0 C 381.7 130.6 379.3 128.4 379.3 121.6 C 379.4 120.1 373.1 110.3 372.7 116.2 C 370.6 112.2 368.0 105.4 363.8 102.8 C 360.1 100.5 353.3 104.0 355.5 109.0 C 354.0 108.5 365.8 128.5 367.2 127.8 C 361.4 131.1 358.7 110.9 347.9 112.7 C 333.1 115.1 343.7 120.8 344.2 128.0 C 344.7 135.3 329.9 125.7 326.3 120.7 C 319.1 110.7 326.8 142.9 316.6 134.9 C 306.3 126.9 311.1 139.4 311.7 151.4 C 312.3 160.0 306.6 160.9 300.9 157.8 C 306.3 163.9 307.5 168.9 304.7 178.0 C 308.1 185.6 310.5 179.6 313.0 176.9 C 323.9 165.2 325.5 198.6 326.4 199.6 C 329.2 202.7 334.8 202.9 336.2 207.6 C 337.3 211.2 331.1 214.6 332.9 217.1 C 335.4 220.5 337.9 224.0 340.3 227.5 C 342.2 230.1 340.6 222.2 347.1 223.5 C 353.7 224.6 357.0 214.5 357.3 212.8 C 362.0 210.1 355.7 240.3 362.8 249.6 C 369.9 258.8 369.9 249.7 374.7 255.8 C 379.0 261.2 372.0 263.1 374.7 267.3 C 377.6 271.5 381.9 270.6 383.0 275.1 C 385.4 285.3 394.2 279.1 397.1 268.6 C 398.5 263.8 397.8 257.1 405.8 256.1 C 413.9 255.0 417.0 266.8 417.9 259.3 C 418.8 251.7 399.1 236.9 401.0 231.6 C 402.9 226.3 416.6 248.2 419.6 241.6 C 422.6 235.2 415.6 237.9 413.5 229.1 C 416.4 227.7 416.4 232.8 420.1 231.1 C 423.7 229.3 419.5 224.3 423.9 225.6 C 428.2 227.0 432.0 239.3 436.9 241.4 C 436.9 241.4 436.9 241.4 436.9 241.4 Z M 382.8 141.1 C 382.8 141.1 382.8 141.1 382.8 141.1 C 383.3 139.2 386.3 140.2 387.1 143.0 C 388.0 145.9 382.3 142.9 382.8 141.1 C 382.8 141.1 382.8 141.1 382.8 141.1 Z M 357.9 252.9 C 357.9 252.9 357.9 252.9 357.9 252.9 C 358.4 251.0 361.4 252.0 362.2 254.9 C 363.1 257.7 357.5 254.8 357.9 252.9 C 357.9 252.9 357.9 252.9 357.9 252.9 Z M 315.7 181.5 C 315.7 181.5 315.7 181.5 315.7 181.5 C 316.2 179.7 319.2 180.7 320.0 183.5 C 320.9 186.3 315.3 183.4 315.7 181.5 C 315.7 181.5 315.7 181.5 315.7 181.5 Z M 396.5 167.5 C 396.5 167.5 396.5 167.5 396.5 167.5 C 399.1 170.5 399.0 176.3 391.9 171.3 C 389.2 169.1 387.5 166.6 386.9 164.0 C 385.2 161.4 383.1 157.5 384.0 154.9 C 389.5 159.9 397.9 161.8 396.5 167.5 C 396.5 167.5 396.5 167.5 396.5 167.5 Z M 367.9 190.7 C 367.9 190.7 367.9 190.7 367.9 190.7 C 370.5 190.5 375.5 196.0 369.8 199.0 C 365.7 196.2 365.3 190.9 367.9 190.7 C 367.9 190.7 367.9 190.7 367.9 190.7 Z M 338.3 103.6 C 338.3 103.6 338.3 103.6 338.3 103.6 C 340.9 103.4 345.9 108.8 340.1 111.9 C 336.1 109.1 335.7 103.7 338.3 103.6 C 338.3 103.6 338.3 103.6 338.3 103.6 Z M 394.4 193.8 C 394.4 193.8 394.4 193.8 394.4 193.8 C 396.0 197.9 392.3 202.7 388.5 198.7 C 389.4 195.1 383.1 184.2 394.4 193.8 C 394.4 193.8 394.4 193.8 394.4 193.8 Z M 427.8 204.3 C 427.8 204.3 427.8 204.3 427.8 204.3 C 428.2 207.4 429.6 208.5 425.1 210.7 C 423.2 207.7 423.4 208.7 420.7 205.6 C 418.4 199.8 407.3 204.1 411.1 197.8 C 416.7 188.5 429.6 200.7 427.8 204.3 C 427.8 204.3 427.8 204.3 427.8 204.3 Z M 392.2 205.8 C 392.2 205.8 392.2 205.8 392.2 205.8 C 392.7 207.3 392.5 209.3 391.9 210.2 C 389.1 210.7 390.4 205.3 392.2 205.8 C 392.2 205.8 392.2 205.8 392.2 205.8 Z M 306.9 140.5 C 306.9 140.5 306.9 140.5 306.9 140.5 C 307.4 142.0 307.1 144.1 306.6 144.9 C 303.8 145.4 305.1 140.1 306.9 140.5 C 306.9 140.5 306.9 140.5 306.9 140.5 Z M 328.3 205.1 C 328.3 205.1 328.3 205.1 328.3 205.1 C 328.9 206.5 328.5 208.6 328.1 209.4 C 325.3 209.9 326.6 204.6 328.3 205.1 C 328.3 205.1 328.3 205.1 328.3 205.1 Z M 367.2 147.9 C 367.2 147.9 367.2 147.9 367.2 147.9 C 363.3 146.9 363.5 136.7 365.6 136.5 C 371.5 136.1 371.0 148.8 367.2 147.9 C 367.2 147.9 367.2 147.9 367.2 147.9 Z M 448.8 231.5 C 448.8 231.5 448.8 231.5 448.8 231.5 C 445.0 230.5 445.1 220.3 447.2 220.2 C 453.1 219.7 452.6 232.4 448.8 231.5 C 448.8 231.5 448.8 231.5 448.8 231.5 Z M 743.3 659.4 C 743.3 659.4 743.3 659.4 743.3 659.4 C 744.8 661.2 746.5 662.5 748.6 663.6 C 748.5 662.4 748.4 661.4 748.2 660.5 C 747.3 659.2 746.2 657.9 745.4 656.7 C 741.5 651.2 753.8 654.1 743.8 644.3 C 736.8 637.5 739.0 634.9 734.8 626.4 C 733.2 624.9 728.0 635.4 726.8 636.8 C 722.2 641.5 711.5 640.7 711.1 638.9 C 708.4 636.5 702.1 630.4 701.1 622.9 C 696.0 616.7 709.8 612.2 709.7 612.0 C 703.0 604.4 706.6 606.1 703.6 598.8 C 699.9 594.4 694.1 600.6 690.7 595.8 C 688.3 595.1 700.4 584.0 692.9 573.1 C 688.7 567.3 686.2 564.9 686.1 557.6 C 686.2 556.0 679.4 545.3 679.1 551.6 C 677.8 549.2 675.9 545.2 673.0 545.3 C 661.9 546.5 674.1 556.9 672.4 559.3 C 671.9 560.1 665.1 553.8 662.5 557.1 C 659.3 561.0 642.2 531.7 644.6 544.6 C 647.2 558.8 631.9 564.7 628.6 563.5 C 627.6 561.9 634.0 556.5 627.8 555.7 C 621.5 554.9 623.5 567.0 620.7 569.0 C 604.4 580.5 615.1 573.5 615.9 586.3 C 616.4 592.7 607.5 588.8 603.7 588.4 C 603.3 589.8 609.0 597.2 608.6 598.5 C 610.8 602.9 612.0 600.7 610.1 607.2 C 609.4 610.8 616.7 615.4 617.4 616.1 C 619.5 617.1 615.8 612.0 617.6 610.1 C 626.2 600.8 621.1 618.9 626.1 625.4 C 631.0 631.9 633.2 633.9 633.8 635.3 C 634.4 636.4 641.2 630.9 641.9 633.1 C 644.7 634.6 642.8 639.0 642.1 642.4 C 641.5 646.0 650.4 648.1 652.2 651.4 C 654.0 654.6 650.1 656.6 652.8 665.1 C 655.3 673.6 665.7 666.0 667.6 663.2 C 674.7 653.0 662.2 675.6 666.2 680.0 C 670.1 684.5 673.9 681.5 676.2 684.8 C 676.6 686.9 676.4 689.2 676.2 691.4 C 679.3 691.5 679.9 694.9 683.5 699.7 C 684.1 700.4 684.4 701.0 684.7 701.5 C 685.9 701.4 684.7 690.3 686.6 690.3 C 692.1 690.1 690.0 698.3 688.8 701.4 C 694.1 701.9 698.3 704.8 699.8 710.4 C 702.5 721.4 711.7 715.2 714.5 704.1 C 715.8 699.1 715.7 689.5 723.3 691.2 C 731.0 693.0 732.8 705.2 736.1 695.2 C 735.6 694.6 740.2 693.5 731.7 687.0 C 723.2 680.5 724.0 673.0 724.1 672.9 C 721.2 667.8 717.3 669.6 717.9 665.1 C 718.6 660.6 723.5 667.1 726.5 672.2 C 728.5 671.7 729.4 667.7 732.6 671.8 C 735.8 676.0 732.0 678.5 735.9 678.9 C 739.7 679.3 737.0 677.6 737.5 676.5 C 740.4 679.4 742.7 682.8 744.7 686.2 C 748.2 693.4 748.9 677.2 747.5 674.2 C 745.0 668.4 735.4 667.4 743.3 659.4 C 743.3 659.4 743.3 659.4 743.3 659.4 Z M 720.1 682.5 C 720.1 682.5 720.1 682.5 720.1 682.5 C 717.9 681.4 715.1 674.2 718.8 675.6 C 722.4 677.1 722.3 683.4 720.1 682.5 C 720.1 682.5 720.1 682.5 720.1 682.5 Z M 647.5 666.2 C 647.5 666.2 647.5 666.2 647.5 666.2 C 645.3 665.2 642.5 658.0 646.1 659.4 C 649.8 660.9 649.7 667.3 647.5 666.2 C 647.5 666.2 647.5 666.2 647.5 666.2 Z M 720.6 617.2 C 720.6 617.2 720.6 617.2 720.6 617.2 C 715.5 617.8 717.6 608.1 720.9 609.1 C 721.9 611.9 721.4 615.7 720.6 617.2 C 720.6 617.2 720.6 617.2 720.6 617.2 Z M 677.1 676.4 C 677.1 676.4 677.1 676.4 677.1 676.4 C 676.6 675.6 676.0 674.8 675.5 674.0 C 677.9 674.0 682.4 677.0 683.8 678.4 C 680.7 681.3 678.4 678.4 677.1 676.4 C 677.1 676.4 677.1 676.4 677.1 676.4 Z M 705.6 596.2 C 705.6 596.2 705.6 596.2 705.6 596.2 C 701.2 595.4 700.4 591.7 698.7 588.7 C 709.0 580.4 710.2 596.8 705.6 596.2 C 705.6 596.2 705.6 596.2 705.6 596.2 Z M 661.5 571.3 C 661.5 571.3 661.5 571.3 661.5 571.3 C 661.4 578.0 648.1 570.8 649.8 566.6 C 651.6 562.4 655.7 565.6 658.0 568.3 C 659.0 568.3 661.7 564.6 661.5 571.3 C 661.5 571.3 661.5 571.3 661.5 571.3 Z M 638.9 626.2 C 638.9 626.2 638.9 626.2 638.9 626.2 C 639.8 626.8 642.0 626.4 641.6 627.8 C 641.2 629.1 638.4 628.7 638.9 626.2 C 638.9 626.2 638.9 626.2 638.9 626.2 Z M 693.3 709.1 C 693.3 709.1 693.3 709.1 693.3 709.1 C 694.2 709.5 696.3 709.2 696.0 710.6 C 695.5 711.9 692.8 711.4 693.3 709.1 C 693.3 709.1 693.3 709.1 693.3 709.1 Z M 624.3 601.8 C 624.3 601.8 624.3 601.8 624.3 601.8 C 626.5 598.5 627.3 603.0 628.9 603.8 C 627.0 606.1 622.1 605.2 624.3 601.8 C 624.3 601.8 624.3 601.8 624.3 601.8 Z M 710.5 619.1 C 710.5 619.1 710.5 619.1 710.5 619.1 C 717.7 619.5 725.4 629.2 716.5 635.4 C 714.0 632.7 710.7 630.8 709.3 627.5 C 708.3 625.4 710.1 621.6 710.5 619.1 C 710.5 619.1 710.5 619.1 710.5 619.1 Z M 733.6 648.4 C 733.6 648.4 733.6 648.4 733.6 648.4 C 736.3 649.2 739.3 653.7 733.6 654.0 C 731.1 653.8 729.1 653.0 727.4 651.4 C 725.4 650.3 720.5 648.4 721.5 646.2 C 722.4 644.0 731.3 643.4 733.6 648.4 C 733.6 648.4 733.6 648.4 733.6 648.4 Z M 696.3 602.4 C 696.3 602.4 696.3 602.4 696.3 602.4 C 699.6 601.3 705.0 608.8 703.6 609.9 C 702.2 610.9 693.1 603.5 696.3 602.4 C 696.3 602.4 696.3 602.4 696.3 602.4 Z M 725.4 626.2 C 725.4 626.2 725.4 626.2 725.4 626.2 C 726.0 627.5 726.2 628.7 725.1 628.5 C 724.0 628.2 723.4 626.9 723.4 626.1 C 723.6 625.3 724.7 624.9 725.4 626.2 C 725.4 626.2 725.4 626.2 725.4 626.2 Z M 695.6 568.5 C 695.6 568.5 695.6 568.5 695.6 568.5 C 696.2 569.8 696.4 571.0 695.4 570.7 C 694.3 570.4 693.6 569.2 693.7 568.4 C 693.8 567.6 695.0 567.3 695.6 568.5 C 695.6 568.5 695.6 568.5 695.6 568.5 Z M 751.4 657.4 C 751.4 657.4 751.4 657.4 751.4 657.4 C 751.9 658.7 752.2 659.9 751.1 659.6 C 750.0 659.3 749.4 658.0 749.4 657.2 C 749.5 656.5 750.8 656.1 751.4 657.4 C 751.4 657.4 751.4 657.4 751.4 657.4 Z M 689.2 580.2 C 689.2 580.2 689.2 580.2 689.2 580.2 C 688.9 583.3 686.0 585.2 682.7 581.2 C 689.9 610.1 664.9 579.4 669.8 571.6 C 676.7 560.2 691.5 575.7 689.2 580.2 C 689.2 580.2 689.2 580.2 689.2 580.2 Z M 455.8 269.1 C 458.3 261.5 448.2 257.2 447.8 251.0 C 447.2 244.6 452.1 236.3 441.5 240.9 C 433.8 244.3 425.9 233.2 420.4 238.6 C 416.3 242.6 414.0 246.8 408.7 250.3 C 399.4 256.4 393.9 253.2 391.5 263.3 C 389.5 271.7 400.6 263.1 391.6 274.9 C 385.1 283.4 388.7 289.7 398.8 286.3 C 408.2 283.2 415.3 283.8 406.6 294.5 C 402.2 299.8 400.7 301.1 400.8 305.8 C 400.8 307.4 411.7 311.6 411.5 311.7 C 413.2 309.7 415.7 300.4 419.4 304.3 C 421.8 306.6 419.3 314.3 413.6 316.7 C 403.9 320.8 422.5 332.7 423.6 329.8 C 423.3 330.7 416.7 340.8 424.5 337.7 C 424.6 337.6 430.9 343.9 432.0 344.9 C 444.7 358.0 441.4 323.9 453.0 339.7 C 460.6 350.1 443.5 351.8 441.5 354.1 C 437.4 358.9 443.8 367.1 445.5 370.5 C 447.0 373.4 454.4 371.8 458.2 371.6 C 463.7 371.3 466.2 378.2 463.9 382.8 C 462.8 384.9 459.2 389.9 459.6 391.8 C 459.6 391.8 462.8 397.4 463.6 395.4 C 464.0 394.3 464.4 387.6 468.0 387.9 C 470.4 388.2 465.6 398.5 466.1 400.6 C 467.1 404.8 481.1 394.6 478.8 405.2 C 477.2 412.6 475.7 409.7 484.4 407.9 C 488.9 407.0 485.3 419.0 482.9 421.2 C 495.4 409.5 487.5 424.7 490.0 423.5 C 488.2 424.3 485.2 421.6 483.6 423.2 C 482.9 423.9 498.1 450.3 503.4 448.0 C 508.7 445.7 510.3 439.0 513.5 446.8 C 514.6 449.2 513.9 455.0 512.2 455.6 C 507.5 453.5 509.9 453.5 503.8 451.8 C 503.6 451.8 507.9 460.9 508.7 462.2 C 511.6 466.6 515.8 466.0 521.8 467.5 C 525.9 468.5 520.8 475.3 522.8 478.5 C 525.1 482.3 527.0 485.7 530.8 488.5 C 534.4 491.1 534.7 492.4 539.6 489.2 C 544.3 486.0 549.4 492.4 552.8 492.4 C 556.5 492.4 556.6 492.9 555.8 497.1 C 554.6 504.4 551.8 501.8 549.6 504.0 C 542.2 511.7 550.8 522.0 554.8 524.5 C 559.3 527.4 558.9 517.9 560.4 518.1 C 563.8 518.7 563.4 523.2 564.9 525.3 C 567.1 528.4 561.8 527.6 561.1 529.6 C 557.2 540.2 574.6 530.9 575.8 535.4 C 577.6 541.7 567.6 551.0 577.1 553.1 C 587.0 555.3 579.8 567.9 588.7 571.0 C 596.1 573.5 589.0 590.4 602.4 585.3 C 608.5 582.9 618.3 583.7 623.9 579.9 C 625.7 578.7 639.6 563.8 635.9 564.4 C 638.4 564.0 640.5 567.9 643.3 566.5 C 645.4 565.4 644.3 558.0 645.3 556.2 C 645.8 555.3 654.5 559.0 656.5 558.2 C 658.9 557.1 655.0 542.8 662.6 537.3 C 665.7 535.0 664.9 528.7 661.2 531.4 C 659.3 532.7 650.9 541.7 652.2 542.8 C 651.6 542.3 649.8 534.5 649.9 534.5 C 649.1 536.3 647.7 537.9 645.7 539.4 C 644.6 539.7 635.5 526.6 636.2 525.4 C 638.4 521.9 648.3 517.5 649.0 514.4 C 649.4 512.4 642.1 513.4 641.0 511.6 C 639.2 508.6 646.1 508.3 645.4 504.7 C 645.2 503.7 631.3 491.6 629.7 492.3 C 628.9 492.6 623.6 502.4 621.0 504.4 C 615.8 508.6 615.1 502.7 614.2 500.8 C 612.6 497.9 610.3 484.2 617.4 479.1 C 619.7 477.6 625.5 484.2 627.4 484.4 C 624.9 484.2 630.9 465.9 620.2 469.3 C 618.7 469.8 620.7 473.9 620.2 474.6 C 619.5 475.7 609.4 478.9 608.8 476.5 C 608.4 475.1 612.4 468.2 609.9 468.2 C 611.0 468.2 599.7 469.5 602.5 466.8 C 600.8 468.4 597.8 476.0 595.3 476.6 C 595.1 476.6 590.9 468.3 590.8 467.4 C 589.3 460.5 587.8 464.2 582.5 463.8 C 577.2 463.3 569.8 458.8 579.5 453.6 C 590.8 447.7 589.4 439.4 581.5 445.0 C 573.3 450.8 574.5 448.5 573.2 442.6 C 572.0 436.4 565.1 433.8 568.6 425.7 C 573.0 415.5 579.8 422.0 581.8 418.4 C 584.0 414.3 580.6 410.6 578.4 408.9 C 574.7 406.2 571.5 413.0 569.7 412.2 C 566.4 410.6 572.5 402.0 569.2 400.2 C 569.0 400.1 561.0 399.4 561.6 400.4 C 554.6 388.4 558.6 403.1 552.3 409.7 C 550.0 412.0 550.2 401.6 542.3 409.6 C 534.1 417.9 527.7 407.8 531.7 404.2 C 533.1 404.3 534.5 404.3 535.9 404.2 C 540.1 399.8 531.5 390.8 535.4 387.5 C 537.2 386.1 553.1 395.4 556.4 389.6 C 558.4 386.2 551.6 386.7 549.6 387.0 C 546.1 387.4 552.0 382.7 552.4 381.6 C 552.1 382.4 547.5 376.8 543.6 378.3 C 542.5 378.8 543.1 385.4 540.8 384.4 C 532.7 380.9 542.5 379.1 545.0 372.9 C 546.6 369.0 542.5 356.5 542.1 357.2 C 541.4 358.3 542.6 362.2 540.4 363.0 C 536.8 364.2 536.6 359.2 533.5 360.2 C 532.4 360.5 533.2 364.6 532.4 364.7 C 528.6 365.4 524.7 357.5 521.8 359.3 C 519.4 360.8 526.1 366.7 522.7 369.1 C 520.1 370.9 513.7 370.0 517.5 366.5 C 522.5 361.9 511.3 359.7 512.6 355.5 C 514.1 350.9 522.9 354.5 520.3 348.1 C 517.5 340.7 515.9 348.5 512.2 349.1 C 501.8 351.0 521.7 325.9 514.0 328.2 C 511.3 329.0 505.8 342.3 503.8 334.8 C 503.0 331.4 485.3 326.0 493.3 320.2 C 495.2 318.9 501.1 325.5 502.1 324.0 C 505.0 320.1 500.9 316.0 500.1 313.6 C 498.9 309.7 504.1 308.5 505.2 304.7 C 506.6 299.8 496.7 304.2 495.5 301.6 C 494.4 299.1 482.9 310.3 481.5 311.7 C 486.1 307.2 474.6 305.5 478.4 300.2 C 486.3 288.6 481.8 290.6 481.5 283.0 C 482.2 284.2 481.9 285.4 480.6 286.9 C 479.5 287.1 476.3 283.7 476.3 283.2 C 476.6 285.1 476.1 287.3 474.5 289.6 C 474.2 290.0 448.7 282.8 459.0 272.8 C 460.4 271.5 478.6 257.0 470.7 258.0 C 468.0 258.4 455.7 269.4 455.8 269.1 M 507.2 326.0 C 508.4 326.8 508.2 328.1 506.8 329.7 C 504.5 329.5 503.5 328.4 503.6 326.2 C 505.3 324.6 506.5 324.5 507.2 326.0 M 513.2 321.1 C 514.1 322.0 513.8 323.2 512.4 324.5 C 503.8 320.6 516.8 310.7 516.2 319.9 C 516.2 320.2 512.9 319.9 513.2 321.1 M 552.7 375.5 C 551.7 376.7 545.4 373.4 549.4 371.9 C 551.3 371.2 553.9 374.0 552.7 375.5 M 545.6 396.4 C 543.7 400.4 540.3 396.6 541.5 394.7 C 543.2 391.9 546.1 395.5 545.6 396.4 M 636.4 515.0 C 629.9 521.0 610.9 518.1 620.9 509.8 C 632.6 500.0 645.5 506.7 636.4 515.0 M 586.6 429.3 C 583.5 430.9 582.5 424.3 585.8 422.4 C 591.6 419.1 590.2 427.6 586.6 429.3 M 574.6 431.2 C 571.3 432.8 570.9 428.3 572.9 426.9 C 574.8 425.4 578.3 429.4 574.6 431.2 M 619.9 491.8 C 622.6 490.8 622.1 496.9 620.2 496.6 C 618.7 496.3 617.3 492.9 619.9 491.8 C 619.9 491.8 619.9 491.8 619.9 491.8 Z M 644.4 528.7 C 644.6 527.3 647.1 526.5 646.6 528.1 C 646.4 529.2 644.2 530.1 644.4 528.7 C 644.4 528.7 644.4 528.7 644.4 528.7 Z M 591.6 459.3 C 589.4 455.2 599.4 453.9 598.7 460.5 C 598.1 466.1 594.3 464.3 591.6 459.3 C 591.6 459.3 591.6 459.3 591.6 459.3 Z M 579.2 548.9 C 579.0 550.3 575.9 549.9 576.0 548.3 C 576.3 544.9 579.3 547.5 579.2 548.9 C 579.2 548.9 579.2 548.9 579.2 548.9 Z M 483.9 326.6 C 483.3 329.6 480.6 327.8 481.3 326.2 C 482.3 324.3 484.5 323.6 483.9 326.6 C 483.9 326.6 483.9 326.6 483.9 326.6 Z M 468.1 276.3 C 467.4 279.2 464.7 275.3 465.5 273.8 C 466.4 271.8 468.6 273.3 468.1 276.3 C 468.1 276.3 468.1 276.3 468.1 276.3 Z M 404.7 271.2 C 404.1 274.2 401.3 272.4 402.0 270.8 C 403.0 268.9 405.3 268.2 404.7 271.2 C 404.7 271.2 404.7 271.2 404.7 271.2 Z M 455.7 325.9 C 455.1 328.9 452.4 327.1 453.1 325.6 C 454.1 323.6 456.3 323.0 455.7 325.9 C 455.7 325.9 455.7 325.9 455.7 325.9 Z M 485.8 313.5 C 487.8 309.7 498.3 304.4 493.3 313.7 C 488.5 322.8 483.8 317.3 485.8 313.5 C 485.8 313.5 485.8 313.5 485.8 313.5 Z M 533.4 479.7 C 533.4 479.7 538.9 479.3 538.3 480.7 C 535.6 487.5 533.4 479.7 533.4 479.7 C 533.4 479.7 533.4 479.7 533.4 479.7 Z M 539.1 403.4 C 539.1 403.4 542.2 404.2 542.1 404.8 C 541.4 409.9 539.1 403.4 539.1 403.4 C 539.1 403.4 539.1 403.4 539.1 403.4 Z M 549.2 362.4 C 549.2 362.4 552.3 363.2 552.2 363.8 C 551.5 368.9 549.2 362.4 549.2 362.4 C 549.2 362.4 549.2 362.4 549.2 362.4 Z M 473.9 273.2 C 471.9 267.9 478.4 268.9 479.3 273.3 C 480.1 277.1 475.8 278.5 473.9 273.2 C 473.9 273.2 473.9 273.2 473.9 273.2 Z M 469.6 298.2 C 472.3 290.3 477.8 292.6 474.8 299.0 C 472.3 304.6 466.9 306.1 469.6 298.2 C 469.6 298.2 469.6 298.2 469.6 298.2 Z M 452.2 284.4 C 453.2 285.2 452.8 285.9 451.0 286.7 C 448.3 287.2 446.7 282.8 448.1 280.5 C 450.7 276.5 452.2 284.4 452.2 284.4 M 431.6 313.9 C 445.6 314.9 419.0 323.7 420.5 321.0 C 422.1 318.0 428.5 313.7 431.6 313.9 C 431.6 313.9 431.6 313.9 431.6 313.9 Z M 469.1 382.4 C 472.5 382.2 471.5 386.5 468.4 386.3 C 466.4 386.2 465.7 382.5 469.1 382.4 C 469.1 382.4 469.1 382.4 469.1 382.4 Z M 517.1 338.5 C 518.9 338.5 521.0 342.9 518.1 342.7 C 516.1 342.6 513.8 338.6 517.1 338.5 C 517.1 338.5 517.1 338.5 517.1 338.5 Z M 453.8 240.3 C 455.6 240.2 457.7 244.7 454.9 244.5 C 452.8 244.3 450.5 240.4 453.8 240.3 C 453.8 240.3 453.8 240.3 453.8 240.3 Z M 512.6 406.7 C 518.2 407.4 515.5 413.1 512.0 411.8 C 508.5 410.6 507.0 406.0 512.6 406.7 C 512.6 406.7 512.6 406.7 512.6 406.7 Z M 580.1 458.0 C 583.1 458.1 581.1 461.7 579.8 460.7 C 578.4 459.6 578.7 458.0 580.1 458.0 C 580.1 458.0 580.1 458.0 580.1 458.0 Z M 596.2 465.1 C 597.9 465.3 597.3 467.9 596.0 466.9 C 594.7 465.8 595.0 464.8 596.2 465.1 C 596.2 465.1 596.2 465.1 596.2 465.1 Z M 613.7 529.3 C 617.3 530.0 616.2 535.8 613.4 533.4 C 610.3 530.8 610.9 528.8 613.7 529.3 C 613.7 529.3 613.7 529.3 613.7 529.3 Z M 612.8 470.1 C 614.4 470.4 613.7 473.0 612.5 472.0 C 611.1 470.9 611.4 470.0 612.8 470.1 C 612.8 470.1 612.8 470.1 612.8 470.1 Z M 633.0 508.9 C 637.1 509.1 634.3 514.0 632.6 512.5 C 630.8 511.0 631.1 508.8 633.0 508.9 C 633.0 508.9 633.0 508.9 633.0 508.9 Z M 645.2 492.9 C 649.2 493.1 646.5 498.0 644.8 496.6 C 642.9 495.0 643.3 492.8 645.2 492.9 C 645.2 492.9 645.2 492.9 645.2 492.9 Z M 510.8 469.7 C 514.8 469.8 512.1 474.7 510.4 473.3 C 508.5 471.8 508.9 469.6 510.8 469.7 C 510.8 469.7 510.8 469.7 510.8 469.7 Z M 493.6 288.4 C 496.6 291.7 494.8 294.9 490.8 294.5 C 486.8 294.2 490.5 285.0 493.6 288.4 C 493.6 288.4 493.6 288.4 493.6 288.4 Z M 624.1 511.0 C 626.3 511.0 624.9 513.3 623.5 513.0 C 622.2 512.7 621.7 511.1 624.1 511.0 C 624.1 511.0 624.1 511.0 624.1 511.0 Z M 548.7 434.4 C 547.7 436.2 546.3 437.2 544.7 437.4 C 543.3 435.0 547.1 428.5 551.5 426.3 C 555.9 424.3 555.7 435.4 551.0 436.2 C 549.9 436.3 550.7 432.2 548.7 434.4 M 531.4 464.1 C 530.9 466.7 527.7 466.4 528.8 463.7 C 530.1 460.6 531.9 461.5 531.4 464.1 C 531.4 464.1 531.4 464.1 531.4 464.1 Z M 494.2 431.6 C 493.7 434.2 490.5 433.9 491.6 431.2 C 492.9 428.1 494.7 429.0 494.2 431.6 C 494.2 431.6 494.2 431.6 494.2 431.6 Z M 611.4 461.8 C 612.4 464.1 613.1 460.5 614.4 460.6 C 615.4 461.7 615.4 463.2 614.3 465.3 C 610.7 469.2 609.3 461.5 609.9 460.6 C 610.4 461.0 610.9 461.4 611.4 461.8 M 587.1 548.7 C 588.0 551.1 588.7 547.4 590.0 547.5 C 591.0 548.6 591.0 550.1 590.0 552.2 C 586.4 556.2 585.0 548.5 585.6 547.6 C 586.1 547.9 586.6 548.3 587.1 548.7 M 439.2 231.9 C 438.2 233.1 431.8 229.8 435.9 228.3 C 437.8 227.6 440.4 230.4 439.2 231.9 M 480.0 428.6 C 478.9 429.8 472.6 426.5 476.7 425.0 C 478.6 424.3 481.1 427.1 480.0 428.6 M 512.4 433.1 C 513.4 435.4 514.1 431.8 515.4 431.8 C 516.4 433.0 516.4 434.5 515.3 436.5 C 511.7 440.5 510.3 432.8 510.9 431.9 C 511.4 432.3 511.9 432.7 512.4 433.1 M 568.7 521.4 C 570.1 520.0 572.1 522.8 569.6 523.3 C 567.9 523.5 567.3 522.6 568.7 521.4 C 568.7 521.4 568.7 521.4 568.7 521.4 Z M 527.1 356.5 C 528.6 355.1 529.7 359.4 527.6 358.4 C 526.4 357.9 525.7 357.8 527.1 356.5 C 527.1 356.5 527.1 356.5 527.1 356.5 Z M 542.8 417.2 C 539.5 417.0 543.6 414.1 545.6 413.6 C 551.2 412.3 543.5 421.8 542.7 421.1 C 542.1 420.5 543.4 417.3 542.8 417.2 M 496.8 357.0 C 490.9 356.6 508.5 345.6 502.3 357.3 C 496.0 369.0 497.9 357.1 496.8 357.0 M 597.9 571.6 C 600.4 571.6 597.7 563.5 599.8 563.2 C 604.9 562.1 601.2 572.9 597.6 575.5 C 596.7 576.2 593.4 571.6 597.9 571.6 M 604.9 487.8 C 607.4 487.8 604.8 479.7 606.8 479.3 C 612.0 478.3 608.3 489.1 604.6 491.8 C 603.7 492.4 600.4 487.8 604.9 487.8 M 526.5 371.4 C 525.6 369.7 533.8 369.4 531.2 373.6 C 526.6 380.9 527.1 372.6 526.5 371.4 M 458.3 255.7 C 456.9 255.1 457.0 253.9 458.3 252.1 C 459.9 249.7 464.2 254.6 462.8 255.0 C 461.3 255.2 459.8 255.4 458.3 255.7 M 549.8 495.8 C 553.3 494.5 550.7 499.6 548.9 498.9 C 546.8 497.9 546.2 497.1 549.8 495.8 C 549.8 495.8 549.8 495.8 549.8 495.8 Z M 414.1 336.2 C 417.7 334.9 415.0 340.1 413.3 339.3 C 411.1 338.4 410.5 337.5 414.1 336.2 C 414.1 336.2 414.1 336.2 414.1 336.2 Z M 665.3 544.4 C 668.2 543.6 666.5 548.1 664.9 547.2 C 662.9 546.1 662.3 545.3 665.3 544.4 C 665.3 544.4 665.3 544.4 665.3 544.4 Z M 592.2 487.0 C 593.4 487.1 594.0 492.0 589.7 490.7 C 587.2 489.9 591.0 486.9 592.2 487.0 C 592.2 487.0 592.2 487.0 592.2 487.0 Z M 653.4 522.3 C 654.9 522.6 656.2 528.9 650.9 526.7 C 647.9 525.4 652.0 522.1 653.4 522.3 C 653.4 522.3 653.4 522.3 653.4 522.3 Z M 555.1 463.6 C 557.0 463.5 556.1 465.7 554.2 465.2 C 552.7 464.6 553.2 463.7 555.1 463.6 C 555.1 463.6 555.1 463.6 555.1 463.6 Z M 595.4 425.2 C 597.3 425.1 596.4 427.3 594.5 426.7 C 593.0 426.2 593.5 425.3 595.4 425.2 C 595.4 425.2 595.4 425.2 595.4 425.2 Z M 550.6 402.4 C 552.5 402.3 551.6 404.6 549.7 404.0 C 548.2 403.5 548.7 402.5 550.6 402.4 C 550.6 402.4 550.6 402.4 550.6 402.4 Z M 603.5 444.2 C 609.6 447.5 609.4 452.9 599.7 450.3 C 593.7 448.8 601.9 443.4 603.5 444.2 C 603.5 444.2 603.5 444.2 603.5 444.2 Z M 532.2 438.4 C 534.1 438.7 532.8 440.6 531.2 439.9 C 530.2 439.5 530.2 438.1 532.2 438.4 C 532.2 438.4 532.2 438.4 532.2 438.4 Z M 561.8 413.0 C 563.0 406.9 576.0 419.5 565.3 423.7 C 551.3 429.3 561.2 415.7 561.8 413.0 M 529.8 345.1 C 531.0 342.4 534.7 346.3 531.0 348.7 C 524.3 353.0 529.5 345.8 529.8 345.1 M 453.9 362.6 C 453.9 362.6 451.2 366.0 451.2 364.2 C 451.1 361.2 453.9 362.6 453.9 362.6 C 453.9 362.6 453.9 362.6 453.9 362.6 Z M 462.9 365.8 C 465.6 365.1 465.4 370.6 462.9 369.0 C 461.4 368.1 460.2 366.4 462.9 365.8 C 462.9 365.8 462.9 365.8 462.9 365.8 Z M 522.1 328.5 C 523.3 328.2 523.2 330.7 522.1 329.9 C 521.5 329.5 521.0 328.8 522.1 328.5 C 522.1 328.5 522.1 328.5 522.1 328.5 Z M 446.7 378.6 C 448.8 378.3 449.2 383.2 447.0 381.5 C 445.7 380.5 444.5 378.9 446.7 378.6 C 446.7 378.6 446.7 378.6 446.7 378.6 Z M 588.3 417.7 C 589.6 417.4 589.5 419.9 588.3 419.1 C 587.7 418.7 587.2 418.0 588.3 417.7 C 588.3 417.7 588.3 417.7 588.3 417.7 Z M 667.2 528.4 C 668.5 528.1 668.3 530.5 667.2 529.8 C 666.6 529.4 666.1 528.6 667.2 528.4 C 667.2 528.4 667.2 528.4 667.2 528.4 Z M 413.3 292.1 C 416.3 291.2 415.4 296.8 412.9 295.4 C 411.4 294.6 410.3 293.0 413.3 292.1 C 413.3 292.1 413.3 292.1 413.3 292.1 Z M 578.7 441.8 C 581.9 441.0 580.5 446.0 577.6 444.3 C 575.9 443.3 575.5 442.7 578.7 441.8 C 578.7 441.8 578.7 441.8 578.7 441.8 Z M 445.4 345.1 C 448.6 344.2 447.2 349.3 444.3 347.5 C 442.6 346.5 442.1 345.9 445.4 345.1 C 445.4 345.1 445.4 345.1 445.4 345.1 Z M 577.4 432.0 C 579.3 431.5 579.1 434.1 577.4 433.2 C 576.5 432.7 575.6 432.5 577.4 432.0 C 577.4 432.0 577.4 432.0 577.4 432.0 Z M 543.6 495.1 C 545.4 494.6 545.2 497.3 543.6 496.3 C 542.7 495.8 541.8 495.6 543.6 495.1 C 543.6 495.1 543.6 495.1 543.6 495.1 Z M 550.3 526.0 C 552.1 525.5 551.9 528.2 550.3 527.2 C 549.4 526.7 548.4 526.5 550.3 526.0 C 550.3 526.0 550.3 526.0 550.3 526.0 Z M 573.7 471.2 C 575.4 470.8 575.3 474.3 573.7 473.2 C 572.8 472.7 572.0 471.6 573.7 471.2 C 573.7 471.2 573.7 471.2 573.7 471.2 Z M 459.3 323.6 C 457.2 321.6 459.7 314.8 463.7 311.2 C 460.5 314.1 469.1 319.3 469.3 320.6 C 469.4 321.8 461.3 325.6 459.3 323.6 M 575.3 481.2 C 562.8 468.7 583.9 465.2 585.2 478.2 C 585.4 479.3 577.2 483.2 575.3 481.2 C 585.4 479.3 577.2 483.2 575.3 481.2 C 585.4 479.3 577.2 483.2 575.3 481.2 C 585.4 479.3 577.2 483.2 575.3 481.2 " fill="#FF2600"></path></g></g><g><clipPath id="clip0x6000010bb420"><path d="M 667.0 -20.8 L 336.9 715.6 L 430.0 757.3 L 760.1 20.9 Z M 667.0 -20.8 "></path></clipPath><g clip-path="url(#clip0x6000010bb420)"><path d="M 644.1 215.6 C 643.4 210.3 652.1 200.8 651.1 196.4 M 644.1 215.6 C 644.1 215.6 644.1 215.6 644.1 215.6 C 644.8 221.0 660.8 206.9 664.5 206.5 C 668.2 206.1 666.4 201.3 667.5 199.0 C 670.0 193.2 674.1 204.5 676.8 191.9 C 678.9 182.3 686.3 175.6 691.0 167.3 C 695.1 160.2 697.1 154.6 688.0 152.0 C 676.3 159.9 669.7 155.0 669.7 154.8 C 672.7 145.7 679.8 125.9 686.3 121.0 C 688.2 119.6 707.1 134.4 707.8 132.8 C 712.0 128.3 706.3 123.0 708.6 117.7 C 711.3 111.6 711.9 108.4 717.8 105.0 C 719.2 104.2 724.4 93.8 719.1 96.5 C 721.5 92.7 726.0 87.0 726.1 82.0 C 726.2 77.7 719.7 73.6 716.5 78.0 C 716.2 76.6 704.9 96.8 706.3 97.7 C 700.5 94.3 716.5 81.7 709.5 73.3 C 699.9 61.9 700.4 73.9 694.4 78.0 C 688.3 82.1 689.1 64.5 691.5 58.9 C 696.5 47.6 672.7 70.7 674.4 57.8 C 676.1 44.9 667.7 55.4 657.7 62.0 C 650.6 66.9 647.0 62.4 646.6 55.9 C 644.2 63.7 640.5 67.3 631.3 69.6 C 626.5 76.3 632.8 75.3 636.4 76.1 C 652.1 79.5 624.1 97.9 623.7 99.2 C 622.5 103.2 625.1 108.2 621.8 111.8 C 619.3 114.5 613.2 110.9 612.0 113.7 C 610.3 117.6 608.6 121.5 606.9 125.4 C 605.6 128.4 611.5 123.0 613.8 129.2 C 616.1 135.4 626.5 133.1 628.1 132.5 C 632.9 135.2 603.6 145.2 599.3 156.0 C 595.0 166.8 602.8 162.2 600.1 169.5 C 597.6 175.8 592.3 170.8 590.1 175.3 C 588.0 179.9 591.0 183.1 587.7 186.4 C 580.1 193.7 589.9 198.1 600.5 195.2 C 605.3 193.9 610.7 189.9 615.7 196.3 C 620.6 202.7 612.1 211.4 619.0 208.4 C 626.1 205.3 628.7 180.8 634.2 179.7 C 639.8 178.6 628.0 201.6 635.1 200.8 C 642.2 200.1 636.3 195.5 642.8 189.2 C 645.4 190.9 641.1 193.6 644.4 195.9 C 647.8 198.1 650.0 191.9 651.1 196.4 C 652.1 200.8 643.4 210.3 644.1 215.6 C 644.1 215.6 644.1 215.6 644.1 215.6 Z M 702.9 117.9 C 702.9 117.9 702.9 117.9 702.9 117.9 C 704.7 117.4 705.3 120.4 703.4 122.6 C 701.4 124.8 701.0 118.4 702.9 117.9 C 702.9 117.9 702.9 117.9 702.9 117.9 Z M 594.0 153.5 C 594.0 153.5 594.0 153.5 594.0 153.5 C 595.8 153.0 596.5 156.0 594.4 158.2 C 592.5 160.4 592.1 154.1 594.0 153.5 C 594.0 153.5 594.0 153.5 594.0 153.5 Z M 633.8 80.8 C 633.8 80.8 633.8 80.8 633.8 80.8 C 635.7 80.3 636.3 83.3 634.3 85.5 C 632.3 87.7 632.0 81.4 633.8 80.8 C 633.8 80.8 633.8 80.8 633.8 80.8 Z M 687.1 143.1 C 687.1 143.1 687.1 143.1 687.1 143.1 C 685.9 146.9 680.8 149.8 681.5 141.2 C 682.0 137.7 683.2 135.0 685.2 133.1 C 686.6 130.3 688.9 126.5 691.5 126.0 C 690.1 133.3 692.7 141.4 687.1 143.1 C 687.1 143.1 687.1 143.1 687.1 143.1 Z M 652.6 130.4 C 652.6 130.4 652.6 130.4 652.6 130.4 C 654.1 132.5 651.9 139.6 646.4 136.2 C 646.7 131.3 651.1 128.2 652.6 130.4 C 652.6 130.4 652.6 130.4 652.6 130.4 Z M 712.4 60.5 C 712.4 60.5 712.4 60.5 712.4 60.5 C 713.9 62.6 711.7 69.7 706.2 66.3 C 706.5 61.4 710.9 58.3 712.4 60.5 C 712.4 60.5 712.4 60.5 712.4 60.5 Z M 663.4 154.7 C 663.4 154.7 663.4 154.7 663.4 154.7 C 660.7 158.2 654.6 157.5 656.2 152.2 C 659.7 151.2 665.9 140.1 663.4 154.7 C 663.4 154.7 663.4 154.7 663.4 154.7 Z M 671.3 188.8 C 671.3 188.8 671.3 188.8 671.3 188.8 C 668.9 190.7 668.8 192.5 664.5 189.8 C 666.1 186.6 665.4 187.3 666.7 183.4 C 670.5 178.5 661.1 171.2 668.5 171.2 C 679.3 171.2 675.4 188.5 671.3 188.8 C 671.3 188.8 671.3 188.8 671.3 188.8 Z M 652.0 159.0 C 652.0 159.0 652.0 159.0 652.0 159.0 C 651.0 160.2 649.0 161.0 648.0 161.0 C 646.2 158.8 651.4 157.2 652.0 159.0 C 652.0 159.0 652.0 159.0 652.0 159.0 Z M 664.6 52.3 C 664.6 52.3 664.6 52.3 664.6 52.3 C 663.6 53.5 661.6 54.3 660.7 54.3 C 658.8 52.1 664.1 50.5 664.6 52.3 C 664.6 52.3 664.6 52.3 664.6 52.3 Z M 620.0 103.7 C 620.0 103.7 620.0 103.7 620.0 103.7 C 619.0 104.9 617.1 105.7 616.1 105.7 C 614.3 103.5 619.5 101.9 620.0 103.7 C 620.0 103.7 620.0 103.7 620.0 103.7 Z M 689.0 107.9 C 689.0 107.9 689.0 107.9 689.0 107.9 C 687.9 104.1 696.8 99.1 698.0 100.8 C 701.4 105.6 690.1 111.7 689.0 107.9 C 689.0 107.9 689.0 107.9 689.0 107.9 Z M 658.7 220.8 C 658.7 220.8 658.7 220.8 658.7 220.8 C 657.6 217.0 666.5 211.9 667.7 213.6 C 671.1 218.5 659.9 224.5 658.7 220.8 C 658.7 220.8 658.7 220.8 658.7 220.8 Z M 447.4 677.7 C 447.4 677.7 447.4 677.7 447.4 677.7 C 446.7 679.8 446.4 682.0 446.5 684.3 C 447.5 683.7 448.3 683.1 449.0 682.4 C 449.6 680.9 450.2 679.4 450.8 678.1 C 453.6 671.9 457.4 684.0 460.7 670.3 C 463.0 660.9 466.4 661.5 471.5 653.5 C 472.0 651.4 460.3 652.3 458.5 651.9 C 452.0 650.3 447.3 640.7 448.6 639.5 C 449.3 635.9 451.4 627.4 457.3 622.7 C 460.1 615.2 470.9 624.7 471.0 624.6 C 474.2 614.9 474.6 618.9 479.3 612.6 C 481.2 607.2 472.9 605.3 475.3 600.0 C 474.7 597.5 490.5 602.3 495.9 590.3 C 498.9 583.7 499.6 580.3 505.8 576.5 C 507.3 575.8 513.0 564.5 507.4 567.5 C 508.9 565.1 511.3 561.5 509.8 559.0 C 503.0 550.0 500.3 565.8 497.4 565.6 C 496.4 565.6 498.4 556.6 494.2 556.0 C 489.2 555.2 505.7 525.6 495.8 534.2 C 485.0 543.7 472.1 533.5 471.4 530.1 C 472.3 528.4 480.2 531.2 477.7 525.4 C 475.2 519.6 465.8 527.5 462.6 526.1 C 444.5 517.9 455.9 523.6 445.3 530.8 C 440.1 534.5 438.9 524.8 437.3 521.4 C 436.0 521.7 432.5 530.4 431.1 530.8 C 428.4 534.9 431.0 534.8 424.4 536.5 C 420.9 537.7 420.7 546.3 420.5 547.3 C 420.7 549.6 423.2 543.8 425.8 544.4 C 438.2 547.1 420.0 551.9 416.9 559.5 C 413.8 567.0 413.2 569.9 412.4 571.2 C 411.7 572.2 419.9 575.3 418.3 577.0 C 418.4 580.2 413.7 580.8 410.4 582.0 C 407.0 583.2 409.8 592.0 407.9 595.2 C 406.0 598.4 402.4 596.1 396.3 602.7 C 390.3 609.2 402.2 614.2 405.6 614.5 C 417.9 615.4 392.2 616.2 390.4 621.9 C 388.5 627.5 393.1 629.3 391.4 632.8 C 389.7 634.3 387.7 635.3 385.8 636.3 C 387.2 639.0 384.6 641.2 382.3 646.8 C 382.0 647.7 381.7 648.2 381.3 648.8 C 382.1 649.7 391.0 643.1 392.0 644.6 C 395.0 649.3 386.8 651.7 383.5 652.2 C 385.8 657.1 385.5 662.1 381.4 666.2 C 373.3 674.2 383.3 678.9 394.3 675.7 C 399.3 674.2 407.5 669.2 409.9 676.7 C 412.3 684.2 402.7 692.0 413.0 689.7 C 413.2 689.0 416.5 692.4 417.8 681.8 C 419.0 671.2 425.9 668.0 426.1 668.1 C 428.9 663.0 425.4 660.5 429.6 658.7 C 433.8 657.0 430.7 664.5 427.9 669.7 C 429.3 671.2 433.2 669.9 431.3 674.8 C 429.4 679.6 425.2 677.7 426.9 681.2 C 428.5 684.7 428.5 681.5 429.8 681.4 C 428.8 685.4 427.0 689.0 425.1 692.6 C 420.7 699.2 434.9 691.5 436.8 688.9 C 440.6 683.7 436.5 674.9 447.4 677.7 C 447.4 677.7 447.4 677.7 447.4 677.7 Z M 415.8 669.4 C 415.8 669.4 415.8 669.4 415.8 669.4 C 415.6 667.1 420.4 661.0 421.0 664.8 C 421.5 668.7 416.1 671.8 415.8 669.4 C 415.8 669.4 415.8 669.4 415.8 669.4 Z M 392.7 598.7 C 392.7 598.7 392.7 598.7 392.7 598.7 C 392.5 596.4 397.3 590.2 397.9 594.1 C 398.5 598.0 392.9 601.2 392.7 598.7 C 392.7 598.7 392.7 598.7 392.7 598.7 Z M 472.1 636.6 C 472.1 636.6 472.1 636.6 472.1 636.6 C 469.0 632.5 478.5 629.4 479.3 632.7 C 477.4 635.0 473.9 636.5 472.1 636.6 C 472.1 636.6 472.1 636.6 472.1 636.6 Z M 399.1 629.4 C 399.1 629.4 399.1 629.4 399.1 629.4 C 399.5 628.5 399.9 627.6 400.3 626.8 C 401.6 628.9 401.2 634.3 400.7 636.2 C 396.6 635.0 398.0 631.5 399.1 629.4 C 399.1 629.4 399.1 629.4 399.1 629.4 Z M 482.6 613.0 C 482.6 613.0 482.6 613.0 482.6 613.0 C 481.0 608.8 483.8 606.3 485.5 603.3 C 497.9 607.8 484.3 617.2 482.6 613.0 C 482.6 613.0 482.6 613.0 482.6 613.0 Z M 481.5 562.4 C 481.5 562.4 481.5 562.4 481.5 562.4 C 475.7 565.7 475.1 550.6 479.6 549.9 C 484.1 549.3 483.5 554.5 482.3 557.8 C 482.8 558.7 487.4 559.1 481.5 562.4 C 481.5 562.4 481.5 562.4 481.5 562.4 Z M 422.7 571.0 C 422.7 571.0 422.7 571.0 422.7 571.0 C 422.7 572.0 424.1 573.7 422.7 574.1 C 421.4 574.4 420.4 571.8 422.7 571.0 C 422.7 571.0 422.7 571.0 422.7 571.0 Z M 379.2 660.0 C 379.2 660.0 379.2 660.0 379.2 660.0 C 379.3 661.0 380.6 662.7 379.3 663.0 C 377.9 663.4 376.9 660.7 379.2 660.0 C 379.2 660.0 379.2 660.0 379.2 660.0 Z M 436.3 545.9 C 436.3 545.9 436.3 545.9 436.3 545.9 C 440.2 546.1 436.8 549.1 437.0 550.9 C 434.0 550.5 432.2 545.8 436.3 545.9 C 436.3 545.9 436.3 545.9 436.3 545.9 Z M 465.4 628.9 C 465.4 628.9 465.4 628.9 465.4 628.9 C 468.7 635.3 464.3 646.9 454.4 642.4 C 455.5 638.8 455.4 635.0 457.5 632.2 C 458.8 630.2 463.0 629.8 465.4 628.9 C 465.4 628.9 465.4 628.9 465.4 628.9 Z M 451.9 663.7 C 451.9 663.7 451.9 663.7 451.9 663.7 C 452.7 666.5 450.3 671.3 447.1 666.5 C 446.1 664.3 445.7 662.1 446.3 659.9 C 446.1 657.6 445.3 652.4 447.7 652.1 C 450.1 651.8 455.1 659.1 451.9 663.7 C 451.9 663.7 451.9 663.7 451.9 663.7 Z M 472.5 608.1 C 472.5 608.1 472.5 608.1 472.5 608.1 C 475.1 610.4 471.4 618.9 469.8 618.3 C 468.2 617.6 469.9 606.0 472.5 608.1 C 472.5 608.1 472.5 608.1 472.5 608.1 Z M 466.8 645.3 C 466.8 645.3 466.8 645.3 466.8 645.3 C 466.1 646.5 465.1 647.3 464.8 646.2 C 464.5 645.2 465.3 643.9 466.0 643.6 C 466.7 643.3 467.6 644.1 466.8 645.3 C 466.8 645.3 466.8 645.3 466.8 645.3 Z M 501.3 590.3 C 501.3 590.3 501.3 590.3 501.3 590.3 C 500.5 591.4 499.5 592.2 499.3 591.2 C 499.0 590.1 499.7 588.8 500.5 588.6 C 501.1 588.3 502.0 589.1 501.3 590.3 C 501.3 590.3 501.3 590.3 501.3 590.3 Z M 453.3 683.6 C 453.3 683.6 453.3 683.6 453.3 683.6 C 452.5 684.7 451.5 685.5 451.2 684.5 C 451.0 683.4 451.7 682.2 452.4 681.8 C 453.1 681.5 454.1 682.4 453.3 683.6 C 453.3 683.6 453.3 683.6 453.3 683.6 Z M 488.0 590.7 C 488.0 590.7 488.0 590.7 488.0 590.7 C 485.2 592.0 482.1 590.5 483.8 585.7 C 462.6 606.6 476.3 569.4 485.5 569.6 C 498.8 569.8 493.0 590.5 488.0 590.7 C 488.0 590.7 488.0 590.7 488.0 590.7 Z M 630.6 244.4 C 638.3 242.9 636.8 232.4 641.8 229.0 C 646.9 225.5 656.5 225.6 647.1 218.9 C 640.2 214.1 645.4 202.1 638.1 200.1 C 632.5 198.6 627.8 198.7 622.1 195.9 C 612.1 191.1 611.9 184.9 602.1 187.8 C 594.0 190.0 607.0 195.3 592.3 193.3 C 581.8 191.9 578.3 198.1 586.4 204.9 C 594.0 211.3 597.1 217.5 583.6 215.3 C 576.8 214.2 574.9 213.5 571.0 215.9 C 569.7 216.6 571.8 227.8 571.5 227.7 C 574.1 228.2 583.3 225.8 582.0 230.8 C 581.2 233.9 573.4 235.5 568.4 231.8 C 559.9 225.6 559.5 246.9 562.6 246.5 C 561.6 246.7 549.6 246.0 556.4 251.0 C 556.4 251.1 554.5 259.4 554.1 260.8 C 549.6 277.7 576.8 258.7 569.5 275.9 C 564.6 287.2 554.3 273.7 551.3 273.1 C 545.1 272.0 541.5 281.3 539.5 284.4 C 537.8 287.0 543.0 292.4 545.2 295.5 C 548.3 300.0 543.7 305.4 538.7 305.7 C 536.3 305.8 530.1 305.1 528.8 306.4 C 528.8 306.4 525.7 311.8 527.8 311.5 C 528.9 311.3 534.8 308.4 536.4 311.5 C 537.5 313.7 526.3 314.6 524.7 316.1 C 521.6 318.9 537.6 325.8 527.4 328.9 C 520.3 331.1 522.0 328.5 528.0 334.9 C 531.1 338.2 519.1 340.9 516.1 340.0 C 532.5 344.9 515.4 345.5 517.8 347.0 C 516.1 346.0 516.9 342.1 514.7 341.5 C 513.7 341.3 499.3 366.7 504.0 370.0 C 508.7 373.4 515.2 371.5 510.3 377.9 C 508.7 380.0 503.5 382.2 502.1 381.0 C 501.5 376.2 502.7 378.1 501.0 372.2 C 500.9 372.0 495.4 380.0 494.7 381.2 C 492.6 385.8 495.2 389.1 497.0 394.8 C 498.3 398.7 490.0 397.7 488.2 401.0 C 486.2 404.7 484.3 407.9 484.0 412.4 C 483.6 416.6 482.6 417.6 487.9 420.1 C 493.1 422.5 490.3 429.9 492.1 432.8 C 494.0 435.8 493.6 436.1 489.7 437.5 C 482.9 439.9 483.6 436.3 480.6 435.6 C 470.2 433.1 466.0 445.3 465.9 449.8 C 465.9 455.0 473.6 450.1 474.2 451.4 C 475.6 454.6 471.5 456.4 470.5 458.6 C 469.0 462.0 467.0 457.1 464.9 457.5 C 453.9 459.4 470.8 469.4 467.7 472.6 C 463.2 477.2 450.1 473.2 453.3 482.2 C 456.6 491.6 442.2 491.6 444.2 500.5 C 445.9 507.9 428.0 510.0 439.2 518.8 C 444.4 522.8 448.9 531.4 455.0 534.3 C 456.9 535.2 476.8 539.8 474.3 536.9 C 476.0 538.8 473.8 542.4 476.4 544.1 C 478.5 545.3 484.2 540.9 486.1 540.9 C 487.2 540.9 488.6 550.0 490.3 551.2 C 492.5 552.7 502.6 542.6 511.1 546.3 C 514.7 547.8 519.6 544.1 515.4 542.3 C 513.3 541.4 501.4 538.6 501.1 540.2 C 501.3 539.5 506.9 534.3 507.0 534.3 C 505.0 534.5 502.9 534.1 500.6 533.2 C 499.8 532.4 506.1 518.4 507.5 518.5 C 511.6 518.6 520.5 524.8 523.4 523.9 C 525.3 523.3 520.7 517.6 521.7 515.9 C 523.3 513.0 527.1 518.5 529.8 516.3 C 530.5 515.6 533.6 498.2 532.2 497.2 C 531.5 496.7 520.4 496.9 517.4 495.7 C 511.1 493.3 515.8 489.9 516.9 488.2 C 518.6 485.5 528.9 477.0 536.9 480.6 C 539.4 481.7 536.8 489.7 537.6 491.4 C 536.5 489.3 555.1 485.5 546.7 478.2 C 545.5 477.1 543.1 480.8 542.2 480.8 C 540.9 480.7 533.0 473.7 534.6 472.1 C 535.7 471.0 543.6 471.1 542.3 469.0 C 542.8 469.9 535.8 461.1 539.6 462.1 C 537.3 461.5 529.4 462.6 527.6 460.7 C 527.5 460.6 532.3 453.1 533.0 452.6 C 538.1 448.0 534.1 448.6 531.7 443.9 C 529.3 439.2 529.4 430.8 538.8 436.6 C 549.7 443.2 555.9 438.0 547.1 434.0 C 538.0 430.0 540.5 429.9 544.8 426.0 C 549.5 422.0 548.1 415.0 556.7 414.0 C 567.7 412.8 565.7 421.6 569.8 421.6 C 574.4 421.5 575.7 416.9 576.0 414.2 C 576.4 409.8 569.0 410.3 568.7 408.5 C 568.4 405.0 578.8 406.0 578.6 402.3 C 578.6 402.1 575.0 395.1 574.5 396.1 C 581.0 384.4 570.7 394.8 561.8 392.7 C 558.6 391.8 567.5 387.0 556.7 384.3 C 545.4 381.4 550.6 371.1 555.7 372.8 C 556.4 374.0 557.2 375.1 557.9 376.3 C 563.9 377.7 567.0 366.2 571.8 367.9 C 574.0 368.7 574.4 386.5 581.0 386.5 C 584.9 386.6 580.9 381.1 579.6 379.5 C 577.5 376.8 584.5 379.5 585.6 379.3 C 584.8 379.4 587.2 372.9 583.8 370.3 C 582.9 369.6 577.6 373.3 577.2 370.9 C 576.0 362.4 582.6 369.8 589.2 369.0 C 593.3 368.4 601.8 359.0 600.9 359.0 C 599.7 358.9 597.0 361.8 595.1 360.3 C 592.3 357.9 596.4 355.3 593.9 353.2 C 593.1 352.4 590.1 355.0 589.6 354.4 C 586.9 351.6 591.7 344.5 588.6 343.0 C 586.1 341.6 584.6 350.1 580.7 348.4 C 577.9 347.1 575.4 341.3 580.3 342.8 C 586.7 344.8 582.8 334.4 587.0 333.4 C 591.7 332.5 593.3 341.6 597.3 336.4 C 602.1 330.5 594.7 332.8 592.2 330.0 C 585.2 322.3 616.8 326.9 610.9 321.5 C 608.8 319.6 594.7 321.4 600.0 316.2 C 602.5 313.8 597.8 296.4 606.9 300.3 C 609.0 301.3 606.4 309.4 608.3 309.6 C 613.0 310.1 614.4 304.7 616.0 302.9 C 618.7 300.0 622.4 303.8 626.2 302.9 C 631.1 301.7 622.2 295.5 623.8 293.2 C 625.3 291.1 609.9 286.9 607.9 286.4 C 614.1 288.1 609.6 277.7 616.1 278.2 C 630.0 279.3 626.0 276.5 632.2 272.6 C 631.6 273.7 630.4 274.1 628.5 273.8 C 627.7 272.9 629.0 268.6 629.4 268.3 C 627.9 269.5 625.8 270.1 623.0 270.0 C 622.5 269.8 615.4 245.0 629.2 248.9 C 631.0 249.4 652.8 257.8 647.7 251.6 C 646.1 249.5 630.3 244.5 630.6 244.4 M 609.2 314.8 C 609.1 316.2 608.0 316.6 605.9 316.2 C 604.8 314.2 605.3 312.8 607.1 311.9 C 609.4 312.5 610.0 313.4 609.2 314.8 M 616.5 317.4 C 616.1 318.6 615.0 319.0 613.2 318.4 C 612.0 309.3 627.2 315.5 619.1 319.4 C 618.8 319.5 617.4 316.6 616.5 317.4 M 591.0 376.7 C 589.4 376.4 589.0 369.5 592.4 372.2 C 593.9 373.4 592.8 377.0 591.0 376.7 M 569.6 380.7 C 565.2 381.0 566.7 376.3 568.9 376.4 C 572.2 376.5 570.6 380.7 569.6 380.7 M 516.4 513.7 C 508.0 511.1 500.6 493.7 512.8 498.1 C 527.1 503.3 528.2 517.3 516.4 513.7 M 563.0 430.8 C 560.1 429.0 565.2 424.9 568.5 426.9 C 574.3 430.2 566.4 433.1 563.0 430.8 M 555.2 421.7 C 552.2 419.7 555.8 417.2 558.0 418.1 C 560.2 419.1 558.6 423.9 555.2 421.7 M 527.5 488.7 C 529.7 490.4 524.3 492.9 523.6 491.3 C 523.0 489.9 525.2 487.0 527.5 488.7 C 527.5 488.7 527.5 488.7 527.5 488.7 Z M 509.0 526.9 C 510.3 526.4 512.3 528.1 510.7 528.5 C 509.6 528.8 507.7 527.4 509.0 526.9 C 509.0 526.9 509.0 526.9 509.0 526.9 Z M 540.3 449.4 C 542.6 445.6 548.8 453.3 542.9 455.9 C 537.9 458.1 537.5 454.1 540.3 449.4 C 540.3 449.4 540.3 449.4 540.3 449.4 Z M 458.0 481.9 C 456.7 482.4 455.4 479.6 456.9 479.0 C 459.9 477.6 459.3 481.4 458.0 481.9 C 458.0 481.9 458.0 481.9 458.0 481.9 Z M 596.6 295.5 C 593.8 296.4 593.8 293.3 595.6 293.2 C 597.7 293.1 599.4 294.6 596.6 295.5 C 596.6 295.5 596.6 295.5 596.6 295.5 Z M 631.0 258.1 C 628.1 259.0 630.0 254.9 631.7 254.8 C 633.9 254.6 633.8 257.2 631.0 258.1 C 631.0 258.1 631.0 258.1 631.0 258.1 Z M 602.3 202.5 C 599.5 203.5 599.5 200.3 601.2 200.2 C 603.4 200.0 605.1 201.7 602.3 202.5 C 602.3 202.5 602.3 202.5 602.3 202.5 Z M 582.5 271.6 C 579.7 272.5 579.8 269.3 581.4 269.2 C 583.6 269.1 585.3 270.6 582.5 271.6 C 582.5 271.6 582.5 271.6 582.5 271.6 Z M 608.6 290.9 C 613.0 290.7 622.9 297.0 612.4 297.2 C 602.2 297.5 604.4 291.0 608.6 290.9 C 608.6 290.9 608.6 290.9 608.6 290.9 Z M 492.8 410.4 C 492.8 410.4 495.9 414.8 494.4 415.0 C 487.3 416.0 492.8 410.4 492.8 410.4 C 492.8 410.4 492.8 410.4 492.8 410.4 Z M 560.3 378.6 C 560.3 378.6 561.3 381.6 560.7 381.8 C 556.0 383.6 560.3 378.6 560.3 378.6 C 560.3 378.6 560.3 378.6 560.3 378.6 Z M 600.2 367.4 C 600.2 367.4 601.2 370.4 600.6 370.7 C 595.9 372.5 600.2 367.4 600.2 367.4 C 600.2 367.4 600.2 367.4 600.2 367.4 Z M 636.6 261.5 C 640.1 257.3 642.6 263.3 639.3 266.2 C 636.5 268.6 633.1 265.7 636.6 261.5 C 636.6 261.5 636.6 261.5 636.6 261.5 Z M 613.2 269.9 C 621.3 268.4 622.2 274.1 615.2 274.7 C 609.1 275.2 605.1 271.5 613.2 269.9 C 613.2 269.9 613.2 269.9 613.2 269.9 Z M 615.8 248.7 C 615.7 249.9 614.9 250.0 613.3 248.9 C 611.4 246.8 614.4 243.4 617.0 243.5 C 621.8 243.6 615.8 248.7 615.8 248.7 M 580.2 245.6 C 586.6 257.8 565.3 239.7 568.3 239.7 C 571.8 239.6 578.7 242.9 580.2 245.6 C 580.2 245.6 580.2 245.6 580.2 245.6 Z M 541.7 309.8 C 543.6 312.6 539.4 313.8 538.0 311.1 C 537.1 309.4 539.8 307.0 541.7 309.8 C 541.7 309.8 541.7 309.8 541.7 309.8 Z M 603.8 329.1 C 604.7 330.5 602.1 334.4 600.8 331.9 C 599.8 330.2 602.0 326.3 603.8 329.1 C 603.8 329.1 603.8 329.1 603.8 329.1 Z M 654.0 228.9 C 655.0 230.4 652.3 234.3 651.0 231.8 C 650.1 230.0 652.2 226.2 654.0 228.9 C 654.0 228.9 654.0 228.9 654.0 228.9 Z M 543.7 358.0 C 546.0 363.0 539.8 363.4 539.1 359.9 C 538.3 356.4 541.4 353.0 543.7 358.0 C 543.7 358.0 543.7 358.0 543.7 358.0 Z M 535.4 439.2 C 536.9 441.7 532.8 441.7 533.0 440.2 C 533.1 438.5 534.7 438.0 535.4 439.2 C 535.4 439.2 535.4 439.2 535.4 439.2 Z M 537.8 456.1 C 538.4 457.6 535.9 458.3 536.1 456.7 C 536.4 455.1 537.3 454.9 537.8 456.1 C 537.8 456.1 537.8 456.1 537.8 456.1 Z M 492.5 501.5 C 493.8 504.9 488.4 506.7 488.9 503.2 C 489.5 499.3 491.5 498.9 492.5 501.5 C 492.5 501.5 492.5 501.5 492.5 501.5 Z M 542.1 472.3 C 542.7 473.8 540.2 474.5 540.4 473.0 C 540.6 471.3 541.6 471.1 542.1 472.3 C 542.1 472.3 542.1 472.3 542.1 472.3 Z M 519.8 507.9 C 521.8 511.4 516.2 511.4 516.5 509.3 C 516.8 507.0 518.8 506.2 519.8 507.9 C 519.8 507.9 519.8 507.9 519.8 507.9 Z M 539.6 510.4 C 541.6 513.9 536.1 514.0 536.4 511.9 C 536.7 509.6 538.7 508.8 539.6 510.4 C 539.6 510.4 539.6 510.4 539.6 510.4 Z M 489.4 386.6 C 491.4 390.1 485.9 390.1 486.2 388.0 C 486.5 385.7 488.6 385.0 489.4 386.6 C 489.4 386.6 489.4 386.6 489.4 386.6 Z M 634.0 285.3 C 632.7 289.4 629.1 289.5 627.3 285.9 C 625.5 282.4 635.3 281.1 634.0 285.3 C 634.0 285.3 634.0 285.3 634.0 285.3 Z M 513.4 501.4 C 514.6 503.3 511.8 503.2 511.4 501.9 C 511.0 500.6 512.1 499.5 513.4 501.4 C 513.4 501.4 513.4 501.4 513.4 501.4 Z M 539.0 401.5 C 537.0 401.5 535.5 400.9 534.4 399.6 C 535.8 397.3 543.2 397.3 547.4 400.0 C 551.3 402.7 541.8 407.9 538.7 404.3 C 538.0 403.4 541.9 402.1 539.0 401.5 M 504.9 401.3 C 502.5 402.1 501.0 399.3 503.9 398.9 C 507.2 398.5 507.4 400.4 504.9 401.3 C 504.9 401.3 504.9 401.3 504.9 401.3 Z M 513.1 354.5 C 510.6 355.3 509.2 352.5 512.0 352.1 C 515.3 351.7 515.5 353.7 513.1 354.5 C 513.1 354.5 513.1 354.5 513.1 354.5 Z M 548.5 467.2 C 547.0 469.1 550.4 468.0 551.0 469.1 C 550.6 470.5 549.3 471.2 547.0 471.3 C 541.8 470.2 547.6 465.3 548.7 465.4 C 548.6 466.0 548.6 466.6 548.5 467.2 M 462.3 488.4 C 460.8 490.4 464.2 489.2 464.8 490.3 C 464.4 491.7 463.1 492.4 460.8 492.6 C 455.5 491.5 461.4 486.6 462.4 486.7 C 462.4 487.2 462.3 487.9 462.3 488.4 M 653.5 212.7 C 651.9 212.4 651.4 205.5 654.9 208.2 C 656.5 209.4 655.4 213.0 653.5 212.7 M 508.2 341.1 C 506.6 340.8 506.1 333.9 509.6 336.6 C 511.2 337.8 510.1 341.4 508.2 341.1 M 521.3 370.4 C 519.9 372.4 523.3 371.2 523.9 372.4 C 523.4 373.7 522.1 374.4 519.9 374.5 C 514.6 373.5 520.4 368.6 521.5 368.7 C 521.5 369.2 521.4 369.8 521.3 370.4 M 475.8 459.9 C 477.7 460.5 476.3 463.5 474.7 461.6 C 473.6 460.3 474.0 459.4 475.8 459.9 C 475.8 459.9 475.8 459.9 475.8 459.9 Z M 593.8 346.1 C 595.7 346.6 592.6 349.6 592.4 347.4 C 592.2 346.2 591.9 345.5 593.8 346.1 C 593.8 346.1 593.8 346.1 593.8 346.1 Z M 550.5 388.3 C 549.0 385.5 553.5 387.5 555.0 389.0 C 559.0 393.0 547.0 391.1 547.2 390.1 C 547.4 389.3 550.8 388.9 550.5 388.3 M 577.5 320.9 C 574.8 315.8 593.3 325.2 580.2 325.6 C 567.0 325.9 578.0 321.9 577.5 320.9 M 448.5 508.5 C 449.8 510.5 455.2 504.5 456.6 506.0 C 460.2 509.9 449.1 511.9 445.0 510.1 C 444.0 509.7 446.1 504.7 448.5 508.5 M 523.1 474.2 C 524.4 476.3 529.8 470.2 531.2 471.8 C 534.8 475.6 523.7 477.7 519.6 475.9 C 518.6 475.4 520.7 470.5 523.1 474.2 M 580.8 352.7 C 581.8 351.1 586.3 357.9 581.4 357.7 C 572.9 357.3 580.1 353.7 580.8 352.7 M 643.3 240.0 C 643.1 238.7 644.1 238.1 646.3 238.3 C 649.2 238.5 647.2 244.5 646.3 243.6 C 645.3 242.4 644.3 241.2 643.3 240.0 M 487.6 431.8 C 490.6 434.2 484.9 434.4 484.6 432.6 C 484.3 430.3 484.7 429.4 487.6 431.8 C 487.6 431.8 487.6 431.8 487.6 431.8 Z M 552.2 241.6 C 555.1 244.0 549.4 244.2 549.1 242.4 C 548.8 240.1 549.2 239.2 552.2 241.6 C 552.2 241.6 552.2 241.6 552.2 241.6 Z M 506.5 552.0 C 508.7 554.0 504.0 554.7 504.0 553.0 C 503.9 550.8 504.3 549.9 506.5 552.0 C 506.5 552.0 506.5 552.0 506.5 552.0 Z M 517.1 463.2 C 517.7 464.2 513.8 467.1 512.7 462.8 C 512.1 460.4 516.6 462.1 517.1 463.2 C 517.1 463.2 517.1 463.2 517.1 463.2 Z M 519.1 531.4 C 519.6 532.8 515.0 536.9 514.1 531.4 C 513.6 528.3 518.5 530.1 519.1 531.4 C 519.1 531.4 519.1 531.4 519.1 531.4 Z M 517.6 420.9 C 518.7 422.4 516.4 422.7 515.9 420.9 C 515.6 419.4 516.6 419.3 517.6 420.9 C 517.6 420.9 517.6 420.9 517.6 420.9 Z M 571.1 436.2 C 572.2 437.8 569.8 438.1 569.4 436.3 C 569.0 434.8 570.1 434.7 571.1 436.2 C 571.1 436.2 571.1 436.2 571.1 436.2 Z M 567.1 387.8 C 568.1 389.3 565.8 389.7 565.3 387.8 C 565.0 386.3 566.0 386.2 567.1 387.8 C 567.1 387.8 567.1 387.8 567.1 387.8 Z M 559.2 452.1 C 559.6 458.9 554.9 461.2 552.1 451.9 C 550.3 446.2 559.1 450.4 559.2 452.1 C 559.2 452.1 559.2 452.1 559.2 452.1 Z M 527.1 389.6 C 527.8 391.4 525.5 391.1 525.3 389.5 C 525.1 388.4 526.3 387.8 527.1 389.6 C 527.1 389.6 527.1 389.6 527.1 389.6 Z M 564.0 402.2 C 569.7 400.3 565.9 417.2 556.7 410.3 C 544.7 401.3 561.4 403.0 564.0 402.2 M 604.8 342.9 C 607.7 342.6 606.4 347.5 602.4 345.6 C 595.2 342.1 604.0 342.9 604.8 342.9 M 550.5 287.6 C 550.5 287.6 546.2 287.0 547.7 286.1 C 550.3 284.6 550.5 287.6 550.5 287.6 C 550.5 287.6 550.5 287.6 550.5 287.6 Z M 552.5 296.7 C 554.5 298.7 549.7 301.1 549.8 298.2 C 549.8 296.5 550.6 294.7 552.5 296.7 C 552.5 296.7 552.5 296.7 552.5 296.7 Z M 614.8 328.5 C 615.7 329.4 613.6 330.5 613.6 329.1 C 613.6 328.4 614.0 327.6 614.8 328.5 C 614.8 328.5 614.8 328.5 614.8 328.5 Z M 533.2 289.2 C 534.6 290.9 530.6 293.6 531.0 290.8 C 531.1 289.3 531.9 287.5 533.2 289.2 C 533.2 289.2 533.2 289.2 533.2 289.2 Z M 573.8 426.7 C 574.6 427.6 572.5 428.7 572.5 427.4 C 572.6 426.7 572.9 425.9 573.8 426.7 C 573.8 426.7 573.8 426.7 573.8 426.7 Z M 521.1 545.9 C 522.0 546.8 519.9 547.9 519.9 546.6 C 519.9 545.9 520.3 545.1 521.1 545.9 C 521.1 545.9 521.1 545.9 521.1 545.9 Z M 589.1 219.8 C 591.4 221.9 586.2 223.8 586.1 221.0 C 586.0 219.4 586.8 217.7 589.1 219.8 C 589.1 219.8 589.1 219.8 589.1 219.8 Z M 548.4 430.2 C 550.7 432.5 545.7 433.7 545.7 430.4 C 545.6 428.6 545.9 427.9 548.4 430.2 C 548.4 430.2 548.4 430.2 548.4 430.2 Z M 560.9 272.1 C 563.3 274.3 558.3 275.6 558.3 272.3 C 558.3 270.4 558.5 269.8 560.9 272.1 C 560.9 272.1 560.9 272.1 560.9 272.1 Z M 556.0 424.4 C 557.4 425.7 555.0 426.8 555.0 425.0 C 555.0 424.0 554.7 423.1 556.0 424.4 C 556.0 424.4 556.0 424.4 556.0 424.4 Z M 485.0 426.3 C 486.4 427.6 484.0 428.7 484.0 426.9 C 483.9 425.9 483.7 425.0 485.0 426.3 C 485.0 426.3 485.0 426.3 485.0 426.3 Z M 462.4 446.7 C 463.7 448.0 461.3 449.1 461.3 447.3 C 461.3 446.3 461.0 445.4 462.4 446.7 C 462.4 446.7 462.4 446.7 462.4 446.7 Z M 520.9 440.1 C 522.1 441.3 519.1 442.9 519.1 441.0 C 519.2 440.0 519.7 438.9 520.9 440.1 C 520.9 440.1 520.9 440.1 520.9 440.1 Z M 586.3 273.5 C 587.0 270.8 594.0 269.6 599.1 271.3 C 595.1 269.9 595.1 279.7 594.0 280.4 C 593.1 281.0 585.6 276.1 586.3 273.5 M 513.2 446.2 C 517.4 429.7 531.3 445.8 520.9 453.1 C 520.1 453.8 512.5 448.8 513.2 446.2 C 520.1 453.8 512.5 448.8 513.2 446.2 C 520.1 453.8 512.5 448.8 513.2 446.2 C 520.1 453.8 512.5 448.8 513.2 446.2 " fill="#FF2600"></path></g></g></g></svg>