<?xml version="1.0" encoding="UTF-8" standalone="no"?><svg xmlns="http://www.w3.org/2000/svg" xmlns:xlink="http://www.w3.org/1999/xlink" clip-rule="evenodd" stroke-miterlimit="10" viewBox="0 0 218 391"><desc>SVG generated by Keynote</desc><defs></defs><g transform="matrix(1.00, 0.00, -0.00, -1.00, 0.0, 391.0)"><path d="M 132.3 305.9 C 131.9 307.8 130.6 316.0 130.7 316.1 C 131.1 313.0 132.3 306.5 132.3 305.9 C 132.3 305.9 132.3 305.9 132.3 305.9 Z M 135.9 289.7 C 135.1 292.6 133.6 299.0 133.2 301.1 C 133.9 297.6 135.7 290.7 135.9 289.7 C 135.9 289.7 135.9 289.7 135.9 289.7 Z M 131.1 314.7 C 130.6 319.1 129.7 327.2 129.7 329.2 C 129.9 324.8 131.0 316.7 131.1 314.7 C 131.1 314.7 131.1 314.7 131.1 314.7 Z M 208.9 100.2 C 209.1 102.3 209.4 110.5 209.5 110.5 C 209.5 107.5 209.1 100.8 208.9 100.2 C 208.9 100.2 208.9 100.2 208.9 100.2 Z M 204.8 144.6 C 203.9 147.3 201.9 153.2 201.2 155.1 C 202.4 152.0 204.6 145.6 204.8 144.6 C 204.8 144.6 204.8 144.6 204.8 144.6 Z M 195.4 168.5 C 192.9 174.0 189.8 179.8 190.4 178.8 C 191.3 177.0 195.3 169.2 195.4 168.5 C 195.4 168.5 195.4 168.5 195.4 168.5 Z M 136.2 310.1 C 137.3 303.6 138.4 299.0 139.4 294.8 C 144.7 273.3 136.8 305.8 136.2 310.1 C 136.2 310.1 136.2 310.1 136.2 310.1 Z M 172.9 209.7 C 175.3 205.8 177.1 202.7 178.2 200.8 C 176.0 204.4 172.9 209.4 172.9 209.7 C 172.9 209.7 172.9 209.7 172.9 209.7 Z M 153.3 243.7 C 152.8 244.5 142.7 265.4 138.7 277.6 C 140.4 272.5 143.8 263.6 147.1 256.3 C 150.5 249.0 153.6 243.2 153.3 243.7 C 153.3 243.7 153.3 243.7 153.3 243.7 Z M 151.6 259.7 C 157.6 246.3 169.7 225.7 175.4 216.3 C 181.0 206.9 164.1 232.5 152.6 257.0 C 146.9 269.3 146.9 270.6 147.3 269.8 C 147.6 269.1 148.6 266.5 146.7 271.6 C 142.9 281.9 150.5 261.8 155.4 252.0 C 160.2 242.1 152.2 258.5 151.6 259.7 C 151.6 259.7 151.6 259.7 151.6 259.7 Z M 151.7 260.4 C 149.5 265.3 147.8 269.5 146.8 272.4 C 148.8 267.3 150.9 262.5 151.7 260.4 C 151.7 260.4 151.7 260.4 151.7 260.4 Z M 132.6 384.7 C 132.3 382.5 124.7 371.9 116.5 360.2 C 114.5 357.3 112.4 354.4 110.4 351.4 C 95.0 330.4 80.0 308.8 65.9 287.3 C 63.1 283.0 60.4 278.7 57.6 274.3 C 49.2 260.8 41.2 247.0 34.1 232.7 C 31.8 227.9 29.5 223.1 27.4 218.0 C 19.9 200.3 14.2 182.9 11.1 163.3 C 9.5 153.5 8.8 143.5 8.9 133.3 C 9.0 130.8 9.1 124.0 9.8 117.1 C 10.5 110.2 11.7 103.1 12.4 99.5 C 11.8 103.0 13.1 96.3 15.1 89.1 C 17.2 82.0 20.2 74.6 19.9 75.3 C 21.3 71.8 22.8 68.3 24.6 64.8 C 26.3 61.4 24.0 65.7 21.9 70.1 C 23.7 66.1 25.7 62.3 27.9 58.6 C 30.2 54.6 32.8 50.9 35.7 47.2 C 40.4 41.3 45.9 35.6 52.0 30.7 C 58.0 25.8 65.3 21.2 72.2 17.9 C 81.8 13.4 95.9 9.1 111.0 8.9 C 126.1 8.8 142.0 12.8 154.8 19.3 C 167.6 25.8 177.2 34.6 182.6 40.5 C 188.0 46.4 189.7 49.0 186.7 45.2 C 179.7 36.5 177.4 35.1 178.0 35.6 C 178.6 36.2 181.7 39.2 183.7 41.4 C 186.0 44.0 189.0 47.6 191.9 52.0 C 191.8 51.9 191.5 51.6 191.1 51.0 C 196.8 59.3 203.3 72.3 206.8 87.0 C 206.2 84.2 205.2 80.8 204.9 79.6 C 207.0 86.7 205.5 81.0 206.7 85.8 C 208.4 92.6 209.0 97.9 209.1 99.3 C 209.3 100.8 209.3 98.2 207.7 90.2 C 209.2 97.6 209.9 104.0 210.0 109.7 C 210.2 115.5 210.0 121.2 209.0 127.9 C 208.2 133.0 208.7 130.2 208.8 128.7 C 208.1 133.1 206.5 140.3 204.6 146.5 C 202.7 152.6 200.5 157.9 200.1 158.8 C 199.7 159.6 205.1 146.7 207.7 134.1 C 210.3 121.6 210.1 109.3 210.0 114.6 C 209.8 118.8 208.9 127.5 208.3 130.7 C 209.5 123.5 210.0 114.4 209.9 109.6 C 210.0 114.9 209.4 122.0 208.9 125.9 C 209.5 121.1 209.7 117.7 209.7 116.2 C 209.4 123.4 208.7 128.8 206.8 137.0 C 206.0 140.6 207.8 133.9 205.7 141.6 C 205.4 143.0 207.0 136.5 206.9 137.0 C 205.5 143.3 201.3 155.4 200.2 158.4 C 199.0 161.3 202.9 151.1 203.0 150.9 C 194.9 174.5 178.9 199.9 174.1 207.8 C 169.3 215.8 173.8 208.3 175.9 205.0 C 170.3 214.3 166.0 221.3 159.6 232.5 C 155.5 239.7 157.1 236.8 158.7 234.1 C 157.6 236.0 156.7 237.7 156.1 238.9 C 155.7 239.7 154.5 241.8 153.8 243.2 C 156.2 238.7 160.8 230.5 163.0 226.9 C 159.2 233.5 150.6 249.4 147.9 255.3 C 152.3 245.9 157.7 236.1 163.7 226.0 C 152.1 245.8 141.9 266.8 136.9 284.4 C 137.9 281.3 138.4 279.9 139.3 277.4 C 137.0 284.0 134.3 293.9 133.1 300.0 C 132.4 303.4 131.2 310.0 130.3 316.8 C 131.9 305.0 133.7 297.2 135.8 289.2 C 135.8 289.4 135.6 290.1 135.3 291.5 C 140.0 273.5 144.0 263.6 149.8 251.7 C 150.3 250.8 150.7 249.9 151.2 248.9 C 153.2 245.1 146.6 258.7 146.1 260.1 C 154.0 242.2 165.2 223.8 170.3 215.5 C 158.3 235.6 148.3 253.7 142.2 270.1 C 143.9 265.9 151.0 249.9 155.0 242.5 C 146.0 259.4 142.6 269.2 140.6 275.0 C 138.6 280.8 138.2 282.5 137.7 283.9 C 138.6 281.1 139.5 278.4 140.5 275.5 C 140.3 276.2 140.0 276.9 139.8 277.7 C 134.5 293.5 131.4 312.9 131.6 312.0 C 131.7 311.2 134.0 296.1 138.9 280.7 C 138.5 282.3 138.0 284.0 137.6 285.6 C 132.3 303.7 129.5 325.0 129.5 343.9 C 129.6 340.8 129.5 342.4 129.6 346.4 C 129.6 340.4 129.9 332.0 130.5 325.7 C 130.4 327.8 130.1 331.8 130.1 333.0 C 130.3 329.8 130.7 324.9 130.9 323.3 C 130.1 332.2 129.7 341.8 130.1 351.2 C 130.3 353.1 130.0 347.1 130.1 347.6 C 130.3 356.5 131.5 369.0 132.6 375.5 C 131.5 368.0 130.3 353.4 130.3 348.8 C 130.4 351.7 130.5 354.7 130.8 357.8 C 131.2 363.8 131.5 366.8 131.0 359.9 C 130.7 356.3 130.8 356.3 130.9 357.3 C 131.2 361.4 133.0 375.9 133.0 375.4 C 132.5 371.8 131.0 357.3 130.9 353.7 C 131.2 356.4 131.7 363.8 131.9 364.5 C 130.2 348.5 130.9 349.1 130.8 345.1 C 130.8 346.8 130.9 351.4 130.9 351.3 C 130.5 341.4 130.9 331.5 131.9 321.4 C 131.9 321.4 131.9 321.4 131.9 321.4 C 131.9 321.4 131.9 321.4 131.9 321.4 C 131.9 321.4 131.9 321.4 131.9 321.4 C 131.9 322.3 132.0 322.0 132.2 321.1 C 131.7 325.4 131.3 329.8 131.1 337.9 C 131.3 335.7 131.6 328.4 132.2 321.6 C 132.3 321.7 132.3 321.7 132.3 321.8 C 131.1 332.7 130.9 349.6 132.0 360.9 C 131.6 355.7 131.0 336.7 132.2 323.8 C 132.2 324.3 132.2 324.7 132.2 325.1 C 133.6 308.9 137.6 290.3 143.8 273.2 C 141.0 281.5 137.9 291.2 135.6 302.3 C 134.6 307.4 133.9 312.1 133.3 317.1 C 132.4 324.3 131.2 338.5 131.7 351.6 C 132.2 364.8 134.2 376.6 134.6 379.1 C 135.1 381.7 133.4 372.3 132.5 362.1 C 131.6 351.9 131.7 341.0 131.7 340.9 C 131.8 340.6 132.3 360.8 131.9 351.3 C 131.7 346.3 131.8 335.5 132.4 327.7 C 132.5 327.4 132.6 327.1 132.7 326.9 C 132.1 333.7 132.1 341.8 131.9 342.1 C 131.9 345.5 132.0 352.6 132.2 353.7 C 132.1 352.5 132.0 350.8 132.1 350.8 C 132.1 352.4 132.2 354.8 132.3 355.1 C 131.9 346.8 132.0 335.4 132.8 326.5 C 132.9 325.7 133.0 325.0 133.1 324.2 C 133.1 324.3 132.5 331.3 132.3 337.3 C 132.2 343.7 132.5 330.5 133.7 320.1 C 133.9 318.5 134.1 316.8 134.4 315.1 C 133.9 318.7 133.4 322.9 133.1 327.8 C 132.7 333.6 132.8 333.4 132.7 339.2 C 132.9 328.5 134.3 315.8 136.2 305.7 C 136.9 302.0 137.8 298.4 138.8 294.7 C 136.8 303.0 135.6 310.7 135.0 315.4 C 134.5 319.1 134.1 323.0 134.0 324.4 C 134.3 320.9 133.6 330.1 133.8 328.7 C 134.0 323.7 135.3 313.8 135.8 310.2 C 137.1 302.4 139.0 294.1 141.1 286.7 C 141.4 285.8 141.7 284.9 142.0 283.9 C 140.1 290.1 138.6 296.1 137.3 302.8 C 138.0 299.8 142.5 281.3 147.5 268.5 C 158.0 242.5 174.2 218.0 188.4 193.0 C 189.0 192.0 189.8 190.6 190.8 189.0 C 191.8 187.2 192.8 185.4 193.9 183.5 C 190.6 189.6 187.6 194.9 185.1 199.3 C 195.5 181.8 170.1 224.3 168.6 227.1 C 177.0 213.0 190.2 193.0 200.5 171.2 C 210.7 149.4 216.3 125.4 215.3 105.4 C 215.9 115.0 215.8 118.0 215.5 107.8 C 215.4 105.0 215.2 102.2 214.9 99.1 C 216.2 110.1 215.7 119.6 214.2 129.2 C 212.7 138.8 210.1 147.9 206.9 156.5 C 200.4 173.9 191.5 189.3 183.7 202.7 C 188.4 194.8 194.1 184.7 198.6 175.6 C 203.1 166.6 206.3 158.4 207.7 154.9 C 205.9 159.9 202.8 167.0 202.4 168.0 C 204.3 163.8 208.3 154.4 211.0 144.7 C 213.8 135.0 215.1 124.9 215.5 120.2 C 213.8 143.1 203.8 167.6 191.5 189.5 C 179.3 211.5 166.3 231.5 158.7 246.1 C 170.3 224.2 187.5 199.4 199.9 173.7 C 206.1 160.9 211.0 147.8 213.6 135.0 C 216.2 122.1 216.6 109.8 215.1 97.6 C 216.1 106.0 215.8 105.9 215.4 101.7 C 214.8 94.6 213.3 86.7 211.3 79.7 C 209.3 72.7 206.6 66.0 203.4 59.6 C 202.1 57.0 202.7 57.8 205.6 64.1 C 208.0 69.3 209.1 72.5 209.7 74.3 C 209.1 72.4 204.5 61.0 201.0 54.9 C 199.2 51.8 198.0 49.9 198.4 50.5 C 198.7 51.1 201.0 54.1 204.8 62.1 C 208.6 70.1 212.2 80.2 214.1 90.9 C 216.0 101.6 216.2 111.7 215.8 119.1 C 215.3 126.5 214.3 131.6 214.1 132.7 C 213.9 133.9 214.7 131.3 215.5 122.7 C 217.2 105.5 214.6 91.8 213.3 86.0 C 212.1 80.3 212.7 81.5 214.5 91.8 C 215.4 97.0 216.4 105.1 216.3 113.2 C 216.2 121.4 215.1 129.9 213.5 137.0 C 210.4 151.3 206.6 160.3 209.7 151.0 C 212.8 141.7 216.6 126.9 216.5 110.3 C 216.4 102.1 215.3 92.8 213.4 84.7 C 211.5 76.6 208.8 69.5 206.3 63.9 C 201.1 52.5 202.5 56.6 203.7 59.0 C 204.3 60.3 204.7 61.2 203.9 59.8 C 203.2 58.3 201.4 54.5 196.4 47.2 C 191.4 39.9 188.0 36.6 186.5 34.9 C 184.9 33.3 185.1 33.4 185.8 34.1 C 187.2 35.6 190.9 39.7 188.7 37.2 C 181.8 29.3 167.0 16.7 150.5 9.8 C 138.9 5.0 122.8 2.3 114.6 2.0 C 114.9 2.0 124.7 2.5 132.3 4.1 C 139.9 5.7 145.4 7.4 138.1 5.4 C 120.2 0.6 99.8 1.8 86.6 5.2 C 80.1 7.0 75.3 9.0 73.2 9.9 C 71.1 10.7 71.7 10.4 76.1 8.8 C 64.5 13.2 54.8 19.4 47.8 25.1 C 40.7 30.7 35.3 36.5 30.9 42.1 C 23.9 50.8 17.8 61.4 14.0 70.4 C 10.1 79.5 8.1 86.7 7.7 88.1 C 7.2 89.8 2.7 106.0 1.9 125.8 C 1.0 145.5 4.5 168.4 7.1 180.2 C 7.3 181.1 10.0 192.0 13.7 202.6 C 17.5 213.3 22.1 223.7 22.9 225.3 C 31.1 243.6 35.5 250.9 39.7 258.3 C 43.9 265.6 48.1 272.9 58.7 289.1 C 76.5 316.0 82.8 324.1 86.0 328.6 C 106.1 356.5 106.1 356.2 117.0 369.2 C 120.2 373.1 125.1 379.3 127.0 381.2 C 130.8 385.0 133.0 386.5 132.6 384.7 C 132.6 384.7 132.6 384.7 132.6 384.7 Z M 132.3 316.9 C 131.5 322.9 130.7 333.9 130.5 340.3 C 130.5 333.0 131.2 323.9 132.5 314.8 C 132.4 315.5 132.4 316.2 132.3 316.9 C 132.3 316.9 132.3 316.9 132.3 316.9 Z M 145.1 272.2 C 143.7 276.0 142.0 280.6 140.7 284.9 C 139.5 289.0 138.3 293.3 137.0 299.7 C 137.2 299.1 139.6 288.7 142.2 280.8 C 142.2 280.8 142.2 280.8 142.3 280.8 C 141.1 284.7 139.7 289.3 138.4 294.8 C 137.9 296.6 137.5 298.5 137.1 300.4 C 137.0 300.6 137.6 297.6 137.9 296.5 C 137.4 297.9 136.3 302.8 135.1 309.2 C 135.0 309.9 134.8 310.7 134.7 311.5 C 134.5 312.4 135.2 307.5 134.4 313.0 C 134.9 309.1 136.8 299.3 138.3 293.2 C 137.5 296.6 138.6 291.9 140.5 285.6 C 142.4 279.4 145.2 271.6 146.4 268.6 C 145.9 269.8 145.5 271.0 145.1 272.2 Z M 164.5 224.8 C 166.3 221.6 168.2 218.5 170.1 215.3 C 167.4 219.9 165.2 223.5 163.3 226.8 C 163.7 226.1 164.1 225.4 164.5 224.8 Z M 102.1 9.2 C 112.3 7.9 128.1 9.0 140.9 13.1 C 153.6 17.3 163.2 23.7 164.4 24.4 C 168.0 26.8 171.4 29.5 174.8 32.5 C 164.1 23.1 151.0 16.0 138.1 12.3 C 125.1 8.5 112.3 8.0 102.1 9.2 C 102.1 9.2 102.1 9.2 102.1 9.2 Z M 172.8 23.1 C 174.3 24.2 173.7 23.7 170.1 21.2 C 160.6 14.5 152.1 11.0 147.9 9.4 C 143.8 7.8 144.0 7.8 150.7 10.6 C 156.4 13.0 165.1 17.7 171.1 22.0 C 177.0 26.4 180.6 29.7 177.5 27.1 C 169.4 20.3 160.3 14.7 150.3 10.5 C 142.6 7.3 134.9 5.0 126.7 3.7 C 144.4 6.3 160.2 13.6 172.8 23.1 C 172.8 23.1 172.8 23.1 172.8 23.1 Z M 116.7 2.5 C 123.2 2.8 130.8 3.9 138.2 6.0 C 131.7 4.2 125.1 3.1 118.2 2.6 C 117.7 2.6 117.3 2.6 116.7 2.5 Z M 108.5 2.3 C 121.7 1.8 134.6 4.0 121.5 2.8 C 118.6 2.5 115.6 2.4 112.5 2.3 C 111.2 2.3 109.8 2.3 108.5 2.3 Z M 100.3 2.9 C 100.4 2.9 102.7 2.6 107.1 2.4 C 102.6 2.6 95.8 3.5 90.3 4.7 C 84.8 6.0 80.5 7.4 80.9 7.3 C 86.9 5.3 93.5 3.7 100.3 2.9 C 100.3 2.9 100.3 2.9 100.3 2.9 Z M 88.5 11.8 C 93.9 10.4 98.7 9.3 90.1 11.5 C 86.8 12.3 83.5 13.3 80.1 14.5 C 82.9 13.5 85.6 12.6 88.5 11.8 Z M 173.5 219.8 C 174.8 217.7 179.7 209.5 182.6 204.7 C 182.6 204.0 171.5 222.8 173.5 219.8 C 173.5 219.8 173.5 219.8 173.5 219.8 Z M 156.1 250.9 C 157.1 248.8 161.6 240.4 164.3 235.6 C 164.3 234.9 154.4 253.9 156.1 250.9 C 156.1 250.9 156.1 250.9 156.1 250.9 Z M 7.1 180.3 C 7.1 180.2 7.1 180.2 7.1 180.2 C 7.1 180.2 7.1 180.2 7.1 180.3 C 7.1 180.3 7.1 180.3 7.1 180.3 Z M 7.1 180.3 " fill="#E7A432"></path></g></svg>