<?xml version="1.0" encoding="UTF-8" standalone="no"?><svg xmlns="http://www.w3.org/2000/svg" xmlns:xlink="http://www.w3.org/1999/xlink" clip-rule="evenodd" stroke-miterlimit="10" viewBox="0 0 86 67"><desc>SVG generated by Keynote</desc><defs></defs><g transform="matrix(1.00, 0.00, -0.00, -1.00, 0.0, 67.0)"><g><clipPath id="clip0x6000016b7100"><path d="M 0.0 30.1 L 85.4 30.1 L 85.4 0.4 L 0.0 0.4 Z M 0.0 30.1 "></path></clipPath><g clip-path="url(#clip0x6000016b7100)"><path d="M 14.5 13.8 C 14.2 13.9 13.5 13.7 13.2 13.8 M 14.5 13.8 C 13.8 12.6 12.4 12.6 10.7 12.4 C 8.8 12.3 10.7 13.4 10.5 13.8 C 8.0 14.3 8.0 13.5 8.4 12.3 C 7.4 13.1 4.6 11.7 5.2 13.2 C 9.2 13.2 2.4 13.5 5.7 14.4 C 6.1 14.6 5.1 15.0 4.7 15.0 C 5.8 15.6 3.9 16.3 5.7 16.8 C 6.0 17.7 5.6 17.3 6.8 18.0 C 7.3 18.1 7.1 17.8 7.0 17.6 C 7.2 16.5 8.4 18.2 9.3 17.5 C 10.2 19.0 11.1 17.3 10.3 16.7 C 11.2 16.8 12.2 18.3 13.0 17.3 C 13.5 18.0 15.8 17.5 14.4 16.6 C 13.4 16.1 14.5 15.6 14.7 15.3 C 14.4 15.0 12.9 15.5 12.7 15.2 C 13.2 14.9 15.0 14.4 13.1 14.5 C 13.7 14.0 12.7 13.7 14.5 13.8 C 14.5 13.8 14.5 13.8 14.5 13.8 Z M 7.7 12.9 C 7.7 12.6 8.3 12.9 7.7 12.9 C 7.7 12.9 7.7 12.9 7.7 12.9 Z M 12.3 18.0 C 12.3 17.6 12.9 18.0 12.3 18.0 C 12.3 18.0 12.3 18.0 12.3 18.0 Z M 7.3 17.6 C 7.3 17.2 8.0 17.6 7.3 17.6 C 7.3 17.6 7.3 17.6 7.3 17.6 Z M 9.5 13.2 C 10.5 13.5 8.6 13.7 8.4 13.4 C 8.6 13.4 9.2 12.9 9.5 13.2 C 9.5 13.2 9.5 13.2 9.5 13.2 Z M 9.6 15.4 C 9.7 15.2 10.1 15.2 10.1 15.6 C 9.8 15.7 9.5 15.5 9.6 15.4 C 9.6 15.4 9.6 15.4 9.6 15.4 Z M 4.3 13.8 C 4.4 13.7 4.8 13.6 4.8 14.0 C 4.5 14.1 4.2 14.0 4.3 13.8 C 4.3 13.8 4.3 13.8 4.3 13.8 Z M 10.7 14.2 C 10.9 14.3 11.0 14.6 10.7 14.6 C 10.6 14.5 9.8 14.4 10.7 14.2 C 10.7 14.2 10.7 14.2 10.7 14.2 Z M 12.3 12.9 C 13.2 13.1 11.4 13.7 11.4 13.5 C 11.2 13.2 11.8 12.6 12.3 12.9 C 12.3 12.9 12.3 12.9 12.3 12.9 Z M 11.2 14.7 C 11.9 14.9 10.9 15.0 11.2 14.7 C 11.2 14.7 11.2 14.7 11.2 14.7 Z M 5.0 16.6 C 5.8 16.8 4.7 16.9 5.0 16.6 C 5.0 16.6 5.0 16.6 5.0 16.6 Z M 8.9 17.8 C 9.7 18.0 8.6 18.1 8.9 17.8 C 8.9 17.8 8.9 17.8 8.9 17.8 Z M 7.5 13.9 C 6.2 13.9 7.3 13.0 7.5 13.9 C 7.5 13.9 7.5 13.9 7.5 13.9 Z M 14.4 12.8 C 13.1 12.8 14.2 11.9 14.4 12.8 C 14.4 12.8 14.4 12.8 14.4 12.8 Z M 61.8 13.2 C 63.0 13.0 58.4 11.7 60.2 13.2 C 60.7 14.4 57.5 14.3 58.3 13.2 C 57.4 13.1 57.4 13.0 56.9 13.6 C 56.7 12.7 54.6 12.2 53.8 12.7 C 53.3 13.4 55.3 12.8 54.0 13.6 C 51.3 13.8 54.2 14.5 53.2 15.5 C 53.1 15.5 53.0 15.0 52.8 15.3 C 52.7 16.2 54.2 16.9 53.5 17.6 C 53.9 17.4 55.9 18.5 55.1 17.6 C 54.8 16.7 57.2 18.7 57.0 17.2 C 57.7 17.9 58.4 17.0 59.0 17.8 C 59.5 18.0 59.5 17.2 59.4 17.0 C 59.3 16.3 60.0 18.6 60.8 17.4 C 60.8 17.7 63.0 17.6 61.4 17.0 C 61.8 17.1 64.4 17.5 63.0 16.1 C 61.3 15.5 64.8 14.8 62.8 14.7 C 61.2 14.6 60.9 14.8 62.1 14.1 C 62.4 14.2 64.2 14.1 62.7 13.5 C 62.4 13.7 61.6 13.5 61.8 13.2 C 61.8 13.2 61.8 13.2 61.8 13.2 Z M 62.2 15.1 C 61.3 15.2 62.1 14.6 62.2 15.1 C 62.2 15.1 62.2 15.1 62.2 15.1 Z M 58.9 18.1 C 57.9 18.2 58.8 17.6 58.9 18.1 C 58.9 18.1 58.9 18.1 58.9 18.1 Z M 59.0 12.8 C 58.5 13.3 58.4 11.9 59.0 12.8 C 59.0 12.8 59.0 12.8 59.0 12.8 Z M 60.4 17.0 C 60.3 17.0 60.5 16.8 60.7 16.8 C 60.7 16.8 60.5 17.0 60.4 17.0 C 60.4 17.0 60.4 17.0 60.4 17.0 Z M 57.4 12.8 C 56.1 13.5 57.2 11.8 57.4 12.8 C 57.4 12.8 57.4 12.8 57.4 12.8 Z M 54.7 14.1 C 54.5 15.5 53.3 13.9 54.7 14.1 C 54.7 14.1 54.7 14.1 54.7 14.1 Z M 56.6 17.2 C 56.8 16.9 56.8 17.3 56.6 17.2 C 56.6 17.2 56.6 17.2 56.6 17.2 Z M 62.5 17.4 C 62.8 17.1 62.8 17.5 62.5 17.4 C 62.5 17.4 62.5 17.4 62.5 17.4 Z M 54.9 17.0 C 55.0 16.5 55.4 17.3 54.9 17.0 C 54.9 17.0 54.9 17.0 54.9 17.0 Z M 58.7 13.4 C 60.0 12.3 60.2 15.0 58.7 13.4 C 58.7 13.4 58.7 13.4 58.7 13.4 Z M 61.0 13.3 C 61.8 13.1 60.8 14.0 60.4 13.8 C 60.5 13.7 60.8 13.3 61.0 13.3 C 61.0 13.3 61.0 13.3 61.0 13.3 Z M 57.4 13.5 C 58.3 13.0 58.2 13.8 57.4 13.5 C 57.4 13.5 57.4 13.5 57.4 13.5 Z M 59.6 12.9 C 60.0 13.0 59.2 13.1 59.6 12.9 C 59.6 12.9 59.6 12.9 59.6 12.9 Z M 55.7 12.4 C 56.1 12.5 55.4 12.5 55.7 12.4 C 55.7 12.4 55.7 12.4 55.7 12.4 Z M 62.0 12.7 C 62.4 12.8 61.7 12.9 62.0 12.7 C 62.0 12.7 62.0 12.7 62.0 12.7 Z M 56.1 13.1 C 55.9 13.6 57.2 14.7 55.0 13.8 C 54.6 13.4 55.5 12.7 56.1 13.1 C 56.1 13.1 56.1 13.1 56.1 13.1 Z M 18.2 13.8 C 12.8 12.3 14.1 14.9 13.9 15.4 C 13.2 16.2 13.9 16.6 14.9 17.1 C 16.1 18.8 16.6 15.4 17.4 17.1 C 18.9 19.4 19.1 15.1 19.7 17.5 C 19.5 18.1 21.6 17.6 21.4 17.5 C 22.4 18.6 23.9 16.6 23.9 16.4 C 24.6 16.7 24.7 18.8 26.9 17.2 C 28.5 16.6 29.3 18.8 28.8 17.3 C 30.1 18.9 29.7 16.8 30.9 17.4 C 31.8 18.3 30.9 16.0 32.5 17.7 C 33.1 16.3 31.8 18.6 35.9 17.6 C 33.9 17.5 37.8 16.5 37.0 17.5 C 35.6 18.5 39.0 17.1 40.9 17.7 C 41.4 17.2 43.6 15.9 43.3 17.3 C 45.2 18.9 45.3 16.3 46.1 17.6 C 46.7 18.2 47.0 17.0 47.4 17.1 C 48.1 18.1 48.7 17.4 51.1 17.7 C 56.5 18.2 51.9 15.2 54.0 14.9 C 54.3 14.4 51.4 11.2 52.5 13.6 C 52.1 12.9 47.8 15.4 50.0 12.8 C 48.3 13.9 50.3 11.7 47.0 13.0 C 51.6 14.8 41.8 13.7 46.2 12.8 C 45.5 12.3 43.7 12.4 45.0 12.8 C 45.5 14.5 41.9 12.1 43.7 14.1 C 40.9 13.5 41.6 15.4 40.8 14.1 C 40.2 11.9 41.0 14.7 39.6 14.0 C 36.3 14.0 38.8 11.5 36.8 13.1 C 33.6 12.0 36.1 14.1 35.0 14.4 C 34.7 15.9 31.7 13.2 34.2 13.0 C 32.9 13.8 33.9 12.3 32.5 13.3 C 33.5 14.7 30.5 11.7 31.0 12.9 C 29.7 13.2 30.4 14.1 29.9 14.1 C 28.0 14.1 28.6 12.7 28.2 13.8 C 27.7 14.4 26.8 12.5 26.5 13.0 C 28.6 13.1 24.9 14.5 24.7 13.7 C 25.9 13.6 24.0 11.8 23.3 13.0 C 24.3 16.1 21.5 12.2 20.6 13.3 C 21.5 15.0 16.2 13.5 18.2 12.7 C 18.0 12.8 18.2 13.8 18.2 13.8 M 26.0 13.2 C 27.6 13.4 24.2 13.6 26.0 13.2 M 25.9 12.8 C 26.6 13.4 24.3 12.3 26.0 12.6 C 26.0 12.6 25.8 12.7 25.9 12.8 M 32.8 12.7 C 32.6 13.2 31.8 12.4 32.8 12.7 M 34.1 13.8 C 35.2 14.2 32.6 13.9 34.1 13.8 M 49.3 13.4 C 47.7 16.0 47.7 12.0 49.3 13.4 M 39.2 12.9 C 37.4 13.3 39.9 11.8 39.2 12.9 M 38.7 13.6 C 37.8 14.0 38.5 13.0 38.7 13.6 M 46.4 13.4 C 46.5 13.5 46.5 13.5 46.4 13.4 C 46.4 13.4 46.4 13.4 46.4 13.4 Z M 50.9 13.5 C 50.9 13.5 50.9 13.5 50.9 13.5 C 50.9 13.5 50.9 13.5 50.9 13.5 Z M 42.0 13.7 C 40.6 13.1 44.3 13.5 42.0 13.7 C 42.0 13.7 42.0 13.7 42.0 13.7 Z M 48.7 17.4 C 48.7 17.5 48.7 17.5 48.7 17.4 C 48.7 17.4 48.7 17.4 48.7 17.4 Z M 24.7 14.4 C 24.6 14.4 24.6 14.4 24.7 14.4 C 24.7 14.4 24.7 14.4 24.7 14.4 Z M 19.5 13.4 C 19.6 13.8 18.6 13.2 19.5 13.4 C 19.5 13.4 19.5 13.4 19.5 13.4 Z M 15.4 16.4 C 15.3 16.4 15.3 16.4 15.4 16.4 C 15.4 16.4 15.4 16.4 15.4 16.4 Z M 22.9 15.8 C 22.9 15.8 22.9 15.8 22.9 15.8 C 22.9 15.8 22.9 15.8 22.9 15.8 Z M 23.7 13.8 C 22.8 12.4 25.6 14.2 23.7 13.8 C 23.7 13.8 23.7 13.8 23.7 13.8 Z M 40.3 17.3 C 40.3 16.6 41.5 17.5 40.3 17.3 C 40.3 17.3 40.3 17.3 40.3 17.3 Z M 34.3 14.3 C 34.5 14.0 35.0 14.5 34.3 14.3 C 34.3 14.3 34.3 14.3 34.3 14.3 Z M 31.5 12.4 C 31.7 12.1 32.2 12.6 31.5 12.4 C 31.5 12.4 31.5 12.4 31.5 12.4 Z M 19.6 13.0 C 19.7 13.0 19.7 13.0 19.6 13.0 C 19.6 13.0 19.6 13.0 19.6 13.0 Z M 21.5 14.1 C 20.2 12.8 23.4 14.8 21.5 14.1 C 21.5 14.1 21.5 14.1 21.5 14.1 Z M 19.3 14.5 C 20.0 15.0 17.6 14.3 19.3 14.5 M 20.5 16.5 C 22.1 16.0 19.1 18.9 20.5 16.5 C 20.5 16.5 20.5 16.5 20.5 16.5 Z M 28.4 17.0 C 28.5 17.1 28.5 17.1 28.4 17.0 C 28.4 17.0 28.4 17.0 28.4 17.0 Z M 27.6 13.2 C 29.0 13.2 26.7 13.5 27.6 13.2 C 27.6 13.2 27.6 13.2 27.6 13.2 Z M 15.7 12.9 C 17.1 12.9 14.8 13.2 15.7 12.9 C 15.7 12.9 15.7 12.9 15.7 12.9 Z M 33.0 15.8 C 35.2 15.5 31.6 16.5 33.0 15.8 C 33.0 15.8 33.0 15.8 33.0 15.8 Z M 41.2 14.2 C 41.3 14.3 41.3 14.3 41.2 14.2 C 41.2 14.2 41.2 14.2 41.2 14.2 Z M 42.8 13.7 C 42.8 13.7 42.8 13.7 42.8 13.7 C 42.8 13.7 42.8 13.7 42.8 13.7 Z M 49.1 15.0 C 49.3 15.1 49.3 15.1 49.1 15.0 C 49.1 15.0 49.1 15.0 49.1 15.0 Z M 44.2 13.0 C 44.2 13.1 44.2 13.1 44.2 13.0 C 44.2 13.0 44.2 13.0 44.2 13.0 Z M 48.6 13.4 C 48.7 13.4 48.7 13.4 48.6 13.4 C 48.6 13.4 48.6 13.4 48.6 13.4 Z M 48.0 12.2 C 48.1 12.3 48.1 12.3 48.0 12.2 C 48.0 12.2 48.0 12.2 48.0 12.2 Z M 38.1 18.0 C 38.2 18.1 38.2 18.1 38.1 18.0 C 38.1 18.0 38.1 18.0 38.1 18.0 Z M 22.0 12.6 C 22.2 12.7 22.2 12.7 22.0 12.6 C 22.0 12.6 22.0 12.6 22.0 12.6 Z M 48.2 13.9 C 48.3 13.9 48.3 13.9 48.2 13.9 C 48.2 13.9 48.2 13.9 48.2 13.9 Z M 37.4 14.9 C 37.5 16.1 36.5 13.5 37.7 14.9 C 37.7 15.0 37.4 14.8 37.4 14.9 M 38.9 16.8 C 38.8 16.9 38.8 16.9 38.9 16.8 C 38.9 16.8 38.9 16.8 38.9 16.8 Z M 34.0 17.5 C 33.9 17.6 33.9 17.6 34.0 17.5 C 34.0 17.5 34.0 17.5 34.0 17.5 Z M 43.4 12.8 C 43.2 12.2 44.6 13.3 43.2 12.8 M 49.2 17.0 C 49.0 16.4 50.4 17.5 49.0 17.0 M 14.1 13.3 C 14.0 13.8 13.2 13.0 14.1 13.3 M 32.9 18.1 C 32.7 18.6 32.0 17.8 32.9 18.1 M 35.2 16.7 C 35.0 16.0 36.4 17.2 35.0 16.7 M 45.8 17.0 C 45.9 17.0 45.9 17.0 45.8 17.0 C 45.8 17.0 45.8 17.0 45.8 17.0 Z M 29.7 13.3 C 29.7 13.3 29.7 13.3 29.7 13.3 C 29.7 13.3 29.7 13.3 29.7 13.3 Z M 35.7 14.6 C 34.8 13.8 36.7 15.2 35.7 14.6 M 27.9 14.8 C 26.8 13.7 29.8 15.2 27.9 14.8 M 51.7 17.3 C 50.4 16.0 52.7 18.0 51.7 17.3 M 45.2 14.0 C 43.8 12.7 46.1 14.7 45.2 14.0 M 30.9 13.9 C 30.8 13.2 32.2 14.3 30.9 13.9 M 17.2 13.2 C 16.0 13.1 18.9 12.7 17.2 13.2 M 42.6 17.0 C 42.7 17.1 42.7 17.1 42.6 17.0 C 42.6 17.0 42.6 17.0 42.6 17.0 Z M 21.4 18.1 C 21.4 18.2 21.4 18.2 21.4 18.1 C 21.4 18.1 21.4 18.1 21.4 18.1 Z M 53.4 13.0 C 53.5 13.1 53.5 13.1 53.4 13.0 C 53.4 13.0 53.4 13.0 53.4 13.0 Z M 44.4 14.6 C 44.4 14.7 44.4 14.7 44.4 14.6 C 44.4 14.6 44.4 14.6 44.4 14.6 Z M 50.9 12.8 C 51.0 12.9 51.0 12.9 50.9 12.8 C 50.9 12.8 50.9 12.8 50.9 12.8 Z M 40.2 15.6 C 40.3 15.7 40.3 15.7 40.2 15.6 C 40.2 15.6 40.2 15.6 40.2 15.6 Z M 39.4 12.3 C 39.4 12.4 39.4 12.4 39.4 12.3 C 39.4 12.3 39.4 12.3 39.4 12.3 Z M 34.9 13.7 C 34.9 13.8 34.9 13.8 34.9 13.7 C 34.9 13.7 34.9 13.7 34.9 13.7 Z M 41.5 12.6 C 44.2 12.4 40.1 13.7 41.5 12.6 C 41.5 12.6 41.5 12.6 41.5 12.6 Z M 36.8 15.9 C 36.8 15.9 36.8 15.9 36.8 15.9 C 36.8 15.9 36.8 15.9 36.8 15.9 Z M 36.4 13.6 C 38.1 12.6 37.3 15.2 36.4 13.6 M 28.9 12.8 C 29.4 12.3 29.1 13.6 28.9 12.8 M 25.9 17.1 C 25.9 17.2 25.9 17.2 25.9 17.1 C 25.9 17.1 25.9 17.1 25.9 17.1 Z M 26.7 16.8 C 26.8 16.8 26.8 16.8 26.7 16.8 C 26.7 16.8 26.7 16.8 26.7 16.8 Z M 27.1 12.6 C 27.1 12.6 27.1 12.6 27.1 12.6 C 27.1 12.6 27.1 12.6 27.1 12.6 Z M 26.8 18.0 C 26.9 18.0 26.9 18.0 26.8 18.0 C 26.8 18.0 26.8 18.0 26.8 18.0 Z M 38.4 12.4 C 38.4 12.4 38.4 12.4 38.4 12.4 C 38.4 12.4 38.4 12.4 38.4 12.4 Z M 52.2 12.4 C 52.2 12.4 52.2 12.4 52.2 12.4 C 52.2 12.4 52.2 12.4 52.2 12.4 Z M 17.6 16.7 C 17.7 16.7 17.7 16.7 17.6 16.7 C 17.6 16.7 17.6 16.7 17.6 16.7 Z M 39.8 13.7 C 39.9 13.8 39.9 13.8 39.8 13.7 C 39.8 13.7 39.8 13.7 39.8 13.7 Z M 23.9 16.9 C 24.0 17.0 24.0 17.0 23.9 16.9 C 23.9 16.9 23.9 16.9 23.9 16.9 Z M 38.9 13.5 C 38.9 13.5 38.9 13.5 38.9 13.5 C 38.9 13.5 38.9 13.5 38.9 13.5 Z M 42.2 17.3 C 42.2 17.3 42.2 17.3 42.2 17.3 C 42.2 17.3 42.2 17.3 42.2 17.3 Z M 45.1 18.0 C 45.2 18.0 45.2 18.0 45.1 18.0 C 45.1 18.0 45.1 18.0 45.1 18.0 Z M 42.0 15.0 C 42.0 15.0 42.0 15.0 42.0 15.0 C 42.0 15.0 42.0 15.0 42.0 15.0 Z M 23.0 15.5 C 17.5 14.4 27.3 15.0 23.0 15.5 M 42.9 15.3 C 39.1 15.0 45.9 14.0 42.9 15.3 C 43.3 14.9 42.9 15.2 42.9 15.3 " fill="#85878C"></path><path d="M 62.2 28.5 C 62.1 29.0 60.5 29.6 61.6 28.5 C 61.7 28.5 62.3 28.3 62.2 28.5 Z M 64.6 27.1 C 64.5 27.2 64.3 27.3 64.1 27.2 C 63.6 26.9 65.3 26.7 64.6 27.1 Z M 60.8 28.7 C 60.8 28.8 60.0 29.3 60.1 29.0 C 60.1 28.8 60.8 28.6 60.8 28.7 Z M 66.2 24.9 C 66.3 25.1 65.5 25.5 65.3 25.5 C 64.8 25.5 66.0 24.4 66.2 24.9 Z M 59.7 20.8 C 59.7 20.7 59.7 20.7 59.6 20.6 C 59.7 20.7 59.7 20.8 59.7 20.8 Z M 77.7 18.7 C 77.6 18.8 77.1 18.8 77.1 18.6 C 77.1 18.4 78.1 18.4 77.7 18.7 Z M 59.2 5.0 C 59.2 5.0 59.0 5.4 58.9 5.2 C 58.8 5.1 59.0 4.9 59.2 5.0 Z M 58.9 5.0 C 58.7 5.1 58.6 4.8 58.8 4.8 C 59.0 4.9 59.1 5.0 58.9 5.0 Z M 71.7 8.4 C 71.8 8.4 71.9 8.4 71.8 8.5 C 71.6 8.5 71.5 8.3 71.7 8.4 Z M 71.2 8.5 C 71.0 8.6 70.9 8.2 71.1 8.2 C 71.4 8.3 71.4 8.3 71.2 8.5 Z M 69.5 6.0 C 69.6 6.0 69.7 6.0 69.5 6.1 C 69.4 6.1 69.3 5.9 69.5 6.0 Z M 58.5 11.5 C 58.4 11.4 58.6 10.9 58.8 11.0 C 59.0 11.0 58.7 11.7 58.5 11.5 Z M 58.4 10.9 C 58.2 10.9 58.2 10.6 58.4 10.7 C 58.5 10.7 58.6 10.8 58.4 10.9 Z M 58.8 12.9 C 59.0 12.9 59.1 13.5 59.0 13.6 C 58.9 13.7 58.9 13.9 58.8 14.1 C 58.7 14.2 58.4 12.9 58.8 12.9 Z M 59.1 17.1 C 59.0 17.1 58.9 17.1 59.0 16.9 C 59.1 16.7 59.2 17.1 59.1 17.1 Z M 58.9 14.7 C 58.8 14.7 58.7 14.7 58.8 14.5 C 58.9 14.3 59.0 14.7 58.9 14.7 Z M 71.0 22.7 C 71.2 22.8 70.5 23.0 70.4 23.0 C 70.4 23.0 70.6 22.9 70.4 22.9 C 70.2 22.9 70.3 22.3 71.0 22.7 Z M 65.9 26.2 C 65.8 26.3 65.7 26.2 65.7 26.1 C 65.7 26.1 66.2 25.9 65.9 26.2 Z M 69.8 22.5 C 69.9 22.5 69.7 22.6 69.7 22.5 C 69.6 22.5 69.8 22.4 69.8 22.5 Z M 70.2 22.1 C 70.0 22.2 69.6 22.2 69.6 22.0 C 69.6 21.7 70.6 21.7 70.2 22.1 Z M 71.9 22.5 C 71.7 22.6 71.7 22.6 71.8 22.5 C 71.8 22.3 71.9 22.5 71.9 22.5 Z M 69.0 24.6 C 68.8 24.7 68.8 24.7 68.9 24.6 C 68.9 24.4 69.0 24.6 69.0 24.6 Z M 73.1 21.3 C 73.1 21.3 72.8 21.7 72.5 21.4 C 72.1 21.0 73.1 21.2 73.1 21.3 Z M 75.0 19.5 C 74.8 19.6 74.8 19.4 75.0 19.4 C 75.1 19.3 75.1 19.5 75.0 19.5 Z M 75.3 18.3 C 75.6 18.3 75.9 18.3 75.5 18.5 C 75.1 18.7 75.0 18.4 75.3 18.3 Z M 75.0 18.7 C 75.0 18.7 75.1 18.6 75.2 18.6 C 75.2 18.7 75.1 18.8 75.0 18.7 Z M 73.5 20.3 C 73.4 20.6 73.1 20.5 73.3 20.2 C 73.6 20.0 73.6 20.1 73.5 20.3 Z M 58.6 23.0 C 58.6 23.2 58.4 23.1 58.3 23.0 C 58.2 22.9 58.5 22.8 58.6 23.0 Z M 59.5 13.9 C 59.4 14.0 59.4 13.9 59.4 13.7 C 59.5 13.4 59.7 13.8 59.5 13.9 Z M 60.0 8.1 C 59.9 8.3 59.8 8.1 59.9 7.9 C 60.0 7.7 60.1 8.0 60.0 8.1 Z M 59.5 16.2 C 59.4 16.3 59.0 15.7 59.4 15.3 C 59.8 15.0 59.9 16.0 59.5 16.2 Z M 64.1 21.9 C 64.2 22.0 64.0 22.0 64.0 22.0 C 64.0 21.8 64.0 21.8 64.1 21.9 Z M 60.2 14.9 C 60.3 15.0 60.0 15.0 59.9 14.9 C 59.8 14.8 60.1 14.7 60.2 14.9 Z M 59.7 9.2 C 59.5 9.4 59.2 9.3 59.1 9.1 C 58.7 8.6 59.1 8.3 59.4 8.0 C 59.6 7.7 59.7 9.0 59.7 9.2 Z M 59.4 24.4 C 59.5 24.3 59.5 24.1 59.6 24.0 C 59.4 24.0 59.5 23.9 59.6 23.8 C 59.5 23.2 59.0 22.8 58.8 22.5 C 58.5 21.6 59.6 21.3 59.7 20.8 C 59.7 21.0 59.7 21.1 59.8 21.2 C 60.1 21.4 59.9 19.4 59.9 19.2 C 59.7 17.5 59.4 19.6 58.8 19.6 C 58.5 19.6 59.2 18.4 59.2 18.3 C 59.5 17.8 58.9 17.7 59.1 17.2 C 59.3 17.0 60.6 16.4 60.4 16.2 C 60.2 16.0 60.4 15.5 60.4 15.3 C 60.4 15.0 60.3 14.4 59.9 14.7 C 59.5 14.9 59.2 15.0 59.5 14.6 C 59.7 14.3 60.5 12.2 59.6 12.3 C 59.5 12.3 59.2 12.8 59.2 12.8 C 59.0 12.2 59.3 10.5 58.9 10.1 C 58.0 9.2 59.4 10.4 59.7 9.9 C 60.1 9.2 60.4 8.7 60.3 7.7 C 60.2 7.5 60.2 6.6 59.7 7.0 C 59.3 7.4 59.1 7.1 59.0 7.7 C 58.5 7.0 59.4 6.6 59.2 6.5 C 59.0 6.3 58.8 6.7 58.8 6.2 C 58.9 5.6 58.8 5.9 59.3 5.8 C 59.4 5.7 59.5 5.2 59.5 5.2 C 59.6 5.2 59.6 5.2 59.6 5.2 C 59.6 4.8 58.7 4.1 58.9 3.9 C 59.1 3.8 59.7 4.1 59.9 4.1 C 59.9 4.0 59.9 4.0 59.9 4.0 C 59.8 3.7 59.5 3.3 59.6 3.2 C 59.6 3.1 60.5 3.5 60.3 3.3 C 60.0 3.0 60.3 2.0 60.6 2.0 C 60.8 1.9 62.0 1.6 62.1 1.4 C 62.1 1.3 62.7 1.6 62.9 1.7 C 63.0 1.8 63.2 2.2 63.2 2.3 C 63.2 2.4 63.7 2.6 63.7 2.6 C 63.7 2.6 64.0 2.6 64.3 2.8 C 64.6 3.0 64.7 3.3 65.1 3.7 C 65.5 4.1 65.8 3.9 66.2 4.1 C 66.6 4.3 66.6 5.1 66.9 5.4 C 67.2 5.7 67.5 5.2 67.9 5.4 C 68.4 5.6 68.5 5.9 68.4 5.9 C 68.2 5.9 68.2 6.1 68.3 6.2 C 68.5 6.2 68.9 6.7 69.1 6.7 C 69.3 6.7 68.3 5.5 69.9 6.6 C 70.7 7.1 70.9 7.9 70.7 7.8 C 70.1 7.5 70.9 9.0 71.0 8.8 C 71.2 8.5 72.5 9.4 72.5 8.8 C 72.4 8.6 73.9 9.2 74.0 9.4 C 74.2 9.6 74.9 9.9 74.8 10.4 C 74.8 10.7 75.9 10.6 76.1 10.7 C 76.2 10.8 77.3 11.5 77.4 11.8 C 77.6 12.0 77.1 11.7 76.8 11.6 C 76.6 11.4 76.4 11.0 76.2 10.9 C 75.9 10.9 76.2 11.3 76.5 11.5 C 76.7 11.7 76.7 11.9 76.9 12.2 C 77.0 12.2 77.2 12.3 77.4 12.5 C 77.5 12.5 77.6 12.5 77.6 12.4 C 77.7 12.3 77.6 12.1 77.7 12.1 C 77.8 12.0 78.0 12.0 78.3 12.2 C 78.7 12.4 78.9 12.6 79.3 13.0 C 79.6 13.4 79.8 13.4 80.2 13.5 C 80.5 13.7 80.7 13.9 80.7 14.0 C 80.6 14.1 80.2 13.9 80.1 14.0 C 80.1 14.0 80.3 14.5 80.5 14.6 C 81.3 15.2 80.2 15.5 81.0 16.1 C 81.4 16.4 80.7 16.4 80.3 16.5 C 80.4 16.6 80.4 16.7 80.0 16.9 C 80.1 17.1 79.5 17.3 79.3 17.4 C 79.1 17.6 78.2 18.4 78.7 17.7 C 78.7 17.7 78.7 17.6 78.8 17.6 C 78.8 17.6 78.7 17.6 78.7 17.6 C 78.7 17.6 78.8 17.0 78.8 17.0 C 78.8 17.0 78.7 17.6 78.7 17.6 C 78.5 17.5 78.3 17.4 78.2 17.3 C 78.1 17.4 78.1 17.5 78.1 17.5 C 78.1 17.6 78.1 17.6 78.1 17.6 C 78.1 17.6 78.1 17.6 78.1 17.6 C 78.2 17.8 78.1 17.8 78.0 17.8 C 77.7 18.2 76.7 18.4 76.3 18.5 C 76.7 17.1 75.1 18.1 74.6 18.5 C 74.2 19.0 74.8 20.0 75.1 19.9 C 74.7 20.1 74.5 20.0 74.2 19.8 C 74.3 19.8 73.4 19.4 73.5 19.4 C 72.4 19.6 73.1 20.3 72.9 20.6 C 72.8 20.8 72.5 21.0 72.2 21.3 C 72.0 21.5 72.4 21.5 72.3 21.7 C 72.3 22.3 71.1 21.9 70.8 22.0 C 71.0 21.8 71.3 21.6 71.4 21.3 C 71.2 21.7 70.7 21.3 70.5 21.3 C 70.2 21.4 69.9 21.7 69.6 21.9 C 69.1 22.2 68.6 22.6 68.2 23.0 C 68.4 23.0 69.5 23.1 69.5 23.1 C 69.4 23.2 68.8 23.3 69.2 23.6 C 69.9 24.1 68.4 24.5 68.2 24.6 C 67.5 24.9 67.2 26.0 66.1 25.7 C 66.1 25.7 67.0 24.9 66.9 24.8 C 66.3 24.4 65.9 24.2 65.2 24.8 C 65.1 24.9 64.4 25.9 64.5 26.0 C 64.4 25.9 66.2 26.7 65.1 26.7 C 64.9 26.7 65.1 26.3 64.8 26.3 C 64.4 26.4 64.1 26.7 63.7 26.9 C 63.7 26.9 63.0 27.0 63.0 27.1 C 63.0 27.3 63.1 27.6 63.0 27.8 C 62.9 28.0 62.5 28.0 62.4 27.8 C 62.4 27.8 62.4 27.8 62.4 27.8 C 62.3 27.8 62.2 27.8 62.2 27.6 C 62.1 27.7 62.0 27.8 61.8 27.7 C 61.7 27.7 61.9 27.5 62.1 27.5 C 62.1 27.4 62.1 27.4 62.0 27.3 C 61.8 27.5 61.5 27.7 61.5 27.7 C 61.2 28.3 61.4 28.5 60.4 28.4 C 59.6 28.3 59.1 26.4 59.3 25.2 C 59.3 25.0 59.3 24.8 59.4 24.4 Z M 77.7 13.1 C 77.7 13.1 77.7 13.0 77.6 13.0 C 77.6 13.1 77.5 13.2 77.5 13.3 C 77.7 13.5 77.5 13.1 77.8 13.3 C 78.0 13.5 78.0 13.4 77.7 13.1 Z M 77.5 15.7 C 77.7 15.7 77.7 15.6 77.6 15.5 C 77.6 15.6 77.5 15.6 77.5 15.7 Z M 78.1 16.8 C 78.3 16.5 77.6 16.4 77.1 16.8 C 77.6 16.8 77.9 16.8 78.1 16.8 Z M 77.6 17.7 C 77.5 17.6 77.5 17.5 77.5 17.5 C 77.5 17.3 77.2 17.7 77.2 17.5 C 77.2 17.4 77.4 17.1 77.1 17.1 C 77.1 17.1 77.0 17.1 76.9 17.1 C 76.9 17.2 76.9 17.2 76.9 17.3 C 76.8 17.5 77.3 17.8 77.6 17.7 Z M 75.8 13.0 C 76.0 13.0 75.9 12.9 75.8 12.8 C 75.6 12.8 75.6 12.9 75.8 13.0 Z M 74.5 10.9 C 74.6 11.1 74.8 11.2 74.7 10.9 C 74.7 10.7 74.4 10.7 74.5 10.9 Z M 71.7 13.9 C 71.8 13.9 71.7 13.8 71.6 13.8 C 71.4 13.7 71.5 13.9 71.7 13.9 Z M 71.5 16.0 C 71.4 16.2 71.6 16.4 71.7 16.2 C 71.7 16.1 71.6 15.9 71.5 16.0 Z M 71.8 11.2 C 71.6 11.1 71.6 11.3 71.8 11.3 C 72.0 11.3 71.9 11.2 71.8 11.2 Z M 72.2 14.1 C 72.1 13.8 72.0 13.9 71.9 13.9 C 71.8 14.0 71.9 14.2 72.1 14.3 C 72.3 14.4 72.4 14.3 72.2 14.1 Z M 72.4 15.8 C 71.9 16.1 72.0 16.4 72.6 15.9 C 73.1 15.5 72.7 15.7 72.4 15.8 Z M 73.4 9.5 C 73.4 9.5 73.8 9.6 73.8 9.6 C 73.8 9.6 73.1 9.1 73.4 9.5 Z M 72.2 20.7 C 72.4 20.6 72.4 20.3 72.1 20.5 C 71.8 20.6 72.0 20.8 72.2 20.7 Z M 71.2 19.8 C 71.6 20.1 72.0 20.0 72.0 20.0 C 71.9 20.0 71.8 19.6 71.9 19.5 C 72.2 19.2 72.8 19.3 73.0 18.9 C 73.2 18.4 72.4 18.8 72.3 18.9 C 72.4 18.8 72.4 18.7 72.4 18.6 C 72.2 18.5 72.1 18.5 72.0 18.7 C 71.9 18.9 70.7 19.5 71.2 19.8 Z M 71.2 14.7 C 71.4 14.8 71.6 14.7 71.5 14.4 C 71.3 14.2 71.1 14.1 71.0 14.1 C 70.9 14.2 71.0 14.6 71.2 14.7 Z M 71.0 13.1 C 71.2 13.0 71.2 13.0 71.0 12.9 C 70.6 12.8 70.8 13.2 71.0 13.1 Z M 68.1 6.4 C 67.9 6.4 68.2 6.6 68.2 6.5 C 68.3 6.4 68.2 6.3 68.1 6.4 Z M 68.2 9.0 C 67.7 8.9 68.0 9.3 68.1 9.3 C 68.3 9.3 68.4 9.1 68.2 9.0 Z M 69.7 10.6 C 69.5 10.5 69.7 10.8 69.8 10.8 C 70.0 10.7 69.8 10.6 69.7 10.6 Z M 69.9 11.6 C 69.7 11.5 69.8 11.8 70.0 11.8 C 70.1 11.8 70.1 11.7 69.9 11.6 Z M 69.1 20.3 C 69.1 20.3 69.0 19.9 68.8 20.2 C 68.6 20.5 68.6 20.5 69.1 20.3 Z M 69.8 17.2 C 70.1 17.0 70.3 16.8 70.0 15.9 C 69.7 15.0 69.6 15.4 69.4 15.9 C 69.3 16.4 68.9 15.0 68.7 16.0 C 68.6 16.4 69.6 17.4 69.8 17.2 Z M 68.3 11.7 C 68.6 12.2 69.4 12.1 69.0 11.8 C 68.5 11.4 68.1 11.3 68.3 11.7 Z M 68.3 11.3 C 68.4 11.4 68.4 11.3 68.2 11.2 C 68.0 11.1 68.1 11.3 68.3 11.3 Z M 68.7 24.0 C 69.5 23.3 68.2 23.3 68.2 23.3 C 67.1 23.6 67.9 24.8 68.7 24.0 Z M 60.1 5.7 C 60.1 5.8 60.1 5.8 60.1 5.8 C 60.1 5.8 60.1 5.9 60.1 5.9 C 60.2 6.0 60.4 5.7 60.4 5.7 C 60.3 5.6 60.2 5.6 60.1 5.7 Z M 59.8 11.2 C 59.9 11.0 59.8 10.8 59.7 10.7 C 59.2 10.8 59.2 12.4 60.0 11.8 C 60.2 11.7 60.9 10.6 60.5 10.5 C 60.2 10.5 59.8 11.8 59.8 11.2 Z M 60.5 9.5 C 60.5 10.1 61.2 8.9 60.8 9.1 C 60.7 9.2 60.5 9.3 60.5 9.5 Z M 62.1 4.6 C 61.7 3.7 60.4 3.9 61.1 5.3 C 61.8 6.7 62.3 6.7 62.1 6.0 C 61.9 5.3 62.6 5.9 62.1 4.6 Z M 62.0 11.8 C 61.1 11.6 61.4 12.0 62.1 12.3 C 62.2 12.3 62.6 11.9 62.0 11.8 Z M 62.2 13.8 C 62.1 14.0 62.1 14.0 62.3 13.9 C 62.5 13.7 62.3 13.5 62.2 13.8 Z M 63.4 3.2 C 63.2 2.9 62.8 2.6 63.1 2.6 C 63.3 2.6 63.2 2.6 63.0 2.4 C 62.8 2.1 62.8 2.6 62.8 2.8 C 62.9 3.0 63.5 3.5 63.4 3.2 Z M 66.5 10.9 C 66.4 10.8 66.5 11.0 66.6 11.0 C 66.7 11.0 66.7 10.9 66.5 10.9 Z M 67.6 18.4 C 67.6 18.4 67.5 18.2 67.4 18.4 C 67.3 18.6 67.3 18.6 67.6 18.4 Z M 67.2 24.5 C 67.4 24.3 67.0 24.3 67.0 24.0 C 67.0 23.9 67.2 24.0 67.2 24.1 C 67.2 24.0 67.1 23.3 66.8 23.8 C 66.7 24.0 66.8 24.9 67.2 24.5 Z M 66.3 13.0 C 66.6 13.3 66.8 12.0 67.1 12.2 C 67.3 12.4 67.3 12.3 67.1 12.0 C 66.8 11.7 66.0 12.6 66.3 13.0 Z M 66.1 9.7 C 66.1 9.9 66.8 10.5 66.6 10.1 C 66.5 9.8 66.1 9.6 66.3 9.6 C 66.5 9.6 66.4 9.5 66.3 9.3 C 66.1 9.1 66.1 9.5 66.1 9.7 Z M 65.9 4.4 C 65.9 4.5 66.3 4.7 66.2 4.4 C 66.1 4.2 65.8 4.2 65.9 4.4 Z M 65.5 19.3 C 65.6 19.1 65.6 19.0 65.3 19.2 C 65.1 19.4 65.4 19.5 65.5 19.3 Z M 65.0 4.8 C 65.3 5.2 65.0 4.6 65.3 4.8 C 65.5 5.1 65.6 4.9 65.3 4.6 C 65.0 4.4 64.7 4.5 65.0 4.8 Z M 64.7 24.2 C 64.7 24.1 64.6 23.9 64.5 24.0 C 64.4 24.1 64.7 24.3 64.7 24.2 Z M 63.9 22.2 C 64.0 22.2 64.1 22.1 64.2 22.1 C 65.5 21.2 63.1 21.9 63.9 22.2 Z M 64.1 19.1 C 64.2 19.5 64.4 19.0 64.4 19.0 C 64.3 18.9 64.2 19.0 64.1 19.1 Z M 64.1 15.7 C 63.9 15.6 64.0 16.0 64.1 15.9 C 64.3 15.9 64.2 15.8 64.1 15.7 Z M 63.5 26.7 C 63.7 26.6 63.6 26.5 63.5 26.5 C 63.4 26.5 63.3 26.7 63.5 26.7 Z M 63.4 18.2 C 63.4 18.3 63.5 18.2 63.4 18.1 C 63.4 17.9 63.3 18.1 63.4 18.2 Z M 63.3 7.9 C 63.4 7.9 63.5 8.0 63.6 8.1 C 63.7 8.0 63.8 7.4 64.0 7.4 C 64.0 7.4 64.1 7.4 64.1 7.4 C 64.1 7.4 64.1 7.4 64.1 7.4 C 64.2 7.4 64.3 7.5 64.2 7.5 C 64.3 7.6 64.3 7.7 64.3 7.9 C 64.5 7.7 64.7 7.4 64.5 7.2 C 64.3 7.0 63.9 7.0 63.5 7.0 C 63.4 7.1 63.4 7.3 63.3 7.4 C 63.3 7.4 63.4 7.4 63.4 7.4 C 63.6 7.6 63.7 7.7 63.5 7.7 C 63.4 7.7 63.3 7.7 63.3 7.6 C 63.3 7.7 63.3 7.8 63.3 7.9 Z M 62.9 16.9 C 63.0 17.2 63.1 17.0 63.2 16.6 C 63.3 16.4 62.7 16.6 62.9 16.9 Z M 63.2 26.3 C 63.1 26.2 63.1 26.1 63.0 26.0 C 63.0 26.1 63.0 26.1 63.0 26.2 C 62.9 26.4 62.9 26.5 62.9 26.7 C 63.1 26.7 63.2 26.6 63.2 26.3 Z M 62.2 23.3 C 62.2 23.4 62.2 24.6 62.4 24.4 C 62.9 24.1 63.3 24.6 63.1 23.7 C 63.0 23.3 62.4 22.9 62.3 22.5 C 61.8 20.3 61.7 23.1 61.6 23.6 C 61.6 23.8 62.1 23.2 62.2 23.3 Z M 61.5 20.4 C 61.3 20.3 61.1 20.7 61.1 20.8 C 61.2 21.4 61.8 20.6 61.5 20.4 Z M 61.2 26.6 C 61.2 26.6 61.3 26.6 61.3 26.5 C 61.3 26.5 61.2 26.5 61.2 26.5 C 61.2 26.5 61.2 26.5 61.2 26.6 Z M 61.0 28.1 C 61.6 27.5 60.4 27.6 60.2 27.7 C 59.7 27.9 60.6 28.4 61.0 28.1 Z M 60.5 22.1 C 60.5 21.7 59.2 21.1 59.3 21.9 C 59.4 22.6 60.4 23.0 60.5 22.1 Z M 58.9 17.5 C 59.0 17.7 58.8 18.1 58.6 17.9 C 58.5 17.8 58.8 17.4 58.9 17.5 Z M 58.2 24.3 C 58.2 24.2 58.3 24.3 58.3 24.3 C 58.1 24.4 58.1 24.4 58.2 24.3 Z M 59.1 23.7 C 59.0 23.9 59.0 24.1 58.9 24.3 C 58.8 24.5 58.7 24.0 58.7 24.0 C 58.8 23.8 59.1 23.7 59.1 23.7 Z M 59.2 20.0 C 59.1 20.2 59.1 19.9 59.1 19.8 C 59.1 19.7 59.3 19.9 59.2 20.0 Z M 58.9 20.9 C 58.9 20.8 59.1 20.9 59.1 21.0 C 59.0 21.2 58.9 21.0 58.9 20.9 Z M 59.6 19.4 C 59.8 19.8 59.8 20.3 59.5 20.3 C 59.3 20.2 59.4 18.6 59.6 19.4 Z M 59.6 19.4 " fill="#85878C"></path></g></g><g><clipPath id="clip0x6000016b7640"><path d="M -2.3 17.8 L 83.8 17.8 L 83.8 68.8 L -2.3 68.8 Z M -2.3 17.8 "></path></clipPath><g clip-path="url(#clip0x6000016b7640)"><text xml:space="preserve" font-family="Helvetica-Bold,Helvetica" font-weight="bold" font-size="30.0" fill="#FF9200" transform="matrix(1.00, 0.00, -0.00, -1.00, 5.7, 32.2)">[</text><text xml:space="preserve" font-family="Helvetica-Bold,Helvetica" font-weight="bold" font-size="30.0" fill="#FF9200" transform="matrix(1.00, 0.00, -0.00, -1.00, 15.7, 32.2)">1</text><text xml:space="preserve" font-family="Helvetica-Bold,Helvetica" font-weight="bold" font-size="30.0" fill="#FF9200" transform="matrix(1.00, 0.00, -0.00, -1.00, 32.4, 32.2)">0</text><text xml:space="preserve" font-family="Helvetica-Bold,Helvetica" font-weight="bold" font-size="30.0" fill="#FF9200" transform="matrix(1.00, 0.00, -0.00, -1.00, 49.1, 32.2)">1</text><text xml:space="preserve" font-family="Helvetica-Bold,Helvetica" font-weight="bold" font-size="30.0" fill="#FF9200" transform="matrix(1.00, 0.00, -0.00, -1.00, 65.8, 32.2)">]</text></g></g></g></svg>