<?xml version="1.0" encoding="UTF-8" standalone="no"?><svg xmlns="http://www.w3.org/2000/svg" xmlns:xlink="http://www.w3.org/1999/xlink" clip-rule="evenodd" stroke-miterlimit="10" viewBox="0 0 143 54"><desc>SVG generated by Keynote</desc><defs></defs><g transform="matrix(1.00, 0.00, -0.00, -1.00, 0.0, 54.0)"><g><clipPath id="clip0x6080016b6740"><path d="M -3.7 -3.2 L 61.3 -3.2 L 61.3 57.8 L -3.7 57.8 Z M -3.7 -3.2 "></path></clipPath><g clip-path="url(#clip0x6080016b6740)"><text xml:space="preserve" font-family="Helvetica-Light,Helvetica" font-size="36.0" fill="#FEFFFF" transform="matrix(1.00, 0.00, -0.00, -1.00, 5.8, 14.0)">H</text><text xml:space="preserve" font-family="Helvetica-Light,Helvetica" font-size="36.0" fill="#FEFFFF" transform="matrix(1.00, 0.00, -0.00, -1.00, 31.8, 14.0)">i</text><text xml:space="preserve" font-family="Helvetica-Light,Helvetica" font-size="36.0" fill="#FEFFFF" transform="matrix(1.00, 0.00, -0.00, -1.00, 39.8, 14.0)">!</text></g></g><g><clipPath id="clip0x6080016b6020"><path d="M 57.2 37.1 L 142.5 37.1 L 142.5 7.4 L 57.2 7.4 Z M 57.2 37.1 "></path></clipPath><g clip-path="url(#clip0x6080016b6020)"><path d="M 71.6 20.8 C 71.3 20.9 70.6 20.7 70.4 20.8 M 71.6 20.8 C 70.9 19.6 69.6 19.6 67.8 19.4 C 65.9 19.3 67.9 20.4 67.6 20.8 C 65.2 21.3 65.2 20.5 65.5 19.3 C 64.6 20.1 61.7 18.7 62.3 20.2 C 66.3 20.2 59.5 20.5 62.8 21.4 C 63.2 21.6 62.2 22.0 61.9 22.0 C 63.0 22.6 61.1 23.3 62.9 23.8 C 63.1 24.7 62.8 24.3 63.9 25.0 C 64.4 25.1 64.2 24.8 64.2 24.6 C 64.3 23.5 65.5 25.2 66.5 24.5 C 67.3 26.0 68.2 24.3 67.5 23.7 C 68.3 23.8 69.3 25.3 70.2 24.3 C 70.6 25.0 72.9 24.5 71.6 23.6 C 70.6 23.1 71.7 22.6 71.8 22.3 C 71.5 22.0 70.1 22.5 69.9 22.2 C 70.3 21.9 72.1 21.4 70.2 21.5 C 70.8 21.0 69.9 20.7 71.6 20.8 C 71.6 20.8 71.6 20.8 71.6 20.8 Z M 64.8 19.9 C 64.8 19.6 65.5 19.9 64.8 19.9 C 64.8 19.9 64.8 19.9 64.8 19.9 Z M 69.4 25.0 C 69.4 24.6 70.1 25.0 69.4 25.0 C 69.4 25.0 69.4 25.0 69.4 25.0 Z M 64.5 24.6 C 64.5 24.2 65.1 24.6 64.5 24.6 C 64.5 24.6 64.5 24.6 64.5 24.6 Z M 66.6 20.2 C 67.7 20.5 65.7 20.7 65.5 20.4 C 65.8 20.4 66.3 19.9 66.6 20.2 C 66.6 20.2 66.6 20.2 66.6 20.2 Z M 66.7 22.4 C 66.8 22.2 67.3 22.2 67.2 22.6 C 66.9 22.7 66.6 22.5 66.7 22.4 C 66.7 22.4 66.7 22.4 66.7 22.4 Z M 61.4 20.8 C 61.5 20.7 62.0 20.6 61.9 21.0 C 61.6 21.1 61.4 21.0 61.4 20.8 C 61.4 20.8 61.4 20.8 61.4 20.8 Z M 67.8 21.2 C 68.1 21.3 68.2 21.6 67.8 21.6 C 67.7 21.5 66.9 21.4 67.8 21.2 C 67.8 21.2 67.8 21.2 67.8 21.2 Z M 69.5 19.9 C 70.4 20.1 68.6 20.7 68.6 20.5 C 68.3 20.2 69.0 19.6 69.5 19.9 C 69.5 19.9 69.5 19.9 69.5 19.9 Z M 68.3 21.7 C 69.1 21.9 68.0 22.0 68.3 21.7 C 68.3 21.7 68.3 21.7 68.3 21.7 Z M 62.2 23.6 C 62.9 23.8 61.8 23.9 62.2 23.6 C 62.2 23.6 62.2 23.6 62.2 23.6 Z M 66.1 24.8 C 66.8 25.0 65.8 25.1 66.1 24.8 C 66.1 24.8 66.1 24.8 66.1 24.8 Z M 64.6 20.9 C 63.3 20.9 64.4 20.0 64.6 20.9 C 64.6 20.9 64.6 20.9 64.6 20.9 Z M 71.5 19.8 C 70.2 19.8 71.4 18.9 71.5 19.8 C 71.5 19.8 71.5 19.8 71.5 19.8 Z M 119.0 20.2 C 120.2 20.0 115.5 18.7 117.3 20.2 C 117.8 21.4 114.7 21.3 115.5 20.2 C 114.5 20.1 114.5 20.0 114.0 20.6 C 113.9 19.7 111.7 19.2 110.9 19.7 C 110.5 20.4 112.4 19.8 111.2 20.6 C 108.4 20.8 111.3 21.5 110.3 22.5 C 110.2 22.5 110.1 22.0 109.9 22.3 C 109.8 23.2 111.4 23.9 110.7 24.6 C 111.1 24.4 113.0 25.5 112.2 24.6 C 111.9 23.7 114.4 25.7 114.2 24.2 C 114.8 24.9 115.5 24.0 116.1 24.8 C 116.6 25.0 116.6 24.2 116.5 24.0 C 116.5 23.3 117.1 25.6 117.9 24.4 C 118.0 24.7 120.1 24.6 118.5 24.0 C 119.0 24.1 121.5 24.5 120.2 23.1 C 118.4 22.5 122.0 21.8 119.9 21.7 C 118.3 21.6 118.0 21.8 119.2 21.1 C 119.6 21.2 121.4 21.1 119.8 20.5 C 119.5 20.7 118.8 20.5 119.0 20.2 C 119.0 20.2 119.0 20.2 119.0 20.2 Z M 119.3 22.1 C 118.4 22.2 119.2 21.6 119.3 22.1 C 119.3 22.1 119.3 22.1 119.3 22.1 Z M 116.0 25.1 C 115.1 25.2 115.9 24.6 116.0 25.1 C 116.0 25.1 116.0 25.1 116.0 25.1 Z M 116.1 19.8 C 115.7 20.3 115.5 18.9 116.1 19.8 C 116.1 19.8 116.1 19.8 116.1 19.8 Z M 117.5 24.0 C 117.5 24.0 117.7 23.8 117.8 23.8 C 117.8 23.8 117.6 24.0 117.5 24.0 C 117.5 24.0 117.5 24.0 117.5 24.0 Z M 114.6 19.8 C 113.2 20.5 114.3 18.8 114.6 19.8 C 114.6 19.8 114.6 19.8 114.6 19.8 Z M 111.8 21.1 C 111.7 22.5 110.4 20.9 111.8 21.1 C 111.8 21.1 111.8 21.1 111.8 21.1 Z M 113.7 24.2 C 114.0 23.9 114.0 24.3 113.7 24.2 C 113.7 24.2 113.7 24.2 113.7 24.2 Z M 119.7 24.4 C 119.9 24.1 119.9 24.5 119.7 24.4 C 119.7 24.4 119.7 24.4 119.7 24.4 Z M 112.0 24.0 C 112.1 23.5 112.5 24.3 112.0 24.0 C 112.0 24.0 112.0 24.0 112.0 24.0 Z M 115.9 20.4 C 117.1 19.3 117.4 22.0 115.9 20.4 C 115.9 20.4 115.9 20.4 115.9 20.4 Z M 118.1 20.3 C 118.9 20.1 117.9 21.0 117.6 20.8 C 117.6 20.7 118.0 20.3 118.1 20.3 C 118.1 20.3 118.1 20.3 118.1 20.3 Z M 114.5 20.5 C 115.4 20.0 115.3 20.8 114.5 20.5 C 114.5 20.5 114.5 20.5 114.5 20.5 Z M 116.7 19.9 C 117.1 20.0 116.4 20.1 116.7 19.9 C 116.7 19.9 116.7 19.9 116.7 19.9 Z M 112.9 19.4 C 113.3 19.5 112.5 19.5 112.9 19.4 C 112.9 19.4 112.9 19.4 112.9 19.4 Z M 119.1 19.7 C 119.6 19.8 118.8 19.9 119.1 19.7 C 119.1 19.7 119.1 19.7 119.1 19.7 Z M 113.2 20.1 C 113.1 20.6 114.3 21.7 112.1 20.8 C 111.7 20.4 112.7 19.7 113.2 20.1 C 113.2 20.1 113.2 20.1 113.2 20.1 Z M 75.4 20.8 C 70.0 19.3 71.3 21.9 71.0 22.4 C 70.3 23.2 71.0 23.6 72.1 24.1 C 73.2 25.8 73.8 22.4 74.6 24.1 C 76.0 26.4 76.2 22.1 76.8 24.5 C 76.6 25.1 78.7 24.6 78.5 24.5 C 79.6 25.6 81.1 23.6 81.1 23.4 C 81.8 23.7 81.8 25.8 84.0 24.2 C 85.7 23.6 86.4 25.8 86.0 24.3 C 87.2 25.9 86.8 23.8 88.0 24.4 C 88.9 25.3 88.1 23.0 89.6 24.7 C 90.3 23.3 88.9 25.6 93.0 24.6 C 91.0 24.5 95.0 23.5 94.2 24.5 C 92.8 25.5 96.1 24.1 98.0 24.7 C 98.5 24.2 100.8 22.9 100.4 24.3 C 102.4 25.9 102.4 23.3 103.2 24.6 C 103.9 25.2 104.1 24.0 104.6 24.1 C 105.2 25.1 105.9 24.4 108.3 24.7 C 113.6 25.2 109.1 22.2 111.1 21.9 C 111.4 21.4 108.5 18.2 109.7 20.6 C 109.3 19.9 105.0 22.4 107.1 19.8 C 105.5 20.9 107.5 18.7 104.1 20.0 C 108.7 21.8 99.0 20.7 103.3 19.8 C 102.6 19.3 100.8 19.4 102.1 19.8 C 102.6 21.5 99.0 19.1 100.8 21.1 C 98.0 20.5 98.7 22.4 98.0 21.1 C 97.3 18.9 98.1 21.7 96.7 21.0 C 93.4 21.0 95.9 18.5 93.9 20.1 C 90.7 19.0 93.2 21.1 92.1 21.4 C 91.8 22.9 88.8 20.2 91.3 20.0 C 90.0 20.8 91.1 19.3 89.6 20.3 C 90.7 21.7 87.7 18.7 88.1 19.9 C 86.8 20.2 87.5 21.1 87.1 21.1 C 85.1 21.1 85.7 19.7 85.3 20.8 C 84.9 21.4 83.9 19.5 83.7 20.0 C 85.7 20.1 82.0 21.5 81.8 20.7 C 83.1 20.6 81.2 18.8 80.4 20.0 C 81.4 23.1 78.6 19.2 77.7 20.3 C 78.6 22.0 73.3 20.5 75.3 19.7 C 75.2 19.8 75.4 20.8 75.4 20.8 M 83.1 20.2 C 84.8 20.4 81.3 20.6 83.1 20.2 M 83.0 19.8 C 83.8 20.4 81.5 19.3 83.1 19.6 C 83.1 19.6 82.9 19.7 83.0 19.8 M 89.9 19.7 C 89.7 20.2 89.0 19.4 89.9 19.7 M 91.2 20.8 C 92.3 21.2 89.7 20.9 91.2 20.8 M 106.4 20.4 C 104.9 23.0 104.8 19.0 106.4 20.4 M 96.4 19.9 C 94.5 20.3 97.0 18.8 96.4 19.9 M 95.8 20.6 C 95.0 21.0 95.6 20.0 95.8 20.6 M 103.5 20.4 C 103.7 20.5 103.7 20.5 103.5 20.4 C 103.5 20.4 103.5 20.4 103.5 20.4 Z M 108.0 20.5 C 108.1 20.5 108.1 20.5 108.0 20.5 C 108.0 20.5 108.0 20.5 108.0 20.5 Z M 99.2 20.7 C 97.8 20.1 101.4 20.5 99.2 20.7 C 99.2 20.7 99.2 20.7 99.2 20.7 Z M 105.9 24.4 C 105.8 24.5 105.8 24.5 105.9 24.4 C 105.9 24.4 105.9 24.4 105.9 24.4 Z M 81.8 21.4 C 81.7 21.4 81.7 21.4 81.8 21.4 C 81.8 21.4 81.8 21.4 81.8 21.4 Z M 76.7 20.4 C 76.7 20.8 75.7 20.2 76.7 20.4 C 76.7 20.4 76.7 20.4 76.7 20.4 Z M 72.5 23.4 C 72.5 23.4 72.5 23.4 72.5 23.4 C 72.5 23.4 72.5 23.4 72.5 23.4 Z M 80.1 22.8 C 80.0 22.8 80.0 22.8 80.1 22.8 C 80.1 22.8 80.1 22.8 80.1 22.8 Z M 80.8 20.8 C 80.0 19.4 82.8 21.2 80.8 20.8 C 80.8 20.8 80.8 20.8 80.8 20.8 Z M 97.4 24.3 C 97.5 23.6 98.6 24.5 97.4 24.3 C 97.4 24.3 97.4 24.3 97.4 24.3 Z M 91.4 21.3 C 91.6 21.0 92.2 21.5 91.4 21.3 C 91.4 21.3 91.4 21.3 91.4 21.3 Z M 88.6 19.4 C 88.8 19.1 89.3 19.6 88.6 19.4 C 88.6 19.4 88.6 19.4 88.6 19.4 Z M 76.8 20.0 C 76.9 20.0 76.9 20.0 76.8 20.0 C 76.8 20.0 76.8 20.0 76.8 20.0 Z M 78.6 21.1 C 77.3 19.8 80.5 21.8 78.6 21.1 C 78.6 21.1 78.6 21.1 78.6 21.1 Z M 76.4 21.5 C 77.1 22.0 74.8 21.3 76.4 21.5 M 77.7 23.5 C 79.2 23.0 76.3 25.9 77.7 23.5 C 77.7 23.5 77.7 23.5 77.7 23.5 Z M 85.6 24.0 C 85.7 24.1 85.7 24.1 85.6 24.0 C 85.6 24.0 85.6 24.0 85.6 24.0 Z M 84.7 20.2 C 86.1 20.2 83.8 20.5 84.7 20.2 C 84.7 20.2 84.7 20.2 84.7 20.2 Z M 72.8 19.9 C 74.2 19.9 71.9 20.2 72.8 19.9 C 72.8 19.9 72.8 19.9 72.8 19.9 Z M 90.1 22.8 C 92.4 22.5 88.8 23.5 90.1 22.8 C 90.1 22.8 90.1 22.8 90.1 22.8 Z M 98.4 21.2 C 98.4 21.3 98.4 21.3 98.4 21.2 C 98.4 21.2 98.4 21.2 98.4 21.2 Z M 99.9 20.7 C 100.0 20.7 100.0 20.7 99.9 20.7 C 99.9 20.7 99.9 20.7 99.9 20.7 Z M 106.3 22.0 C 106.4 22.1 106.4 22.1 106.3 22.0 C 106.3 22.0 106.3 22.0 106.3 22.0 Z M 101.3 20.0 C 101.3 20.1 101.3 20.1 101.3 20.0 C 101.3 20.0 101.3 20.0 101.3 20.0 Z M 105.7 20.4 C 105.8 20.4 105.8 20.4 105.7 20.4 C 105.7 20.4 105.7 20.4 105.7 20.4 Z M 105.1 19.2 C 105.2 19.3 105.2 19.3 105.1 19.2 C 105.1 19.2 105.1 19.2 105.1 19.2 Z M 95.3 25.0 C 95.4 25.1 95.4 25.1 95.3 25.0 C 95.3 25.0 95.3 25.0 95.3 25.0 Z M 79.2 19.6 C 79.3 19.7 79.3 19.7 79.2 19.6 C 79.2 19.6 79.2 19.6 79.2 19.6 Z M 105.4 20.9 C 105.4 20.9 105.4 20.9 105.4 20.9 C 105.4 20.9 105.4 20.9 105.4 20.9 Z M 94.6 21.9 C 94.6 23.1 93.7 20.5 94.8 21.9 C 94.8 22.0 94.5 21.8 94.6 21.9 M 96.0 23.8 C 96.0 23.9 96.0 23.9 96.0 23.8 C 96.0 23.8 96.0 23.8 96.0 23.8 Z M 91.1 24.5 C 91.1 24.6 91.1 24.6 91.1 24.5 C 91.1 24.5 91.1 24.5 91.1 24.5 Z M 100.5 19.8 C 100.3 19.2 101.7 20.3 100.3 19.8 M 106.3 24.0 C 106.1 23.4 107.5 24.5 106.1 24.0 M 71.3 20.3 C 71.1 20.8 70.4 20.0 71.3 20.3 M 90.0 25.1 C 89.9 25.6 89.1 24.8 90.0 25.1 M 92.3 23.7 C 92.1 23.0 93.5 24.2 92.1 23.7 M 103.0 24.0 C 103.0 24.0 103.0 24.0 103.0 24.0 C 103.0 24.0 103.0 24.0 103.0 24.0 Z M 86.8 20.3 C 86.9 20.3 86.9 20.3 86.8 20.3 C 86.8 20.3 86.8 20.3 86.8 20.3 Z M 92.8 21.6 C 92.0 20.8 93.8 22.2 92.8 21.6 M 85.1 21.8 C 83.9 20.7 87.0 22.2 85.1 21.8 M 108.9 24.3 C 107.5 23.0 109.8 25.0 108.9 24.3 M 102.3 21.0 C 101.0 19.7 103.3 21.7 102.3 21.0 M 88.0 20.9 C 87.9 20.2 89.3 21.3 88.0 20.9 M 74.4 20.2 C 73.1 20.1 76.0 19.7 74.4 20.2 M 99.7 24.0 C 99.8 24.1 99.8 24.1 99.7 24.0 C 99.7 24.0 99.7 24.0 99.7 24.0 Z M 78.5 25.1 C 78.6 25.2 78.6 25.2 78.5 25.1 C 78.5 25.1 78.5 25.1 78.5 25.1 Z M 110.6 20.0 C 110.6 20.1 110.6 20.1 110.6 20.0 C 110.6 20.0 110.6 20.0 110.6 20.0 Z M 101.5 21.6 C 101.5 21.7 101.5 21.7 101.5 21.6 C 101.5 21.6 101.5 21.6 101.5 21.6 Z M 108.0 19.8 C 108.1 19.9 108.1 19.9 108.0 19.8 C 108.0 19.8 108.0 19.8 108.0 19.8 Z M 97.4 22.6 C 97.4 22.7 97.4 22.7 97.4 22.6 C 97.4 22.6 97.4 22.6 97.4 22.6 Z M 96.5 19.3 C 96.6 19.4 96.6 19.4 96.5 19.3 C 96.5 19.3 96.5 19.3 96.5 19.3 Z M 92.0 20.7 C 92.0 20.8 92.0 20.8 92.0 20.7 C 92.0 20.7 92.0 20.7 92.0 20.7 Z M 98.6 19.6 C 101.3 19.4 97.2 20.7 98.6 19.6 C 98.6 19.6 98.6 19.6 98.6 19.6 Z M 93.9 22.9 C 93.9 22.9 93.9 22.9 93.9 22.9 C 93.9 22.9 93.9 22.9 93.9 22.9 Z M 93.5 20.6 C 95.2 19.6 94.5 22.2 93.5 20.6 M 86.0 19.8 C 86.5 19.3 86.3 20.6 86.0 19.8 M 83.0 24.1 C 83.0 24.2 83.0 24.2 83.0 24.1 C 83.0 24.1 83.0 24.1 83.0 24.1 Z M 83.8 23.8 C 83.9 23.8 83.9 23.8 83.8 23.8 C 83.8 23.8 83.8 23.8 83.8 23.8 Z M 84.2 19.6 C 84.2 19.6 84.2 19.6 84.2 19.6 C 84.2 19.6 84.2 19.6 84.2 19.6 Z M 83.9 25.0 C 84.0 25.0 84.0 25.0 83.9 25.0 C 83.9 25.0 83.9 25.0 83.9 25.0 Z M 95.5 19.4 C 95.5 19.4 95.5 19.4 95.5 19.4 C 95.5 19.4 95.5 19.4 95.5 19.4 Z M 109.3 19.4 C 109.4 19.4 109.4 19.4 109.3 19.4 C 109.3 19.4 109.3 19.4 109.3 19.4 Z M 74.8 23.7 C 74.9 23.7 74.9 23.7 74.8 23.7 C 74.8 23.7 74.8 23.7 74.8 23.7 Z M 96.9 20.7 C 97.0 20.8 97.0 20.8 96.9 20.7 C 96.9 20.7 96.9 20.7 96.9 20.7 Z M 81.1 23.9 C 81.1 24.0 81.1 24.0 81.1 23.9 C 81.1 23.9 81.1 23.9 81.1 23.9 Z M 96.0 20.5 C 96.1 20.5 96.1 20.5 96.0 20.5 C 96.0 20.5 96.0 20.5 96.0 20.5 Z M 99.3 24.3 C 99.3 24.3 99.3 24.3 99.3 24.3 C 99.3 24.3 99.3 24.3 99.3 24.3 Z M 102.3 25.0 C 102.3 25.0 102.3 25.0 102.3 25.0 C 102.3 25.0 102.3 25.0 102.3 25.0 Z M 99.1 22.0 C 99.1 22.0 99.1 22.0 99.1 22.0 C 99.1 22.0 99.1 22.0 99.1 22.0 Z M 80.1 22.5 C 74.6 21.4 84.4 22.0 80.1 22.5 M 100.0 22.3 C 96.2 22.0 103.1 21.0 100.0 22.3 C 100.4 21.9 100.1 22.2 100.0 22.3 " fill="#85878C"></path><path d="M 119.4 35.5 C 119.2 36.0 117.7 36.6 118.7 35.5 C 118.8 35.5 119.4 35.3 119.4 35.5 Z M 121.7 34.1 C 121.6 34.2 121.4 34.3 121.2 34.2 C 120.7 33.9 122.4 33.7 121.7 34.1 Z M 118.0 35.7 C 117.9 35.8 117.2 36.3 117.2 36.0 C 117.3 35.8 118.0 35.6 118.0 35.7 Z M 123.4 31.9 C 123.5 32.1 122.6 32.5 122.5 32.5 C 121.9 32.5 123.2 31.4 123.4 31.9 Z M 116.8 27.8 C 116.8 27.7 116.8 27.7 116.8 27.6 C 116.8 27.7 116.8 27.8 116.8 27.8 Z M 134.8 25.7 C 134.7 25.8 134.3 25.8 134.3 25.6 C 134.2 25.4 135.2 25.4 134.8 25.7 Z M 116.3 12.0 C 116.3 12.0 116.2 12.4 116.0 12.2 C 115.9 12.1 116.2 11.9 116.3 12.0 Z M 116.0 12.0 C 115.9 12.1 115.8 11.8 115.9 11.8 C 116.2 11.9 116.2 12.0 116.0 12.0 Z M 128.8 15.4 C 128.9 15.4 129.0 15.4 128.9 15.5 C 128.8 15.5 128.7 15.3 128.8 15.4 Z M 128.3 15.5 C 128.1 15.6 128.1 15.2 128.3 15.2 C 128.5 15.3 128.6 15.3 128.3 15.5 Z M 126.6 13.0 C 126.7 13.0 126.8 13.0 126.7 13.1 C 126.5 13.1 126.4 12.9 126.6 13.0 Z M 115.7 18.5 C 115.6 18.4 115.7 17.9 115.9 18.0 C 116.2 18.0 115.8 18.7 115.7 18.5 Z M 115.5 17.9 C 115.4 17.9 115.3 17.6 115.5 17.7 C 115.6 17.7 115.7 17.8 115.5 17.9 Z M 115.9 19.9 C 116.2 19.9 116.2 20.5 116.1 20.6 C 116.1 20.7 116.0 20.9 115.9 21.1 C 115.9 21.2 115.6 19.9 115.9 19.9 Z M 116.2 24.1 C 116.1 24.1 116.0 24.1 116.1 23.9 C 116.2 23.7 116.3 24.1 116.2 24.1 Z M 116.0 21.7 C 115.9 21.7 115.9 21.7 116.0 21.5 C 116.1 21.3 116.1 21.7 116.0 21.7 Z M 128.2 29.7 C 128.3 29.8 127.6 30.0 127.6 30.0 C 127.5 30.0 127.7 29.9 127.6 29.9 C 127.3 29.9 127.5 29.3 128.2 29.7 Z M 123.1 33.2 C 122.9 33.3 122.8 33.2 122.8 33.1 C 122.8 33.1 123.4 32.9 123.1 33.2 Z M 126.9 29.5 C 127.0 29.5 126.8 29.6 126.8 29.5 C 126.7 29.5 126.9 29.4 126.9 29.5 Z M 127.3 29.1 C 127.2 29.2 126.8 29.2 126.7 29.0 C 126.7 28.7 127.7 28.7 127.3 29.1 Z M 129.0 29.5 C 128.8 29.6 128.8 29.6 128.9 29.5 C 129.0 29.3 129.0 29.5 129.0 29.5 Z M 126.1 31.6 C 125.9 31.7 125.9 31.7 126.0 31.6 C 126.1 31.4 126.1 31.6 126.1 31.6 Z M 130.2 28.3 C 130.2 28.3 130.0 28.7 129.7 28.4 C 129.3 28.0 130.2 28.2 130.2 28.3 Z M 132.1 26.5 C 132.0 26.6 131.9 26.4 132.1 26.4 C 132.3 26.3 132.3 26.5 132.1 26.5 Z M 132.5 25.3 C 132.8 25.3 133.1 25.3 132.7 25.5 C 132.3 25.7 132.2 25.4 132.5 25.3 Z M 132.2 25.7 C 132.1 25.7 132.3 25.6 132.3 25.6 C 132.4 25.7 132.2 25.8 132.2 25.7 Z M 130.7 27.3 C 130.5 27.6 130.2 27.5 130.4 27.2 C 130.7 27.0 130.8 27.1 130.7 27.3 Z M 115.7 30.0 C 115.8 30.2 115.5 30.1 115.4 30.0 C 115.3 29.9 115.6 29.8 115.7 30.0 Z M 116.7 20.9 C 116.5 21.0 116.5 20.9 116.6 20.7 C 116.6 20.4 116.8 20.8 116.7 20.9 Z M 117.1 15.1 C 117.0 15.3 117.0 15.1 117.0 14.9 C 117.1 14.7 117.3 15.0 117.1 15.1 Z M 116.7 23.2 C 116.6 23.3 116.1 22.7 116.5 22.3 C 116.9 22.0 117.0 23.0 116.7 23.2 Z M 121.3 28.9 C 121.3 29.0 121.2 29.0 121.2 29.0 C 121.2 28.8 121.2 28.8 121.3 28.9 Z M 117.4 21.9 C 117.4 22.0 117.2 22.0 117.1 21.9 C 117.0 21.8 117.3 21.7 117.4 21.9 Z M 116.8 16.2 C 116.7 16.4 116.3 16.3 116.2 16.1 C 115.8 15.6 116.3 15.3 116.5 15.0 C 116.7 14.7 116.9 16.0 116.8 16.2 Z M 116.6 31.4 C 116.6 31.3 116.7 31.1 116.7 31.0 C 116.6 31.0 116.6 30.9 116.7 30.8 C 116.6 30.2 116.1 29.8 116.0 29.5 C 115.6 28.6 116.7 28.3 116.8 27.8 C 116.8 28.0 116.8 28.1 116.9 28.2 C 117.2 28.4 117.1 26.4 117.1 26.2 C 116.8 24.5 116.5 26.6 115.9 26.6 C 115.7 26.6 116.3 25.4 116.4 25.3 C 116.6 24.8 116.0 24.7 116.3 24.2 C 116.4 24.0 117.7 23.4 117.5 23.2 C 117.4 23.0 117.5 22.5 117.5 22.3 C 117.5 22.0 117.5 21.4 117.0 21.7 C 116.6 21.9 116.3 22.0 116.6 21.6 C 116.8 21.3 117.7 19.2 116.7 19.3 C 116.6 19.3 116.3 19.8 116.3 19.8 C 116.1 19.2 116.4 17.5 116.0 17.1 C 115.2 16.2 116.6 17.4 116.8 16.9 C 117.3 16.2 117.6 15.7 117.4 14.7 C 117.3 14.5 117.3 13.6 116.8 14.0 C 116.5 14.4 116.2 14.1 116.1 14.7 C 115.6 14.0 116.5 13.6 116.4 13.5 C 116.1 13.3 115.9 13.7 116.0 13.2 C 116.0 12.6 115.9 12.9 116.4 12.8 C 116.5 12.7 116.6 12.2 116.6 12.2 C 116.7 12.2 116.7 12.2 116.8 12.2 C 116.7 11.8 115.8 11.1 116.0 10.9 C 116.2 10.8 116.8 11.1 117.0 11.1 C 117.0 11.0 117.0 11.0 117.1 11.0 C 117.0 10.7 116.6 10.3 116.7 10.2 C 116.8 10.1 117.6 10.5 117.4 10.3 C 117.1 10.0 117.4 9.0 117.7 9.0 C 118.0 8.9 119.1 8.6 119.2 8.4 C 119.3 8.3 119.8 8.6 120.0 8.7 C 120.2 8.8 120.3 9.2 120.3 9.3 C 120.4 9.4 120.8 9.6 120.8 9.6 C 120.8 9.6 121.1 9.6 121.4 9.8 C 121.8 10.0 121.9 10.3 122.2 10.7 C 122.6 11.1 122.9 10.9 123.3 11.1 C 123.7 11.3 123.7 12.1 124.0 12.4 C 124.3 12.7 124.6 12.2 125.1 12.4 C 125.5 12.6 125.7 12.9 125.5 12.9 C 125.3 12.9 125.4 13.1 125.5 13.2 C 125.6 13.2 126.0 13.7 126.2 13.7 C 126.5 13.7 125.4 12.5 127.0 13.6 C 127.8 14.1 128.1 14.9 127.8 14.8 C 127.2 14.5 128.0 16.0 128.2 15.8 C 128.3 15.5 129.7 16.4 129.6 15.8 C 129.6 15.6 131.0 16.2 131.2 16.4 C 131.3 16.6 132.0 16.9 132.0 17.4 C 131.9 17.7 133.0 17.6 133.2 17.7 C 133.4 17.8 134.4 18.5 134.6 18.8 C 134.7 19.0 134.2 18.7 134.0 18.6 C 133.7 18.4 133.5 18.0 133.3 17.9 C 133.1 17.9 133.4 18.3 133.6 18.5 C 133.9 18.7 133.8 18.9 134.0 19.2 C 134.1 19.2 134.3 19.3 134.5 19.5 C 134.6 19.5 134.7 19.5 134.7 19.4 C 134.8 19.3 134.7 19.1 134.8 19.1 C 134.9 19.0 135.1 19.0 135.5 19.2 C 135.8 19.4 136.1 19.6 136.4 20.0 C 136.8 20.4 137.0 20.4 137.3 20.5 C 137.6 20.7 137.9 20.9 137.8 21.0 C 137.8 21.1 137.4 20.9 137.3 21.0 C 137.2 21.0 137.5 21.5 137.6 21.6 C 138.4 22.2 137.3 22.5 138.1 23.1 C 138.5 23.4 137.9 23.4 137.4 23.5 C 137.5 23.6 137.5 23.7 137.2 23.9 C 137.2 24.1 136.6 24.3 136.4 24.4 C 136.2 24.6 135.3 25.4 135.8 24.7 C 135.8 24.7 135.9 24.6 135.9 24.6 C 135.9 24.6 135.9 24.6 135.9 24.6 C 135.9 24.6 135.9 24.0 135.9 24.0 C 135.9 24.0 135.9 24.6 135.8 24.6 C 135.6 24.5 135.4 24.4 135.3 24.3 C 135.3 24.4 135.2 24.5 135.2 24.5 C 135.2 24.6 135.2 24.6 135.2 24.6 C 135.2 24.6 135.2 24.6 135.2 24.6 C 135.3 24.8 135.3 24.8 135.1 24.8 C 134.8 25.2 133.8 25.4 133.4 25.5 C 133.8 24.1 132.2 25.1 131.8 25.5 C 131.3 26.0 132.0 27.0 132.2 26.9 C 131.8 27.1 131.7 27.0 131.4 26.8 C 131.4 26.8 130.6 26.4 130.6 26.4 C 129.5 26.6 130.2 27.3 130.1 27.6 C 129.9 27.8 129.6 28.0 129.4 28.3 C 129.1 28.5 129.5 28.5 129.5 28.7 C 129.4 29.3 128.3 28.9 128.0 29.0 C 128.2 28.8 128.4 28.6 128.5 28.3 C 128.3 28.7 127.8 28.3 127.7 28.3 C 127.3 28.4 127.0 28.7 126.7 28.9 C 126.2 29.2 125.8 29.6 125.3 30.0 C 125.5 30.0 126.6 30.1 126.7 30.1 C 126.5 30.2 125.9 30.3 126.4 30.6 C 127.1 31.1 125.6 31.5 125.4 31.6 C 124.6 31.9 124.3 33.0 123.2 32.7 C 123.2 32.7 124.1 31.9 124.0 31.8 C 123.4 31.4 123.0 31.2 122.4 31.8 C 122.3 31.9 121.6 32.9 121.6 33.0 C 121.6 32.9 123.4 33.7 122.2 33.7 C 122.0 33.7 122.2 33.3 121.9 33.3 C 121.6 33.4 121.2 33.7 120.9 33.9 C 120.8 33.9 120.2 34.0 120.2 34.1 C 120.1 34.3 120.3 34.6 120.1 34.8 C 120.0 35.0 119.7 35.0 119.5 34.8 C 119.5 34.8 119.5 34.8 119.5 34.8 C 119.4 34.8 119.4 34.8 119.3 34.6 C 119.2 34.7 119.1 34.8 118.9 34.7 C 118.8 34.7 119.0 34.5 119.2 34.5 C 119.2 34.4 119.2 34.4 119.2 34.3 C 118.9 34.5 118.7 34.7 118.6 34.7 C 118.4 35.3 118.5 35.5 117.5 35.4 C 116.7 35.3 116.2 33.4 116.5 32.2 C 116.4 32.0 116.4 31.8 116.6 31.4 Z M 134.9 20.1 C 134.8 20.1 134.8 20.0 134.8 20.0 C 134.7 20.1 134.7 20.2 134.6 20.3 C 134.8 20.5 134.7 20.1 134.9 20.3 C 135.1 20.5 135.1 20.4 134.9 20.1 Z M 134.7 22.7 C 134.9 22.7 134.9 22.6 134.8 22.5 C 134.7 22.6 134.7 22.6 134.7 22.7 Z M 135.2 23.8 C 135.5 23.5 134.7 23.4 134.3 23.8 C 134.7 23.8 135.0 23.8 135.2 23.8 Z M 134.7 24.7 C 134.7 24.6 134.7 24.5 134.6 24.5 C 134.6 24.3 134.4 24.7 134.3 24.5 C 134.3 24.4 134.6 24.1 134.3 24.1 C 134.2 24.1 134.1 24.1 134.1 24.1 C 134.0 24.2 134.0 24.2 134.0 24.3 C 134.0 24.5 134.4 24.8 134.7 24.7 Z M 132.9 20.0 C 133.1 20.0 133.0 19.9 132.9 19.8 C 132.8 19.8 132.8 19.9 132.9 20.0 Z M 131.6 17.9 C 131.7 18.1 131.9 18.2 131.8 17.9 C 131.8 17.7 131.5 17.7 131.6 17.9 Z M 128.8 20.9 C 128.9 20.9 128.8 20.8 128.7 20.8 C 128.5 20.7 128.7 20.9 128.8 20.9 Z M 128.6 23.0 C 128.5 23.2 128.8 23.4 128.8 23.2 C 128.8 23.1 128.7 22.9 128.6 23.0 Z M 128.9 18.2 C 128.7 18.1 128.8 18.3 128.9 18.3 C 129.1 18.3 129.1 18.2 128.9 18.2 Z M 129.4 21.1 C 129.2 20.8 129.1 20.9 129.1 20.9 C 129.0 21.0 129.0 21.2 129.2 21.3 C 129.5 21.4 129.5 21.3 129.4 21.1 Z M 129.5 22.8 C 129.0 23.1 129.1 23.4 129.7 22.9 C 130.2 22.5 129.8 22.7 129.5 22.8 Z M 130.5 16.5 C 130.6 16.5 130.9 16.6 130.9 16.6 C 130.9 16.6 130.2 16.1 130.5 16.5 Z M 129.4 27.7 C 129.5 27.6 129.6 27.3 129.3 27.5 C 129.0 27.6 129.2 27.8 129.4 27.7 Z M 128.3 26.8 C 128.7 27.1 129.1 27.0 129.1 27.0 C 129.1 27.0 129.0 26.6 129.1 26.5 C 129.3 26.2 130.0 26.3 130.2 25.9 C 130.4 25.4 129.6 25.8 129.4 25.9 C 129.5 25.8 129.5 25.7 129.5 25.6 C 129.4 25.5 129.2 25.5 129.2 25.7 C 129.1 25.9 127.8 26.5 128.3 26.8 Z M 128.3 21.7 C 128.6 21.8 128.8 21.7 128.6 21.4 C 128.4 21.2 128.2 21.1 128.2 21.1 C 128.1 21.2 128.1 21.6 128.3 21.7 Z M 128.1 20.1 C 128.4 20.0 128.3 20.0 128.1 19.9 C 127.8 19.8 127.9 20.2 128.1 20.1 Z M 125.2 13.4 C 125.0 13.4 125.3 13.6 125.4 13.5 C 125.4 13.4 125.3 13.3 125.2 13.4 Z M 125.3 16.0 C 124.9 15.9 125.2 16.3 125.3 16.3 C 125.4 16.3 125.5 16.1 125.3 16.0 Z M 126.9 17.6 C 126.7 17.5 126.8 17.8 127.0 17.8 C 127.1 17.7 127.0 17.6 126.9 17.6 Z M 127.0 18.6 C 126.9 18.5 126.9 18.8 127.1 18.8 C 127.3 18.8 127.2 18.7 127.0 18.6 Z M 126.2 27.3 C 126.2 27.3 126.1 26.9 125.9 27.2 C 125.8 27.5 125.8 27.5 126.2 27.3 Z M 127.0 24.2 C 127.2 24.0 127.4 23.8 127.2 22.9 C 126.9 22.0 126.7 22.4 126.6 22.9 C 126.4 23.4 126.1 22.0 125.8 23.0 C 125.7 23.4 126.7 24.4 127.0 24.2 Z M 125.5 18.7 C 125.8 19.2 126.5 19.1 126.1 18.8 C 125.6 18.4 125.2 18.3 125.5 18.7 Z M 125.4 18.3 C 125.5 18.4 125.5 18.3 125.3 18.2 C 125.2 18.1 125.3 18.3 125.4 18.3 Z M 125.8 31.0 C 126.7 30.3 125.3 30.3 125.3 30.3 C 124.2 30.6 125.0 31.8 125.8 31.0 Z M 117.2 12.7 C 117.2 12.8 117.2 12.8 117.2 12.8 C 117.2 12.8 117.2 12.9 117.2 12.9 C 117.4 13.0 117.5 12.7 117.5 12.7 C 117.4 12.6 117.3 12.6 117.2 12.7 Z M 117.0 18.2 C 117.0 18.0 117.0 17.8 116.8 17.7 C 116.3 17.8 116.3 19.4 117.2 18.8 C 117.3 18.7 118.0 17.6 117.6 17.5 C 117.4 17.5 117.0 18.8 117.0 18.2 Z M 117.7 16.5 C 117.6 17.1 118.3 15.9 118.0 16.1 C 117.8 16.2 117.7 16.3 117.7 16.5 Z M 119.2 11.6 C 118.8 10.7 117.5 10.9 118.2 12.3 C 118.9 13.7 119.5 13.7 119.3 13.0 C 119.1 12.3 119.7 12.9 119.2 11.6 Z M 119.2 18.8 C 118.2 18.6 118.5 19.0 119.2 19.3 C 119.4 19.3 119.8 18.9 119.2 18.8 Z M 119.3 20.8 C 119.2 21.0 119.3 21.0 119.4 20.9 C 119.6 20.7 119.4 20.5 119.3 20.8 Z M 120.5 10.2 C 120.4 9.9 120.0 9.6 120.2 9.6 C 120.4 9.6 120.3 9.6 120.2 9.4 C 120.0 9.1 120.0 9.6 120.0 9.8 C 120.0 10.0 120.6 10.5 120.5 10.2 Z M 123.7 17.9 C 123.5 17.8 123.6 18.0 123.8 18.0 C 123.9 18.0 123.9 17.9 123.7 17.9 Z M 124.7 25.4 C 124.7 25.4 124.6 25.2 124.5 25.4 C 124.4 25.6 124.4 25.6 124.7 25.4 Z M 124.4 31.5 C 124.5 31.3 124.1 31.3 124.2 31.0 C 124.2 30.9 124.3 31.0 124.4 31.1 C 124.3 31.0 124.2 30.3 123.9 30.8 C 123.8 31.0 124.0 31.9 124.4 31.5 Z M 123.4 20.0 C 123.7 20.3 124.0 19.0 124.2 19.2 C 124.5 19.4 124.5 19.3 124.2 19.0 C 123.9 18.7 123.1 19.6 123.4 20.0 Z M 123.2 16.7 C 123.3 16.9 123.9 17.5 123.7 17.1 C 123.6 16.8 123.2 16.6 123.5 16.6 C 123.7 16.6 123.6 16.5 123.4 16.3 C 123.2 16.1 123.2 16.5 123.2 16.7 Z M 123.0 11.4 C 123.1 11.5 123.5 11.7 123.3 11.4 C 123.2 11.2 122.9 11.2 123.0 11.4 Z M 122.7 26.3 C 122.8 26.1 122.7 26.0 122.5 26.2 C 122.2 26.4 122.6 26.5 122.7 26.3 Z M 122.1 11.8 C 122.4 12.2 122.2 11.6 122.4 11.8 C 122.7 12.1 122.7 11.9 122.4 11.6 C 122.1 11.4 121.8 11.5 122.1 11.8 Z M 121.8 31.2 C 121.9 31.1 121.8 30.9 121.7 31.0 C 121.6 31.1 121.8 31.3 121.8 31.2 Z M 121.1 29.2 C 121.2 29.2 121.2 29.1 121.3 29.1 C 122.6 28.2 120.2 28.9 121.1 29.2 Z M 121.3 26.1 C 121.3 26.5 121.6 26.0 121.5 26.0 C 121.4 25.9 121.3 26.0 121.3 26.1 Z M 121.2 22.7 C 121.0 22.6 121.1 23.0 121.3 22.9 C 121.4 22.9 121.4 22.8 121.2 22.7 Z M 120.6 33.7 C 120.8 33.6 120.8 33.5 120.6 33.5 C 120.5 33.5 120.4 33.7 120.6 33.7 Z M 120.5 25.2 C 120.6 25.3 120.6 25.2 120.6 25.1 C 120.5 24.9 120.4 25.1 120.5 25.2 Z M 120.4 14.9 C 120.5 14.9 120.6 15.0 120.7 15.1 C 120.9 15.0 120.9 14.4 121.2 14.4 C 121.2 14.4 121.2 14.4 121.2 14.4 C 121.2 14.4 121.2 14.4 121.2 14.4 C 121.4 14.4 121.5 14.5 121.4 14.5 C 121.4 14.6 121.4 14.7 121.5 14.9 C 121.7 14.7 121.8 14.4 121.6 14.2 C 121.5 14.0 121.0 14.0 120.6 14.0 C 120.6 14.1 120.5 14.3 120.5 14.4 C 120.5 14.4 120.5 14.4 120.5 14.4 C 120.8 14.6 120.8 14.7 120.7 14.7 C 120.6 14.7 120.5 14.7 120.4 14.6 C 120.4 14.7 120.4 14.8 120.4 14.9 Z M 120.0 23.9 C 120.1 24.2 120.2 24.0 120.3 23.6 C 120.4 23.4 119.9 23.6 120.0 23.9 Z M 120.3 33.3 C 120.3 33.2 120.2 33.1 120.1 33.0 C 120.1 33.1 120.1 33.1 120.1 33.2 C 120.1 33.4 120.0 33.5 120.0 33.7 C 120.2 33.7 120.4 33.6 120.3 33.3 Z M 119.3 30.3 C 119.3 30.4 119.3 31.6 119.6 31.4 C 120.0 31.1 120.5 31.6 120.3 30.7 C 120.2 30.3 119.5 29.9 119.4 29.5 C 118.9 27.3 118.8 30.1 118.7 30.6 C 118.7 30.8 119.2 30.2 119.3 30.3 Z M 118.6 27.4 C 118.5 27.3 118.2 27.7 118.2 27.8 C 118.3 28.4 118.9 27.6 118.6 27.4 Z M 118.3 33.6 C 118.3 33.6 118.4 33.6 118.5 33.5 C 118.4 33.5 118.4 33.5 118.3 33.5 C 118.3 33.5 118.3 33.5 118.3 33.6 Z M 118.1 35.1 C 118.7 34.5 117.6 34.6 117.3 34.7 C 116.9 34.9 117.8 35.4 118.1 35.1 Z M 117.6 29.1 C 117.7 28.7 116.4 28.1 116.4 28.9 C 116.5 29.6 117.5 30.0 117.6 29.1 Z M 116.0 24.5 C 116.2 24.7 115.9 25.1 115.7 24.9 C 115.6 24.8 115.9 24.4 116.0 24.5 Z M 115.3 31.3 C 115.4 31.2 115.4 31.3 115.4 31.3 C 115.2 31.4 115.2 31.4 115.3 31.3 Z M 116.2 30.7 C 116.2 30.9 116.1 31.1 116.0 31.3 C 116.0 31.5 115.9 31.0 115.9 31.0 C 115.9 30.8 116.2 30.7 116.2 30.7 Z M 116.4 27.0 C 116.2 27.2 116.2 26.9 116.2 26.8 C 116.3 26.7 116.4 26.9 116.4 27.0 Z M 116.0 27.9 C 116.1 27.8 116.2 27.9 116.2 28.0 C 116.2 28.2 116.0 28.0 116.0 27.9 Z M 116.8 26.4 C 116.9 26.8 117.0 27.3 116.6 27.3 C 116.5 27.2 116.5 25.6 116.8 26.4 Z M 116.8 26.4 " fill="#85878C"></path></g></g></g></svg>